<?xml version="1.0" encoding="utf-8"?>
<!-- Generator: Adobe Illustrator 27.1.0, SVG Export Plug-In . SVG Version: 6.00 Build 0)  -->
<svg version="1.1" id="Layer_1" xmlns="http://www.w3.org/2000/svg" xmlns:xlink="http://www.w3.org/1999/xlink" x="0px" y="0px"
	 viewBox="0 0 152 152" style="enable-background:new 0 0 152 152;" xml:space="preserve">
<style type="text/css">
	.st0{fill:#885C7C;}
	.st1{fill:#909190;}
</style>
<g>
	<path class="st0" d="M44.6,80.4c0,8.1-6.6,14.7-14.7,14.7s-14.7-6.6-14.7-14.7s6.6-14.7,14.7-14.7S44.6,72.3,44.6,80.4z M29.7,71.7
		c-4.9,0-8.8,4-8.8,8.8s4,8.8,8.8,8.8s8.8-4,8.8-8.8S34.6,71.7,29.7,71.7z"/>
	<path class="st1" d="M75.3,59.7c-0.1-1.6-1.4-2.8-3-2.8c-1.6,0-2.9,1.2-3,2.8c0,0.1,0,0.1,0,0.2v8.7c-2.4-1.8-5.4-2.8-8.7-2.8
		c-8.1,0-14.7,6.6-14.7,14.7c0,8.1,6.6,14.7,14.7,14.7c7.9,0,14.4-6.3,14.7-14.2c0,0,0,0,0-0.1v-21C75.3,59.8,75.3,59.8,75.3,59.7z
		 M60.5,89.4c-4.9,0-8.8-4-8.8-8.8c0-4.9,4-8.8,8.8-8.8c4.7,0,8.6,3.7,8.8,8.4c0,0.1,0,0.3,0,0.4c0,0.1,0,0.2,0,0.4
		C69.1,85.6,65.3,89.4,60.5,89.4z"/>
	<path class="st1" d="M75.3,80.4c0,0.2,0,0.3,0,0.5V80C75.3,80.1,75.3,80.3,75.3,80.4z"/>
	<path class="st1" d="M106.1,80.4c0,8.1-6.6,14.7-14.7,14.7s-14.7-6.6-14.7-14.7s6.6-14.7,14.7-14.7S106.1,72.3,106.1,80.4z
		 M91.3,71.7c-4.9,0-8.8,4-8.8,8.8s4,8.8,8.8,8.8c4.9,0,8.8-4,8.8-8.8S96.1,71.7,91.3,71.7z"/>
	<path class="st1" d="M136.8,80.4c0,8.1-6.6,14.7-14.7,14.7s-14.7-6.6-14.7-14.7s6.6-14.7,14.7-14.7S136.8,72.3,136.8,80.4z
		 M122,71.7c-4.9,0-8.8,4-8.8,8.8s4,8.8,8.8,8.8c4.9,0,8.8-4,8.8-8.8S126.9,71.7,122,71.7z"/>
	<path class="st1" d="M69.3,59.7c0,0.1,0,0.1,0,0.2L69.3,59.7L69.3,59.7z"/>
	<path class="st1" d="M69.3,80.2c0,0.1,0,0.3,0,0.4c0,0.1,0,0.2,0,0.4h0V80.2z"/>
	<path class="st1" d="M75.3,59.7v0.2C75.3,59.8,75.3,59.8,75.3,59.7L75.3,59.7z"/>
	<path class="st1" d="M75.3,80.9C75.3,80.9,75.3,80.9,75.3,80.9L75.3,80.9L75.3,80.9z"/>
</g>
</svg>
