<?xml version="1.0" encoding="utf-8"?>
<!-- Generator: Adobe Illustrator 27.1.0, SVG Export Plug-In . SVG Version: 6.00 Build 0)  -->
<svg version="1.1" id="Layer_1" xmlns="http://www.w3.org/2000/svg" xmlns:xlink="http://www.w3.org/1999/xlink" x="0px" y="0px"
	 viewBox="0 0 152 152" style="enable-background:new 0 0 152 152;" xml:space="preserve">
<style type="text/css">
	.st0{fill:#666666;}
	.st1{fill:#FEFEFE;}
	.st2{fill:#FFFFFF;}
</style>
<g>
	<path class="st0" d="M73.2,114.4c-3.3,2.3-7.3,4.2-11.4,4c-6.3,0.5-12.5-1.4-17-6c-2.2-2.1-3.8-4.6-5-7.4c-0.2-0.4-0.4-0.6-0.9-0.5
		c-5.8,1.1-12.1-0.7-16.6-4.5c-5.4-4.5-7.9-11.5-7.1-18.4c0.3-3.1,1.7-5.8,2.9-8.5c1.4-2.7,3.6-4.7,6.1-6.4c0.4-0.3,0.5-0.6,0.3-1.1
		c-2.9-7-1.5-14.9,2.5-21.3c8.2-13.5,28.5-14.7,38.3-2.3c0.5,0.6,0.5,0.6,1.1,0.1c9.4-9.7,26.8-7.2,33.4,4.6
		c0.2,0.4,0.4,0.5,0.8,0.3c2-0.9,4.1-1.4,6.2-1.8c21.2-3.1,36.9,19,27.4,38.1c-4.8,10.1-16.1,15.9-27.1,14.4c-0.9,0.2-1.5,0.2-2,1.1
		c-2.9,4.3-6.8,7.1-11.9,8.3c-4,0.9-8,0.7-11.8-1c-0.7-0.3-0.9-0.2-1.2,0.5C78.4,109.6,76.4,113,73.2,114.4z"/>
	<g>
		<path class="st1" d="M83.6,69.9c-0.5,2.7-0.9,5.3-1.5,8c-0.2,1.2-0.4,2.4-0.9,3.6c-0.8,2.2-3.4,3-5.2,2.3
			c-0.4-0.1-0.4-0.3-0.3-0.7c0.1-0.2,0.2-0.5,0.2-0.7c0.1-0.4,0.3-0.6,0.8-0.5c1.4,0.3,1.9-0.1,2.5-1.4c0.5-1.2,0.5-2.5,0.8-3.7
			c0.4-2.1,0.8-4.2,1.2-6.3c0.1-0.5,0.1-0.8-0.6-0.8c-1.2,0-1.2,0.1-0.9-1.3c0.1-0.4,0.3-0.6,0.7-0.6c0.2,0,0.3,0,0.5,0
			c0.6,0.1,0.8-0.2,0.9-0.7c0.1-0.6,0.2-1.1,0.5-1.6c0.5-1.2,1.3-2,2.6-2.3c0.8-0.1,1.6-0.1,2.4,0c0.5,0,0.6,0.3,0.4,0.8
			c-0.4,1.1-0.4,1.1-1.5,1.1c-1.4,0-1.8,0.3-2.1,1.7c-0.1,0.3-0.1,0.7-0.2,1c0.5,0.2,1,0.1,1.5,0.1c1,0,1,0,0.8,1
			c0,0.3-0.1,0.5-0.1,0.8c-0.5,0.2-1,0-1.5,0.1C84.2,69.9,83.9,69.7,83.6,69.9z"/>
		<path class="st1" d="M72.5,79c-1.1,0-1.9-0.5-2.8-1c-0.2-0.1-0.3-0.4-0.2-0.6c0.1-0.2,0.1-0.4,0.2-0.6c0.3-0.7,0.3-0.8,1-0.4
			c1.1,0.6,2.2,1,3.4,0.9c0.9-0.1,1.4-0.6,1.4-1.5c0-0.5-0.3-0.8-0.7-0.9c-0.7-0.3-1.5-0.5-2.3-0.8c-0.2-0.1-0.4-0.1-0.6-0.2
			c-1.5-0.6-2.2-1.5-2.1-3c0-1.4,0.9-2.5,2.3-3c0.3-0.1,0.5-0.1,0.8-0.2c0.7-0.1,1.4-0.1,2,0c0.7,0.1,1.4,0.3,2.1,0.6
			c0.5,0.2,0.7,0.5,0.4,1c-0.1,0.2-0.1,0.3-0.2,0.5c-0.1,0.5-0.4,0.6-0.8,0.3c-1-0.5-2-0.6-3.1-0.6c-0.6,0-1.2,0.2-1.3,0.9
			c-0.2,0.7,0.3,1,0.8,1.3c0.9,0.4,1.9,0.8,2.9,1.1c1.7,0.7,2.2,1.5,2.1,3.3c-0.1,1.3-1.1,2.3-2.5,2.7c-0.1,0-0.3,0.1-0.4,0.1
			C74,79.1,73.3,79.1,72.5,79z"/>
		<path class="st1" d="M35.9,79c-1.1,0-2-0.5-2.9-1c-0.2-0.1-0.3-0.4-0.2-0.6c0.1-0.2,0.2-0.5,0.2-0.7c0.1-0.5,0.4-0.6,0.8-0.4
			c0.4,0.2,0.8,0.4,1.1,0.6c0.8,0.5,1.6,0.4,2.5,0.4c0.7,0,1.4-0.6,1.4-1.2c0.1-0.7-0.4-1.1-1-1.3c-0.7-0.3-1.4-0.5-2-0.7
			c-0.3-0.1-0.5-0.2-0.8-0.3c-1.6-0.7-2.2-1.7-2.1-3.3c0.1-1.3,1.2-2.5,2.7-2.7c1.6-0.2,3.1-0.2,4.6,0.6c0.4,0.2,0.6,0.5,0.4,0.9
			c-0.4,1-0.4,1-1.5,0.6c-0.3-0.1-0.5-0.2-0.8-0.2c-0.7-0.2-1.4-0.3-2.2-0.1c-0.2,0.1-0.5,0.2-0.6,0.4c-0.6,0.4-0.5,1.1,0,1.5
			c0.4,0.4,1,0.5,1.5,0.7c0.8,0.3,1.5,0.5,2.3,0.8c1.4,0.7,1.8,1.5,1.7,3.1c-0.1,1.3-0.9,2.3-2.2,2.7c-0.3,0.1-0.5,0.1-0.8,0.2
			C37.5,79.1,36.7,79.1,35.9,79z"/>
		<path class="st1" d="M112.4,77c0.2,0,0.3,0,0.4-0.1c0.5-0.2,0.7-0.1,0.8,0.4c0.5,1.2,0.4,1.3-0.8,1.6c-1.4,0.3-2.7,0.4-4-0.1
			c-1.8-0.6-2.7-1.9-3.2-3.7c-0.6-2.2-0.1-4.2,1.4-5.9c0.9-1,2-1.4,3.4-1.4c1,0,2-0.1,2.9,0.2c0.5,0.2,0.7,0.4,0.5,0.9
			c-0.1,0.1-0.1,0.2-0.1,0.4c-0.1,0.5-0.4,0.8-1,0.6c-0.1,0-0.3,0-0.4-0.1c-0.7-0.1-1.5-0.1-2.2,0c-1.5,0.4-1.9,1.5-2.2,2.8
			c-0.3,1.5,0.3,3.3,1.4,4.1c0.2,0.2,0.5,0.3,0.8,0.3C110.9,77.1,111.7,77.1,112.4,77z"/>
		<path class="st1" d="M98.6,78.7c0-3.4,0-6.8,0-10.2c0-0.5,0.2-0.7,0.7-0.7c0.3,0,0.6,0,0.9,0c0.3,0,0.6,0,0.6,0.5
			c0,0.4,0.2,0.4,0.5,0.2c1-0.8,2.1-0.7,3.3-0.6c0.4,0,0.6,0.2,0.5,0.7c-0.4,1.3-0.4,1.3-1.7,1.3c-1.1,0-1.8,0.6-2.1,1.6
			c-0.2,0.5-0.3,1.1-0.2,1.7c0,1.8,0,3.6,0,5.4c-0.1,0.2-0.1,0.4-0.3,0.3C99.9,78.8,99.2,78.9,98.6,78.7z"/>
		<path class="st2" d="M54,78.6c0-4.9,0-9.8,0-14.6c0-0.2,0-0.4,0.1-0.6c0.7-0.1,1.4-0.1,2,0l0,0c0.1,0.2,0.1,0.4,0.1,0.7
			c0,4.7,0,9.3,0,14c0,0.7,0,0.7-0.7,0.7C55,78.8,54.4,79,54,78.6z"/>
		<path class="st2" d="M48.3,71.9c1.1,0.1,1.4-0.3,0.9-1.3c-0.2-0.5-0.6-0.7-1.1-0.8c-0.7-0.1-1.5-0.1-2.2,0c-0.6,0-1.1,0.2-1.6,0.5
			c-0.4,0.2-0.6,0.1-0.8-0.3c-0.1-0.2-0.2-0.5-0.3-0.7c-0.1-0.4,0-0.6,0.3-0.8c1.9-0.8,3.9-1,5.9-0.4c1.3,0.4,2,1.5,2,2.9
			c0.1,1.8,0,3.7,0,5.5c0,0.6,0.1,1.3-0.1,1.9c-2.1,0.6-4.2,1.1-6.4,0.5c-1.7-0.5-2.6-1.5-2.6-2.9c-0.1-2.2,1.2-3.3,2.5-3.8
			c0.4-0.2,0.9-0.2,1.3-0.3C47,71.8,47.6,71.8,48.3,71.9z M48.3,77.2c0.4-0.1,1,0.1,1.1-0.6c0-0.8,0-1.5,0-2.3
			c0-0.3-0.1-0.5-0.4-0.5c-1,0-2-0.2-3,0.1c-0.9,0.3-1.3,0.8-1.2,1.7c0,0.8,0.4,1.4,1.3,1.6C46.9,77.3,47.6,77.2,48.3,77.2z"/>
		<path class="st1" d="M119.4,79c-3.3-0.4-4.5-2.5-4.7-5.2c-0.1-1.7,0.2-3.3,1.4-4.6c1.5-1.6,3.4-1.9,5.4-1.4
			c1.7,0.5,2.6,1.8,2.9,3.6c0.1,0.8,0.1,1.6,0,2.4l0,0c-0.2,0.1-0.4,0.1-0.6,0.1c-1.9,0-3.9,0-5.8,0c-0.2,0-0.4,0-0.7,0.1
			c-0.1,1.8,0.6,2.6,2.6,3.1c0.8,0.2,1.6,0,2.4-0.1c0.2-0.1,0.4-0.1,0.6-0.2c0.5-0.2,0.7-0.1,0.9,0.4c0.4,1.2,0.4,1.3-0.9,1.6
			c-0.4,0.1-0.8,0.1-1.2,0.2C121,79.1,120.2,79.1,119.4,79z M120.9,72.2c0.4,0,0.9,0.1,1.3-0.1c-0.1-1.1-0.4-2.1-1.5-2.4
			c-1.9-0.6-3.2,0.4-3.4,2.4C118.5,72.3,119.7,72.2,120.9,72.2z"/>
		<path class="st1" d="M65.5,77c0.1,0,0.3-0.1,0.4-0.1c1.1-0.3,1.1-0.3,1.5,0.8c0.2,0.5,0.1,0.7-0.4,0.9c-0.6,0.2-1.1,0.4-1.8,0.4
			c-0.8,0.1-1.5,0.1-2.3,0c-2.5-0.2-4.2-1.7-4.6-4.2c-0.2-1.4-0.1-2.8,0.3-4.1c0.7-1.9,2.4-2.9,4.6-3c3.4-0.2,5.3,2.8,4.6,6.2
			c-1.5,0.1-3,0-4.5,0.1c-0.9,0-1.7-0.1-2.6,0.1c0.1,1.9,1.1,3,2.7,3.1C64.1,77.3,64.8,77.1,65.5,77z M65.7,72.2
			c0-1.4-0.7-2.3-1.9-2.5c-1.4-0.2-2.4,0.4-2.8,1.7c-0.1,0.3-0.1,0.5-0.2,0.8C62.4,72.3,64,72.3,65.7,72.2z"/>
		<path class="st1" d="M86.6,72.4c0.4-3.5,2.8-5.2,6.3-4.6c2.1,0.4,3.5,2.1,3.7,4.3c0.1,0.9,0.1,1.7,0,2.6c-0.2,2.4-2,4.2-4.5,4.4
			c-2.3,0.2-4.5-1-5.2-3.4c-0.1-0.4-0.2-0.9-0.3-1.3C86.5,73.8,86.5,73.1,86.6,72.4z M93.8,70.9c-0.5-0.9-1.2-1.2-2.2-1.2
			c-1,0-1.7,0.4-2.1,1.2c-0.8,1.7-0.8,3.5,0,5.2c0.4,0.8,1,1.3,1.8,1.2c1,0,2.1-0.2,2.5-1.4c0.3-0.8,0.5-1.6,0.4-2.5
			C94.4,72.5,94.2,71.7,93.8,70.9z"/>
	</g>
</g>
</svg>
