<?xml version="1.0" encoding="utf-8"?>
<!-- Generator: Adobe Illustrator 27.1.0, SVG Export Plug-In . SVG Version: 6.00 Build 0)  -->
<svg version="1.1" id="Layer_1" xmlns="http://www.w3.org/2000/svg" xmlns:xlink="http://www.w3.org/1999/xlink" x="0px" y="0px"
	 viewBox="0 0 152 152" style="enable-background:new 0 0 152 152;" xml:space="preserve">
<style type="text/css">
	.st0{fill:#5F8E3E;}
	.st1{fill:#95BE46;}
</style>
<g>
	<g>
		<path d="M75.9,95.9c1.8,0,3.6,0,5.5,0c-0.1,1.1-0.2,2.1-0.3,3.3c0.5-0.5,0.8-0.8,1.1-1.1c1.4-1.4,3-2.4,5-2.6
			c3.7-0.4,6.5,1.6,7.2,5.4c1,5.9-0.4,11.2-4.7,15.5c-3.2,3.2-7.1,4-11.5,2.4c-0.4,2.1-0.8,4.2-1.2,6.3c-0.2,1.1-0.1,2.5-0.8,3
			c-0.7,0.6-2.1,0.2-3.2,0.3c-1,0-2,0-3.1,0C71.9,117.5,73.9,106.8,75.9,95.9z M88,104.7c0-0.2,0-0.5,0-0.7c-0.1-1.2-0.3-2.5-1.6-3
			c-1.4-0.5-2.6,0-3.5,1.1c-0.7,0.8-1.4,1.8-1.7,2.8c-0.7,2.6-1.1,5.2-1.8,7.8c-0.2,0.8,0.1,1.2,0.8,1.5c1.9,0.8,3.7,0.3,5.2-1.6
			C87.1,110.3,87.8,107.6,88,104.7z"/>
		<path d="M38.1,85.8c-0.8,4.4-1.6,8.6-2.5,13.1c0.5-0.5,0.7-0.7,1-0.9c1.8-1.7,4-2.6,6.5-2.5c2.4,0.1,4.3,1.6,4.5,4
			c0.2,2.1,0,4.3-0.3,6.4c-0.6,4.1-1.5,8.1-2.3,12.1c-0.1,0.8-0.4,1.1-1.2,1.1c-1.8-0.1-3.6,0-5.5,0c0.7-3.6,1.4-7,2-10.5
			c0.3-1.7,0.6-3.4,0.7-5.1c0.1-1,0-2-1-2.5c-1.1-0.5-2.1-0.1-3,0.6c-1.8,1.5-2.6,3.6-3,5.9c-0.7,3.5-1.4,7.1-2,10.6
			c-0.1,0.3-0.2,0.6-0.3,1c-2.1,0-4.2,0-6.5,0c0.5-2.8,1-5.5,1.5-8.2c1.5-8,3-15.9,4.5-23.9c0.2-0.9,0.5-1.1,1.4-1.1
			C34.5,85.8,36.3,85.8,38.1,85.8z"/>
		<path d="M122.1,129.7c-0.6-2-1.2-3.7-1.8-5.6c1-0.5,1.9-0.9,2.8-1.4c0.9-0.6,1.8-1.2,2.5-2c1.5-1.4,2.2-3,1.7-5.3
			c-1.3-6.2-2.4-12.4-3.5-18.6c0-0.2,0-0.5,0-0.8c2.2,0,4.4,0,6.7,0c0.5,5.1,1.1,10.3,1.6,15.7c1.7-4.4,3.2-8.6,4.8-12.7
			c1.1-3,1.1-3,4.4-3c1,0,2,0,3.2,0c-0.1,0.6-0.1,1.1-0.2,1.4c-3.5,7.3-7,14.7-10.7,22c-1.8,3.5-4.3,6.7-7.9,8.7
			C124.6,128.7,123.4,129.1,122.1,129.7z"/>
		<path d="M49.6,109c0.2-3.9,1.8-8.2,6-11.3c2.6-1.9,5.6-2.6,8.9-2.1c3.4,0.6,5.6,2.6,6.5,5.9c1.7,5.8-1.2,13.2-6.3,16.4
			c-2.5,1.6-5.3,2-8.2,1.5C52.1,118.5,49.5,115,49.6,109z M64.9,104.8c-0.1-0.7-0.1-1.5-0.4-2.2c-0.7-2.1-2.9-2.8-4.7-1.4
			c-0.6,0.5-1.1,1-1.5,1.7c-1.5,2.5-2.2,5.2-2,8.1c0.1,1.5,0.6,2.9,2.2,3.4c1.4,0.5,2.8-0.1,3.9-1.7c0.2-0.3,0.5-0.7,0.6-1
			C64.1,109.6,64.7,107.3,64.9,104.8z"/>
		<path d="M111.5,96c0.7-4,1.9-7.7,5.7-9.6c2.6-1.3,5.3-1.4,8.2-0.5c-0.4,1.7-0.8,3.4-1.2,5c-4.2-0.3-5.7,0.9-6.1,5.1
			c1.4,0,2.8,0,4.4,0c-0.3,1.6-0.5,3-0.8,4.5c0,0.2-0.4,0.4-0.7,0.5c-0.6,0.1-1.2,0-1.8,0c-2.1,0-2.1,0-2.5,2.1
			c-0.9,5-1.9,10-2.8,15c-0.2,0.9-0.5,1.2-1.4,1.2c-1.7-0.1-3.5,0-5.4,0c1.1-6.1,2.3-12.1,3.4-18.2c-1,0-1.9,0-3,0
			c0.3-1.7,0.6-3.3,0.9-4.9C109.5,96,110.4,96,111.5,96z"/>
		<path d="M25.3,96.7c-0.5,1.5-1,3-1.5,4.4c-1.3-0.3-2.4-0.6-3.6-0.7c-0.7-0.1-1.4,0-2,0.2c-1.7,0.6-2,2.3-0.7,3.5
			c0.6,0.5,1.4,1,2.1,1.4c2.7,1.7,4.7,3.7,4.1,7.3c-0.5,3.3-2.9,5.7-6.6,6.4c-3.3,0.7-6.6,0.5-9.8-1.3c0.5-1.5,1-3,1.5-4.5
			c1.4,0.4,2.7,0.8,4.1,1.1c0.6,0.1,1.4,0.1,2,0.1c1-0.1,1.9-0.6,2-1.6c0.1-0.8-0.3-1.8-0.8-2.3c-0.8-0.9-2-1.4-3-2.1
			c-4.1-3-4.1-8.4,0.2-11.1c1.5-0.9,3.3-1.4,5-1.8C20.9,95.1,23.7,95.7,25.3,96.7z"/>
		<path d="M95,119.1c1.5-7.8,2.9-15.4,4.4-23.1c2.2,0,4.3,0,6.6,0c-0.4,2.3-0.9,4.6-1.3,6.9c-1,5-1.9,10.1-2.9,15.1
			c-0.1,0.8-0.4,1.2-1.3,1.1C98.7,119,96.9,119.1,95,119.1z"/>
		<path d="M107.3,89.4c0,2.3-1.5,3.8-3.9,3.8c-1.8,0-3.1-1.3-3.1-3.2c0-2.2,1.7-3.8,3.9-3.8C106.1,86.2,107.4,87.5,107.3,89.4z"/>
	</g>
	<g>
		<polygon class="st0" points="85.4,28.5 89.1,32.1 93.7,32.5 99.6,72.4 82.9,76.1 		"/>
		<path class="st1" d="M85.4,28.5l-2.4,47.6l-30.5-5.6L56.5,38c0,0,0.2-0.5,0.7-0.8l5.9-1.9l0,0c0,0,2.4-11.3,9.5-12.8
			c2.2-0.5,3.6,0.3,4.5,1.5c4.4-0.4,5.8,5.1,5.8,5.2l0.1,0L85.4,28.5z M81.2,29.7c0,0-0.8-3.6-3.1-3.9c0.8,2.2,0.7,4.6,0.7,4.6
			L81.2,29.7L81.2,29.7z M76.9,31c0,0,0.2-2.9-0.6-4.9c0,0,0,0,0,0c-3.8,1.8-4.6,6.5-4.6,6.5L76.9,31z M69.4,33.3
			c0,0,1.1-6.8,5.6-8.8c-0.5-0.3-1-0.4-1.8-0.2c-4,0.9-6.1,4.8-8,10.4v0l2.2-0.7L69.4,33.3z M68.2,41.7c-0.6,0.3-1.8,0.8-3,1.9
			c-1.5,1.5-2.9,3.8-3,6.4c-0.2,4.9,3.4,6.1,5,7.9c1.7,1.9,1.1,4-0.6,4.4c-1.7,0.4-4-1.1-5-1.8c-0.6-0.4-0.8,0-0.9,0.4
			c-0.1,0.4-0.6,2-0.7,2.4c-0.2,0.9-0.8,1.3,0.3,2c0.6,0.4,2.8,2.6,6.7,2.7c3.6,0,6.4-1.5,7.6-5.3c0.4-1.4,0.6-3.7,0.2-5.2
			c-0.6-2-2-3.5-3.8-4.8c-2-1.4-2.5-2-2.5-2c-1.2-1.3-0.6-2.7,0.2-3.4c0.6-0.5,1.3-0.5,2.5-0.5c1.3,0,2.3,0.1,3,0.4
			c0.7,0.3,1.1,0.2,1.3-0.4c0.2-0.6,1-3.3,1.5-4.5c0.3-0.9-0.3-1-1.1-1.2C72.6,40.4,69.6,41,68.2,41.7z"/>
	</g>
</g>
</svg>
