<?xml version="1.0" encoding="utf-8"?>
<!-- Generator: Adobe Illustrator 27.1.0, SVG Export Plug-In . SVG Version: 6.00 Build 0)  -->
<svg version="1.1" id="Layer_1" xmlns="http://www.w3.org/2000/svg" xmlns:xlink="http://www.w3.org/1999/xlink" x="0px" y="0px"
	 viewBox="0 0 152 152" style="enable-background:new 0 0 152 152;" xml:space="preserve">
<style type="text/css">
	.st0{fill:#B15C94;}
	.st1{fill:#FFFFFF;}
</style>
<g>
	<g>
		<path d="M87.1,122.5c-1.5,0-2.8,0.1-4,0c-0.3,0-0.6-0.6-0.7-1c-0.4-3-0.7-6-1-9c0-0.2-0.1-0.4-0.3-0.6c-0.1,0.5-0.3,1-0.4,1.4
			c-0.7,2.7-1.4,5.4-2,8.2c-0.2,0.9-0.5,1.3-1.4,1.1c-0.2,0-0.5,0-0.7,0c-1.1,0.2-1.5-0.3-1.7-1.3c-0.8-3.2-1.6-6.4-2.6-9.6
			c-0.1,1-0.3,2.1-0.4,3.1c-0.2,2.3-0.5,4.5-0.7,6.8c-0.1,0.7-0.3,1-1,1c-1.1,0-2.3,0-3.5,0c0.5-3.7,0.9-7.2,1.4-10.7
			c0.2-1.8,0.5-3.6,0.7-5.3c0.1-0.7,0.3-1,1-1c1.3,0,2.7,0,4,0c0.7,0,1,0.3,1.1,0.9c0.4,2.3,0.9,4.5,1.4,6.8
			c0.1,0.3,0.1,0.6,0.4,0.8c0.3-1.4,0.6-2.8,0.9-4.2c0.3-1.2,0.5-2.4,0.9-3.6c0.1-0.3,0.5-0.7,0.8-0.7c1.7-0.1,3.5,0,5.4,0
			C85.6,111.1,86.3,116.7,87.1,122.5z"/>
		<path d="M56,114.1c0.4-1.7,0.7-3.4,1.1-5.1c0.2-0.9,0.4-1.9,0.7-2.8c0.1-0.3,0.6-0.7,0.9-0.7c1.5-0.1,3.1-0.1,4.6,0
			c0.3,0,0.7,0.4,0.8,0.7c0.7,5.1,1.4,10.2,2.1,15.3c0.1,0.7-0.1,1.1-0.8,1c-0.4,0-0.8,0-1.2,0c-2.5,0-2.4,0-2.7-2.5
			c-0.3-2.7-0.6-5.5-1.1-8.2c-0.3,1.2-0.6,2.3-0.9,3.5c-0.5,2.1-1,4.3-1.6,6.4c-0.1,0.3-0.6,0.7-0.9,0.8c-2.3,0.2-2.3,0.2-2.9-2
			c-0.8-3-1.5-5.9-2.5-8.9c-0.2,2-0.4,4.1-0.6,6.1c-0.1,1.4-0.3,2.8-0.4,4.1c0,0.3-0.3,0.7-0.5,0.7c-1.3,0.1-2.5,0-3.9,0
			c0.3-2.3,0.5-4.3,0.8-6.4c0.4-3.2,0.9-6.4,1.2-9.6c0.1-0.9,0.5-1.1,1.3-1.1c1.2,0.1,2.4,0.1,3.6,0c0.8,0,1.2,0.2,1.4,1
			c0.5,2.6,1.1,5.1,1.6,7.6C55.9,114.1,56,114.1,56,114.1z"/>
		<path d="M45.8,113.9c-0.1,2.2-0.5,4.2-1.6,6.1c-2.5,4-10.2,4-12.4-0.9c-1.4-3.3-1.5-6.6-0.3-9.9c1.1-3,3.8-4.5,7.4-4.2
			c3.2,0.2,5.6,2.1,6.3,5.2C45.5,111.4,45.6,112.7,45.8,113.9z M35.5,113.9c0.2,1.3,0.4,2.6,0.7,3.7c0.2,0.9,0.9,1.3,1.8,1.3
			c0.9,0,1.8-0.3,2.1-1.2c0.9-2.5,1-5.1,0-7.6c-0.3-0.9-1.1-1.2-2-1.2c-0.9,0-1.6,0.4-1.9,1.3C35.9,111.5,35.7,112.7,35.5,113.9z"/>
		<path d="M108.7,114.9c1.2,2.5,2.3,4.9,3.6,7.6c-1.6,0-3.1,0-4.5,0c-0.3,0-0.6-0.5-0.8-0.8c-1-2.1-2-4.2-3.2-6.6
			c-0.1,0.5-0.1,0.8-0.1,1c0,1.8,0,3.7,0,5.5c0,0.9-0.3,1.1-1.1,1.1c-0.9-0.1-1.7,0-2.6,0c-0.7,0-1-0.2-1-0.9c0-5.1,0-10.2,0-15.2
			c0-0.3,0.4-0.8,0.7-0.8c2.3,0,4.6,0,6.9,0.2c1.5,0.1,2.9,0.8,3.8,2.1C112.2,110.1,111.6,112.9,108.7,114.9z M103.7,112.7
			c2.2-0.1,3-0.7,2.9-2.1c-0.1-1.3-1.2-1.9-2.9-1.7C103.7,110.2,103.7,111.4,103.7,112.7z"/>
		<path d="M88.4,122.5c0-5.8,0-11.3,0-17c0.9,0,1.7,0,2.5,0c2,0,4,0,5.9,0c0.7,0,0.9,0.2,0.9,0.9c0.1,2.8,0.1,2.8-2.7,2.8
			c-0.6,0-1.2,0-1.8,0c-0.1,0.2-0.2,0.3-0.2,0.4c-0.2,2.6-0.2,2.6,2.4,2.6c0.5,0,1,0,1.5,0c0,1.2,0,2.3,0,3.6c-1,0-2,0-3,0
			c-0.8,0-1.1,0.2-1,1c0.1,0.6,0,1.3,0,2.1c1.3,0,2.5,0,3.6,0c0.8,0,1.1,0.2,1.1,1c0,2.6,0.1,2.6-2.6,2.6
			C93,122.5,90.7,122.5,88.4,122.5z"/>
		<path d="M133.8,109.1c-1.4,0-2.6,0-3.8,0c-0.7,0-1,0.2-0.9,0.9c0,0.7,0,1.3,0,2.1c1.4,0,2.6,0,4,0c0,1.2,0,2.3,0,3.6
			c-1.3,0-2.6,0-4,0c0,0.9-0.1,1.7,0,2.5c0,0.2,0.5,0.6,0.8,0.6c1.2,0.1,2.5,0,3.9,0c0,1.1,0,2.1,0,3.1c0,0.2-0.5,0.5-0.7,0.5
			c-2.6,0-5.2,0-7.7,0c-0.7,0-0.8-0.3-0.8-0.9c0-5.1,0-10.2,0-15.2c0-0.7,0.2-0.9,0.9-0.9c2.5,0,5,0,7.5,0c0.7,0,0.9,0.2,0.9,0.9
			C133.7,107.2,133.8,108.1,133.8,109.1z"/>
		<path d="M123.2,118.6c0,1.1,0.1,2.3-0.1,3.4c0,0.3-0.7,0.6-1.1,0.7c-6.1,1-10.9-3.4-10.5-9.6c0.3-5,4.5-9,10.8-7.9
			c0.3,0.1,0.8,0.4,0.8,0.7c0.1,1.1,0,2.2,0,3.5c-2-0.4-3.9-0.7-5.4,0.9c-1,1.1-1.3,2.4-1.3,3.8
			C116.7,117.6,118.3,118.7,123.2,118.6z"/>
		<path d="M29.6,109.3c-4.8-0.2-6.6,1.1-6.5,4.9c0.1,3.5,2.1,4.9,6.6,4.4c0,1.2,0,2.4,0,3.6c0,0.2-0.5,0.5-0.7,0.5
			c-5.9,1.1-10.4-2.7-10.7-7.8c-0.3-5.2,2.3-8.9,7-9.8c0.2,0,0.4-0.1,0.7-0.1C30.5,105,29.8,104.8,29.6,109.3z"/>
	</g>
	<path class="st0" d="M123.1,86.5H89.4l4.6,11.4l-20-11.4H29.2c-5.8,0-10.5-4.7-10.5-10.5V39.6c0-5.8,4.7-10.5,10.5-10.5h93.9
		c5.8,0,10.5,4.7,10.5,10.5V76C133.6,81.8,128.9,86.5,123.1,86.5z"/>
	<path class="st1" d="M27.5,37.7c1.2-0.2,4-0.6,4.6,2.4c0.7,3.5,4.1,24,5,25.6c0,0,7.2-13.7,9.2-17.7s3.7-4.7,5.1-4.6s2.5,1.5,2.9,4
		c0.4,2.5,4.8,16.8,4.8,16.8s0.9-10.1,2.3-15.8c1.4-5.7,2.8-9.6,4.1-11.1c1.3-1.5,2.1-2.6,5.4-1.2c1.9,0.8,2.3,3.6,1.3,5.5
		c-1,1.9-3.5,8.3-4.9,21.2S67,77.6,65.8,79.4c-1.1,1.8-3.5,2.6-6.6-0.3c-4.8-4.5-9-16.1-9.8-20.1c0,0-5.3,11.5-8.3,16.5
		C38,80.8,34.7,84,32,77.2c-2.7-6.8-5.6-23.4-6.8-29.7C24.1,40.8,24,38.3,27.5,37.7z"/>
	<path class="st1" d="M88.1,40.5c6.8,1,11.1,7.5,10.6,17.2c-0.2,4.9-4.4,20-16.6,18.1s-10.4-16.4-9.5-21.2
		C73.6,49.6,78.9,39.1,88.1,40.5z M79.7,58.1c-0.6,3.3,0.6,9.4,3.6,9.7c2.6,0.3,6.1-3.4,7.2-7.8s0.2-10.9-3.4-11.6
		C83,47.8,80.3,54.8,79.7,58.1z"/>
	<path class="st1" d="M117.4,40.5c6.8,1,11.1,7.5,10.6,17.2c-0.2,4.9-4.4,20-16.6,18.1S101,59.4,102,54.5
		C102.9,49.6,108.3,39.1,117.4,40.5z M109,58.1c-0.6,3.3,0.6,9.4,3.6,9.7c2.6,0.3,6.1-3.4,7.2-7.8s0.2-10.9-3.4-11.6
		C112.4,47.8,109.7,54.8,109,58.1z"/>
</g>
</svg>
