<?xml version="1.0" encoding="utf-8"?>
<!-- Generator: Adobe Illustrator 27.1.0, SVG Export Plug-In . SVG Version: 6.00 Build 0)  -->
<svg version="1.1" id="Layer_1" xmlns="http://www.w3.org/2000/svg" xmlns:xlink="http://www.w3.org/1999/xlink" x="0px" y="0px"
	 viewBox="0 0 512 512" style="enable-background:new 0 0 512 512;" xml:space="preserve">
<style type="text/css">
	.st0{fill:#666666;}
	.st1{fill:#999999;}
</style>
<g>
	<g>
		<path class="st0" d="M223.8,355.1c0-0.7,0-1.3,0-1.9c0.4,0,0.7-0.1,1.1-0.1c7,0,14.1-0.1,21.1,0.1c5,0.1,9.7,1.3,13.7,4.5
			c5,3.9,6.8,9.3,6.2,15.5c-0.8,8.9-6.8,14.2-15.3,15.8c-2.6,0.5-5.3,0.7-7.9,0.7c-10,0.1-20.1,0-30.1,0.1c-0.8,0-1.4-0.2-1.9-0.9
			c-3.5-4.5-7.1-8.9-10.6-13.4c-0.7-1-1.5-1.3-2.8-1c0,2.2,0,4.5,0,6.8c0,0.7,0.1,1.4,0.2,2.2c0.5,2.9,1.8,4,4.7,4.2
			c0.7,0.1,1.3,0,2.1,0c0,0.7,0,1.3,0,2c-7.2,0-14.4,0-21.7,0c0-0.6,0-1.2,0-2c0.5,0,1,0,1.5,0c3.6-0.1,5.1-1.6,5.3-5.2
			c0.2-2.4,0.2-4.7,0.2-7.1c0-4.9,0-9.7-0.2-14.6c-0.2-4.4-1.6-5.6-6-5.7c-0.3,0-0.6,0-0.9,0c0-0.6,0-1.2,0-1.8
			c0.2,0,0.5-0.1,0.7-0.1c6.7,0,13.5,0,20.2,0.1c2.9,0,5.7,0.7,8.3,2.2c6.3,3.7,6.7,12.1,0.6,16.2c-1.5,1-3.4,1.5-5.1,2.3
			c-0.2,0.1-0.5,0.1-0.8,0.2c0,0.1,0,0.2,0,0.3c3.5,3.5,6.9,7.2,10.5,10.5c2.4,2.1,5.4,3,8.7,2.8c3.1-0.3,4.6-1.6,4.9-4.7
			c0-0.4,0.1-0.8,0.1-1.2c0-7.1,0.1-14.3-0.1-21.4c-0.1-4-1.7-5.1-5.7-5.3C224.6,355,224.3,355.1,223.8,355.1z M238.5,356.3
			c0,0.5-0.1,0.9-0.1,1.4c0,7.5,0,15,0,22.5c0,1,0.1,2.1,0.2,3.1c0.2,1.9,0.9,2.8,2.8,3c1.7,0.1,3.5,0.1,5.1-0.1
			c4.9-0.6,8.3-3.2,9.8-8c1.4-4.5,1.4-9,0.1-13.5c-1.1-3.8-3.6-6.4-7.4-7.6C245.6,355.9,242.1,356.3,238.5,356.3z M197.2,370.9
			c2.1,0,4.2,0.2,6.2,0c2.5-0.3,4.2-1.8,5-4.1c1.4-3.6,0.1-8-2.9-9.6c-2.7-1.4-5.5-0.8-8.4-0.9C197.2,361.2,197.2,366,197.2,370.9z"
			/>
		<path class="st0" d="M311.2,355.1c0-0.7,0-1.2,0-1.9c0.2-0.1,0.5-0.1,0.7-0.1c7,0,14.1,0,21.1,0.1c2.8,0.1,5.5,0.9,7.8,2.4
			c5.9,3.8,6.1,11.9,0.3,15.8c-1.6,1.1-3.5,1.6-5.3,2.4c-0.2,0.1-0.4,0.1-0.6,0.2c0,0.1,0,0.2,0,0.3c3.5,3.5,6.8,7.2,10.4,10.4
			c1.5,1.3,3.7,2.1,5.7,2.6c3.5,1,6.2-0.9,6.4-4.5c0.2-4.3,0.2-8.7,0.3-13c0-3.2,0-6.4-0.2-9.6c-0.3-3.7-1.7-5-5.4-5.2
			c-0.5,0-0.9,0-1.5-0.1c0-0.6,0-1.2,0-1.8c0.5,0,0.9-0.1,1.4-0.1c9.8,0,19.7,0,29.5,0c1.2,0,1.5,0.3,1.5,1.5
			c0.1,2.9,0.4,5.7,0.6,8.6c-1.1,0.3-1.9,0.2-2-1.1c0-0.4-0.2-0.7-0.3-1c-0.6-2.8-2.4-4.3-5.1-4.5c-3.6-0.3-7.2-0.3-10.9-0.4
			c0,0.6-0.1,1-0.1,1.4c0,3.3,0,6.7,0,10c0,1,0.4,1.3,1.3,1.2c1.4-0.1,2.9-0.1,4.3-0.3c2.6-0.4,3.4-1.3,3.7-3.9
			c0.1-0.7,0.1-1.4,0.1-2c1.7-0.5,2-0.4,2,1.3c0,4.4,0,8.8,0,13.2c0,1.7,0,1.7-1.9,1.4c-0.1-1-0.2-2-0.3-2.9c-0.2-1.6-1-2.7-2.6-2.9
			c-2.1-0.3-4.3-0.5-6.6-0.7c0.1,3.9-0.3,7.6,0.5,11.2c0.4,1.9,1.7,3,3.5,3.1c3.2,0.1,6.4,0,9.6-0.2c2.5-0.2,4-1.7,4.6-4.1
			c0.1-0.5,0.3-0.9,0.4-1.4c0.3-1.1,0.3-1.1,1.8-0.9c-0.2,3.3-0.4,6.6-0.6,10.1c-0.4,0-0.9,0.1-1.3,0.1c-14.3,0-28.6,0-42.9,0
			c-0.8,0-1.3-0.3-1.8-0.9c-3.5-4.5-7.1-8.9-10.6-13.4c-0.7-1-1.5-1.3-2.7-1c0,2.5,0,5,0,7.5c0,0,0,0.1,0,0.1
			c0.6,4.4,1.7,5.4,6.1,5.6c0.3,0,0.5,0,0.9,0.1c0,0.6,0,1.2,0,1.9c-7.2,0-14.4,0-21.7,0c0-0.6,0-1.2,0-1.9c1-0.1,2-0.2,3-0.3
			c2.1-0.3,3.3-1.6,3.6-3.6c0.2-1.3,0.4-2.7,0.4-4.1c0-6.4-0.1-12.8-0.1-19.1c0,0,0-0.1,0-0.1c-0.2-3.8-1.7-5.2-5.5-5.4
			C312.2,355,311.8,355.1,311.2,355.1z M325.8,371c1.5,0,2.9,0,4.3,0c4.6,0,7.2-2.5,7.4-7.1c0.2-3.3-1.5-6.2-4.2-7.2
			c-2.4-0.9-5-0.4-7.5-0.5C325.8,361.2,325.8,366,325.8,371z"/>
		<path class="st0" d="M95.3,342.1c0,0.7,0,1.3,0,2c-1.1,0.1-2.1,0.1-3,0.3c-3.3,0.6-4.4,2.1-3.6,5.3c0.7,2.9,1.7,5.8,2.7,8.7
			c1.7,5.1,3.3,10.2,5,15.3c0.1,0.4,0.3,0.7,0.5,1.4c0.3-0.7,0.5-1.2,0.6-1.7c3.4-10.1,6.8-20.1,10.1-30.2c0.3-0.8,0.5-1.2,1.5-1.2
			c0.8,0,1.1,0.3,1.3,1c1.9,5.9,3.8,11.7,5.8,17.6c1.4,4.4,2.9,8.7,4.3,13.1c0.1,0.3,0.2,0.7,0.4,1.2c0.2-0.4,0.4-0.7,0.5-1
			c2.5-7.4,5-14.8,7.5-22.2c0.4-1.1,0.6-2.2,0.8-3.3c0.3-2.1-0.6-3.4-2.7-3.9c-0.8-0.2-1.7-0.3-2.5-0.3c-1.9-0.1-1.9-0.1-1.6-2.1
			c6.8,0,13.5,0,20.4,0c0,0.6,0,1.2,0,1.9c-1.1,0.1-2.3,0.2-3.4,0.3c-2.6,0.3-4.5,1.7-5.5,4c-1.4,3.2-2.6,6.5-3.8,9.9
			c-3.6,10.7-7.2,21.5-10.8,32.2c-0.1,0.4-0.3,0.9-0.7,1c-0.7,0.3-1.1-0.1-1.4-0.9c-2.4-7.6-4.9-15.2-7.4-22.7
			c-1.1-3.5-2.3-7-3.5-10.8c-0.3,0.7-0.5,1.2-0.6,1.6c-3.5,10.5-7,21.1-10.5,31.6c-0.2,0.5-0.1,1.3-1.1,1.3c-1,0-0.9-0.7-1.1-1.3
			c-4-12.3-8-24.7-12.1-37c-0.5-1.6-1.2-3.1-1.8-4.6c-1.4-3-3.8-4.4-7.1-4.5c-0.5,0-1-0.1-1.6-0.1c0-0.7,0-1.3,0-2
			C79.1,342.1,87.2,342.1,95.3,342.1z"/>
		<path class="st0" d="M268.1,389.6c0-0.7,0-1.3,0-2c0.8-0.1,1.5-0.1,2.3-0.2c4.1-0.5,5.6-2,6.1-6.1c0.2-2,0.3-3.9,0.3-5.9
			c0-7.5,0-15.1-0.1-22.6c0-1.2-0.2-2.4-0.4-3.6c-0.7-3.4-2.4-4.8-5.9-5c-0.7,0-1.4,0-2.2,0c0-0.8,0-1.4,0-2.1
			c0.3,0,0.5-0.1,0.8-0.1c7.9,0,15.7,0,23.6,0.1c3.7,0,7.2,0.9,10.2,3c4.1,2.8,6,6.7,5.6,11.6c-0.4,4.8-3.1,8.1-7.3,10.3
			c-3.4,1.7-7,2.1-10.8,2.1c-1.9,0-3.8,0-5.8,0c0,1.2,0,2.2,0,3.2c0.1,3.1,0,6.3,0.4,9.4c0.5,4.1,2,5.2,6,5.7
			c0.7,0.1,1.4,0.1,2.2,0.2c0,0.7,0,1.3,0,2C284.8,389.6,276.5,389.6,268.1,389.6z M284.6,365.1c2.5,0,4.9,0.2,7.2,0
			c4.3-0.3,7-2.8,7.9-7c0.4-2.2,0.3-4.4-0.4-6.5c-0.9-2.5-2.5-4.4-5.1-5.2c-3.1-1-6.3-0.4-9.6-0.5
			C284.6,352.4,284.6,358.7,284.6,365.1z"/>
		<path class="st0" d="M157.8,391.1c-7.8-0.4-14.7-3.5-19-11.2c-4.3-7.6-2.4-16.7,4.3-22.6c9.1-8,23.3-7.6,31.9,0.9
			c7.9,7.9,7.4,20.1-1.2,27.3C169.3,389.3,164.2,391,157.8,391.1z M144.8,371.3c0,2.8,0.4,5.5,1.5,8.1c2,4.8,5.6,7.8,10.9,8.2
			c5.7,0.4,10.3-1.7,12.9-6.9c3.1-6.2,3-12.6,0-18.8c-4.4-8.9-16.4-8.7-21.3-2.8C145.9,362.6,144.9,366.8,144.8,371.3z"/>
		<path class="st0" d="M430,387.3c-0.5,0.9-1.1,1.6-1.2,2.4c-0.3,1.3-1,1.7-2.3,1.3c0-4.9,0-9.9,0-14.9c0.7,0,1.3,0,1.8,0
			c0.5,1.5,0.8,3,1.4,4.4c2.2,5,7.6,7.9,12.9,6.9c2.2-0.4,3.9-1.5,4.6-3.7c0.7-2.3-0.2-4.2-2-5.5c-1.7-1.2-3.5-2.3-5.3-3.3
			c-2.3-1.2-4.7-2.2-7-3.4c-3.5-1.9-6.1-4.7-6.5-9c-0.5-4.6,2.8-8.9,7.9-10.2c3.5-0.9,7.9-0.8,12.5,2.4c0.3-0.6,0.7-1.1,0.9-1.6
			c0.6-1.4,0.6-1.5,2.4-1.2c0,4.2,0,8.4,0,12.6c-1.9,0.5-2,0.4-2.5-1.4c-1.3-5.2-4.8-8.2-9.6-7.8c-1.2,0.1-2.5,0.5-3.5,1.1
			c-2.5,1.5-2.9,4.5-0.8,6.5c1.1,1,2.4,1.8,3.8,2.5c2.8,1.5,5.8,2.8,8.6,4.3c1.2,0.6,2.4,1.3,3.4,2.2c5.3,4.5,5.2,12-0.4,16.3
			c-5,4-12.3,4-18,0.1C430.8,387.9,430.5,387.7,430,387.3z"/>
		<path class="st0" d="M413.4,354.6c0.3-0.6,0.7-1.1,0.9-1.7c0.6-1.4,0.7-1.5,2.4-1c0,4.1,0,8.3,0,12.6c-0.7,0-1.4,0-2,0
			c-0.6-1.6-1.1-3.3-1.9-4.8c-1.9-3.7-6.5-5.5-10.4-4.1c-1.7,0.6-3.1,1.6-3.4,3.5c-0.3,1.9,0.6,3.4,2.1,4.4c1.5,1,3.2,1.9,4.8,2.7
			c2.5,1.3,5,2.4,7.4,3.7c3,1.6,5.3,3.8,6.3,7.1c1.3,4.7-1,9.8-5.7,12.3c-5.5,2.9-10.9,2.3-16.1-1c-0.4-0.3-0.8-0.5-1.4-0.9
			c-0.6,1.3-1.2,2.5-1.8,3.8c-0.4,0-1,0-1.7,0c0-5,0-9.9,0-14.9c1.8-0.5,1.9-0.4,2.3,1.2c1.4,5.9,5,9.4,11,10
			c1.5,0.2,3.1-0.1,4.5-0.6c3.5-1.3,4.4-5.3,1.9-7.9c-1.3-1.4-3-2.4-4.6-3.3c-2.7-1.5-5.7-2.6-8.4-4.2c-1.7-1-3.3-2.3-4.5-3.7
			c-4.4-5.5-1.9-12.9,5-15.2c4.4-1.4,8.5-0.9,12.4,1.6C412.8,354.2,413.1,354.4,413.4,354.6z"/>
	</g>
	<g>
		<path class="st1" d="M262.2,318.9c-54.8,0-99.4-44.6-99.3-99.3c0.1-54.7,44.6-99.1,99.3-99.1c54.8,0,99.3,44.6,99.3,99.4
			C361.4,274.5,317,318.9,262.2,318.9z M262.2,126.2c-51.6,0.1-93.6,42.2-93.5,93.6c0.1,51.5,42,93.3,93.5,93.4
			c51.5,0.1,93.6-41.9,93.6-93.5C355.8,168.2,313.7,126.1,262.2,126.2z"/>
		<path class="st1" d="M273.8,181.1c3.1-0.3,5.9-0.6,8.6-0.9c2.5-0.3,4-1.7,3.8-3.7c-0.1-2.1-1.7-3.3-4.2-3.2
			c-5.7,0.3-11.4,0.9-17.1,0.9c-8.5-0.1-17-0.5-25.5-0.9c-2-0.1-3.5,0.3-4.2,2.4c-0.7,2.2,0.6,4.2,3,4.5c2.1,0.3,4.3,0.5,6.5,0.6
			c1.6,0.1,2.4,0.7,2.9,2.2c3.8,10.6,7.7,21.1,11.5,31.7c0.3,0.8,0.4,1.9,0.2,2.7c-5.7,17.2-11.4,34.4-17.2,51.6
			c-0.1,0.2-0.2,0.4-0.5,1c-10-29.7-19.9-59.2-29.9-88.8c2.9-0.3,5.5-0.5,8.1-0.8c3-0.3,4.5-1.6,4.3-3.8c-0.1-2.3-1.7-3.3-4.9-3.2
			c-7.5,0.3-15.1,0.6-22.6,0.9c-0.9,0-1.9,0-3,0c25.6-41.6,87.3-50.1,123.7-15.9c-6.1,0.5-10.4,3.3-12.8,8.8
			c-2,4.4-1.8,8.8,0.1,13.1c1.7,3.9,3.8,7.6,6,11.2c3.9,6.6,6.9,13.4,7.5,21.1c0.5,7.4-1.1,14.4-3.2,21.3
			c-3.4,11.4-7.1,22.8-10.7,34.2c-0.1,0.3-0.3,0.5-0.6,1.1C293.5,239.7,283.7,210.6,273.8,181.1z"/>
		<path class="st1" d="M264,227.9c8.5,23.2,16.9,46.3,25.5,69.8c-16.7,5.7-33.4,6-50.5,1.3c8.2-23.8,16.3-47.4,24.5-71
			C263.6,227.9,263.8,227.9,264,227.9z"/>
		<path class="st1" d="M225.8,293.7c-40.7-19.6-56.7-68.6-39.1-107.2C199.8,222.3,212.7,257.8,225.8,293.7z"/>
		<path class="st1" d="M335.1,181.2c20,35.2,9,86.8-30.9,109.4c2.4-7,4.7-13.7,7-20.4c6.6-18.9,13.2-37.9,19.8-56.8
			C334.5,203.2,336.4,192.7,335.1,181.2z"/>
	</g>
</g>
</svg>
