<?xml version="1.0" encoding="utf-8"?>
<!-- Generator: Adobe Illustrator 27.1.0, SVG Export Plug-In . SVG Version: 6.00 Build 0)  -->
<svg version="1.1" id="Layer_1" xmlns="http://www.w3.org/2000/svg" xmlns:xlink="http://www.w3.org/1999/xlink" x="0px" y="0px"
	 viewBox="0 0 1123 794" style="enable-background:new 0 0 1123 794;" xml:space="preserve">
<style type="text/css">
	.st0{fill:#00A79D;}
	.st1{fill:#273B4B;}
	.st2{clip-path:url(#SVGID_00000008828371584472592930000017486198824197444541_);}
	.st3{fill-rule:evenodd;clip-rule:evenodd;fill:#00786F;}
	.st4{fill:#00786F;}
</style>
<g>
	<g transform="translate(242.244327, 342.852737)">
		<path class="st0" d="M100.1,1.9c0,2.2,1.7,3.9,3.9,3.9c2.2,0,3.9-1.7,3.9-3.9c0-2.2-1.7-3.9-3.9-3.9
			C101.8-1.9,100.1-0.3,100.1,1.9z M107.9,1.9c0,2.2,1.7,3.9,3.9,3.9c2.2,0,3.9-1.7,3.9-3.9c0-2.2-1.7-3.9-3.9-3.9
			C109.6-1.9,107.9-0.3,107.9,1.9z M115.6,1.9c0,2.2,1.7,3.9,3.9,3.9c2.2,0,3.9-1.7,3.9-3.9c0-2.2-1.7-3.9-3.9-3.9
			C117.3-1.9,115.6-0.3,115.6,1.9z M123.4,1.9c0,2.2,1.7,3.9,3.9,3.9c2.2,0,3.9-1.7,3.9-3.9c0-2.2-1.7-3.9-3.9-3.9
			C125.1-1.9,123.4-0.3,123.4,1.9z M131.1,1.9c0,2.2,1.7,3.9,3.9,3.9c2.2,0,3.9-1.7,3.9-3.9c0-2.2-1.7-3.9-3.9-3.9
			C132.8-1.9,131.1-0.3,131.1,1.9z M138.9,1.9c0,2.2,1.7,3.9,3.9,3.9s3.9-1.7,3.9-3.9c0-2.2-1.7-3.9-3.9-3.9S138.9-0.3,138.9,1.9z
			 M146.6,1.9c0,2.2,1.7,3.9,3.9,3.9c2.2,0,3.9-1.7,3.9-3.9c0-2.2-1.7-3.9-3.9-3.9C148.3-1.9,146.6-0.3,146.6,1.9z M154.4,1.9
			c0,2.2,1.7,3.9,3.9,3.9c2.2,0,3.9-1.7,3.9-3.9c0-2.2-1.7-3.9-3.9-3.9C156.1-1.9,154.4-0.3,154.4,1.9z M92.4,9.7
			c0,2.2,1.7,3.9,3.9,3.9c2.2,0,3.9-1.7,3.9-3.9c0-2.2-1.7-3.9-3.9-3.9C94.1,5.8,92.4,7.5,92.4,9.7z M100.1,9.7
			c0,2.2,1.7,3.9,3.9,3.9c2.2,0,3.9-1.7,3.9-3.9c0-2.2-1.7-3.9-3.9-3.9C101.8,5.8,100.1,7.5,100.1,9.7z M107.9,9.7
			c0,2.2,1.7,3.9,3.9,3.9c2.2,0,3.9-1.7,3.9-3.9c0-2.2-1.7-3.9-3.9-3.9C109.6,5.8,107.9,7.5,107.9,9.7z M115.6,9.7
			c0,2.2,1.7,3.9,3.9,3.9c2.2,0,3.9-1.7,3.9-3.9c0-2.2-1.7-3.9-3.9-3.9C117.3,5.8,115.6,7.5,115.6,9.7z M123.4,9.7
			c0,2.2,1.7,3.9,3.9,3.9c2.2,0,3.9-1.7,3.9-3.9c0-2.2-1.7-3.9-3.9-3.9C125.1,5.8,123.4,7.5,123.4,9.7z M131.1,9.7
			c0,2.2,1.7,3.9,3.9,3.9c2.2,0,3.9-1.7,3.9-3.9c0-2.2-1.7-3.9-3.9-3.9C132.8,5.8,131.1,7.5,131.1,9.7z M138.9,9.7
			c0,2.2,1.7,3.9,3.9,3.9s3.9-1.7,3.9-3.9c0-2.2-1.7-3.9-3.9-3.9S138.9,7.5,138.9,9.7z M146.6,9.7c0,2.2,1.7,3.9,3.9,3.9
			c2.2,0,3.9-1.7,3.9-3.9c0-2.2-1.7-3.9-3.9-3.9C148.3,5.8,146.6,7.5,146.6,9.7z M154.4,9.7c0,2.2,1.7,3.9,3.9,3.9
			c2.2,0,3.9-1.7,3.9-3.9c0-2.2-1.7-3.9-3.9-3.9C156.1,5.8,154.4,7.5,154.4,9.7z M162.1,9.7c0,2.2,1.7,3.9,3.9,3.9
			c2.2,0,3.9-1.7,3.9-3.9c0-2.2-1.7-3.9-3.9-3.9C163.8,5.8,162.1,7.5,162.1,9.7z M84.6,17.4c0,2.2,1.7,3.9,3.9,3.9
			c2.2,0,3.9-1.7,3.9-3.9c0-2.2-1.7-3.9-3.9-3.9C86.3,13.5,84.6,15.2,84.6,17.4z M92.4,17.4c0,2.2,1.7,3.9,3.9,3.9
			c2.2,0,3.9-1.7,3.9-3.9c0-2.2-1.7-3.9-3.9-3.9C94.1,13.5,92.4,15.2,92.4,17.4z M100.1,17.4c0,2.2,1.7,3.9,3.9,3.9
			c2.2,0,3.9-1.7,3.9-3.9c0-2.2-1.7-3.9-3.9-3.9C101.8,13.5,100.1,15.2,100.1,17.4z M107.9,17.4c0,2.2,1.7,3.9,3.9,3.9
			c2.2,0,3.9-1.7,3.9-3.9c0-2.2-1.7-3.9-3.9-3.9C109.6,13.5,107.9,15.2,107.9,17.4z M115.6,17.4c0,2.2,1.7,3.9,3.9,3.9
			c2.2,0,3.9-1.7,3.9-3.9c0-2.2-1.7-3.9-3.9-3.9C117.3,13.5,115.6,15.2,115.6,17.4z M123.4,17.4c0,2.2,1.7,3.9,3.9,3.9
			c2.2,0,3.9-1.7,3.9-3.9c0-2.2-1.7-3.9-3.9-3.9C125.1,13.5,123.4,15.2,123.4,17.4z M131.1,17.4c0,2.2,1.7,3.9,3.9,3.9
			c2.2,0,3.9-1.7,3.9-3.9c0-2.2-1.7-3.9-3.9-3.9C132.8,13.5,131.1,15.2,131.1,17.4z M138.9,17.4c0,2.2,1.7,3.9,3.9,3.9
			s3.9-1.7,3.9-3.9c0-2.2-1.7-3.9-3.9-3.9S138.9,15.2,138.9,17.4z M146.6,17.4c0,2.2,1.7,3.9,3.9,3.9c2.2,0,3.9-1.7,3.9-3.9
			c0-2.2-1.7-3.9-3.9-3.9C148.3,13.5,146.6,15.2,146.6,17.4z M154.4,17.4c0,2.2,1.7,3.9,3.9,3.9c2.2,0,3.9-1.7,3.9-3.9
			c0-2.2-1.7-3.9-3.9-3.9C156.1,13.5,154.4,15.2,154.4,17.4z M162.1,17.4c0,2.2,1.7,3.9,3.9,3.9c2.2,0,3.9-1.7,3.9-3.9
			c0-2.2-1.7-3.9-3.9-3.9C163.8,13.5,162.1,15.2,162.1,17.4z M169.9,17.4c0,2.2,1.7,3.9,3.9,3.9c2.2,0,3.9-1.7,3.9-3.9
			c0-2.2-1.7-3.9-3.9-3.9C171.6,13.5,169.9,15.2,169.9,17.4z M84.6,25.2c0,2.2,1.7,3.9,3.9,3.9c2.2,0,3.9-1.7,3.9-3.9
			s-1.7-3.9-3.9-3.9C86.3,21.3,84.6,23,84.6,25.2z M92.4,25.2c0,2.2,1.7,3.9,3.9,3.9c2.2,0,3.9-1.7,3.9-3.9s-1.7-3.9-3.9-3.9
			C94.1,21.3,92.4,23,92.4,25.2z M100.1,25.2c0,2.2,1.7,3.9,3.9,3.9c2.2,0,3.9-1.7,3.9-3.9s-1.7-3.9-3.9-3.9
			C101.8,21.3,100.1,23,100.1,25.2z M154.4,25.2c0,2.2,1.7,3.9,3.9,3.9c2.2,0,3.9-1.7,3.9-3.9s-1.7-3.9-3.9-3.9
			C156.1,21.3,154.4,23,154.4,25.2z M162.1,25.2c0,2.2,1.7,3.9,3.9,3.9c2.2,0,3.9-1.7,3.9-3.9s-1.7-3.9-3.9-3.9
			C163.8,21.3,162.1,23,162.1,25.2z M169.9,25.2c0,2.2,1.7,3.9,3.9,3.9c2.2,0,3.9-1.7,3.9-3.9s-1.7-3.9-3.9-3.9
			C171.6,21.3,169.9,23,169.9,25.2z M154.4,32.9c0,2.2,1.7,3.9,3.9,3.9c2.2,0,3.9-1.7,3.9-3.9c0-2.2-1.7-3.9-3.9-3.9
			C156.1,29,154.4,30.7,154.4,32.9z M162.1,32.9c0,2.2,1.7,3.9,3.9,3.9c2.2,0,3.9-1.7,3.9-3.9c0-2.2-1.7-3.9-3.9-3.9
			C163.8,29,162.1,30.7,162.1,32.9z M169.9,32.9c0,2.2,1.7,3.9,3.9,3.9c2.2,0,3.9-1.7,3.9-3.9c0-2.2-1.7-3.9-3.9-3.9
			C171.6,29,169.9,30.7,169.9,32.9z M154.4,40.7c0,2.2,1.7,3.9,3.9,3.9c2.2,0,3.9-1.7,3.9-3.9c0-2.2-1.7-3.9-3.9-3.9
			C156.1,36.8,154.4,38.5,154.4,40.7z M162.1,40.7c0,2.2,1.7,3.9,3.9,3.9c2.2,0,3.9-1.7,3.9-3.9c0-2.2-1.7-3.9-3.9-3.9
			C163.8,36.8,162.1,38.5,162.1,40.7z M169.9,40.7c0,2.2,1.7,3.9,3.9,3.9c2.2,0,3.9-1.7,3.9-3.9c0-2.2-1.7-3.9-3.9-3.9
			C171.6,36.8,169.9,38.5,169.9,40.7z M100.1,48.4c0,2.2,1.7,3.9,3.9,3.9c2.2,0,3.9-1.7,3.9-3.9c0-2.2-1.7-3.9-3.9-3.9
			C101.8,44.5,100.1,46.2,100.1,48.4z M107.9,48.4c0,2.2,1.7,3.9,3.9,3.9c2.2,0,3.9-1.7,3.9-3.9c0-2.2-1.7-3.9-3.9-3.9
			C109.6,44.5,107.9,46.2,107.9,48.4z M115.6,48.4c0,2.2,1.7,3.9,3.9,3.9c2.2,0,3.9-1.7,3.9-3.9c0-2.2-1.7-3.9-3.9-3.9
			C117.3,44.5,115.6,46.2,115.6,48.4z M123.4,48.4c0,2.2,1.7,3.9,3.9,3.9c2.2,0,3.9-1.7,3.9-3.9c0-2.2-1.7-3.9-3.9-3.9
			C125.1,44.5,123.4,46.2,123.4,48.4z M131.1,48.4c0,2.2,1.7,3.9,3.9,3.9c2.2,0,3.9-1.7,3.9-3.9c0-2.2-1.7-3.9-3.9-3.9
			C132.8,44.5,131.1,46.2,131.1,48.4z M138.9,48.4c0,2.2,1.7,3.9,3.9,3.9s3.9-1.7,3.9-3.9c0-2.2-1.7-3.9-3.9-3.9
			S138.9,46.2,138.9,48.4z M146.6,48.4c0,2.2,1.7,3.9,3.9,3.9c2.2,0,3.9-1.7,3.9-3.9c0-2.2-1.7-3.9-3.9-3.9
			C148.3,44.5,146.6,46.2,146.6,48.4z M154.4,48.4c0,2.2,1.7,3.9,3.9,3.9c2.2,0,3.9-1.7,3.9-3.9c0-2.2-1.7-3.9-3.9-3.9
			C156.1,44.5,154.4,46.2,154.4,48.4z M162.1,48.4c0,2.2,1.7,3.9,3.9,3.9c2.2,0,3.9-1.7,3.9-3.9c0-2.2-1.7-3.9-3.9-3.9
			C163.8,44.5,162.1,46.2,162.1,48.4z M169.9,48.4c0,2.2,1.7,3.9,3.9,3.9c2.2,0,3.9-1.7,3.9-3.9c0-2.2-1.7-3.9-3.9-3.9
			C171.6,44.5,169.9,46.2,169.9,48.4z M92.4,56.2c0,2.2,1.7,3.9,3.9,3.9c2.2,0,3.9-1.7,3.9-3.9c0-2.2-1.7-3.9-3.9-3.9
			C94.1,52.3,92.4,54,92.4,56.2z M100.1,56.2c0,2.2,1.7,3.9,3.9,3.9c2.2,0,3.9-1.7,3.9-3.9c0-2.2-1.7-3.9-3.9-3.9
			C101.8,52.3,100.1,54,100.1,56.2z M107.9,56.2c0,2.2,1.7,3.9,3.9,3.9c2.2,0,3.9-1.7,3.9-3.9c0-2.2-1.7-3.9-3.9-3.9
			C109.6,52.3,107.9,54,107.9,56.2z M115.6,56.2c0,2.2,1.7,3.9,3.9,3.9c2.2,0,3.9-1.7,3.9-3.9c0-2.2-1.7-3.9-3.9-3.9
			C117.3,52.3,115.6,54,115.6,56.2z M123.4,56.2c0,2.2,1.7,3.9,3.9,3.9c2.2,0,3.9-1.7,3.9-3.9c0-2.2-1.7-3.9-3.9-3.9
			C125.1,52.3,123.4,54,123.4,56.2z M131.1,56.2c0,2.2,1.7,3.9,3.9,3.9c2.2,0,3.9-1.7,3.9-3.9c0-2.2-1.7-3.9-3.9-3.9
			C132.8,52.3,131.1,54,131.1,56.2z M138.9,56.2c0,2.2,1.7,3.9,3.9,3.9s3.9-1.7,3.9-3.9c0-2.2-1.7-3.9-3.9-3.9S138.9,54,138.9,56.2z
			 M146.6,56.2c0,2.2,1.7,3.9,3.9,3.9c2.2,0,3.9-1.7,3.9-3.9c0-2.2-1.7-3.9-3.9-3.9C148.3,52.3,146.6,54,146.6,56.2z M154.4,56.2
			c0,2.2,1.7,3.9,3.9,3.9c2.2,0,3.9-1.7,3.9-3.9c0-2.2-1.7-3.9-3.9-3.9C156.1,52.3,154.4,54,154.4,56.2z M162.1,56.2
			c0,2.2,1.7,3.9,3.9,3.9c2.2,0,3.9-1.7,3.9-3.9c0-2.2-1.7-3.9-3.9-3.9C163.8,52.3,162.1,54,162.1,56.2z M169.9,56.2
			c0,2.2,1.7,3.9,3.9,3.9c2.2,0,3.9-1.7,3.9-3.9c0-2.2-1.7-3.9-3.9-3.9C171.6,52.3,169.9,54,169.9,56.2z M84.6,63.9
			c0,2.2,1.7,3.9,3.9,3.9c2.2,0,3.9-1.7,3.9-3.9c0-2.2-1.7-3.9-3.9-3.9C86.3,60,84.6,61.7,84.6,63.9z M92.4,63.9
			c0,2.2,1.7,3.9,3.9,3.9c2.2,0,3.9-1.7,3.9-3.9c0-2.2-1.7-3.9-3.9-3.9C94.1,60,92.4,61.7,92.4,63.9z M100.1,63.9
			c0,2.2,1.7,3.9,3.9,3.9c2.2,0,3.9-1.7,3.9-3.9c0-2.2-1.7-3.9-3.9-3.9C101.8,60,100.1,61.7,100.1,63.9z M107.9,63.9
			c0,2.2,1.7,3.9,3.9,3.9c2.2,0,3.9-1.7,3.9-3.9c0-2.2-1.7-3.9-3.9-3.9C109.6,60,107.9,61.7,107.9,63.9z M115.6,63.9
			c0,2.2,1.7,3.9,3.9,3.9c2.2,0,3.9-1.7,3.9-3.9c0-2.2-1.7-3.9-3.9-3.9C117.3,60,115.6,61.7,115.6,63.9z M123.4,63.9
			c0,2.2,1.7,3.9,3.9,3.9c2.2,0,3.9-1.7,3.9-3.9c0-2.2-1.7-3.9-3.9-3.9C125.1,60,123.4,61.7,123.4,63.9z M131.1,63.9
			c0,2.2,1.7,3.9,3.9,3.9c2.2,0,3.9-1.7,3.9-3.9c0-2.2-1.7-3.9-3.9-3.9C132.8,60,131.1,61.7,131.1,63.9z M138.9,63.9
			c0,2.2,1.7,3.9,3.9,3.9s3.9-1.7,3.9-3.9c0-2.2-1.7-3.9-3.9-3.9S138.9,61.7,138.9,63.9z M146.6,40.7c0,2.2,1.7,3.9,3.9,3.9
			c2.2,0,3.9-1.7,3.9-3.9c0-2.2-1.7-3.9-3.9-3.9C148.3,36.8,146.6,38.5,146.6,40.7z M154.4,63.9c0,2.2,1.7,3.9,3.9,3.9
			c2.2,0,3.9-1.7,3.9-3.9c0-2.2-1.7-3.9-3.9-3.9C156.1,60,154.4,61.7,154.4,63.9z M162.1,63.9c0,2.2,1.7,3.9,3.9,3.9
			c2.2,0,3.9-1.7,3.9-3.9c0-2.2-1.7-3.9-3.9-3.9C163.8,60,162.1,61.7,162.1,63.9z M169.9,63.9c0,2.2,1.7,3.9,3.9,3.9
			c2.2,0,3.9-1.7,3.9-3.9c0-2.2-1.7-3.9-3.9-3.9C171.6,60,169.9,61.7,169.9,63.9z M84.6,71.7c0,2.2,1.7,3.9,3.9,3.9
			c2.2,0,3.9-1.7,3.9-3.9c0-2.2-1.7-3.9-3.9-3.9C86.3,67.8,84.6,69.5,84.6,71.7z M92.4,71.7c0,2.2,1.7,3.9,3.9,3.9
			c2.2,0,3.9-1.7,3.9-3.9c0-2.2-1.7-3.9-3.9-3.9C94.1,67.8,92.4,69.5,92.4,71.7z M100.1,71.7c0,2.2,1.7,3.9,3.9,3.9
			c2.2,0,3.9-1.7,3.9-3.9c0-2.2-1.7-3.9-3.9-3.9C101.8,67.8,100.1,69.5,100.1,71.7z M154.4,71.7c0,2.2,1.7,3.9,3.9,3.9
			c2.2,0,3.9-1.7,3.9-3.9c0-2.2-1.7-3.9-3.9-3.9C156.1,67.8,154.4,69.5,154.4,71.7z M162.1,71.7c0,2.2,1.7,3.9,3.9,3.9
			c2.2,0,3.9-1.7,3.9-3.9c0-2.2-1.7-3.9-3.9-3.9C163.8,67.8,162.1,69.5,162.1,71.7z M169.9,71.7c0,2.2,1.7,3.9,3.9,3.9
			c2.2,0,3.9-1.7,3.9-3.9c0-2.2-1.7-3.9-3.9-3.9C171.6,67.8,169.9,69.5,169.9,71.7z M84.6,79.4c0,2.2,1.7,3.9,3.9,3.9
			c2.2,0,3.9-1.7,3.9-3.9c0-2.2-1.7-3.9-3.9-3.9C86.3,75.5,84.6,77.2,84.6,79.4z M92.4,79.4c0,2.2,1.7,3.9,3.9,3.9
			c2.2,0,3.9-1.7,3.9-3.9c0-2.2-1.7-3.9-3.9-3.9C94.1,75.5,92.4,77.2,92.4,79.4z M100.1,79.4c0,2.2,1.7,3.9,3.9,3.9
			c2.2,0,3.9-1.7,3.9-3.9c0-2.2-1.7-3.9-3.9-3.9C101.8,75.5,100.1,77.2,100.1,79.4z M154.4,79.4c0,2.2,1.7,3.9,3.9,3.9
			c2.2,0,3.9-1.7,3.9-3.9c0-2.2-1.7-3.9-3.9-3.9C156.1,75.5,154.4,77.2,154.4,79.4z M162.1,79.4c0,2.2,1.7,3.9,3.9,3.9
			c2.2,0,3.9-1.7,3.9-3.9c0-2.2-1.7-3.9-3.9-3.9C163.8,75.5,162.1,77.2,162.1,79.4z M169.9,79.4c0,2.2,1.7,3.9,3.9,3.9
			c2.2,0,3.9-1.7,3.9-3.9c0-2.2-1.7-3.9-3.9-3.9C171.6,75.5,169.9,77.2,169.9,79.4z M84.6,87.2c0,2.2,1.7,3.9,3.9,3.9
			c2.2,0,3.9-1.7,3.9-3.9c0-2.2-1.7-3.9-3.9-3.9C86.3,83.3,84.6,85,84.6,87.2z M92.4,87.2c0,2.2,1.7,3.9,3.9,3.9
			c2.2,0,3.9-1.7,3.9-3.9c0-2.2-1.7-3.9-3.9-3.9C94.1,83.3,92.4,85,92.4,87.2z M100.1,87.2c0,2.2,1.7,3.9,3.9,3.9
			c2.2,0,3.9-1.7,3.9-3.9c0-2.2-1.7-3.9-3.9-3.9C101.8,83.3,100.1,85,100.1,87.2z M146.6,87.2c0,2.2,1.7,3.9,3.9,3.9
			c2.2,0,3.9-1.7,3.9-3.9c0-2.2-1.7-3.9-3.9-3.9C148.3,83.3,146.6,85,146.6,87.2z M154.4,87.2c0,2.2,1.7,3.9,3.9,3.9
			c2.2,0,3.9-1.7,3.9-3.9c0-2.2-1.7-3.9-3.9-3.9C156.1,83.3,154.4,85,154.4,87.2z M162.1,87.2c0,2.2,1.7,3.9,3.9,3.9
			c2.2,0,3.9-1.7,3.9-3.9c0-2.2-1.7-3.9-3.9-3.9C163.8,83.3,162.1,85,162.1,87.2z M169.9,87.2c0,2.2,1.7,3.9,3.9,3.9
			c2.2,0,3.9-1.7,3.9-3.9c0-2.2-1.7-3.9-3.9-3.9C171.6,83.3,169.9,85,169.9,87.2z M84.6,94.9c0,2.2,1.7,3.9,3.9,3.9
			c2.2,0,3.9-1.7,3.9-3.9c0-2.2-1.7-3.9-3.9-3.9C86.3,91,84.6,92.7,84.6,94.9z M92.4,94.9c0,2.2,1.7,3.9,3.9,3.9
			c2.2,0,3.9-1.7,3.9-3.9c0-2.2-1.7-3.9-3.9-3.9C94.1,91,92.4,92.7,92.4,94.9z M100.1,94.9c0,2.2,1.7,3.9,3.9,3.9
			c2.2,0,3.9-1.7,3.9-3.9c0-2.2-1.7-3.9-3.9-3.9C101.8,91,100.1,92.7,100.1,94.9z M107.9,94.9c0,2.2,1.7,3.9,3.9,3.9
			c2.2,0,3.9-1.7,3.9-3.9c0-2.2-1.7-3.9-3.9-3.9C109.6,91,107.9,92.7,107.9,94.9z M115.6,94.9c0,2.2,1.7,3.9,3.9,3.9
			c2.2,0,3.9-1.7,3.9-3.9c0-2.2-1.7-3.9-3.9-3.9C117.3,91,115.6,92.7,115.6,94.9z M123.4,94.9c0,2.2,1.7,3.9,3.9,3.9
			c2.2,0,3.9-1.7,3.9-3.9c0-2.2-1.7-3.9-3.9-3.9C125.1,91,123.4,92.7,123.4,94.9z M131.1,94.9c0,2.2,1.7,3.9,3.9,3.9
			c2.2,0,3.9-1.7,3.9-3.9c0-2.2-1.7-3.9-3.9-3.9C132.8,91,131.1,92.7,131.1,94.9z M138.9,94.9c0,2.2,1.7,3.9,3.9,3.9
			s3.9-1.7,3.9-3.9c0-2.2-1.7-3.9-3.9-3.9S138.9,92.7,138.9,94.9z M146.6,94.9c0,2.2,1.7,3.9,3.9,3.9c2.2,0,3.9-1.7,3.9-3.9
			c0-2.2-1.7-3.9-3.9-3.9C148.3,91,146.6,92.7,146.6,94.9z M154.4,94.9c0,2.2,1.7,3.9,3.9,3.9c2.2,0,3.9-1.7,3.9-3.9
			c0-2.2-1.7-3.9-3.9-3.9C156.1,91,154.4,92.7,154.4,94.9z M162.1,94.9c0,2.2,1.7,3.9,3.9,3.9c2.2,0,3.9-1.7,3.9-3.9
			c0-2.2-1.7-3.9-3.9-3.9C163.8,91,162.1,92.7,162.1,94.9z M169.9,94.9c0,2.2,1.7,3.9,3.9,3.9c2.2,0,3.9-1.7,3.9-3.9
			c0-2.2-1.7-3.9-3.9-3.9C171.6,91,169.9,92.7,169.9,94.9z M92.4,102.7c0,2.2,1.7,3.9,3.9,3.9c2.2,0,3.9-1.7,3.9-3.9
			c0-2.2-1.7-3.9-3.9-3.9C94.1,98.8,92.4,100.5,92.4,102.7z M100.1,102.7c0,2.2,1.7,3.9,3.9,3.9c2.2,0,3.9-1.7,3.9-3.9
			c0-2.2-1.7-3.9-3.9-3.9C101.8,98.8,100.1,100.5,100.1,102.7z M107.9,102.7c0,2.2,1.7,3.9,3.9,3.9c2.2,0,3.9-1.7,3.9-3.9
			c0-2.2-1.7-3.9-3.9-3.9C109.6,98.8,107.9,100.5,107.9,102.7z M115.6,102.7c0,2.2,1.7,3.9,3.9,3.9c2.2,0,3.9-1.7,3.9-3.9
			c0-2.2-1.7-3.9-3.9-3.9C117.3,98.8,115.6,100.5,115.6,102.7z M123.4,102.7c0,2.2,1.7,3.9,3.9,3.9c2.2,0,3.9-1.7,3.9-3.9
			c0-2.2-1.7-3.9-3.9-3.9C125.1,98.8,123.4,100.5,123.4,102.7z M131.1,102.7c0,2.2,1.7,3.9,3.9,3.9c2.2,0,3.9-1.7,3.9-3.9
			c0-2.2-1.7-3.9-3.9-3.9C132.8,98.8,131.1,100.5,131.1,102.7z M138.9,102.7c0,2.2,1.7,3.9,3.9,3.9s3.9-1.7,3.9-3.9
			c0-2.2-1.7-3.9-3.9-3.9S138.9,100.5,138.9,102.7z M154.4,102.7c0,2.2,1.7,3.9,3.9,3.9c2.2,0,3.9-1.7,3.9-3.9
			c0-2.2-1.7-3.9-3.9-3.9C156.1,98.8,154.4,100.5,154.4,102.7z M162.1,102.7c0,2.2,1.7,3.9,3.9,3.9c2.2,0,3.9-1.7,3.9-3.9
			c0-2.2-1.7-3.9-3.9-3.9C163.8,98.8,162.1,100.5,162.1,102.7z M169.9,102.7c0,2.2,1.7,3.9,3.9,3.9c2.2,0,3.9-1.7,3.9-3.9
			c0-2.2-1.7-3.9-3.9-3.9C171.6,98.8,169.9,100.5,169.9,102.7z M100.1,110.4c0,2.2,1.7,3.9,3.9,3.9c2.2,0,3.9-1.7,3.9-3.9
			c0-2.2-1.7-3.9-3.9-3.9C101.8,106.5,100.1,108.2,100.1,110.4z M107.9,110.4c0,2.2,1.7,3.9,3.9,3.9c2.2,0,3.9-1.7,3.9-3.9
			c0-2.2-1.7-3.9-3.9-3.9C109.6,106.5,107.9,108.2,107.9,110.4z M115.6,110.4c0,2.2,1.7,3.9,3.9,3.9c2.2,0,3.9-1.7,3.9-3.9
			c0-2.2-1.7-3.9-3.9-3.9C117.3,106.5,115.6,108.2,115.6,110.4z M123.4,110.4c0,2.2,1.7,3.9,3.9,3.9c2.2,0,3.9-1.7,3.9-3.9
			c0-2.2-1.7-3.9-3.9-3.9C125.1,106.5,123.4,108.2,123.4,110.4z M131.1,110.4c0,2.2,1.7,3.9,3.9,3.9c2.2,0,3.9-1.7,3.9-3.9
			c0-2.2-1.7-3.9-3.9-3.9C132.8,106.5,131.1,108.2,131.1,110.4z M154.4,110.4c0,2.2,1.7,3.9,3.9,3.9c2.2,0,3.9-1.7,3.9-3.9
			c0-2.2-1.7-3.9-3.9-3.9C156.1,106.5,154.4,108.2,154.4,110.4z M162.1,110.4c0,2.2,1.7,3.9,3.9,3.9c2.2,0,3.9-1.7,3.9-3.9
			c0-2.2-1.7-3.9-3.9-3.9C163.8,106.5,162.1,108.2,162.1,110.4z M169.9,110.4c0,2.2,1.7,3.9,3.9,3.9c2.2,0,3.9-1.7,3.9-3.9
			c0-2.2-1.7-3.9-3.9-3.9C171.6,106.5,169.9,108.2,169.9,110.4z"/>
	</g>
</g>
<g>
	<g transform="translate(326.89868, 342.852737)">
		<path class="st1" d="M120.6,110.4c0,2.2,1.7,3.9,3.9,3.9c2.2,0,3.9-1.7,3.9-3.9c0-2.2-1.7-3.9-3.9-3.9
			C122.3,106.5,120.6,108.2,120.6,110.4z M120.6,102.7c0,2.2,1.7,3.9,3.9,3.9c2.2,0,3.9-1.7,3.9-3.9c0-2.2-1.7-3.9-3.9-3.9
			C122.3,98.8,120.6,100.5,120.6,102.7z M120.6,94.9c0,2.2,1.7,3.9,3.9,3.9c2.2,0,3.9-1.7,3.9-3.9c0-2.2-1.7-3.9-3.9-3.9
			C122.3,91,120.6,92.7,120.6,94.9z M120.6,87.2c0,2.2,1.7,3.9,3.9,3.9c2.2,0,3.9-1.7,3.9-3.9c0-2.2-1.7-3.9-3.9-3.9
			C122.3,83.3,120.6,85,120.6,87.2z M120.6,79.4c0,2.2,1.7,3.9,3.9,3.9c2.2,0,3.9-1.7,3.9-3.9c0-2.2-1.7-3.9-3.9-3.9
			C122.3,75.5,120.6,77.2,120.6,79.4z M120.6,71.7c0,2.2,1.7,3.9,3.9,3.9c2.2,0,3.9-1.7,3.9-3.9c0-2.2-1.7-3.9-3.9-3.9
			C122.3,67.8,120.6,69.5,120.6,71.7z M120.6,63.9c0,2.2,1.7,3.9,3.9,3.9c2.2,0,3.9-1.7,3.9-3.9c0-2.2-1.7-3.9-3.9-3.9
			C122.3,60,120.6,61.7,120.6,63.9z M120.6,56.2c0,2.2,1.7,3.9,3.9,3.9c2.2,0,3.9-1.7,3.9-3.9c0-2.2-1.7-3.9-3.9-3.9
			C122.3,52.3,120.6,54,120.6,56.2z M120.6,48.4c0,2.2,1.7,3.9,3.9,3.9c2.2,0,3.9-1.7,3.9-3.9c0-2.2-1.7-3.9-3.9-3.9
			C122.3,44.5,120.6,46.2,120.6,48.4z M120.6,40.7c0,2.2,1.7,3.9,3.9,3.9c2.2,0,3.9-1.7,3.9-3.9c0-2.2-1.7-3.9-3.9-3.9
			C122.3,36.8,120.6,38.5,120.6,40.7z M120.6,32.9c0,2.2,1.7,3.9,3.9,3.9c2.2,0,3.9-1.7,3.9-3.9c0-2.2-1.7-3.9-3.9-3.9
			C122.3,29,120.6,30.7,120.6,32.9z M120.6,25.2c0,2.2,1.7,3.9,3.9,3.9c2.2,0,3.9-1.7,3.9-3.9s-1.7-3.9-3.9-3.9
			C122.3,21.3,120.6,23,120.6,25.2z M151.6,1.9c0,2.2,1.7,3.9,3.9,3.9c2.2,0,3.9-1.7,3.9-3.9c0-2.2-1.7-3.9-3.9-3.9
			C153.3-1.9,151.6-0.3,151.6,1.9z M159.3,1.9c0,2.2,1.7,3.9,3.9,3.9c2.2,0,3.9-1.7,3.9-3.9c0-2.2-1.7-3.9-3.9-3.9
			C161-1.9,159.3-0.3,159.3,1.9z M167.1,1.9c0,2.2,1.7,3.9,3.9,3.9s3.9-1.7,3.9-3.9c0-2.2-1.7-3.9-3.9-3.9S167.1-0.3,167.1,1.9z
			 M174.8,1.9c0,2.2,1.7,3.9,3.9,3.9c2.2,0,3.9-1.7,3.9-3.9c0-2.2-1.7-3.9-3.9-3.9C176.5-1.9,174.8-0.3,174.8,1.9z M182.6,1.9
			c0,2.2,1.7,3.9,3.9,3.9c2.2,0,3.9-1.7,3.9-3.9c0-2.2-1.7-3.9-3.9-3.9C184.3-1.9,182.6-0.3,182.6,1.9z M190.3,9.7
			c0,2.2,1.7,3.9,3.9,3.9c2.2,0,3.9-1.7,3.9-3.9c0-2.2-1.7-3.9-3.9-3.9C192,5.8,190.3,7.5,190.3,9.7z M190.3,110.4
			c0,2.2,1.7,3.9,3.9,3.9c2.2,0,3.9-1.7,3.9-3.9c0-2.2-1.7-3.9-3.9-3.9C192,106.5,190.3,108.2,190.3,110.4z M190.3,102.7
			c0,2.2,1.7,3.9,3.9,3.9c2.2,0,3.9-1.7,3.9-3.9c0-2.2-1.7-3.9-3.9-3.9C192,98.8,190.3,100.5,190.3,102.7z M190.3,94.9
			c0,2.2,1.7,3.9,3.9,3.9c2.2,0,3.9-1.7,3.9-3.9c0-2.2-1.7-3.9-3.9-3.9C192,91,190.3,92.7,190.3,94.9z M190.3,87.2
			c0,2.2,1.7,3.9,3.9,3.9c2.2,0,3.9-1.7,3.9-3.9c0-2.2-1.7-3.9-3.9-3.9C192,83.3,190.3,85,190.3,87.2z M190.3,79.4
			c0,2.2,1.7,3.9,3.9,3.9c2.2,0,3.9-1.7,3.9-3.9c0-2.2-1.7-3.9-3.9-3.9C192,75.5,190.3,77.2,190.3,79.4z M190.3,71.7
			c0,2.2,1.7,3.9,3.9,3.9c2.2,0,3.9-1.7,3.9-3.9c0-2.2-1.7-3.9-3.9-3.9C192,67.8,190.3,69.5,190.3,71.7z M190.3,63.9
			c0,2.2,1.7,3.9,3.9,3.9c2.2,0,3.9-1.7,3.9-3.9c0-2.2-1.7-3.9-3.9-3.9C192,60,190.3,61.7,190.3,63.9z M190.3,56.2
			c0,2.2,1.7,3.9,3.9,3.9c2.2,0,3.9-1.7,3.9-3.9c0-2.2-1.7-3.9-3.9-3.9C192,52.3,190.3,54,190.3,56.2z M190.3,48.4
			c0,2.2,1.7,3.9,3.9,3.9c2.2,0,3.9-1.7,3.9-3.9c0-2.2-1.7-3.9-3.9-3.9C192,44.5,190.3,46.2,190.3,48.4z M190.3,40.7
			c0,2.2,1.7,3.9,3.9,3.9c2.2,0,3.9-1.7,3.9-3.9c0-2.2-1.7-3.9-3.9-3.9C192,36.8,190.3,38.5,190.3,40.7z M190.3,32.9
			c0,2.2,1.7,3.9,3.9,3.9c2.2,0,3.9-1.7,3.9-3.9c0-2.2-1.7-3.9-3.9-3.9C192,29,190.3,30.7,190.3,32.9z M190.3,25.2
			c0,2.2,1.7,3.9,3.9,3.9c2.2,0,3.9-1.7,3.9-3.9s-1.7-3.9-3.9-3.9C192,21.3,190.3,23,190.3,25.2z M190.3,17.4c0,2.2,1.7,3.9,3.9,3.9
			c2.2,0,3.9-1.7,3.9-3.9c0-2.2-1.7-3.9-3.9-3.9C192,13.5,190.3,15.2,190.3,17.4z M112.8,110.4c0,2.2,1.7,3.9,3.9,3.9
			c2.2,0,3.9-1.7,3.9-3.9c0-2.2-1.7-3.9-3.9-3.9C114.5,106.5,112.8,108.2,112.8,110.4z M112.8,102.7c0,2.2,1.7,3.9,3.9,3.9
			c2.2,0,3.9-1.7,3.9-3.9c0-2.2-1.7-3.9-3.9-3.9C114.5,98.8,112.8,100.5,112.8,102.7z M112.8,94.9c0,2.2,1.7,3.9,3.9,3.9
			c2.2,0,3.9-1.7,3.9-3.9c0-2.2-1.7-3.9-3.9-3.9C114.5,91,112.8,92.7,112.8,94.9z M112.8,87.2c0,2.2,1.7,3.9,3.9,3.9
			c2.2,0,3.9-1.7,3.9-3.9c0-2.2-1.7-3.9-3.9-3.9C114.5,83.3,112.8,85,112.8,87.2z M112.8,79.4c0,2.2,1.7,3.9,3.9,3.9
			c2.2,0,3.9-1.7,3.9-3.9c0-2.2-1.7-3.9-3.9-3.9C114.5,75.5,112.8,77.2,112.8,79.4z M112.8,71.7c0,2.2,1.7,3.9,3.9,3.9
			c2.2,0,3.9-1.7,3.9-3.9c0-2.2-1.7-3.9-3.9-3.9C114.5,67.8,112.8,69.5,112.8,71.7z M112.8,63.9c0,2.2,1.7,3.9,3.9,3.9
			c2.2,0,3.9-1.7,3.9-3.9c0-2.2-1.7-3.9-3.9-3.9C114.5,60,112.8,61.7,112.8,63.9z M112.8,56.2c0,2.2,1.7,3.9,3.9,3.9
			c2.2,0,3.9-1.7,3.9-3.9c0-2.2-1.7-3.9-3.9-3.9C114.5,52.3,112.8,54,112.8,56.2z M112.8,48.4c0,2.2,1.7,3.9,3.9,3.9
			c2.2,0,3.9-1.7,3.9-3.9c0-2.2-1.7-3.9-3.9-3.9C114.5,44.5,112.8,46.2,112.8,48.4z M112.8,40.7c0,2.2,1.7,3.9,3.9,3.9
			c2.2,0,3.9-1.7,3.9-3.9c0-2.2-1.7-3.9-3.9-3.9C114.5,36.8,112.8,38.5,112.8,40.7z M112.8,32.9c0,2.2,1.7,3.9,3.9,3.9
			c2.2,0,3.9-1.7,3.9-3.9c0-2.2-1.7-3.9-3.9-3.9C114.5,29,112.8,30.7,112.8,32.9z M198.1,110.4c0,2.2,1.7,3.9,3.9,3.9
			c2.2,0,3.9-1.7,3.9-3.9c0-2.2-1.7-3.9-3.9-3.9C199.8,106.5,198.1,108.2,198.1,110.4z M198.1,102.7c0,2.2,1.7,3.9,3.9,3.9
			c2.2,0,3.9-1.7,3.9-3.9c0-2.2-1.7-3.9-3.9-3.9C199.8,98.8,198.1,100.5,198.1,102.7z M198.1,94.9c0,2.2,1.7,3.9,3.9,3.9
			c2.2,0,3.9-1.7,3.9-3.9c0-2.2-1.7-3.9-3.9-3.9C199.8,91,198.1,92.7,198.1,94.9z M198.1,87.2c0,2.2,1.7,3.9,3.9,3.9
			c2.2,0,3.9-1.7,3.9-3.9c0-2.2-1.7-3.9-3.9-3.9C199.8,83.3,198.1,85,198.1,87.2z M198.1,79.4c0,2.2,1.7,3.9,3.9,3.9
			c2.2,0,3.9-1.7,3.9-3.9c0-2.2-1.7-3.9-3.9-3.9C199.8,75.5,198.1,77.2,198.1,79.4z M198.1,71.7c0,2.2,1.7,3.9,3.9,3.9
			c2.2,0,3.9-1.7,3.9-3.9c0-2.2-1.7-3.9-3.9-3.9C199.8,67.8,198.1,69.5,198.1,71.7z M198.1,63.9c0,2.2,1.7,3.9,3.9,3.9
			c2.2,0,3.9-1.7,3.9-3.9c0-2.2-1.7-3.9-3.9-3.9C199.8,60,198.1,61.7,198.1,63.9z M198.1,56.2c0,2.2,1.7,3.9,3.9,3.9
			c2.2,0,3.9-1.7,3.9-3.9c0-2.2-1.7-3.9-3.9-3.9C199.8,52.3,198.1,54,198.1,56.2z M198.1,48.4c0,2.2,1.7,3.9,3.9,3.9
			c2.2,0,3.9-1.7,3.9-3.9c0-2.2-1.7-3.9-3.9-3.9C199.8,44.5,198.1,46.2,198.1,48.4z M198.1,40.7c0,2.2,1.7,3.9,3.9,3.9
			c2.2,0,3.9-1.7,3.9-3.9c0-2.2-1.7-3.9-3.9-3.9C199.8,36.8,198.1,38.5,198.1,40.7z M198.1,32.9c0,2.2,1.7,3.9,3.9,3.9
			c2.2,0,3.9-1.7,3.9-3.9c0-2.2-1.7-3.9-3.9-3.9C199.8,29,198.1,30.7,198.1,32.9z M198.1,25.2c0,2.2,1.7,3.9,3.9,3.9
			c2.2,0,3.9-1.7,3.9-3.9s-1.7-3.9-3.9-3.9C199.8,21.3,198.1,23,198.1,25.2z M198.1,17.4c0,2.2,1.7,3.9,3.9,3.9
			c2.2,0,3.9-1.7,3.9-3.9c0-2.2-1.7-3.9-3.9-3.9C199.8,13.5,198.1,15.2,198.1,17.4z M182.6,9.7c0,2.2,1.7,3.9,3.9,3.9
			c2.2,0,3.9-1.7,3.9-3.9c0-2.2-1.7-3.9-3.9-3.9C184.3,5.8,182.6,7.5,182.6,9.7z M182.6,110.4c0,2.2,1.7,3.9,3.9,3.9
			c2.2,0,3.9-1.7,3.9-3.9c0-2.2-1.7-3.9-3.9-3.9C184.3,106.5,182.6,108.2,182.6,110.4z M182.6,102.7c0,2.2,1.7,3.9,3.9,3.9
			c2.2,0,3.9-1.7,3.9-3.9c0-2.2-1.7-3.9-3.9-3.9C184.3,98.8,182.6,100.5,182.6,102.7z M182.6,94.9c0,2.2,1.7,3.9,3.9,3.9
			c2.2,0,3.9-1.7,3.9-3.9c0-2.2-1.7-3.9-3.9-3.9C184.3,91,182.6,92.7,182.6,94.9z M182.6,87.2c0,2.2,1.7,3.9,3.9,3.9
			c2.2,0,3.9-1.7,3.9-3.9c0-2.2-1.7-3.9-3.9-3.9C184.3,83.3,182.6,85,182.6,87.2z M182.6,79.4c0,2.2,1.7,3.9,3.9,3.9
			c2.2,0,3.9-1.7,3.9-3.9c0-2.2-1.7-3.9-3.9-3.9C184.3,75.5,182.6,77.2,182.6,79.4z M182.6,71.7c0,2.2,1.7,3.9,3.9,3.9
			c2.2,0,3.9-1.7,3.9-3.9c0-2.2-1.7-3.9-3.9-3.9C184.3,67.8,182.6,69.5,182.6,71.7z M182.6,63.9c0,2.2,1.7,3.9,3.9,3.9
			c2.2,0,3.9-1.7,3.9-3.9c0-2.2-1.7-3.9-3.9-3.9C184.3,60,182.6,61.7,182.6,63.9z M182.6,56.2c0,2.2,1.7,3.9,3.9,3.9
			c2.2,0,3.9-1.7,3.9-3.9c0-2.2-1.7-3.9-3.9-3.9C184.3,52.3,182.6,54,182.6,56.2z M182.6,48.4c0,2.2,1.7,3.9,3.9,3.9
			c2.2,0,3.9-1.7,3.9-3.9c0-2.2-1.7-3.9-3.9-3.9C184.3,44.5,182.6,46.2,182.6,48.4z M182.6,40.7c0,2.2,1.7,3.9,3.9,3.9
			c2.2,0,3.9-1.7,3.9-3.9c0-2.2-1.7-3.9-3.9-3.9C184.3,36.8,182.6,38.5,182.6,40.7z M182.6,32.9c0,2.2,1.7,3.9,3.9,3.9
			c2.2,0,3.9-1.7,3.9-3.9c0-2.2-1.7-3.9-3.9-3.9C184.3,29,182.6,30.7,182.6,32.9z M182.6,25.2c0,2.2,1.7,3.9,3.9,3.9
			c2.2,0,3.9-1.7,3.9-3.9s-1.7-3.9-3.9-3.9C184.3,21.3,182.6,23,182.6,25.2z M182.6,17.4c0,2.2,1.7,3.9,3.9,3.9
			c2.2,0,3.9-1.7,3.9-3.9c0-2.2-1.7-3.9-3.9-3.9C184.3,13.5,182.6,15.2,182.6,17.4z M128.3,110.4c0,2.2,1.7,3.9,3.9,3.9
			c2.2,0,3.9-1.7,3.9-3.9c0-2.2-1.7-3.9-3.9-3.9C130,106.5,128.3,108.2,128.3,110.4z M128.3,102.7c0,2.2,1.7,3.9,3.9,3.9
			c2.2,0,3.9-1.7,3.9-3.9c0-2.2-1.7-3.9-3.9-3.9C130,98.8,128.3,100.5,128.3,102.7z M128.3,94.9c0,2.2,1.7,3.9,3.9,3.9
			c2.2,0,3.9-1.7,3.9-3.9c0-2.2-1.7-3.9-3.9-3.9C130,91,128.3,92.7,128.3,94.9z M128.3,87.2c0,2.2,1.7,3.9,3.9,3.9
			c2.2,0,3.9-1.7,3.9-3.9c0-2.2-1.7-3.9-3.9-3.9C130,83.3,128.3,85,128.3,87.2z M128.3,79.4c0,2.2,1.7,3.9,3.9,3.9
			c2.2,0,3.9-1.7,3.9-3.9c0-2.2-1.7-3.9-3.9-3.9C130,75.5,128.3,77.2,128.3,79.4z M128.3,71.7c0,2.2,1.7,3.9,3.9,3.9
			c2.2,0,3.9-1.7,3.9-3.9c0-2.2-1.7-3.9-3.9-3.9C130,67.8,128.3,69.5,128.3,71.7z M128.3,63.9c0,2.2,1.7,3.9,3.9,3.9
			c2.2,0,3.9-1.7,3.9-3.9c0-2.2-1.7-3.9-3.9-3.9C130,60,128.3,61.7,128.3,63.9z M128.3,56.2c0,2.2,1.7,3.9,3.9,3.9
			c2.2,0,3.9-1.7,3.9-3.9c0-2.2-1.7-3.9-3.9-3.9C130,52.3,128.3,54,128.3,56.2z M128.3,48.4c0,2.2,1.7,3.9,3.9,3.9
			c2.2,0,3.9-1.7,3.9-3.9c0-2.2-1.7-3.9-3.9-3.9C130,44.5,128.3,46.2,128.3,48.4z M128.3,40.7c0,2.2,1.7,3.9,3.9,3.9
			c2.2,0,3.9-1.7,3.9-3.9c0-2.2-1.7-3.9-3.9-3.9C130,36.8,128.3,38.5,128.3,40.7z M128.3,32.9c0,2.2,1.7,3.9,3.9,3.9
			c2.2,0,3.9-1.7,3.9-3.9c0-2.2-1.7-3.9-3.9-3.9C130,29,128.3,30.7,128.3,32.9z M128.3,25.2c0,2.2,1.7,3.9,3.9,3.9
			c2.2,0,3.9-1.7,3.9-3.9s-1.7-3.9-3.9-3.9C130,21.3,128.3,23,128.3,25.2z M128.3,17.4c0,2.2,1.7,3.9,3.9,3.9c2.2,0,3.9-1.7,3.9-3.9
			c0-2.2-1.7-3.9-3.9-3.9C130,13.5,128.3,15.2,128.3,17.4z M136.1,17.4c0,2.2,1.7,3.9,3.9,3.9c2.2,0,3.9-1.7,3.9-3.9
			c0-2.2-1.7-3.9-3.9-3.9C137.8,13.5,136.1,15.2,136.1,17.4z M143.8,17.4c0,2.2,1.7,3.9,3.9,3.9c2.2,0,3.9-1.7,3.9-3.9
			c0-2.2-1.7-3.9-3.9-3.9C145.5,13.5,143.8,15.2,143.8,17.4z M151.6,17.4c0,2.2,1.7,3.9,3.9,3.9c2.2,0,3.9-1.7,3.9-3.9
			c0-2.2-1.7-3.9-3.9-3.9C153.3,13.5,151.6,15.2,151.6,17.4z M159.3,17.4c0,2.2,1.7,3.9,3.9,3.9c2.2,0,3.9-1.7,3.9-3.9
			c0-2.2-1.7-3.9-3.9-3.9C161,13.5,159.3,15.2,159.3,17.4z M167.1,17.4c0,2.2,1.7,3.9,3.9,3.9s3.9-1.7,3.9-3.9
			c0-2.2-1.7-3.9-3.9-3.9S167.1,15.2,167.1,17.4z M174.8,17.4c0,2.2,1.7,3.9,3.9,3.9c2.2,0,3.9-1.7,3.9-3.9c0-2.2-1.7-3.9-3.9-3.9
			C176.5,13.5,174.8,15.2,174.8,17.4z M143.8,9.7c0,2.2,1.7,3.9,3.9,3.9c2.2,0,3.9-1.7,3.9-3.9c0-2.2-1.7-3.9-3.9-3.9
			C145.5,5.8,143.8,7.5,143.8,9.7z M151.6,9.7c0,2.2,1.7,3.9,3.9,3.9c2.2,0,3.9-1.7,3.9-3.9c0-2.2-1.7-3.9-3.9-3.9
			C153.3,5.8,151.6,7.5,151.6,9.7z M159.3,9.7c0,2.2,1.7,3.9,3.9,3.9c2.2,0,3.9-1.7,3.9-3.9c0-2.2-1.7-3.9-3.9-3.9
			C161,5.8,159.3,7.5,159.3,9.7z M167.1,9.7c0,2.2,1.7,3.9,3.9,3.9s3.9-1.7,3.9-3.9c0-2.2-1.7-3.9-3.9-3.9S167.1,7.5,167.1,9.7z
			 M174.8,9.7c0,2.2,1.7,3.9,3.9,3.9c2.2,0,3.9-1.7,3.9-3.9c0-2.2-1.7-3.9-3.9-3.9C176.5,5.8,174.8,7.5,174.8,9.7z M221.3,1.9
			c0,2.2,1.7,3.9,3.9,3.9c2.2,0,3.9-1.7,3.9-3.9c0-2.2-1.7-3.9-3.9-3.9C223-1.9,221.3-0.3,221.3,1.9z M229.1,1.9
			c0,2.2,1.7,3.9,3.9,3.9c2.2,0,3.9-1.7,3.9-3.9c0-2.2-1.7-3.9-3.9-3.9C230.8-1.9,229.1-0.3,229.1,1.9z M236.8,1.9
			c0,2.2,1.7,3.9,3.9,3.9c2.2,0,3.9-1.7,3.9-3.9c0-2.2-1.7-3.9-3.9-3.9C238.5-1.9,236.8-0.3,236.8,1.9z M244.6,1.9
			c0,2.2,1.7,3.9,3.9,3.9c2.2,0,3.9-1.7,3.9-3.9c0-2.2-1.7-3.9-3.9-3.9C246.3-1.9,244.6-0.3,244.6,1.9z M252.3,1.9
			c0,2.2,1.7,3.9,3.9,3.9c2.2,0,3.9-1.7,3.9-3.9c0-2.2-1.7-3.9-3.9-3.9C254-1.9,252.3-0.3,252.3,1.9z M260.1,9.7
			c0,2.2,1.7,3.9,3.9,3.9c2.2,0,3.9-1.7,3.9-3.9c0-2.2-1.7-3.9-3.9-3.9C261.8,5.8,260.1,7.5,260.1,9.7z M260.1,110.4
			c0,2.2,1.7,3.9,3.9,3.9c2.2,0,3.9-1.7,3.9-3.9c0-2.2-1.7-3.9-3.9-3.9C261.8,106.5,260.1,108.2,260.1,110.4z M260.1,102.7
			c0,2.2,1.7,3.9,3.9,3.9c2.2,0,3.9-1.7,3.9-3.9c0-2.2-1.7-3.9-3.9-3.9C261.8,98.8,260.1,100.5,260.1,102.7z M260.1,94.9
			c0,2.2,1.7,3.9,3.9,3.9c2.2,0,3.9-1.7,3.9-3.9c0-2.2-1.7-3.9-3.9-3.9C261.8,91,260.1,92.7,260.1,94.9z M260.1,87.2
			c0,2.2,1.7,3.9,3.9,3.9c2.2,0,3.9-1.7,3.9-3.9c0-2.2-1.7-3.9-3.9-3.9C261.8,83.3,260.1,85,260.1,87.2z M260.1,79.4
			c0,2.2,1.7,3.9,3.9,3.9c2.2,0,3.9-1.7,3.9-3.9c0-2.2-1.7-3.9-3.9-3.9C261.8,75.5,260.1,77.2,260.1,79.4z M260.1,71.7
			c0,2.2,1.7,3.9,3.9,3.9c2.2,0,3.9-1.7,3.9-3.9c0-2.2-1.7-3.9-3.9-3.9C261.8,67.8,260.1,69.5,260.1,71.7z M260.1,63.9
			c0,2.2,1.7,3.9,3.9,3.9c2.2,0,3.9-1.7,3.9-3.9c0-2.2-1.7-3.9-3.9-3.9C261.8,60,260.1,61.7,260.1,63.9z M260.1,56.2
			c0,2.2,1.7,3.9,3.9,3.9c2.2,0,3.9-1.7,3.9-3.9c0-2.2-1.7-3.9-3.9-3.9C261.8,52.3,260.1,54,260.1,56.2z M260.1,48.4
			c0,2.2,1.7,3.9,3.9,3.9c2.2,0,3.9-1.7,3.9-3.9c0-2.2-1.7-3.9-3.9-3.9C261.8,44.5,260.1,46.2,260.1,48.4z M260.1,40.7
			c0,2.2,1.7,3.9,3.9,3.9c2.2,0,3.9-1.7,3.9-3.9c0-2.2-1.7-3.9-3.9-3.9C261.8,36.8,260.1,38.5,260.1,40.7z M260.1,32.9
			c0,2.2,1.7,3.9,3.9,3.9c2.2,0,3.9-1.7,3.9-3.9c0-2.2-1.7-3.9-3.9-3.9C261.8,29,260.1,30.7,260.1,32.9z M260.1,25.2
			c0,2.2,1.7,3.9,3.9,3.9c2.2,0,3.9-1.7,3.9-3.9s-1.7-3.9-3.9-3.9C261.8,21.3,260.1,23,260.1,25.2z M260.1,17.4
			c0,2.2,1.7,3.9,3.9,3.9c2.2,0,3.9-1.7,3.9-3.9c0-2.2-1.7-3.9-3.9-3.9C261.8,13.5,260.1,15.2,260.1,17.4z M267.8,110.4
			c0,2.2,1.7,3.9,3.9,3.9c2.2,0,3.9-1.7,3.9-3.9c0-2.2-1.7-3.9-3.9-3.9C269.5,106.5,267.8,108.2,267.8,110.4z M267.8,102.7
			c0,2.2,1.7,3.9,3.9,3.9c2.2,0,3.9-1.7,3.9-3.9c0-2.2-1.7-3.9-3.9-3.9C269.5,98.8,267.8,100.5,267.8,102.7z M267.8,94.9
			c0,2.2,1.7,3.9,3.9,3.9c2.2,0,3.9-1.7,3.9-3.9c0-2.2-1.7-3.9-3.9-3.9C269.5,91,267.8,92.7,267.8,94.9z M267.8,87.2
			c0,2.2,1.7,3.9,3.9,3.9c2.2,0,3.9-1.7,3.9-3.9c0-2.2-1.7-3.9-3.9-3.9C269.5,83.3,267.8,85,267.8,87.2z M267.8,79.4
			c0,2.2,1.7,3.9,3.9,3.9c2.2,0,3.9-1.7,3.9-3.9c0-2.2-1.7-3.9-3.9-3.9C269.5,75.5,267.8,77.2,267.8,79.4z M267.8,71.7
			c0,2.2,1.7,3.9,3.9,3.9c2.2,0,3.9-1.7,3.9-3.9c0-2.2-1.7-3.9-3.9-3.9C269.5,67.8,267.8,69.5,267.8,71.7z M267.8,63.9
			c0,2.2,1.7,3.9,3.9,3.9c2.2,0,3.9-1.7,3.9-3.9c0-2.2-1.7-3.9-3.9-3.9C269.5,60,267.8,61.7,267.8,63.9z M267.8,56.2
			c0,2.2,1.7,3.9,3.9,3.9c2.2,0,3.9-1.7,3.9-3.9c0-2.2-1.7-3.9-3.9-3.9C269.5,52.3,267.8,54,267.8,56.2z M267.8,48.4
			c0,2.2,1.7,3.9,3.9,3.9c2.2,0,3.9-1.7,3.9-3.9c0-2.2-1.7-3.9-3.9-3.9C269.5,44.5,267.8,46.2,267.8,48.4z M267.8,40.7
			c0,2.2,1.7,3.9,3.9,3.9c2.2,0,3.9-1.7,3.9-3.9c0-2.2-1.7-3.9-3.9-3.9C269.5,36.8,267.8,38.5,267.8,40.7z M267.8,32.9
			c0,2.2,1.7,3.9,3.9,3.9c2.2,0,3.9-1.7,3.9-3.9c0-2.2-1.7-3.9-3.9-3.9C269.5,29,267.8,30.7,267.8,32.9z M267.8,25.2
			c0,2.2,1.7,3.9,3.9,3.9c2.2,0,3.9-1.7,3.9-3.9s-1.7-3.9-3.9-3.9C269.5,21.3,267.8,23,267.8,25.2z M267.8,17.4
			c0,2.2,1.7,3.9,3.9,3.9c2.2,0,3.9-1.7,3.9-3.9c0-2.2-1.7-3.9-3.9-3.9C269.5,13.5,267.8,15.2,267.8,17.4z M252.3,9.7
			c0,2.2,1.7,3.9,3.9,3.9c2.2,0,3.9-1.7,3.9-3.9c0-2.2-1.7-3.9-3.9-3.9C254,5.8,252.3,7.5,252.3,9.7z M252.3,110.4
			c0,2.2,1.7,3.9,3.9,3.9c2.2,0,3.9-1.7,3.9-3.9c0-2.2-1.7-3.9-3.9-3.9C254,106.5,252.3,108.2,252.3,110.4z M252.3,102.7
			c0,2.2,1.7,3.9,3.9,3.9c2.2,0,3.9-1.7,3.9-3.9c0-2.2-1.7-3.9-3.9-3.9C254,98.8,252.3,100.5,252.3,102.7z M252.3,94.9
			c0,2.2,1.7,3.9,3.9,3.9c2.2,0,3.9-1.7,3.9-3.9c0-2.2-1.7-3.9-3.9-3.9C254,91,252.3,92.7,252.3,94.9z M252.3,87.2
			c0,2.2,1.7,3.9,3.9,3.9c2.2,0,3.9-1.7,3.9-3.9c0-2.2-1.7-3.9-3.9-3.9C254,83.3,252.3,85,252.3,87.2z M252.3,79.4
			c0,2.2,1.7,3.9,3.9,3.9c2.2,0,3.9-1.7,3.9-3.9c0-2.2-1.7-3.9-3.9-3.9C254,75.5,252.3,77.2,252.3,79.4z M252.3,71.7
			c0,2.2,1.7,3.9,3.9,3.9c2.2,0,3.9-1.7,3.9-3.9c0-2.2-1.7-3.9-3.9-3.9C254,67.8,252.3,69.5,252.3,71.7z M252.3,63.9
			c0,2.2,1.7,3.9,3.9,3.9c2.2,0,3.9-1.7,3.9-3.9c0-2.2-1.7-3.9-3.9-3.9C254,60,252.3,61.7,252.3,63.9z M252.3,56.2
			c0,2.2,1.7,3.9,3.9,3.9c2.2,0,3.9-1.7,3.9-3.9c0-2.2-1.7-3.9-3.9-3.9C254,52.3,252.3,54,252.3,56.2z M252.3,48.4
			c0,2.2,1.7,3.9,3.9,3.9c2.2,0,3.9-1.7,3.9-3.9c0-2.2-1.7-3.9-3.9-3.9C254,44.5,252.3,46.2,252.3,48.4z M252.3,40.7
			c0,2.2,1.7,3.9,3.9,3.9c2.2,0,3.9-1.7,3.9-3.9c0-2.2-1.7-3.9-3.9-3.9C254,36.8,252.3,38.5,252.3,40.7z M252.3,32.9
			c0,2.2,1.7,3.9,3.9,3.9c2.2,0,3.9-1.7,3.9-3.9c0-2.2-1.7-3.9-3.9-3.9C254,29,252.3,30.7,252.3,32.9z M252.3,25.2
			c0,2.2,1.7,3.9,3.9,3.9c2.2,0,3.9-1.7,3.9-3.9s-1.7-3.9-3.9-3.9C254,21.3,252.3,23,252.3,25.2z M252.3,17.4c0,2.2,1.7,3.9,3.9,3.9
			c2.2,0,3.9-1.7,3.9-3.9c0-2.2-1.7-3.9-3.9-3.9C254,13.5,252.3,15.2,252.3,17.4z M205.8,17.4c0,2.2,1.7,3.9,3.9,3.9
			c2.2,0,3.9-1.7,3.9-3.9c0-2.2-1.7-3.9-3.9-3.9C207.5,13.5,205.8,15.2,205.8,17.4z M213.6,17.4c0,2.2,1.7,3.9,3.9,3.9
			c2.2,0,3.9-1.7,3.9-3.9c0-2.2-1.7-3.9-3.9-3.9C215.3,13.5,213.6,15.2,213.6,17.4z M221.3,17.4c0,2.2,1.7,3.9,3.9,3.9
			c2.2,0,3.9-1.7,3.9-3.9c0-2.2-1.7-3.9-3.9-3.9C223,13.5,221.3,15.2,221.3,17.4z M229.1,17.4c0,2.2,1.7,3.9,3.9,3.9
			c2.2,0,3.9-1.7,3.9-3.9c0-2.2-1.7-3.9-3.9-3.9C230.8,13.5,229.1,15.2,229.1,17.4z M236.8,17.4c0,2.2,1.7,3.9,3.9,3.9
			c2.2,0,3.9-1.7,3.9-3.9c0-2.2-1.7-3.9-3.9-3.9C238.5,13.5,236.8,15.2,236.8,17.4z M244.6,17.4c0,2.2,1.7,3.9,3.9,3.9
			c2.2,0,3.9-1.7,3.9-3.9c0-2.2-1.7-3.9-3.9-3.9C246.3,13.5,244.6,15.2,244.6,17.4z M213.6,9.7c0,2.2,1.7,3.9,3.9,3.9
			c2.2,0,3.9-1.7,3.9-3.9c0-2.2-1.7-3.9-3.9-3.9C215.3,5.8,213.6,7.5,213.6,9.7z M221.3,9.7c0,2.2,1.7,3.9,3.9,3.9
			c2.2,0,3.9-1.7,3.9-3.9c0-2.2-1.7-3.9-3.9-3.9C223,5.8,221.3,7.5,221.3,9.7z M229.1,9.7c0,2.2,1.7,3.9,3.9,3.9
			c2.2,0,3.9-1.7,3.9-3.9c0-2.2-1.7-3.9-3.9-3.9C230.8,5.8,229.1,7.5,229.1,9.7z M236.8,9.7c0,2.2,1.7,3.9,3.9,3.9
			c2.2,0,3.9-1.7,3.9-3.9c0-2.2-1.7-3.9-3.9-3.9C238.5,5.8,236.8,7.5,236.8,9.7z M244.6,9.7c0,2.2,1.7,3.9,3.9,3.9
			c2.2,0,3.9-1.7,3.9-3.9c0-2.2-1.7-3.9-3.9-3.9C246.3,5.8,244.6,7.5,244.6,9.7z M120.6,17.4c0,2.2,1.7,3.9,3.9,3.9
			c2.2,0,3.9-1.7,3.9-3.9c0-2.2-1.7-3.9-3.9-3.9C122.3,13.5,120.6,15.2,120.6,17.4z M120.6,9.7c0,2.2,1.7,3.9,3.9,3.9
			c2.2,0,3.9-1.7,3.9-3.9c0-2.2-1.7-3.9-3.9-3.9C122.3,5.8,120.6,7.5,120.6,9.7z M120.6,1.9c0,2.2,1.7,3.9,3.9,3.9
			c2.2,0,3.9-1.7,3.9-3.9c0-2.2-1.7-3.9-3.9-3.9C122.3-1.9,120.6-0.3,120.6,1.9z M112.8,25.2c0,2.2,1.7,3.9,3.9,3.9
			c2.2,0,3.9-1.7,3.9-3.9s-1.7-3.9-3.9-3.9C114.5,21.3,112.8,23,112.8,25.2z M112.8,17.4c0,2.2,1.7,3.9,3.9,3.9
			c2.2,0,3.9-1.7,3.9-3.9c0-2.2-1.7-3.9-3.9-3.9C114.5,13.5,112.8,15.2,112.8,17.4z M112.8,9.7c0,2.2,1.7,3.9,3.9,3.9
			c2.2,0,3.9-1.7,3.9-3.9c0-2.2-1.7-3.9-3.9-3.9C114.5,5.8,112.8,7.5,112.8,9.7z M112.8,1.9c0,2.2,1.7,3.9,3.9,3.9
			c2.2,0,3.9-1.7,3.9-3.9c0-2.2-1.7-3.9-3.9-3.9C114.5-1.9,112.8-0.3,112.8,1.9z M128.3,9.7c0,2.2,1.7,3.9,3.9,3.9
			c2.2,0,3.9-1.7,3.9-3.9c0-2.2-1.7-3.9-3.9-3.9C130,5.8,128.3,7.5,128.3,9.7z M128.3,1.9c0,2.2,1.7,3.9,3.9,3.9
			c2.2,0,3.9-1.7,3.9-3.9c0-2.2-1.7-3.9-3.9-3.9C130-1.9,128.3-0.3,128.3,1.9z M136.1,25.2c0,2.2,1.7,3.9,3.9,3.9
			c2.2,0,3.9-1.7,3.9-3.9s-1.7-3.9-3.9-3.9C137.8,21.3,136.1,23,136.1,25.2z M205.8,25.2c0,2.2,1.7,3.9,3.9,3.9
			c2.2,0,3.9-1.7,3.9-3.9s-1.7-3.9-3.9-3.9C207.5,21.3,205.8,23,205.8,25.2z"/>
	</g>
</g>
<g>
	<g transform="translate(463.814139, 342.852737)">
		<path class="st0" d="M174,87.2c0,2.2,1.7,3.9,3.9,3.9c2.2,0,3.9-1.7,3.9-3.9c0-2.2-1.7-3.9-3.9-3.9C175.7,83.3,174,85,174,87.2z
			 M174,56.2c0,2.2,1.7,3.9,3.9,3.9c2.2,0,3.9-1.7,3.9-3.9c0-2.2-1.7-3.9-3.9-3.9C175.7,52.3,174,54,174,56.2z M166.2,79.4
			c0,2.2,1.7,3.9,3.9,3.9c2.2,0,3.9-1.7,3.9-3.9c0-2.2-1.7-3.9-3.9-3.9C167.9,75.5,166.2,77.2,166.2,79.4z M174,48.4
			c0,2.2,1.7,3.9,3.9,3.9c2.2,0,3.9-1.7,3.9-3.9c0-2.2-1.7-3.9-3.9-3.9C175.7,44.5,174,46.2,174,48.4z M166.2,48.4
			c0,2.2,1.7,3.9,3.9,3.9c2.2,0,3.9-1.7,3.9-3.9c0-2.2-1.7-3.9-3.9-3.9C167.9,44.5,166.2,46.2,166.2,48.4z M158.5,71.7
			c0,2.2,1.7,3.9,3.9,3.9c2.2,0,3.9-1.7,3.9-3.9c0-2.2-1.7-3.9-3.9-3.9C160.2,67.8,158.5,69.5,158.5,71.7z M174,40.7
			c0,2.2,1.7,3.9,3.9,3.9c2.2,0,3.9-1.7,3.9-3.9c0-2.2-1.7-3.9-3.9-3.9C175.7,36.8,174,38.5,174,40.7z M166.2,40.7
			c0,2.2,1.7,3.9,3.9,3.9c2.2,0,3.9-1.7,3.9-3.9c0-2.2-1.7-3.9-3.9-3.9C167.9,36.8,166.2,38.5,166.2,40.7z M158.5,40.7
			c0,2.2,1.7,3.9,3.9,3.9c2.2,0,3.9-1.7,3.9-3.9c0-2.2-1.7-3.9-3.9-3.9C160.2,36.8,158.5,38.5,158.5,40.7z M174,32.9
			c0,2.2,1.7,3.9,3.9,3.9c2.2,0,3.9-1.7,3.9-3.9c0-2.2-1.7-3.9-3.9-3.9C175.7,29,174,30.7,174,32.9z M166.2,32.9
			c0,2.2,1.7,3.9,3.9,3.9c2.2,0,3.9-1.7,3.9-3.9c0-2.2-1.7-3.9-3.9-3.9C167.9,29,166.2,30.7,166.2,32.9z M158.5,32.9
			c0,2.2,1.7,3.9,3.9,3.9c2.2,0,3.9-1.7,3.9-3.9c0-2.2-1.7-3.9-3.9-3.9C160.2,29,158.5,30.7,158.5,32.9z M174,25.2
			c0,2.2,1.7,3.9,3.9,3.9c2.2,0,3.9-1.7,3.9-3.9s-1.7-3.9-3.9-3.9C175.7,21.3,174,23,174,25.2z M166.2,25.2c0,2.2,1.7,3.9,3.9,3.9
			c2.2,0,3.9-1.7,3.9-3.9s-1.7-3.9-3.9-3.9C167.9,21.3,166.2,23,166.2,25.2z M158.5,25.2c0,2.2,1.7,3.9,3.9,3.9
			c2.2,0,3.9-1.7,3.9-3.9s-1.7-3.9-3.9-3.9C160.2,21.3,158.5,23,158.5,25.2z M174,17.4c0,2.2,1.7,3.9,3.9,3.9c2.2,0,3.9-1.7,3.9-3.9
			c0-2.2-1.7-3.9-3.9-3.9C175.7,13.5,174,15.2,174,17.4z M166.2,17.4c0,2.2,1.7,3.9,3.9,3.9c2.2,0,3.9-1.7,3.9-3.9
			c0-2.2-1.7-3.9-3.9-3.9C167.9,13.5,166.2,15.2,166.2,17.4z M158.5,17.4c0,2.2,1.7,3.9,3.9,3.9c2.2,0,3.9-1.7,3.9-3.9
			c0-2.2-1.7-3.9-3.9-3.9C160.2,13.5,158.5,15.2,158.5,17.4z M174,9.7c0,2.2,1.7,3.9,3.9,3.9c2.2,0,3.9-1.7,3.9-3.9
			c0-2.2-1.7-3.9-3.9-3.9C175.7,5.8,174,7.5,174,9.7z M166.2,9.7c0,2.2,1.7,3.9,3.9,3.9c2.2,0,3.9-1.7,3.9-3.9
			c0-2.2-1.7-3.9-3.9-3.9C167.9,5.8,166.2,7.5,166.2,9.7z M158.5,9.7c0,2.2,1.7,3.9,3.9,3.9c2.2,0,3.9-1.7,3.9-3.9
			c0-2.2-1.7-3.9-3.9-3.9C160.2,5.8,158.5,7.5,158.5,9.7z M174,1.9c0,2.2,1.7,3.9,3.9,3.9c2.2,0,3.9-1.7,3.9-3.9
			c0-2.2-1.7-3.9-3.9-3.9C175.7-1.9,174-0.3,174,1.9z M166.2,1.9c0,2.2,1.7,3.9,3.9,3.9c2.2,0,3.9-1.7,3.9-3.9
			c0-2.2-1.7-3.9-3.9-3.9C167.9-1.9,166.2-0.3,166.2,1.9z M158.5,1.9c0,2.2,1.7,3.9,3.9,3.9c2.2,0,3.9-1.7,3.9-3.9
			c0-2.2-1.7-3.9-3.9-3.9C160.2-1.9,158.5-0.3,158.5,1.9z M174-29.1c0,2.2,1.7,3.9,3.9,3.9c2.2,0,3.9-1.7,3.9-3.9
			c0-2.2-1.7-3.9-3.9-3.9C175.7-32.9,174-31.2,174-29.1z M166.2-29.1c0,2.2,1.7,3.9,3.9,3.9c2.2,0,3.9-1.7,3.9-3.9
			c0-2.2-1.7-3.9-3.9-3.9C167.9-32.9,166.2-31.2,166.2-29.1z M158.5-29.1c0,2.2,1.7,3.9,3.9,3.9c2.2,0,3.9-1.7,3.9-3.9
			c0-2.2-1.7-3.9-3.9-3.9C160.2-32.9,158.5-31.2,158.5-29.1z M158.5,102.7c0,2.2,1.7,3.9,3.9,3.9c2.2,0,3.9-1.7,3.9-3.9
			c0-2.2-1.7-3.9-3.9-3.9C160.2,98.8,158.5,100.5,158.5,102.7z M174-36.8c0,2.2,1.7,3.9,3.9,3.9c2.2,0,3.9-1.7,3.9-3.9
			s-1.7-3.9-3.9-3.9C175.7-40.7,174-39,174-36.8z M166.2-36.8c0,2.2,1.7,3.9,3.9,3.9c2.2,0,3.9-1.7,3.9-3.9s-1.7-3.9-3.9-3.9
			C167.9-40.7,166.2-39,166.2-36.8z M158.5-36.8c0,2.2,1.7,3.9,3.9,3.9c2.2,0,3.9-1.7,3.9-3.9s-1.7-3.9-3.9-3.9
			C160.2-40.7,158.5-39,158.5-36.8z M158.5,110.4c0,2.2,1.7,3.9,3.9,3.9c2.2,0,3.9-1.7,3.9-3.9c0-2.2-1.7-3.9-3.9-3.9
			C160.2,106.5,158.5,108.2,158.5,110.4z M166.2,110.4c0,2.2,1.7,3.9,3.9,3.9c2.2,0,3.9-1.7,3.9-3.9c0-2.2-1.7-3.9-3.9-3.9
			C167.9,106.5,166.2,108.2,166.2,110.4z M174-44.6c0,2.2,1.7,3.9,3.9,3.9c2.2,0,3.9-1.7,3.9-3.9c0-2.2-1.7-3.9-3.9-3.9
			C175.7-48.4,174-46.7,174-44.6z M166.2-44.6c0,2.2,1.7,3.9,3.9,3.9c2.2,0,3.9-1.7,3.9-3.9c0-2.2-1.7-3.9-3.9-3.9
			C167.9-48.4,166.2-46.7,166.2-44.6z M158.5-44.6c0,2.2,1.7,3.9,3.9,3.9c2.2,0,3.9-1.7,3.9-3.9c0-2.2-1.7-3.9-3.9-3.9
			C160.2-48.4,158.5-46.7,158.5-44.6z M174,110.4c0,2.2,1.7,3.9,3.9,3.9c2.2,0,3.9-1.7,3.9-3.9c0-2.2-1.7-3.9-3.9-3.9
			C175.7,106.5,174,108.2,174,110.4z M166.2,102.7c0,2.2,1.7,3.9,3.9,3.9c2.2,0,3.9-1.7,3.9-3.9c0-2.2-1.7-3.9-3.9-3.9
			C167.9,98.8,166.2,100.5,166.2,102.7z M158.5,94.9c0,2.2,1.7,3.9,3.9,3.9c2.2,0,3.9-1.7,3.9-3.9c0-2.2-1.7-3.9-3.9-3.9
			C160.2,91,158.5,92.7,158.5,94.9z M174,94.9c0,2.2,1.7,3.9,3.9,3.9c2.2,0,3.9-1.7,3.9-3.9c0-2.2-1.7-3.9-3.9-3.9
			C175.7,91,174,92.7,174,94.9z M166.2,87.2c0,2.2,1.7,3.9,3.9,3.9c2.2,0,3.9-1.7,3.9-3.9c0-2.2-1.7-3.9-3.9-3.9
			C167.9,83.3,166.2,85,166.2,87.2z M158.5,79.4c0,2.2,1.7,3.9,3.9,3.9c2.2,0,3.9-1.7,3.9-3.9c0-2.2-1.7-3.9-3.9-3.9
			C160.2,75.5,158.5,77.2,158.5,79.4z M174,102.7c0,2.2,1.7,3.9,3.9,3.9c2.2,0,3.9-1.7,3.9-3.9c0-2.2-1.7-3.9-3.9-3.9
			C175.7,98.8,174,100.5,174,102.7z M166.2,94.9c0,2.2,1.7,3.9,3.9,3.9c2.2,0,3.9-1.7,3.9-3.9c0-2.2-1.7-3.9-3.9-3.9
			C167.9,91,166.2,92.7,166.2,94.9z M158.5,87.2c0,2.2,1.7,3.9,3.9,3.9c2.2,0,3.9-1.7,3.9-3.9c0-2.2-1.7-3.9-3.9-3.9
			C160.2,83.3,158.5,85,158.5,87.2z M174,79.4c0,2.2,1.7,3.9,3.9,3.9c2.2,0,3.9-1.7,3.9-3.9c0-2.2-1.7-3.9-3.9-3.9
			C175.7,75.5,174,77.2,174,79.4z M166.2,71.7c0,2.2,1.7,3.9,3.9,3.9c2.2,0,3.9-1.7,3.9-3.9c0-2.2-1.7-3.9-3.9-3.9
			C167.9,67.8,166.2,69.5,166.2,71.7z M158.5,63.9c0,2.2,1.7,3.9,3.9,3.9c2.2,0,3.9-1.7,3.9-3.9c0-2.2-1.7-3.9-3.9-3.9
			C160.2,60,158.5,61.7,158.5,63.9z M174,71.7c0,2.2,1.7,3.9,3.9,3.9c2.2,0,3.9-1.7,3.9-3.9c0-2.2-1.7-3.9-3.9-3.9
			C175.7,67.8,174,69.5,174,71.7z M166.2,63.9c0,2.2,1.7,3.9,3.9,3.9c2.2,0,3.9-1.7,3.9-3.9c0-2.2-1.7-3.9-3.9-3.9
			C167.9,60,166.2,61.7,166.2,63.9z M158.5,56.2c0,2.2,1.7,3.9,3.9,3.9c2.2,0,3.9-1.7,3.9-3.9c0-2.2-1.7-3.9-3.9-3.9
			C160.2,52.3,158.5,54,158.5,56.2z M174,63.9c0,2.2,1.7,3.9,3.9,3.9c2.2,0,3.9-1.7,3.9-3.9c0-2.2-1.7-3.9-3.9-3.9
			C175.7,60,174,61.7,174,63.9z M166.2,56.2c0,2.2,1.7,3.9,3.9,3.9c2.2,0,3.9-1.7,3.9-3.9c0-2.2-1.7-3.9-3.9-3.9
			C167.9,52.3,166.2,54,166.2,56.2z M158.5,48.4c0,2.2,1.7,3.9,3.9,3.9c2.2,0,3.9-1.7,3.9-3.9c0-2.2-1.7-3.9-3.9-3.9
			C160.2,44.5,158.5,46.2,158.5,48.4z"/>
	</g>
</g>
<g>
	<g transform="translate(496.171394, 342.852737)">
		<path class="st1" d="M184.8,110.4c0,2.2,1.7,3.9,3.9,3.9c2.2,0,3.9-1.7,3.9-3.9c0-2.2-1.7-3.9-3.9-3.9
			C186.5,106.5,184.8,108.2,184.8,110.4z M192.5,110.4c0,2.2,1.7,3.9,3.9,3.9c2.2,0,3.9-1.7,3.9-3.9c0-2.2-1.7-3.9-3.9-3.9
			C194.2,106.5,192.5,108.2,192.5,110.4z M200.3,110.4c0,2.2,1.7,3.9,3.9,3.9c2.2,0,3.9-1.7,3.9-3.9c0-2.2-1.7-3.9-3.9-3.9
			C202,106.5,200.3,108.2,200.3,110.4z M208,110.4c0,2.2,1.7,3.9,3.9,3.9c2.2,0,3.9-1.7,3.9-3.9c0-2.2-1.7-3.9-3.9-3.9
			C209.7,106.5,208,108.2,208,110.4z M215.8,110.4c0,2.2,1.7,3.9,3.9,3.9c2.2,0,3.9-1.7,3.9-3.9c0-2.2-1.7-3.9-3.9-3.9
			C217.5,106.5,215.8,108.2,215.8,110.4z M231.3,87.2c0,2.2,1.7,3.9,3.9,3.9c2.2,0,3.9-1.7,3.9-3.9c0-2.2-1.7-3.9-3.9-3.9
			C232.9,83.3,231.3,85,231.3,87.2z M177,102.7c0,2.2,1.7,3.9,3.9,3.9c2.2,0,3.9-1.7,3.9-3.9c0-2.2-1.7-3.9-3.9-3.9
			C178.7,98.8,177,100.5,177,102.7z M184.8,102.7c0,2.2,1.7,3.9,3.9,3.9c2.2,0,3.9-1.7,3.9-3.9c0-2.2-1.7-3.9-3.9-3.9
			C186.5,98.8,184.8,100.5,184.8,102.7z M192.5,102.7c0,2.2,1.7,3.9,3.9,3.9c2.2,0,3.9-1.7,3.9-3.9c0-2.2-1.7-3.9-3.9-3.9
			C194.2,98.8,192.5,100.5,192.5,102.7z M200.3,102.7c0,2.2,1.7,3.9,3.9,3.9c2.2,0,3.9-1.7,3.9-3.9c0-2.2-1.7-3.9-3.9-3.9
			C202,98.8,200.3,100.5,200.3,102.7z M208,102.7c0,2.2,1.7,3.9,3.9,3.9c2.2,0,3.9-1.7,3.9-3.9c0-2.2-1.7-3.9-3.9-3.9
			C209.7,98.8,208,100.5,208,102.7z M215.8,102.7c0,2.2,1.7,3.9,3.9,3.9c2.2,0,3.9-1.7,3.9-3.9c0-2.2-1.7-3.9-3.9-3.9
			C217.5,98.8,215.8,100.5,215.8,102.7z M223.5,102.7c0,2.2,1.7,3.9,3.9,3.9s3.9-1.7,3.9-3.9c0-2.2-1.7-3.9-3.9-3.9
			S223.5,100.5,223.5,102.7z M239,102.7c0,2.2,1.7,3.9,3.9,3.9c2.2,0,3.9-1.7,3.9-3.9c0-2.2-1.7-3.9-3.9-3.9
			C240.7,98.8,239,100.5,239,102.7z M169.3,94.9c0,2.2,1.7,3.9,3.9,3.9c2.2,0,3.9-1.7,3.9-3.9c0-2.2-1.7-3.9-3.9-3.9
			C171,91,169.3,92.7,169.3,94.9z M177,94.9c0,2.2,1.7,3.9,3.9,3.9c2.2,0,3.9-1.7,3.9-3.9c0-2.2-1.7-3.9-3.9-3.9
			C178.7,91,177,92.7,177,94.9z M184.8,94.9c0,2.2,1.7,3.9,3.9,3.9c2.2,0,3.9-1.7,3.9-3.9c0-2.2-1.7-3.9-3.9-3.9
			C186.5,91,184.8,92.7,184.8,94.9z M192.5,94.9c0,2.2,1.7,3.9,3.9,3.9c2.2,0,3.9-1.7,3.9-3.9c0-2.2-1.7-3.9-3.9-3.9
			C194.2,91,192.5,92.7,192.5,94.9z M200.3,94.9c0,2.2,1.7,3.9,3.9,3.9c2.2,0,3.9-1.7,3.9-3.9c0-2.2-1.7-3.9-3.9-3.9
			C202,91,200.3,92.7,200.3,94.9z M208,94.9c0,2.2,1.7,3.9,3.9,3.9c2.2,0,3.9-1.7,3.9-3.9c0-2.2-1.7-3.9-3.9-3.9
			C209.7,91,208,92.7,208,94.9z M215.8,94.9c0,2.2,1.7,3.9,3.9,3.9c2.2,0,3.9-1.7,3.9-3.9c0-2.2-1.7-3.9-3.9-3.9
			C217.5,91,215.8,92.7,215.8,94.9z M223.5,94.9c0,2.2,1.7,3.9,3.9,3.9s3.9-1.7,3.9-3.9c0-2.2-1.7-3.9-3.9-3.9
			S223.5,92.7,223.5,94.9z M231.3,94.9c0,2.2,1.7,3.9,3.9,3.9c2.2,0,3.9-1.7,3.9-3.9c0-2.2-1.7-3.9-3.9-3.9
			C232.9,91,231.3,92.7,231.3,94.9z M239,94.9c0,2.2,1.7,3.9,3.9,3.9c2.2,0,3.9-1.7,3.9-3.9c0-2.2-1.7-3.9-3.9-3.9
			C240.7,91,239,92.7,239,94.9z M246.7,94.9c0,2.2,1.7,3.9,3.9,3.9c2.2,0,3.9-1.7,3.9-3.9c0-2.2-1.7-3.9-3.9-3.9
			C248.4,91,246.7,92.7,246.7,94.9z M169.3,87.2c0,2.2,1.7,3.9,3.9,3.9c2.2,0,3.9-1.7,3.9-3.9c0-2.2-1.7-3.9-3.9-3.9
			C171,83.3,169.3,85,169.3,87.2z M177,87.2c0,2.2,1.7,3.9,3.9,3.9c2.2,0,3.9-1.7,3.9-3.9c0-2.2-1.7-3.9-3.9-3.9
			C178.7,83.3,177,85,177,87.2z M184.8,87.2c0,2.2,1.7,3.9,3.9,3.9c2.2,0,3.9-1.7,3.9-3.9c0-2.2-1.7-3.9-3.9-3.9
			C186.5,83.3,184.8,85,184.8,87.2z M239,87.2c0,2.2,1.7,3.9,3.9,3.9c2.2,0,3.9-1.7,3.9-3.9c0-2.2-1.7-3.9-3.9-3.9
			C240.7,83.3,239,85,239,87.2z M246.7,87.2c0,2.2,1.7,3.9,3.9,3.9c2.2,0,3.9-1.7,3.9-3.9c0-2.2-1.7-3.9-3.9-3.9
			C248.4,83.3,246.7,85,246.7,87.2z M254.5,87.2c0,2.2,1.7,3.9,3.9,3.9c2.2,0,3.9-1.7,3.9-3.9c0-2.2-1.7-3.9-3.9-3.9
			C256.2,83.3,254.5,85,254.5,87.2z M239,79.4c0,2.2,1.7,3.9,3.9,3.9c2.2,0,3.9-1.7,3.9-3.9c0-2.2-1.7-3.9-3.9-3.9
			C240.7,75.5,239,77.2,239,79.4z M246.7,79.4c0,2.2,1.7,3.9,3.9,3.9c2.2,0,3.9-1.7,3.9-3.9c0-2.2-1.7-3.9-3.9-3.9
			C248.4,75.5,246.7,77.2,246.7,79.4z M254.5,79.4c0,2.2,1.7,3.9,3.9,3.9c2.2,0,3.9-1.7,3.9-3.9c0-2.2-1.7-3.9-3.9-3.9
			C256.2,75.5,254.5,77.2,254.5,79.4z M239,71.7c0,2.2,1.7,3.9,3.9,3.9c2.2,0,3.9-1.7,3.9-3.9c0-2.2-1.7-3.9-3.9-3.9
			C240.7,67.8,239,69.5,239,71.7z M246.7,71.7c0,2.2,1.7,3.9,3.9,3.9c2.2,0,3.9-1.7,3.9-3.9c0-2.2-1.7-3.9-3.9-3.9
			C248.4,67.8,246.7,69.5,246.7,71.7z M254.5,71.7c0,2.2,1.7,3.9,3.9,3.9c2.2,0,3.9-1.7,3.9-3.9c0-2.2-1.7-3.9-3.9-3.9
			C256.2,67.8,254.5,69.5,254.5,71.7z M184.8,63.9c0,2.2,1.7,3.9,3.9,3.9c2.2,0,3.9-1.7,3.9-3.9c0-2.2-1.7-3.9-3.9-3.9
			C186.5,60,184.8,61.7,184.8,63.9z M169.3,79.4c0,2.2,1.7,3.9,3.9,3.9c2.2,0,3.9-1.7,3.9-3.9c0-2.2-1.7-3.9-3.9-3.9
			C171,75.5,169.3,77.2,169.3,79.4z M177,79.4c0,2.2,1.7,3.9,3.9,3.9c2.2,0,3.9-1.7,3.9-3.9c0-2.2-1.7-3.9-3.9-3.9
			C178.7,75.5,177,77.2,177,79.4z M239,63.9c0,2.2,1.7,3.9,3.9,3.9c2.2,0,3.9-1.7,3.9-3.9c0-2.2-1.7-3.9-3.9-3.9
			C240.7,60,239,61.7,239,63.9z M246.7,63.9c0,2.2,1.7,3.9,3.9,3.9c2.2,0,3.9-1.7,3.9-3.9c0-2.2-1.7-3.9-3.9-3.9
			C248.4,60,246.7,61.7,246.7,63.9z M254.5,63.9c0,2.2,1.7,3.9,3.9,3.9c2.2,0,3.9-1.7,3.9-3.9c0-2.2-1.7-3.9-3.9-3.9
			C256.2,60,254.5,61.7,254.5,63.9z M177,56.2c0,2.2,1.7,3.9,3.9,3.9c2.2,0,3.9-1.7,3.9-3.9c0-2.2-1.7-3.9-3.9-3.9
			C178.7,52.3,177,54,177,56.2z M184.8,56.2c0,2.2,1.7,3.9,3.9,3.9c2.2,0,3.9-1.7,3.9-3.9c0-2.2-1.7-3.9-3.9-3.9
			C186.5,52.3,184.8,54,184.8,56.2z M169.3,71.7c0,2.2,1.7,3.9,3.9,3.9c2.2,0,3.9-1.7,3.9-3.9c0-2.2-1.7-3.9-3.9-3.9
			C171,67.8,169.3,69.5,169.3,71.7z M239,56.2c0,2.2,1.7,3.9,3.9,3.9c2.2,0,3.9-1.7,3.9-3.9c0-2.2-1.7-3.9-3.9-3.9
			C240.7,52.3,239,54,239,56.2z M246.7,56.2c0,2.2,1.7,3.9,3.9,3.9c2.2,0,3.9-1.7,3.9-3.9c0-2.2-1.7-3.9-3.9-3.9
			C248.4,52.3,246.7,54,246.7,56.2z M254.5,56.2c0,2.2,1.7,3.9,3.9,3.9c2.2,0,3.9-1.7,3.9-3.9c0-2.2-1.7-3.9-3.9-3.9
			C256.2,52.3,254.5,54,254.5,56.2z M169.3,48.4c0,2.2,1.7,3.9,3.9,3.9c2.2,0,3.9-1.7,3.9-3.9c0-2.2-1.7-3.9-3.9-3.9
			C171,44.5,169.3,46.2,169.3,48.4z M177,48.4c0,2.2,1.7,3.9,3.9,3.9c2.2,0,3.9-1.7,3.9-3.9c0-2.2-1.7-3.9-3.9-3.9
			C178.7,44.5,177,46.2,177,48.4z M184.8,48.4c0,2.2,1.7,3.9,3.9,3.9c2.2,0,3.9-1.7,3.9-3.9c0-2.2-1.7-3.9-3.9-3.9
			C186.5,44.5,184.8,46.2,184.8,48.4z M239,48.4c0,2.2,1.7,3.9,3.9,3.9c2.2,0,3.9-1.7,3.9-3.9c0-2.2-1.7-3.9-3.9-3.9
			C240.7,44.5,239,46.2,239,48.4z M246.7,48.4c0,2.2,1.7,3.9,3.9,3.9c2.2,0,3.9-1.7,3.9-3.9c0-2.2-1.7-3.9-3.9-3.9
			C248.4,44.5,246.7,46.2,246.7,48.4z M254.5,48.4c0,2.2,1.7,3.9,3.9,3.9c2.2,0,3.9-1.7,3.9-3.9c0-2.2-1.7-3.9-3.9-3.9
			C256.2,44.5,254.5,46.2,254.5,48.4z M169.3,40.7c0,2.2,1.7,3.9,3.9,3.9c2.2,0,3.9-1.7,3.9-3.9c0-2.2-1.7-3.9-3.9-3.9
			C171,36.8,169.3,38.5,169.3,40.7z M177,40.7c0,2.2,1.7,3.9,3.9,3.9c2.2,0,3.9-1.7,3.9-3.9c0-2.2-1.7-3.9-3.9-3.9
			C178.7,36.8,177,38.5,177,40.7z M184.8,40.7c0,2.2,1.7,3.9,3.9,3.9c2.2,0,3.9-1.7,3.9-3.9c0-2.2-1.7-3.9-3.9-3.9
			C186.5,36.8,184.8,38.5,184.8,40.7z M239,40.7c0,2.2,1.7,3.9,3.9,3.9c2.2,0,3.9-1.7,3.9-3.9c0-2.2-1.7-3.9-3.9-3.9
			C240.7,36.8,239,38.5,239,40.7z M246.7,40.7c0,2.2,1.7,3.9,3.9,3.9c2.2,0,3.9-1.7,3.9-3.9c0-2.2-1.7-3.9-3.9-3.9
			C248.4,36.8,246.7,38.5,246.7,40.7z M254.5,40.7c0,2.2,1.7,3.9,3.9,3.9c2.2,0,3.9-1.7,3.9-3.9c0-2.2-1.7-3.9-3.9-3.9
			C256.2,36.8,254.5,38.5,254.5,40.7z M169.3,32.9c0,2.2,1.7,3.9,3.9,3.9c2.2,0,3.9-1.7,3.9-3.9c0-2.2-1.7-3.9-3.9-3.9
			C171,29,169.3,30.7,169.3,32.9z M177,32.9c0,2.2,1.7,3.9,3.9,3.9c2.2,0,3.9-1.7,3.9-3.9c0-2.2-1.7-3.9-3.9-3.9
			C178.7,29,177,30.7,177,32.9z M184.8,32.9c0,2.2,1.7,3.9,3.9,3.9c2.2,0,3.9-1.7,3.9-3.9c0-2.2-1.7-3.9-3.9-3.9
			C186.5,29,184.8,30.7,184.8,32.9z M239,32.9c0,2.2,1.7,3.9,3.9,3.9c2.2,0,3.9-1.7,3.9-3.9c0-2.2-1.7-3.9-3.9-3.9
			C240.7,29,239,30.7,239,32.9z M246.7,32.9c0,2.2,1.7,3.9,3.9,3.9c2.2,0,3.9-1.7,3.9-3.9c0-2.2-1.7-3.9-3.9-3.9
			C248.4,29,246.7,30.7,246.7,32.9z M254.5,32.9c0,2.2,1.7,3.9,3.9,3.9c2.2,0,3.9-1.7,3.9-3.9c0-2.2-1.7-3.9-3.9-3.9
			C256.2,29,254.5,30.7,254.5,32.9z M169.3,25.2c0,2.2,1.7,3.9,3.9,3.9c2.2,0,3.9-1.7,3.9-3.9s-1.7-3.9-3.9-3.9
			C171,21.3,169.3,23,169.3,25.2z M177,25.2c0,2.2,1.7,3.9,3.9,3.9c2.2,0,3.9-1.7,3.9-3.9s-1.7-3.9-3.9-3.9
			C178.7,21.3,177,23,177,25.2z M184.8,25.2c0,2.2,1.7,3.9,3.9,3.9c2.2,0,3.9-1.7,3.9-3.9s-1.7-3.9-3.9-3.9
			C186.5,21.3,184.8,23,184.8,25.2z M231.3,25.2c0,2.2,1.7,3.9,3.9,3.9c2.2,0,3.9-1.7,3.9-3.9s-1.7-3.9-3.9-3.9
			C232.9,21.3,231.3,23,231.3,25.2z M239,25.2c0,2.2,1.7,3.9,3.9,3.9c2.2,0,3.9-1.7,3.9-3.9s-1.7-3.9-3.9-3.9
			C240.7,21.3,239,23,239,25.2z M246.7,25.2c0,2.2,1.7,3.9,3.9,3.9c2.2,0,3.9-1.7,3.9-3.9s-1.7-3.9-3.9-3.9
			C248.4,21.3,246.7,23,246.7,25.2z M254.5,25.2c0,2.2,1.7,3.9,3.9,3.9c2.2,0,3.9-1.7,3.9-3.9s-1.7-3.9-3.9-3.9
			C256.2,21.3,254.5,23,254.5,25.2z M169.3,17.4c0,2.2,1.7,3.9,3.9,3.9c2.2,0,3.9-1.7,3.9-3.9c0-2.2-1.7-3.9-3.9-3.9
			C171,13.5,169.3,15.2,169.3,17.4z M177,17.4c0,2.2,1.7,3.9,3.9,3.9c2.2,0,3.9-1.7,3.9-3.9c0-2.2-1.7-3.9-3.9-3.9
			C178.7,13.5,177,15.2,177,17.4z M184.8,17.4c0,2.2,1.7,3.9,3.9,3.9c2.2,0,3.9-1.7,3.9-3.9c0-2.2-1.7-3.9-3.9-3.9
			C186.5,13.5,184.8,15.2,184.8,17.4z M192.5,17.4c0,2.2,1.7,3.9,3.9,3.9c2.2,0,3.9-1.7,3.9-3.9c0-2.2-1.7-3.9-3.9-3.9
			C194.2,13.5,192.5,15.2,192.5,17.4z M200.3,17.4c0,2.2,1.7,3.9,3.9,3.9c2.2,0,3.9-1.7,3.9-3.9c0-2.2-1.7-3.9-3.9-3.9
			C202,13.5,200.3,15.2,200.3,17.4z M208,17.4c0,2.2,1.7,3.9,3.9,3.9c2.2,0,3.9-1.7,3.9-3.9c0-2.2-1.7-3.9-3.9-3.9
			C209.7,13.5,208,15.2,208,17.4z M215.8,17.4c0,2.2,1.7,3.9,3.9,3.9c2.2,0,3.9-1.7,3.9-3.9c0-2.2-1.7-3.9-3.9-3.9
			C217.5,13.5,215.8,15.2,215.8,17.4z M223.5,17.4c0,2.2,1.7,3.9,3.9,3.9s3.9-1.7,3.9-3.9c0-2.2-1.7-3.9-3.9-3.9
			S223.5,15.2,223.5,17.4z M231.3,17.4c0,2.2,1.7,3.9,3.9,3.9c2.2,0,3.9-1.7,3.9-3.9c0-2.2-1.7-3.9-3.9-3.9
			C232.9,13.5,231.3,15.2,231.3,17.4z M239,17.4c0,2.2,1.7,3.9,3.9,3.9c2.2,0,3.9-1.7,3.9-3.9c0-2.2-1.7-3.9-3.9-3.9
			C240.7,13.5,239,15.2,239,17.4z M246.7,17.4c0,2.2,1.7,3.9,3.9,3.9c2.2,0,3.9-1.7,3.9-3.9c0-2.2-1.7-3.9-3.9-3.9
			C248.4,13.5,246.7,15.2,246.7,17.4z M254.5,17.4c0,2.2,1.7,3.9,3.9,3.9c2.2,0,3.9-1.7,3.9-3.9c0-2.2-1.7-3.9-3.9-3.9
			C256.2,13.5,254.5,15.2,254.5,17.4z M177,9.7c0,2.2,1.7,3.9,3.9,3.9c2.2,0,3.9-1.7,3.9-3.9c0-2.2-1.7-3.9-3.9-3.9
			C178.7,5.8,177,7.5,177,9.7z M184.8,9.7c0,2.2,1.7,3.9,3.9,3.9c2.2,0,3.9-1.7,3.9-3.9c0-2.2-1.7-3.9-3.9-3.9
			C186.5,5.8,184.8,7.5,184.8,9.7z M192.5,9.7c0,2.2,1.7,3.9,3.9,3.9c2.2,0,3.9-1.7,3.9-3.9c0-2.2-1.7-3.9-3.9-3.9
			C194.2,5.8,192.5,7.5,192.5,9.7z M200.3,9.7c0,2.2,1.7,3.9,3.9,3.9c2.2,0,3.9-1.7,3.9-3.9c0-2.2-1.7-3.9-3.9-3.9
			C202,5.8,200.3,7.5,200.3,9.7z M208,9.7c0,2.2,1.7,3.9,3.9,3.9c2.2,0,3.9-1.7,3.9-3.9c0-2.2-1.7-3.9-3.9-3.9
			C209.7,5.8,208,7.5,208,9.7z M215.8,9.7c0,2.2,1.7,3.9,3.9,3.9c2.2,0,3.9-1.7,3.9-3.9c0-2.2-1.7-3.9-3.9-3.9
			C217.5,5.8,215.8,7.5,215.8,9.7z M223.5,9.7c0,2.2,1.7,3.9,3.9,3.9s3.9-1.7,3.9-3.9c0-2.2-1.7-3.9-3.9-3.9S223.5,7.5,223.5,9.7z
			 M239,9.7c0,2.2,1.7,3.9,3.9,3.9c2.2,0,3.9-1.7,3.9-3.9c0-2.2-1.7-3.9-3.9-3.9C240.7,5.8,239,7.5,239,9.7z M246.7,9.7
			c0,2.2,1.7,3.9,3.9,3.9c2.2,0,3.9-1.7,3.9-3.9c0-2.2-1.7-3.9-3.9-3.9C248.4,5.8,246.7,7.5,246.7,9.7z M254.5,9.7
			c0,2.2,1.7,3.9,3.9,3.9c2.2,0,3.9-1.7,3.9-3.9c0-2.2-1.7-3.9-3.9-3.9C256.2,5.8,254.5,7.5,254.5,9.7z M184.8,1.9
			c0,2.2,1.7,3.9,3.9,3.9c2.2,0,3.9-1.7,3.9-3.9c0-2.2-1.7-3.9-3.9-3.9C186.5-1.9,184.8-0.3,184.8,1.9z M192.5,1.9
			c0,2.2,1.7,3.9,3.9,3.9c2.2,0,3.9-1.7,3.9-3.9c0-2.2-1.7-3.9-3.9-3.9C194.2-1.9,192.5-0.3,192.5,1.9z M200.3,1.9
			c0,2.2,1.7,3.9,3.9,3.9c2.2,0,3.9-1.7,3.9-3.9c0-2.2-1.7-3.9-3.9-3.9C202-1.9,200.3-0.3,200.3,1.9z M208,1.9
			c0,2.2,1.7,3.9,3.9,3.9c2.2,0,3.9-1.7,3.9-3.9c0-2.2-1.7-3.9-3.9-3.9C209.7-1.9,208-0.3,208,1.9z M215.8,1.9
			c0,2.2,1.7,3.9,3.9,3.9c2.2,0,3.9-1.7,3.9-3.9c0-2.2-1.7-3.9-3.9-3.9C217.5-1.9,215.8-0.3,215.8,1.9z M239,1.9
			c0,2.2,1.7,3.9,3.9,3.9c2.2,0,3.9-1.7,3.9-3.9c0-2.2-1.7-3.9-3.9-3.9C240.7-1.9,239-0.3,239,1.9z M246.7,1.9
			c0,2.2,1.7,3.9,3.9,3.9c2.2,0,3.9-1.7,3.9-3.9c0-2.2-1.7-3.9-3.9-3.9C248.4-1.9,246.7-0.3,246.7,1.9z M254.5,1.9
			c0,2.2,1.7,3.9,3.9,3.9c2.2,0,3.9-1.7,3.9-3.9c0-2.2-1.7-3.9-3.9-3.9C256.2-1.9,254.5-0.3,254.5,1.9z M184.8,79.4
			c0,2.2,1.7,3.9,3.9,3.9c2.2,0,3.9-1.7,3.9-3.9c0-2.2-1.7-3.9-3.9-3.9C186.5,75.5,184.8,77.2,184.8,79.4z M177,71.7
			c0,2.2,1.7,3.9,3.9,3.9c2.2,0,3.9-1.7,3.9-3.9c0-2.2-1.7-3.9-3.9-3.9C178.7,67.8,177,69.5,177,71.7z M184.8,71.7
			c0,2.2,1.7,3.9,3.9,3.9c2.2,0,3.9-1.7,3.9-3.9c0-2.2-1.7-3.9-3.9-3.9C186.5,67.8,184.8,69.5,184.8,71.7z M169.3,63.9
			c0,2.2,1.7,3.9,3.9,3.9c2.2,0,3.9-1.7,3.9-3.9c0-2.2-1.7-3.9-3.9-3.9C171,60,169.3,61.7,169.3,63.9z M177,63.9
			c0,2.2,1.7,3.9,3.9,3.9c2.2,0,3.9-1.7,3.9-3.9c0-2.2-1.7-3.9-3.9-3.9C178.7,60,177,61.7,177,63.9z M169.3,56.2
			c0,2.2,1.7,3.9,3.9,3.9c2.2,0,3.9-1.7,3.9-3.9c0-2.2-1.7-3.9-3.9-3.9C171,52.3,169.3,54,169.3,56.2z M254.5,110.4
			c0,2.2,1.7,3.9,3.9,3.9c2.2,0,3.9-1.7,3.9-3.9c0-2.2-1.7-3.9-3.9-3.9C256.2,106.5,254.5,108.2,254.5,110.4z M246.7,110.4
			c0,2.2,1.7,3.9,3.9,3.9c2.2,0,3.9-1.7,3.9-3.9c0-2.2-1.7-3.9-3.9-3.9C248.4,106.5,246.7,108.2,246.7,110.4z M254.5,102.7
			c0,2.2,1.7,3.9,3.9,3.9c2.2,0,3.9-1.7,3.9-3.9c0-2.2-1.7-3.9-3.9-3.9C256.2,98.8,254.5,100.5,254.5,102.7z M239,110.4
			c0,2.2,1.7,3.9,3.9,3.9c2.2,0,3.9-1.7,3.9-3.9c0-2.2-1.7-3.9-3.9-3.9C240.7,106.5,239,108.2,239,110.4z M246.7,102.7
			c0,2.2,1.7,3.9,3.9,3.9c2.2,0,3.9-1.7,3.9-3.9c0-2.2-1.7-3.9-3.9-3.9C248.4,98.8,246.7,100.5,246.7,102.7z M254.5,94.9
			c0,2.2,1.7,3.9,3.9,3.9c2.2,0,3.9-1.7,3.9-3.9c0-2.2-1.7-3.9-3.9-3.9C256.2,91,254.5,92.7,254.5,94.9z M246.7,156.9
			c0-2.2-1.7-3.9-3.9-3.9c-2.2,0-3.9,1.7-3.9,3.9c0,2.2,1.7,3.9,3.9,3.9C245.1,160.8,246.7,159.1,246.7,156.9z M239,156.9
			c0-2.2-1.7-3.9-3.9-3.9c-2.2,0-3.9,1.7-3.9,3.9c0,2.2,1.7,3.9,3.9,3.9C237.3,160.8,239,159.1,239,156.9z M231.3,156.9
			c0-2.2-1.7-3.9-3.9-3.9s-3.9,1.7-3.9,3.9c0,2.2,1.7,3.9,3.9,3.9S231.3,159.1,231.3,156.9z M223.5,156.9c0-2.2-1.7-3.9-3.9-3.9
			c-2.2,0-3.9,1.7-3.9,3.9c0,2.2,1.7,3.9,3.9,3.9C221.8,160.8,223.5,159.1,223.5,156.9z M215.8,156.9c0-2.2-1.7-3.9-3.9-3.9
			c-2.2,0-3.9,1.7-3.9,3.9c0,2.2,1.7,3.9,3.9,3.9C214.1,160.8,215.8,159.1,215.8,156.9z M208,156.9c0-2.2-1.7-3.9-3.9-3.9
			c-2.2,0-3.9,1.7-3.9,3.9c0,2.2,1.7,3.9,3.9,3.9C206.3,160.8,208,159.1,208,156.9z M200.3,156.9c0-2.2-1.7-3.9-3.9-3.9
			c-2.2,0-3.9,1.7-3.9,3.9c0,2.2,1.7,3.9,3.9,3.9C198.6,160.8,200.3,159.1,200.3,156.9z M254.5,149.2c0-2.2-1.7-3.9-3.9-3.9
			c-2.2,0-3.9,1.7-3.9,3.9c0,2.2,1.7,3.9,3.9,3.9C252.8,153,254.5,151.3,254.5,149.2z M246.7,149.2c0-2.2-1.7-3.9-3.9-3.9
			c-2.2,0-3.9,1.7-3.9,3.9c0,2.2,1.7,3.9,3.9,3.9C245.1,153,246.7,151.3,246.7,149.2z M239,149.2c0-2.2-1.7-3.9-3.9-3.9
			c-2.2,0-3.9,1.7-3.9,3.9c0,2.2,1.7,3.9,3.9,3.9C237.3,153,239,151.3,239,149.2z M231.3,149.2c0-2.2-1.7-3.9-3.9-3.9
			s-3.9,1.7-3.9,3.9c0,2.2,1.7,3.9,3.9,3.9S231.3,151.3,231.3,149.2z M223.5,149.2c0-2.2-1.7-3.9-3.9-3.9c-2.2,0-3.9,1.7-3.9,3.9
			c0,2.2,1.7,3.9,3.9,3.9C221.8,153,223.5,151.3,223.5,149.2z M215.8,149.2c0-2.2-1.7-3.9-3.9-3.9c-2.2,0-3.9,1.7-3.9,3.9
			c0,2.2,1.7,3.9,3.9,3.9C214.1,153,215.8,151.3,215.8,149.2z M208,149.2c0-2.2-1.7-3.9-3.9-3.9c-2.2,0-3.9,1.7-3.9,3.9
			c0,2.2,1.7,3.9,3.9,3.9C206.3,153,208,151.3,208,149.2z M200.3,149.2c0-2.2-1.7-3.9-3.9-3.9c-2.2,0-3.9,1.7-3.9,3.9
			c0,2.2,1.7,3.9,3.9,3.9C198.6,153,200.3,151.3,200.3,149.2z M262.2,141.4c0-2.2-1.7-3.9-3.9-3.9c-2.2,0-3.9,1.7-3.9,3.9
			c0,2.2,1.7,3.9,3.9,3.9C260.6,145.3,262.2,143.6,262.2,141.4z M254.5,141.4c0-2.2-1.7-3.9-3.9-3.9c-2.2,0-3.9,1.7-3.9,3.9
			c0,2.2,1.7,3.9,3.9,3.9C252.8,145.3,254.5,143.6,254.5,141.4z M246.7,141.4c0-2.2-1.7-3.9-3.9-3.9c-2.2,0-3.9,1.7-3.9,3.9
			c0,2.2,1.7,3.9,3.9,3.9C245.1,145.3,246.7,143.6,246.7,141.4z M239,141.4c0-2.2-1.7-3.9-3.9-3.9c-2.2,0-3.9,1.7-3.9,3.9
			c0,2.2,1.7,3.9,3.9,3.9C237.3,145.3,239,143.6,239,141.4z M231.3,141.4c0-2.2-1.7-3.9-3.9-3.9s-3.9,1.7-3.9,3.9
			c0,2.2,1.7,3.9,3.9,3.9S231.3,143.6,231.3,141.4z M223.5,141.4c0-2.2-1.7-3.9-3.9-3.9c-2.2,0-3.9,1.7-3.9,3.9
			c0,2.2,1.7,3.9,3.9,3.9C221.8,145.3,223.5,143.6,223.5,141.4z M215.8,141.4c0-2.2-1.7-3.9-3.9-3.9c-2.2,0-3.9,1.7-3.9,3.9
			c0,2.2,1.7,3.9,3.9,3.9C214.1,145.3,215.8,143.6,215.8,141.4z M208,141.4c0-2.2-1.7-3.9-3.9-3.9c-2.2,0-3.9,1.7-3.9,3.9
			c0,2.2,1.7,3.9,3.9,3.9C206.3,145.3,208,143.6,208,141.4z M200.3,141.4c0-2.2-1.7-3.9-3.9-3.9c-2.2,0-3.9,1.7-3.9,3.9
			c0,2.2,1.7,3.9,3.9,3.9C198.6,145.3,200.3,143.6,200.3,141.4z M262.2,133.7c0-2.2-1.7-3.9-3.9-3.9c-2.2,0-3.9,1.7-3.9,3.9
			c0,2.2,1.7,3.9,3.9,3.9C260.6,137.5,262.2,135.8,262.2,133.7z M254.5,133.7c0-2.2-1.7-3.9-3.9-3.9c-2.2,0-3.9,1.7-3.9,3.9
			c0,2.2,1.7,3.9,3.9,3.9C252.8,137.5,254.5,135.8,254.5,133.7z M246.7,133.7c0-2.2-1.7-3.9-3.9-3.9c-2.2,0-3.9,1.7-3.9,3.9
			c0,2.2,1.7,3.9,3.9,3.9C245.1,137.5,246.7,135.8,246.7,133.7z M239,118.2c0,2.2,1.7,3.9,3.9,3.9c2.2,0,3.9-1.7,3.9-3.9
			c0-2.2-1.7-3.9-3.9-3.9C240.7,114.3,239,116,239,118.2z M239,125.9c0,2.2,1.7,3.9,3.9,3.9c2.2,0,3.9-1.7,3.9-3.9
			c0-2.2-1.7-3.9-3.9-3.9C240.7,122,239,123.7,239,125.9z M246.7,125.9c0,2.2,1.7,3.9,3.9,3.9c2.2,0,3.9-1.7,3.9-3.9
			c0-2.2-1.7-3.9-3.9-3.9C248.4,122,246.7,123.7,246.7,125.9z M262.2,125.9c0-2.2-1.7-3.9-3.9-3.9c-2.2,0-3.9,1.7-3.9,3.9
			c0,2.2,1.7,3.9,3.9,3.9C260.6,129.8,262.2,128.1,262.2,125.9z M254.5,118.2c0-2.2-1.7-3.9-3.9-3.9c-2.2,0-3.9,1.7-3.9,3.9
			c0,2.2,1.7,3.9,3.9,3.9C252.8,122,254.5,120.3,254.5,118.2z M262.2,118.2c0-2.2-1.7-3.9-3.9-3.9c-2.2,0-3.9,1.7-3.9,3.9
			c0,2.2,1.7,3.9,3.9,3.9C260.6,122,262.2,120.3,262.2,118.2z M192.5,156.9c0-2.2-1.7-3.9-3.9-3.9c-2.2,0-3.9,1.7-3.9,3.9
			c0,2.2,1.7,3.9,3.9,3.9C190.8,160.8,192.5,159.1,192.5,156.9z M192.5,149.2c0-2.2-1.7-3.9-3.9-3.9c-2.2,0-3.9,1.7-3.9,3.9
			c0,2.2,1.7,3.9,3.9,3.9C190.8,153,192.5,151.3,192.5,149.2z M192.5,141.4c0-2.2-1.7-3.9-3.9-3.9c-2.2,0-3.9,1.7-3.9,3.9
			c0,2.2,1.7,3.9,3.9,3.9C190.8,145.3,192.5,143.6,192.5,141.4z M184.8,149.2c0-2.2-1.7-3.9-3.9-3.9c-2.2,0-3.9,1.7-3.9,3.9
			c0,2.2,1.7,3.9,3.9,3.9C183.1,153,184.8,151.3,184.8,149.2z M184.8,141.4c0-2.2-1.7-3.9-3.9-3.9c-2.2,0-3.9,1.7-3.9,3.9
			c0,2.2,1.7,3.9,3.9,3.9C183.1,145.3,184.8,143.6,184.8,141.4z M184.8,133.7c0-2.2-1.7-3.9-3.9-3.9c-2.2,0-3.9,1.7-3.9,3.9
			c0,2.2,1.7,3.9,3.9,3.9C183.1,137.5,184.8,135.8,184.8,133.7z M192.5,133.7c0-2.2-1.7-3.9-3.9-3.9c-2.2,0-3.9,1.7-3.9,3.9
			c0,2.2,1.7,3.9,3.9,3.9C190.8,137.5,192.5,135.8,192.5,133.7z M177,141.4c0-2.2-1.7-3.9-3.9-3.9c-2.2,0-3.9,1.7-3.9,3.9
			c0,2.2,1.7,3.9,3.9,3.9C175.3,145.3,177,143.6,177,141.4z M177,133.7c0-2.2-1.7-3.9-3.9-3.9c-2.2,0-3.9,1.7-3.9,3.9
			c0,2.2,1.7,3.9,3.9,3.9C175.3,137.5,177,135.8,177,133.7z"/>
	</g>
</g>
<g>
	<g transform="translate(580.791057, 342.852737)">
		<path class="st1" d="M213,1.9c0,2.2,1.7,3.9,3.9,3.9c2.2,0,3.9-1.7,3.9-3.9c0-2.2-1.7-3.9-3.9-3.9C214.7-1.9,213-0.3,213,1.9z
			 M220.7,1.9c0,2.2,1.7,3.9,3.9,3.9s3.9-1.7,3.9-3.9c0-2.2-1.7-3.9-3.9-3.9S220.7-0.3,220.7,1.9z M228.5,1.9c0,2.2,1.7,3.9,3.9,3.9
			c2.2,0,3.9-1.7,3.9-3.9c0-2.2-1.7-3.9-3.9-3.9C230.2-1.9,228.5-0.3,228.5,1.9z M236.2,1.9c0,2.2,1.7,3.9,3.9,3.9
			c2.2,0,3.9-1.7,3.9-3.9c0-2.2-1.7-3.9-3.9-3.9C237.9-1.9,236.2-0.3,236.2,1.9z M244,1.9c0,2.2,1.7,3.9,3.9,3.9
			c2.2,0,3.9-1.7,3.9-3.9c0-2.2-1.7-3.9-3.9-3.9C245.7-1.9,244-0.3,244,1.9z M251.7,1.9c0,2.2,1.7,3.9,3.9,3.9
			c2.2,0,3.9-1.7,3.9-3.9c0-2.2-1.7-3.9-3.9-3.9C253.4-1.9,251.7-0.3,251.7,1.9z M259.5,1.9c0,2.2,1.7,3.9,3.9,3.9
			c2.2,0,3.9-1.7,3.9-3.9c0-2.2-1.7-3.9-3.9-3.9C261.2-1.9,259.5-0.3,259.5,1.9z M267.2,1.9c0,2.2,1.7,3.9,3.9,3.9
			c2.2,0,3.9-1.7,3.9-3.9c0-2.2-1.7-3.9-3.9-3.9C268.9-1.9,267.2-0.3,267.2,1.9z M205.2,9.7c0,2.2,1.7,3.9,3.9,3.9
			c2.2,0,3.9-1.7,3.9-3.9c0-2.2-1.7-3.9-3.9-3.9C206.9,5.8,205.2,7.5,205.2,9.7z M213,9.7c0,2.2,1.7,3.9,3.9,3.9
			c2.2,0,3.9-1.7,3.9-3.9c0-2.2-1.7-3.9-3.9-3.9C214.7,5.8,213,7.5,213,9.7z M220.7,9.7c0,2.2,1.7,3.9,3.9,3.9s3.9-1.7,3.9-3.9
			c0-2.2-1.7-3.9-3.9-3.9S220.7,7.5,220.7,9.7z M228.5,9.7c0,2.2,1.7,3.9,3.9,3.9c2.2,0,3.9-1.7,3.9-3.9c0-2.2-1.7-3.9-3.9-3.9
			C230.2,5.8,228.5,7.5,228.5,9.7z M236.2,9.7c0,2.2,1.7,3.9,3.9,3.9c2.2,0,3.9-1.7,3.9-3.9c0-2.2-1.7-3.9-3.9-3.9
			C237.9,5.8,236.2,7.5,236.2,9.7z M244,9.7c0,2.2,1.7,3.9,3.9,3.9c2.2,0,3.9-1.7,3.9-3.9c0-2.2-1.7-3.9-3.9-3.9
			C245.7,5.8,244,7.5,244,9.7z M251.7,9.7c0,2.2,1.7,3.9,3.9,3.9c2.2,0,3.9-1.7,3.9-3.9c0-2.2-1.7-3.9-3.9-3.9
			C253.4,5.8,251.7,7.5,251.7,9.7z M259.5,9.7c0,2.2,1.7,3.9,3.9,3.9c2.2,0,3.9-1.7,3.9-3.9c0-2.2-1.7-3.9-3.9-3.9
			C261.2,5.8,259.5,7.5,259.5,9.7z M267.2,9.7c0,2.2,1.7,3.9,3.9,3.9c2.2,0,3.9-1.7,3.9-3.9c0-2.2-1.7-3.9-3.9-3.9
			C268.9,5.8,267.2,7.5,267.2,9.7z M275,9.7c0,2.2,1.7,3.9,3.9,3.9c2.2,0,3.9-1.7,3.9-3.9c0-2.2-1.7-3.9-3.9-3.9
			C276.7,5.8,275,7.5,275,9.7z M197.5,17.4c0,2.2,1.7,3.9,3.9,3.9c2.2,0,3.9-1.7,3.9-3.9c0-2.2-1.7-3.9-3.9-3.9
			C199.2,13.5,197.5,15.2,197.5,17.4z M205.2,17.4c0,2.2,1.7,3.9,3.9,3.9c2.2,0,3.9-1.7,3.9-3.9c0-2.2-1.7-3.9-3.9-3.9
			C206.9,13.5,205.2,15.2,205.2,17.4z M213,17.4c0,2.2,1.7,3.9,3.9,3.9c2.2,0,3.9-1.7,3.9-3.9c0-2.2-1.7-3.9-3.9-3.9
			C214.7,13.5,213,15.2,213,17.4z M220.7,17.4c0,2.2,1.7,3.9,3.9,3.9s3.9-1.7,3.9-3.9c0-2.2-1.7-3.9-3.9-3.9S220.7,15.2,220.7,17.4z
			 M228.5,17.4c0,2.2,1.7,3.9,3.9,3.9c2.2,0,3.9-1.7,3.9-3.9c0-2.2-1.7-3.9-3.9-3.9C230.2,13.5,228.5,15.2,228.5,17.4z M236.2,17.4
			c0,2.2,1.7,3.9,3.9,3.9c2.2,0,3.9-1.7,3.9-3.9c0-2.2-1.7-3.9-3.9-3.9C237.9,13.5,236.2,15.2,236.2,17.4z M244,17.4
			c0,2.2,1.7,3.9,3.9,3.9c2.2,0,3.9-1.7,3.9-3.9c0-2.2-1.7-3.9-3.9-3.9C245.7,13.5,244,15.2,244,17.4z M251.7,17.4
			c0,2.2,1.7,3.9,3.9,3.9c2.2,0,3.9-1.7,3.9-3.9c0-2.2-1.7-3.9-3.9-3.9C253.4,13.5,251.7,15.2,251.7,17.4z M259.5,17.4
			c0,2.2,1.7,3.9,3.9,3.9c2.2,0,3.9-1.7,3.9-3.9c0-2.2-1.7-3.9-3.9-3.9C261.2,13.5,259.5,15.2,259.5,17.4z M267.2,17.4
			c0,2.2,1.7,3.9,3.9,3.9c2.2,0,3.9-1.7,3.9-3.9c0-2.2-1.7-3.9-3.9-3.9C268.9,13.5,267.2,15.2,267.2,17.4z M275,17.4
			c0,2.2,1.7,3.9,3.9,3.9c2.2,0,3.9-1.7,3.9-3.9c0-2.2-1.7-3.9-3.9-3.9C276.7,13.5,275,15.2,275,17.4z M282.7,17.4
			c0,2.2,1.7,3.9,3.9,3.9c2.2,0,3.9-1.7,3.9-3.9c0-2.2-1.7-3.9-3.9-3.9C284.4,13.5,282.7,15.2,282.7,17.4z M197.5,25.2
			c0,2.2,1.7,3.9,3.9,3.9c2.2,0,3.9-1.7,3.9-3.9s-1.7-3.9-3.9-3.9C199.2,21.3,197.5,23,197.5,25.2z M205.2,25.2
			c0,2.2,1.7,3.9,3.9,3.9c2.2,0,3.9-1.7,3.9-3.9s-1.7-3.9-3.9-3.9C206.9,21.3,205.2,23,205.2,25.2z M213,25.2c0,2.2,1.7,3.9,3.9,3.9
			c2.2,0,3.9-1.7,3.9-3.9s-1.7-3.9-3.9-3.9C214.7,21.3,213,23,213,25.2z M267.2,25.2c0,2.2,1.7,3.9,3.9,3.9c2.2,0,3.9-1.7,3.9-3.9
			s-1.7-3.9-3.9-3.9C268.9,21.3,267.2,23,267.2,25.2z M275,25.2c0,2.2,1.7,3.9,3.9,3.9c2.2,0,3.9-1.7,3.9-3.9s-1.7-3.9-3.9-3.9
			C276.7,21.3,275,23,275,25.2z M282.7,25.2c0,2.2,1.7,3.9,3.9,3.9c2.2,0,3.9-1.7,3.9-3.9s-1.7-3.9-3.9-3.9
			C284.4,21.3,282.7,23,282.7,25.2z M267.2,32.9c0,2.2,1.7,3.9,3.9,3.9c2.2,0,3.9-1.7,3.9-3.9c0-2.2-1.7-3.9-3.9-3.9
			C268.9,29,267.2,30.7,267.2,32.9z M275,32.9c0,2.2,1.7,3.9,3.9,3.9c2.2,0,3.9-1.7,3.9-3.9c0-2.2-1.7-3.9-3.9-3.9
			C276.7,29,275,30.7,275,32.9z M282.7,32.9c0,2.2,1.7,3.9,3.9,3.9c2.2,0,3.9-1.7,3.9-3.9c0-2.2-1.7-3.9-3.9-3.9
			C284.4,29,282.7,30.7,282.7,32.9z M267.2,40.7c0,2.2,1.7,3.9,3.9,3.9c2.2,0,3.9-1.7,3.9-3.9c0-2.2-1.7-3.9-3.9-3.9
			C268.9,36.8,267.2,38.5,267.2,40.7z M275,40.7c0,2.2,1.7,3.9,3.9,3.9c2.2,0,3.9-1.7,3.9-3.9c0-2.2-1.7-3.9-3.9-3.9
			C276.7,36.8,275,38.5,275,40.7z M282.7,40.7c0,2.2,1.7,3.9,3.9,3.9c2.2,0,3.9-1.7,3.9-3.9c0-2.2-1.7-3.9-3.9-3.9
			C284.4,36.8,282.7,38.5,282.7,40.7z M213,48.4c0,2.2,1.7,3.9,3.9,3.9c2.2,0,3.9-1.7,3.9-3.9c0-2.2-1.7-3.9-3.9-3.9
			C214.7,44.5,213,46.2,213,48.4z M220.7,48.4c0,2.2,1.7,3.9,3.9,3.9s3.9-1.7,3.9-3.9c0-2.2-1.7-3.9-3.9-3.9S220.7,46.2,220.7,48.4z
			 M228.5,48.4c0,2.2,1.7,3.9,3.9,3.9c2.2,0,3.9-1.7,3.9-3.9c0-2.2-1.7-3.9-3.9-3.9C230.2,44.5,228.5,46.2,228.5,48.4z M236.2,48.4
			c0,2.2,1.7,3.9,3.9,3.9c2.2,0,3.9-1.7,3.9-3.9c0-2.2-1.7-3.9-3.9-3.9C237.9,44.5,236.2,46.2,236.2,48.4z M244,48.4
			c0,2.2,1.7,3.9,3.9,3.9c2.2,0,3.9-1.7,3.9-3.9c0-2.2-1.7-3.9-3.9-3.9C245.7,44.5,244,46.2,244,48.4z M251.7,48.4
			c0,2.2,1.7,3.9,3.9,3.9c2.2,0,3.9-1.7,3.9-3.9c0-2.2-1.7-3.9-3.9-3.9C253.4,44.5,251.7,46.2,251.7,48.4z M259.5,48.4
			c0,2.2,1.7,3.9,3.9,3.9c2.2,0,3.9-1.7,3.9-3.9c0-2.2-1.7-3.9-3.9-3.9C261.2,44.5,259.5,46.2,259.5,48.4z M267.2,48.4
			c0,2.2,1.7,3.9,3.9,3.9c2.2,0,3.9-1.7,3.9-3.9c0-2.2-1.7-3.9-3.9-3.9C268.9,44.5,267.2,46.2,267.2,48.4z M275,48.4
			c0,2.2,1.7,3.9,3.9,3.9c2.2,0,3.9-1.7,3.9-3.9c0-2.2-1.7-3.9-3.9-3.9C276.7,44.5,275,46.2,275,48.4z M282.7,48.4
			c0,2.2,1.7,3.9,3.9,3.9c2.2,0,3.9-1.7,3.9-3.9c0-2.2-1.7-3.9-3.9-3.9C284.4,44.5,282.7,46.2,282.7,48.4z M205.2,56.2
			c0,2.2,1.7,3.9,3.9,3.9c2.2,0,3.9-1.7,3.9-3.9c0-2.2-1.7-3.9-3.9-3.9C206.9,52.3,205.2,54,205.2,56.2z M213,56.2
			c0,2.2,1.7,3.9,3.9,3.9c2.2,0,3.9-1.7,3.9-3.9c0-2.2-1.7-3.9-3.9-3.9C214.7,52.3,213,54,213,56.2z M220.7,56.2
			c0,2.2,1.7,3.9,3.9,3.9s3.9-1.7,3.9-3.9c0-2.2-1.7-3.9-3.9-3.9S220.7,54,220.7,56.2z M228.5,56.2c0,2.2,1.7,3.9,3.9,3.9
			c2.2,0,3.9-1.7,3.9-3.9c0-2.2-1.7-3.9-3.9-3.9C230.2,52.3,228.5,54,228.5,56.2z M236.2,56.2c0,2.2,1.7,3.9,3.9,3.9
			c2.2,0,3.9-1.7,3.9-3.9c0-2.2-1.7-3.9-3.9-3.9C237.9,52.3,236.2,54,236.2,56.2z M244,56.2c0,2.2,1.7,3.9,3.9,3.9
			c2.2,0,3.9-1.7,3.9-3.9c0-2.2-1.7-3.9-3.9-3.9C245.7,52.3,244,54,244,56.2z M251.7,56.2c0,2.2,1.7,3.9,3.9,3.9
			c2.2,0,3.9-1.7,3.9-3.9c0-2.2-1.7-3.9-3.9-3.9C253.4,52.3,251.7,54,251.7,56.2z M259.5,56.2c0,2.2,1.7,3.9,3.9,3.9
			c2.2,0,3.9-1.7,3.9-3.9c0-2.2-1.7-3.9-3.9-3.9C261.2,52.3,259.5,54,259.5,56.2z M267.2,56.2c0,2.2,1.7,3.9,3.9,3.9
			c2.2,0,3.9-1.7,3.9-3.9c0-2.2-1.7-3.9-3.9-3.9C268.9,52.3,267.2,54,267.2,56.2z M275,56.2c0,2.2,1.7,3.9,3.9,3.9
			c2.2,0,3.9-1.7,3.9-3.9c0-2.2-1.7-3.9-3.9-3.9C276.7,52.3,275,54,275,56.2z M282.7,56.2c0,2.2,1.7,3.9,3.9,3.9
			c2.2,0,3.9-1.7,3.9-3.9c0-2.2-1.7-3.9-3.9-3.9C284.4,52.3,282.7,54,282.7,56.2z M197.5,63.9c0,2.2,1.7,3.9,3.9,3.9
			c2.2,0,3.9-1.7,3.9-3.9c0-2.2-1.7-3.9-3.9-3.9C199.2,60,197.5,61.7,197.5,63.9z M205.2,63.9c0,2.2,1.7,3.9,3.9,3.9
			c2.2,0,3.9-1.7,3.9-3.9c0-2.2-1.7-3.9-3.9-3.9C206.9,60,205.2,61.7,205.2,63.9z M213,63.9c0,2.2,1.7,3.9,3.9,3.9
			c2.2,0,3.9-1.7,3.9-3.9c0-2.2-1.7-3.9-3.9-3.9C214.7,60,213,61.7,213,63.9z M220.7,63.9c0,2.2,1.7,3.9,3.9,3.9s3.9-1.7,3.9-3.9
			c0-2.2-1.7-3.9-3.9-3.9S220.7,61.7,220.7,63.9z M228.5,63.9c0,2.2,1.7,3.9,3.9,3.9c2.2,0,3.9-1.7,3.9-3.9c0-2.2-1.7-3.9-3.9-3.9
			C230.2,60,228.5,61.7,228.5,63.9z M236.2,63.9c0,2.2,1.7,3.9,3.9,3.9c2.2,0,3.9-1.7,3.9-3.9c0-2.2-1.7-3.9-3.9-3.9
			C237.9,60,236.2,61.7,236.2,63.9z M244,63.9c0,2.2,1.7,3.9,3.9,3.9c2.2,0,3.9-1.7,3.9-3.9c0-2.2-1.7-3.9-3.9-3.9
			C245.7,60,244,61.7,244,63.9z M251.7,63.9c0,2.2,1.7,3.9,3.9,3.9c2.2,0,3.9-1.7,3.9-3.9c0-2.2-1.7-3.9-3.9-3.9
			C253.4,60,251.7,61.7,251.7,63.9z M259.5,40.7c0,2.2,1.7,3.9,3.9,3.9c2.2,0,3.9-1.7,3.9-3.9c0-2.2-1.7-3.9-3.9-3.9
			C261.2,36.8,259.5,38.5,259.5,40.7z M267.2,63.9c0,2.2,1.7,3.9,3.9,3.9c2.2,0,3.9-1.7,3.9-3.9c0-2.2-1.7-3.9-3.9-3.9
			C268.9,60,267.2,61.7,267.2,63.9z M275,63.9c0,2.2,1.7,3.9,3.9,3.9c2.2,0,3.9-1.7,3.9-3.9c0-2.2-1.7-3.9-3.9-3.9
			C276.7,60,275,61.7,275,63.9z M282.7,63.9c0,2.2,1.7,3.9,3.9,3.9c2.2,0,3.9-1.7,3.9-3.9c0-2.2-1.7-3.9-3.9-3.9
			C284.4,60,282.7,61.7,282.7,63.9z M197.5,71.7c0,2.2,1.7,3.9,3.9,3.9c2.2,0,3.9-1.7,3.9-3.9c0-2.2-1.7-3.9-3.9-3.9
			C199.2,67.8,197.5,69.5,197.5,71.7z M205.2,71.7c0,2.2,1.7,3.9,3.9,3.9c2.2,0,3.9-1.7,3.9-3.9c0-2.2-1.7-3.9-3.9-3.9
			C206.9,67.8,205.2,69.5,205.2,71.7z M213,71.7c0,2.2,1.7,3.9,3.9,3.9c2.2,0,3.9-1.7,3.9-3.9c0-2.2-1.7-3.9-3.9-3.9
			C214.7,67.8,213,69.5,213,71.7z M267.2,71.7c0,2.2,1.7,3.9,3.9,3.9c2.2,0,3.9-1.7,3.9-3.9c0-2.2-1.7-3.9-3.9-3.9
			C268.9,67.8,267.2,69.5,267.2,71.7z M275,71.7c0,2.2,1.7,3.9,3.9,3.9c2.2,0,3.9-1.7,3.9-3.9c0-2.2-1.7-3.9-3.9-3.9
			C276.7,67.8,275,69.5,275,71.7z M282.7,71.7c0,2.2,1.7,3.9,3.9,3.9c2.2,0,3.9-1.7,3.9-3.9c0-2.2-1.7-3.9-3.9-3.9
			C284.4,67.8,282.7,69.5,282.7,71.7z M197.5,79.4c0,2.2,1.7,3.9,3.9,3.9c2.2,0,3.9-1.7,3.9-3.9c0-2.2-1.7-3.9-3.9-3.9
			C199.2,75.5,197.5,77.2,197.5,79.4z M205.2,79.4c0,2.2,1.7,3.9,3.9,3.9c2.2,0,3.9-1.7,3.9-3.9c0-2.2-1.7-3.9-3.9-3.9
			C206.9,75.5,205.2,77.2,205.2,79.4z M213,79.4c0,2.2,1.7,3.9,3.9,3.9c2.2,0,3.9-1.7,3.9-3.9c0-2.2-1.7-3.9-3.9-3.9
			C214.7,75.5,213,77.2,213,79.4z M267.2,79.4c0,2.2,1.7,3.9,3.9,3.9c2.2,0,3.9-1.7,3.9-3.9c0-2.2-1.7-3.9-3.9-3.9
			C268.9,75.5,267.2,77.2,267.2,79.4z M275,79.4c0,2.2,1.7,3.9,3.9,3.9c2.2,0,3.9-1.7,3.9-3.9c0-2.2-1.7-3.9-3.9-3.9
			C276.7,75.5,275,77.2,275,79.4z M282.7,79.4c0,2.2,1.7,3.9,3.9,3.9c2.2,0,3.9-1.7,3.9-3.9c0-2.2-1.7-3.9-3.9-3.9
			C284.4,75.5,282.7,77.2,282.7,79.4z M197.5,87.2c0,2.2,1.7,3.9,3.9,3.9c2.2,0,3.9-1.7,3.9-3.9c0-2.2-1.7-3.9-3.9-3.9
			C199.2,83.3,197.5,85,197.5,87.2z M205.2,87.2c0,2.2,1.7,3.9,3.9,3.9c2.2,0,3.9-1.7,3.9-3.9c0-2.2-1.7-3.9-3.9-3.9
			C206.9,83.3,205.2,85,205.2,87.2z M213,87.2c0,2.2,1.7,3.9,3.9,3.9c2.2,0,3.9-1.7,3.9-3.9c0-2.2-1.7-3.9-3.9-3.9
			C214.7,83.3,213,85,213,87.2z M259.5,87.2c0,2.2,1.7,3.9,3.9,3.9c2.2,0,3.9-1.7,3.9-3.9c0-2.2-1.7-3.9-3.9-3.9
			C261.2,83.3,259.5,85,259.5,87.2z M267.2,87.2c0,2.2,1.7,3.9,3.9,3.9c2.2,0,3.9-1.7,3.9-3.9c0-2.2-1.7-3.9-3.9-3.9
			C268.9,83.3,267.2,85,267.2,87.2z M275,87.2c0,2.2,1.7,3.9,3.9,3.9c2.2,0,3.9-1.7,3.9-3.9c0-2.2-1.7-3.9-3.9-3.9
			C276.7,83.3,275,85,275,87.2z M282.7,87.2c0,2.2,1.7,3.9,3.9,3.9c2.2,0,3.9-1.7,3.9-3.9c0-2.2-1.7-3.9-3.9-3.9
			C284.4,83.3,282.7,85,282.7,87.2z M197.5,94.9c0,2.2,1.7,3.9,3.9,3.9c2.2,0,3.9-1.7,3.9-3.9c0-2.2-1.7-3.9-3.9-3.9
			C199.2,91,197.5,92.7,197.5,94.9z M205.2,94.9c0,2.2,1.7,3.9,3.9,3.9c2.2,0,3.9-1.7,3.9-3.9c0-2.2-1.7-3.9-3.9-3.9
			C206.9,91,205.2,92.7,205.2,94.9z M213,94.9c0,2.2,1.7,3.9,3.9,3.9c2.2,0,3.9-1.7,3.9-3.9c0-2.2-1.7-3.9-3.9-3.9
			C214.7,91,213,92.7,213,94.9z M220.7,94.9c0,2.2,1.7,3.9,3.9,3.9s3.9-1.7,3.9-3.9c0-2.2-1.7-3.9-3.9-3.9S220.7,92.7,220.7,94.9z
			 M228.5,94.9c0,2.2,1.7,3.9,3.9,3.9c2.2,0,3.9-1.7,3.9-3.9c0-2.2-1.7-3.9-3.9-3.9C230.2,91,228.5,92.7,228.5,94.9z M236.2,94.9
			c0,2.2,1.7,3.9,3.9,3.9c2.2,0,3.9-1.7,3.9-3.9c0-2.2-1.7-3.9-3.9-3.9C237.9,91,236.2,92.7,236.2,94.9z M244,94.9
			c0,2.2,1.7,3.9,3.9,3.9c2.2,0,3.9-1.7,3.9-3.9c0-2.2-1.7-3.9-3.9-3.9C245.7,91,244,92.7,244,94.9z M251.7,94.9
			c0,2.2,1.7,3.9,3.9,3.9c2.2,0,3.9-1.7,3.9-3.9c0-2.2-1.7-3.9-3.9-3.9C253.4,91,251.7,92.7,251.7,94.9z M259.5,94.9
			c0,2.2,1.7,3.9,3.9,3.9c2.2,0,3.9-1.7,3.9-3.9c0-2.2-1.7-3.9-3.9-3.9C261.2,91,259.5,92.7,259.5,94.9z M267.2,94.9
			c0,2.2,1.7,3.9,3.9,3.9c2.2,0,3.9-1.7,3.9-3.9c0-2.2-1.7-3.9-3.9-3.9C268.9,91,267.2,92.7,267.2,94.9z M275,94.9
			c0,2.2,1.7,3.9,3.9,3.9c2.2,0,3.9-1.7,3.9-3.9c0-2.2-1.7-3.9-3.9-3.9C276.7,91,275,92.7,275,94.9z M282.7,94.9
			c0,2.2,1.7,3.9,3.9,3.9c2.2,0,3.9-1.7,3.9-3.9c0-2.2-1.7-3.9-3.9-3.9C284.4,91,282.7,92.7,282.7,94.9z M205.2,102.7
			c0,2.2,1.7,3.9,3.9,3.9c2.2,0,3.9-1.7,3.9-3.9c0-2.2-1.7-3.9-3.9-3.9C206.9,98.8,205.2,100.5,205.2,102.7z M213,102.7
			c0,2.2,1.7,3.9,3.9,3.9c2.2,0,3.9-1.7,3.9-3.9c0-2.2-1.7-3.9-3.9-3.9C214.7,98.8,213,100.5,213,102.7z M220.7,102.7
			c0,2.2,1.7,3.9,3.9,3.9s3.9-1.7,3.9-3.9c0-2.2-1.7-3.9-3.9-3.9S220.7,100.5,220.7,102.7z M228.5,102.7c0,2.2,1.7,3.9,3.9,3.9
			c2.2,0,3.9-1.7,3.9-3.9c0-2.2-1.7-3.9-3.9-3.9C230.2,98.8,228.5,100.5,228.5,102.7z M236.2,102.7c0,2.2,1.7,3.9,3.9,3.9
			c2.2,0,3.9-1.7,3.9-3.9c0-2.2-1.7-3.9-3.9-3.9C237.9,98.8,236.2,100.5,236.2,102.7z M244,102.7c0,2.2,1.7,3.9,3.9,3.9
			c2.2,0,3.9-1.7,3.9-3.9c0-2.2-1.7-3.9-3.9-3.9C245.7,98.8,244,100.5,244,102.7z M251.7,102.7c0,2.2,1.7,3.9,3.9,3.9
			c2.2,0,3.9-1.7,3.9-3.9c0-2.2-1.7-3.9-3.9-3.9C253.4,98.8,251.7,100.5,251.7,102.7z M267.2,102.7c0,2.2,1.7,3.9,3.9,3.9
			c2.2,0,3.9-1.7,3.9-3.9c0-2.2-1.7-3.9-3.9-3.9C268.9,98.8,267.2,100.5,267.2,102.7z M275,102.7c0,2.2,1.7,3.9,3.9,3.9
			c2.2,0,3.9-1.7,3.9-3.9c0-2.2-1.7-3.9-3.9-3.9C276.7,98.8,275,100.5,275,102.7z M282.7,102.7c0,2.2,1.7,3.9,3.9,3.9
			c2.2,0,3.9-1.7,3.9-3.9c0-2.2-1.7-3.9-3.9-3.9C284.4,98.8,282.7,100.5,282.7,102.7z M213,110.4c0,2.2,1.7,3.9,3.9,3.9
			c2.2,0,3.9-1.7,3.9-3.9c0-2.2-1.7-3.9-3.9-3.9C214.7,106.5,213,108.2,213,110.4z M220.7,110.4c0,2.2,1.7,3.9,3.9,3.9
			s3.9-1.7,3.9-3.9c0-2.2-1.7-3.9-3.9-3.9S220.7,108.2,220.7,110.4z M228.5,110.4c0,2.2,1.7,3.9,3.9,3.9c2.2,0,3.9-1.7,3.9-3.9
			c0-2.2-1.7-3.9-3.9-3.9C230.2,106.5,228.5,108.2,228.5,110.4z M236.2,110.4c0,2.2,1.7,3.9,3.9,3.9c2.2,0,3.9-1.7,3.9-3.9
			c0-2.2-1.7-3.9-3.9-3.9C237.9,106.5,236.2,108.2,236.2,110.4z M244,110.4c0,2.2,1.7,3.9,3.9,3.9c2.2,0,3.9-1.7,3.9-3.9
			c0-2.2-1.7-3.9-3.9-3.9C245.7,106.5,244,108.2,244,110.4z M267.2,110.4c0,2.2,1.7,3.9,3.9,3.9c2.2,0,3.9-1.7,3.9-3.9
			c0-2.2-1.7-3.9-3.9-3.9C268.9,106.5,267.2,108.2,267.2,110.4z M275,110.4c0,2.2,1.7,3.9,3.9,3.9c2.2,0,3.9-1.7,3.9-3.9
			c0-2.2-1.7-3.9-3.9-3.9C276.7,106.5,275,108.2,275,110.4z M282.7,110.4c0,2.2,1.7,3.9,3.9,3.9c2.2,0,3.9-1.7,3.9-3.9
			c0-2.2-1.7-3.9-3.9-3.9C284.4,106.5,282.7,108.2,282.7,110.4z"/>
	</g>
</g>
<g>
	<g transform="translate(665.410719, 342.852737)">
		<path class="st1" d="M241.2,1.9c0,2.2,1.7,3.9,3.9,3.9c2.2,0,3.9-1.7,3.9-3.9c0-2.2-1.7-3.9-3.9-3.9
			C242.9-1.9,241.2-0.3,241.2,1.9z M248.9,1.9c0,2.2,1.7,3.9,3.9,3.9s3.9-1.7,3.9-3.9c0-2.2-1.7-3.9-3.9-3.9S248.9-0.3,248.9,1.9z
			 M256.7,1.9c0,2.2,1.7,3.9,3.9,3.9c2.2,0,3.9-1.7,3.9-3.9c0-2.2-1.7-3.9-3.9-3.9C258.4-1.9,256.7-0.3,256.7,1.9z M264.4,1.9
			c0,2.2,1.7,3.9,3.9,3.9c2.2,0,3.9-1.7,3.9-3.9c0-2.2-1.7-3.9-3.9-3.9C266.1-1.9,264.4-0.3,264.4,1.9z M272.2,1.9
			c0,2.2,1.7,3.9,3.9,3.9c2.2,0,3.9-1.7,3.9-3.9c0-2.2-1.7-3.9-3.9-3.9C273.9-1.9,272.2-0.3,272.2,1.9z M279.9,1.9
			c0,2.2,1.7,3.9,3.9,3.9s3.9-1.7,3.9-3.9c0-2.2-1.7-3.9-3.9-3.9S279.9-0.3,279.9,1.9z M287.7,1.9c0,2.2,1.7,3.9,3.9,3.9
			c2.2,0,3.9-1.7,3.9-3.9c0-2.2-1.7-3.9-3.9-3.9C289.4-1.9,287.7-0.3,287.7,1.9z M295.4,1.9c0,2.2,1.7,3.9,3.9,3.9
			c2.2,0,3.9-1.7,3.9-3.9c0-2.2-1.7-3.9-3.9-3.9C297.1-1.9,295.4-0.3,295.4,1.9z M233.4,9.7c0,2.2,1.7,3.9,3.9,3.9
			c2.2,0,3.9-1.7,3.9-3.9c0-2.2-1.7-3.9-3.9-3.9C235.1,5.8,233.4,7.5,233.4,9.7z M241.2,9.7c0,2.2,1.7,3.9,3.9,3.9
			c2.2,0,3.9-1.7,3.9-3.9c0-2.2-1.7-3.9-3.9-3.9C242.9,5.8,241.2,7.5,241.2,9.7z M248.9,9.7c0,2.2,1.7,3.9,3.9,3.9s3.9-1.7,3.9-3.9
			c0-2.2-1.7-3.9-3.9-3.9S248.9,7.5,248.9,9.7z M256.7,9.7c0,2.2,1.7,3.9,3.9,3.9c2.2,0,3.9-1.7,3.9-3.9c0-2.2-1.7-3.9-3.9-3.9
			C258.4,5.8,256.7,7.5,256.7,9.7z M264.4,9.7c0,2.2,1.7,3.9,3.9,3.9c2.2,0,3.9-1.7,3.9-3.9c0-2.2-1.7-3.9-3.9-3.9
			C266.1,5.8,264.4,7.5,264.4,9.7z M272.2,9.7c0,2.2,1.7,3.9,3.9,3.9c2.2,0,3.9-1.7,3.9-3.9c0-2.2-1.7-3.9-3.9-3.9
			C273.9,5.8,272.2,7.5,272.2,9.7z M279.9,9.7c0,2.2,1.7,3.9,3.9,3.9s3.9-1.7,3.9-3.9c0-2.2-1.7-3.9-3.9-3.9S279.9,7.5,279.9,9.7z
			 M287.7,9.7c0,2.2,1.7,3.9,3.9,3.9c2.2,0,3.9-1.7,3.9-3.9c0-2.2-1.7-3.9-3.9-3.9C289.4,5.8,287.7,7.5,287.7,9.7z M295.4,9.7
			c0,2.2,1.7,3.9,3.9,3.9c2.2,0,3.9-1.7,3.9-3.9c0-2.2-1.7-3.9-3.9-3.9C297.1,5.8,295.4,7.5,295.4,9.7z M303.2,9.7
			c0,2.2,1.7,3.9,3.9,3.9c2.2,0,3.9-1.7,3.9-3.9c0-2.2-1.7-3.9-3.9-3.9C304.9,5.8,303.2,7.5,303.2,9.7z M225.7,17.4
			c0,2.2,1.7,3.9,3.9,3.9c2.2,0,3.9-1.7,3.9-3.9c0-2.2-1.7-3.9-3.9-3.9C227.4,13.5,225.7,15.2,225.7,17.4z M233.4,17.4
			c0,2.2,1.7,3.9,3.9,3.9c2.2,0,3.9-1.7,3.9-3.9c0-2.2-1.7-3.9-3.9-3.9C235.1,13.5,233.4,15.2,233.4,17.4z M241.2,17.4
			c0,2.2,1.7,3.9,3.9,3.9c2.2,0,3.9-1.7,3.9-3.9c0-2.2-1.7-3.9-3.9-3.9C242.9,13.5,241.2,15.2,241.2,17.4z M248.9,17.4
			c0,2.2,1.7,3.9,3.9,3.9s3.9-1.7,3.9-3.9c0-2.2-1.7-3.9-3.9-3.9S248.9,15.2,248.9,17.4z M256.7,17.4c0,2.2,1.7,3.9,3.9,3.9
			c2.2,0,3.9-1.7,3.9-3.9c0-2.2-1.7-3.9-3.9-3.9C258.4,13.5,256.7,15.2,256.7,17.4z M264.4,17.4c0,2.2,1.7,3.9,3.9,3.9
			c2.2,0,3.9-1.7,3.9-3.9c0-2.2-1.7-3.9-3.9-3.9C266.1,13.5,264.4,15.2,264.4,17.4z M272.2,17.4c0,2.2,1.7,3.9,3.9,3.9
			c2.2,0,3.9-1.7,3.9-3.9c0-2.2-1.7-3.9-3.9-3.9C273.9,13.5,272.2,15.2,272.2,17.4z M279.9,17.4c0,2.2,1.7,3.9,3.9,3.9
			s3.9-1.7,3.9-3.9c0-2.2-1.7-3.9-3.9-3.9S279.9,15.2,279.9,17.4z M287.7,17.4c0,2.2,1.7,3.9,3.9,3.9c2.2,0,3.9-1.7,3.9-3.9
			c0-2.2-1.7-3.9-3.9-3.9C289.4,13.5,287.7,15.2,287.7,17.4z M295.4,17.4c0,2.2,1.7,3.9,3.9,3.9c2.2,0,3.9-1.7,3.9-3.9
			c0-2.2-1.7-3.9-3.9-3.9C297.1,13.5,295.4,15.2,295.4,17.4z M303.2,17.4c0,2.2,1.7,3.9,3.9,3.9c2.2,0,3.9-1.7,3.9-3.9
			c0-2.2-1.7-3.9-3.9-3.9C304.9,13.5,303.2,15.2,303.2,17.4z M310.9,17.4c0,2.2,1.7,3.9,3.9,3.9c2.2,0,3.9-1.7,3.9-3.9
			c0-2.2-1.7-3.9-3.9-3.9C312.6,13.5,310.9,15.2,310.9,17.4z M225.7,25.2c0,2.2,1.7,3.9,3.9,3.9c2.2,0,3.9-1.7,3.9-3.9
			s-1.7-3.9-3.9-3.9C227.4,21.3,225.7,23,225.7,25.2z M233.4,25.2c0,2.2,1.7,3.9,3.9,3.9c2.2,0,3.9-1.7,3.9-3.9s-1.7-3.9-3.9-3.9
			C235.1,21.3,233.4,23,233.4,25.2z M241.2,25.2c0,2.2,1.7,3.9,3.9,3.9c2.2,0,3.9-1.7,3.9-3.9s-1.7-3.9-3.9-3.9
			C242.9,21.3,241.2,23,241.2,25.2z M295.4,25.2c0,2.2,1.7,3.9,3.9,3.9c2.2,0,3.9-1.7,3.9-3.9s-1.7-3.9-3.9-3.9
			C297.1,21.3,295.4,23,295.4,25.2z M303.2,25.2c0,2.2,1.7,3.9,3.9,3.9c2.2,0,3.9-1.7,3.9-3.9s-1.7-3.9-3.9-3.9
			C304.9,21.3,303.2,23,303.2,25.2z M310.9,25.2c0,2.2,1.7,3.9,3.9,3.9c2.2,0,3.9-1.7,3.9-3.9s-1.7-3.9-3.9-3.9
			C312.6,21.3,310.9,23,310.9,25.2z M295.4,32.9c0,2.2,1.7,3.9,3.9,3.9c2.2,0,3.9-1.7,3.9-3.9c0-2.2-1.7-3.9-3.9-3.9
			C297.1,29,295.4,30.7,295.4,32.9z M303.2,32.9c0,2.2,1.7,3.9,3.9,3.9c2.2,0,3.9-1.7,3.9-3.9c0-2.2-1.7-3.9-3.9-3.9
			C304.9,29,303.2,30.7,303.2,32.9z M310.9,32.9c0,2.2,1.7,3.9,3.9,3.9c2.2,0,3.9-1.7,3.9-3.9c0-2.2-1.7-3.9-3.9-3.9
			C312.6,29,310.9,30.7,310.9,32.9z M295.4,40.7c0,2.2,1.7,3.9,3.9,3.9c2.2,0,3.9-1.7,3.9-3.9c0-2.2-1.7-3.9-3.9-3.9
			C297.1,36.8,295.4,38.5,295.4,40.7z M303.2,40.7c0,2.2,1.7,3.9,3.9,3.9c2.2,0,3.9-1.7,3.9-3.9c0-2.2-1.7-3.9-3.9-3.9
			C304.9,36.8,303.2,38.5,303.2,40.7z M310.9,40.7c0,2.2,1.7,3.9,3.9,3.9c2.2,0,3.9-1.7,3.9-3.9c0-2.2-1.7-3.9-3.9-3.9
			C312.6,36.8,310.9,38.5,310.9,40.7z M241.2,48.4c0,2.2,1.7,3.9,3.9,3.9c2.2,0,3.9-1.7,3.9-3.9c0-2.2-1.7-3.9-3.9-3.9
			C242.9,44.5,241.2,46.2,241.2,48.4z M248.9,48.4c0,2.2,1.7,3.9,3.9,3.9s3.9-1.7,3.9-3.9c0-2.2-1.7-3.9-3.9-3.9
			S248.9,46.2,248.9,48.4z M256.7,48.4c0,2.2,1.7,3.9,3.9,3.9c2.2,0,3.9-1.7,3.9-3.9c0-2.2-1.7-3.9-3.9-3.9
			C258.4,44.5,256.7,46.2,256.7,48.4z M264.4,48.4c0,2.2,1.7,3.9,3.9,3.9c2.2,0,3.9-1.7,3.9-3.9c0-2.2-1.7-3.9-3.9-3.9
			C266.1,44.5,264.4,46.2,264.4,48.4z M272.2,48.4c0,2.2,1.7,3.9,3.9,3.9c2.2,0,3.9-1.7,3.9-3.9c0-2.2-1.7-3.9-3.9-3.9
			C273.9,44.5,272.2,46.2,272.2,48.4z M279.9,48.4c0,2.2,1.7,3.9,3.9,3.9s3.9-1.7,3.9-3.9c0-2.2-1.7-3.9-3.9-3.9
			S279.9,46.2,279.9,48.4z M287.7,48.4c0,2.2,1.7,3.9,3.9,3.9c2.2,0,3.9-1.7,3.9-3.9c0-2.2-1.7-3.9-3.9-3.9
			C289.4,44.5,287.7,46.2,287.7,48.4z M295.4,48.4c0,2.2,1.7,3.9,3.9,3.9c2.2,0,3.9-1.7,3.9-3.9c0-2.2-1.7-3.9-3.9-3.9
			C297.1,44.5,295.4,46.2,295.4,48.4z M303.2,48.4c0,2.2,1.7,3.9,3.9,3.9c2.2,0,3.9-1.7,3.9-3.9c0-2.2-1.7-3.9-3.9-3.9
			C304.9,44.5,303.2,46.2,303.2,48.4z M310.9,48.4c0,2.2,1.7,3.9,3.9,3.9c2.2,0,3.9-1.7,3.9-3.9c0-2.2-1.7-3.9-3.9-3.9
			C312.6,44.5,310.9,46.2,310.9,48.4z M233.4,56.2c0,2.2,1.7,3.9,3.9,3.9c2.2,0,3.9-1.7,3.9-3.9c0-2.2-1.7-3.9-3.9-3.9
			C235.1,52.3,233.4,54,233.4,56.2z M241.2,56.2c0,2.2,1.7,3.9,3.9,3.9c2.2,0,3.9-1.7,3.9-3.9c0-2.2-1.7-3.9-3.9-3.9
			C242.9,52.3,241.2,54,241.2,56.2z M248.9,56.2c0,2.2,1.7,3.9,3.9,3.9s3.9-1.7,3.9-3.9c0-2.2-1.7-3.9-3.9-3.9S248.9,54,248.9,56.2z
			 M256.7,56.2c0,2.2,1.7,3.9,3.9,3.9c2.2,0,3.9-1.7,3.9-3.9c0-2.2-1.7-3.9-3.9-3.9C258.4,52.3,256.7,54,256.7,56.2z M264.4,56.2
			c0,2.2,1.7,3.9,3.9,3.9c2.2,0,3.9-1.7,3.9-3.9c0-2.2-1.7-3.9-3.9-3.9C266.1,52.3,264.4,54,264.4,56.2z M272.2,56.2
			c0,2.2,1.7,3.9,3.9,3.9c2.2,0,3.9-1.7,3.9-3.9c0-2.2-1.7-3.9-3.9-3.9C273.9,52.3,272.2,54,272.2,56.2z M279.9,56.2
			c0,2.2,1.7,3.9,3.9,3.9s3.9-1.7,3.9-3.9c0-2.2-1.7-3.9-3.9-3.9S279.9,54,279.9,56.2z M287.7,56.2c0,2.2,1.7,3.9,3.9,3.9
			c2.2,0,3.9-1.7,3.9-3.9c0-2.2-1.7-3.9-3.9-3.9C289.4,52.3,287.7,54,287.7,56.2z M295.4,56.2c0,2.2,1.7,3.9,3.9,3.9
			c2.2,0,3.9-1.7,3.9-3.9c0-2.2-1.7-3.9-3.9-3.9C297.1,52.3,295.4,54,295.4,56.2z M303.2,56.2c0,2.2,1.7,3.9,3.9,3.9
			c2.2,0,3.9-1.7,3.9-3.9c0-2.2-1.7-3.9-3.9-3.9C304.9,52.3,303.2,54,303.2,56.2z M310.9,56.2c0,2.2,1.7,3.9,3.9,3.9
			c2.2,0,3.9-1.7,3.9-3.9c0-2.2-1.7-3.9-3.9-3.9C312.6,52.3,310.9,54,310.9,56.2z M225.7,63.9c0,2.2,1.7,3.9,3.9,3.9
			c2.2,0,3.9-1.7,3.9-3.9c0-2.2-1.7-3.9-3.9-3.9C227.4,60,225.7,61.7,225.7,63.9z M233.4,63.9c0,2.2,1.7,3.9,3.9,3.9
			c2.2,0,3.9-1.7,3.9-3.9c0-2.2-1.7-3.9-3.9-3.9C235.1,60,233.4,61.7,233.4,63.9z M241.2,63.9c0,2.2,1.7,3.9,3.9,3.9
			c2.2,0,3.9-1.7,3.9-3.9c0-2.2-1.7-3.9-3.9-3.9C242.9,60,241.2,61.7,241.2,63.9z M248.9,63.9c0,2.2,1.7,3.9,3.9,3.9
			s3.9-1.7,3.9-3.9c0-2.2-1.7-3.9-3.9-3.9S248.9,61.7,248.9,63.9z M256.7,63.9c0,2.2,1.7,3.9,3.9,3.9c2.2,0,3.9-1.7,3.9-3.9
			c0-2.2-1.7-3.9-3.9-3.9C258.4,60,256.7,61.7,256.7,63.9z M264.4,63.9c0,2.2,1.7,3.9,3.9,3.9c2.2,0,3.9-1.7,3.9-3.9
			c0-2.2-1.7-3.9-3.9-3.9C266.1,60,264.4,61.7,264.4,63.9z M272.2,63.9c0,2.2,1.7,3.9,3.9,3.9c2.2,0,3.9-1.7,3.9-3.9
			c0-2.2-1.7-3.9-3.9-3.9C273.9,60,272.2,61.7,272.2,63.9z M279.9,63.9c0,2.2,1.7,3.9,3.9,3.9s3.9-1.7,3.9-3.9
			c0-2.2-1.7-3.9-3.9-3.9S279.9,61.7,279.9,63.9z M287.7,40.7c0,2.2,1.7,3.9,3.9,3.9c2.2,0,3.9-1.7,3.9-3.9c0-2.2-1.7-3.9-3.9-3.9
			C289.4,36.8,287.7,38.5,287.7,40.7z M295.4,63.9c0,2.2,1.7,3.9,3.9,3.9c2.2,0,3.9-1.7,3.9-3.9c0-2.2-1.7-3.9-3.9-3.9
			C297.1,60,295.4,61.7,295.4,63.9z M303.2,63.9c0,2.2,1.7,3.9,3.9,3.9c2.2,0,3.9-1.7,3.9-3.9c0-2.2-1.7-3.9-3.9-3.9
			C304.9,60,303.2,61.7,303.2,63.9z M310.9,63.9c0,2.2,1.7,3.9,3.9,3.9c2.2,0,3.9-1.7,3.9-3.9c0-2.2-1.7-3.9-3.9-3.9
			C312.6,60,310.9,61.7,310.9,63.9z M225.7,71.7c0,2.2,1.7,3.9,3.9,3.9c2.2,0,3.9-1.7,3.9-3.9c0-2.2-1.7-3.9-3.9-3.9
			C227.4,67.8,225.7,69.5,225.7,71.7z M233.4,71.7c0,2.2,1.7,3.9,3.9,3.9c2.2,0,3.9-1.7,3.9-3.9c0-2.2-1.7-3.9-3.9-3.9
			C235.1,67.8,233.4,69.5,233.4,71.7z M241.2,71.7c0,2.2,1.7,3.9,3.9,3.9c2.2,0,3.9-1.7,3.9-3.9c0-2.2-1.7-3.9-3.9-3.9
			C242.9,67.8,241.2,69.5,241.2,71.7z M295.4,71.7c0,2.2,1.7,3.9,3.9,3.9c2.2,0,3.9-1.7,3.9-3.9c0-2.2-1.7-3.9-3.9-3.9
			C297.1,67.8,295.4,69.5,295.4,71.7z M303.2,71.7c0,2.2,1.7,3.9,3.9,3.9c2.2,0,3.9-1.7,3.9-3.9c0-2.2-1.7-3.9-3.9-3.9
			C304.9,67.8,303.2,69.5,303.2,71.7z M310.9,71.7c0,2.2,1.7,3.9,3.9,3.9c2.2,0,3.9-1.7,3.9-3.9c0-2.2-1.7-3.9-3.9-3.9
			C312.6,67.8,310.9,69.5,310.9,71.7z M225.7,79.4c0,2.2,1.7,3.9,3.9,3.9c2.2,0,3.9-1.7,3.9-3.9c0-2.2-1.7-3.9-3.9-3.9
			C227.4,75.5,225.7,77.2,225.7,79.4z M233.4,79.4c0,2.2,1.7,3.9,3.9,3.9c2.2,0,3.9-1.7,3.9-3.9c0-2.2-1.7-3.9-3.9-3.9
			C235.1,75.5,233.4,77.2,233.4,79.4z M241.2,79.4c0,2.2,1.7,3.9,3.9,3.9c2.2,0,3.9-1.7,3.9-3.9c0-2.2-1.7-3.9-3.9-3.9
			C242.9,75.5,241.2,77.2,241.2,79.4z M295.4,79.4c0,2.2,1.7,3.9,3.9,3.9c2.2,0,3.9-1.7,3.9-3.9c0-2.2-1.7-3.9-3.9-3.9
			C297.1,75.5,295.4,77.2,295.4,79.4z M303.2,79.4c0,2.2,1.7,3.9,3.9,3.9c2.2,0,3.9-1.7,3.9-3.9c0-2.2-1.7-3.9-3.9-3.9
			C304.9,75.5,303.2,77.2,303.2,79.4z M310.9,79.4c0,2.2,1.7,3.9,3.9,3.9c2.2,0,3.9-1.7,3.9-3.9c0-2.2-1.7-3.9-3.9-3.9
			C312.6,75.5,310.9,77.2,310.9,79.4z M225.7,87.2c0,2.2,1.7,3.9,3.9,3.9c2.2,0,3.9-1.7,3.9-3.9c0-2.2-1.7-3.9-3.9-3.9
			C227.4,83.3,225.7,85,225.7,87.2z M233.4,87.2c0,2.2,1.7,3.9,3.9,3.9c2.2,0,3.9-1.7,3.9-3.9c0-2.2-1.7-3.9-3.9-3.9
			C235.1,83.3,233.4,85,233.4,87.2z M241.2,87.2c0,2.2,1.7,3.9,3.9,3.9c2.2,0,3.9-1.7,3.9-3.9c0-2.2-1.7-3.9-3.9-3.9
			C242.9,83.3,241.2,85,241.2,87.2z M287.7,87.2c0,2.2,1.7,3.9,3.9,3.9c2.2,0,3.9-1.7,3.9-3.9c0-2.2-1.7-3.9-3.9-3.9
			C289.4,83.3,287.7,85,287.7,87.2z M295.4,87.2c0,2.2,1.7,3.9,3.9,3.9c2.2,0,3.9-1.7,3.9-3.9c0-2.2-1.7-3.9-3.9-3.9
			C297.1,83.3,295.4,85,295.4,87.2z M303.2,87.2c0,2.2,1.7,3.9,3.9,3.9c2.2,0,3.9-1.7,3.9-3.9c0-2.2-1.7-3.9-3.9-3.9
			C304.9,83.3,303.2,85,303.2,87.2z M310.9,87.2c0,2.2,1.7,3.9,3.9,3.9c2.2,0,3.9-1.7,3.9-3.9c0-2.2-1.7-3.9-3.9-3.9
			C312.6,83.3,310.9,85,310.9,87.2z M225.7,94.9c0,2.2,1.7,3.9,3.9,3.9c2.2,0,3.9-1.7,3.9-3.9c0-2.2-1.7-3.9-3.9-3.9
			C227.4,91,225.7,92.7,225.7,94.9z M233.4,94.9c0,2.2,1.7,3.9,3.9,3.9c2.2,0,3.9-1.7,3.9-3.9c0-2.2-1.7-3.9-3.9-3.9
			C235.1,91,233.4,92.7,233.4,94.9z M241.2,94.9c0,2.2,1.7,3.9,3.9,3.9c2.2,0,3.9-1.7,3.9-3.9c0-2.2-1.7-3.9-3.9-3.9
			C242.9,91,241.2,92.7,241.2,94.9z M248.9,94.9c0,2.2,1.7,3.9,3.9,3.9s3.9-1.7,3.9-3.9c0-2.2-1.7-3.9-3.9-3.9
			S248.9,92.7,248.9,94.9z M256.7,94.9c0,2.2,1.7,3.9,3.9,3.9c2.2,0,3.9-1.7,3.9-3.9c0-2.2-1.7-3.9-3.9-3.9
			C258.4,91,256.7,92.7,256.7,94.9z M264.4,94.9c0,2.2,1.7,3.9,3.9,3.9c2.2,0,3.9-1.7,3.9-3.9c0-2.2-1.7-3.9-3.9-3.9
			C266.1,91,264.4,92.7,264.4,94.9z M272.2,94.9c0,2.2,1.7,3.9,3.9,3.9c2.2,0,3.9-1.7,3.9-3.9c0-2.2-1.7-3.9-3.9-3.9
			C273.9,91,272.2,92.7,272.2,94.9z M279.9,94.9c0,2.2,1.7,3.9,3.9,3.9s3.9-1.7,3.9-3.9c0-2.2-1.7-3.9-3.9-3.9
			S279.9,92.7,279.9,94.9z M287.7,94.9c0,2.2,1.7,3.9,3.9,3.9c2.2,0,3.9-1.7,3.9-3.9c0-2.2-1.7-3.9-3.9-3.9
			C289.4,91,287.7,92.7,287.7,94.9z M295.4,94.9c0,2.2,1.7,3.9,3.9,3.9c2.2,0,3.9-1.7,3.9-3.9c0-2.2-1.7-3.9-3.9-3.9
			C297.1,91,295.4,92.7,295.4,94.9z M303.2,94.9c0,2.2,1.7,3.9,3.9,3.9c2.2,0,3.9-1.7,3.9-3.9c0-2.2-1.7-3.9-3.9-3.9
			C304.9,91,303.2,92.7,303.2,94.9z M310.9,94.9c0,2.2,1.7,3.9,3.9,3.9c2.2,0,3.9-1.7,3.9-3.9c0-2.2-1.7-3.9-3.9-3.9
			C312.6,91,310.9,92.7,310.9,94.9z M233.4,102.7c0,2.2,1.7,3.9,3.9,3.9c2.2,0,3.9-1.7,3.9-3.9c0-2.2-1.7-3.9-3.9-3.9
			C235.1,98.8,233.4,100.5,233.4,102.7z M241.2,102.7c0,2.2,1.7,3.9,3.9,3.9c2.2,0,3.9-1.7,3.9-3.9c0-2.2-1.7-3.9-3.9-3.9
			C242.9,98.8,241.2,100.5,241.2,102.7z M248.9,102.7c0,2.2,1.7,3.9,3.9,3.9s3.9-1.7,3.9-3.9c0-2.2-1.7-3.9-3.9-3.9
			S248.9,100.5,248.9,102.7z M256.7,102.7c0,2.2,1.7,3.9,3.9,3.9c2.2,0,3.9-1.7,3.9-3.9c0-2.2-1.7-3.9-3.9-3.9
			C258.4,98.8,256.7,100.5,256.7,102.7z M264.4,102.7c0,2.2,1.7,3.9,3.9,3.9c2.2,0,3.9-1.7,3.9-3.9c0-2.2-1.7-3.9-3.9-3.9
			C266.1,98.8,264.4,100.5,264.4,102.7z M272.2,102.7c0,2.2,1.7,3.9,3.9,3.9c2.2,0,3.9-1.7,3.9-3.9c0-2.2-1.7-3.9-3.9-3.9
			C273.9,98.8,272.2,100.5,272.2,102.7z M279.9,102.7c0,2.2,1.7,3.9,3.9,3.9s3.9-1.7,3.9-3.9c0-2.2-1.7-3.9-3.9-3.9
			S279.9,100.5,279.9,102.7z M295.4,102.7c0,2.2,1.7,3.9,3.9,3.9c2.2,0,3.9-1.7,3.9-3.9c0-2.2-1.7-3.9-3.9-3.9
			C297.1,98.8,295.4,100.5,295.4,102.7z M303.2,102.7c0,2.2,1.7,3.9,3.9,3.9c2.2,0,3.9-1.7,3.9-3.9c0-2.2-1.7-3.9-3.9-3.9
			C304.9,98.8,303.2,100.5,303.2,102.7z M310.9,102.7c0,2.2,1.7,3.9,3.9,3.9c2.2,0,3.9-1.7,3.9-3.9c0-2.2-1.7-3.9-3.9-3.9
			C312.6,98.8,310.9,100.5,310.9,102.7z M241.2,110.4c0,2.2,1.7,3.9,3.9,3.9c2.2,0,3.9-1.7,3.9-3.9c0-2.2-1.7-3.9-3.9-3.9
			C242.9,106.5,241.2,108.2,241.2,110.4z M248.9,110.4c0,2.2,1.7,3.9,3.9,3.9s3.9-1.7,3.9-3.9c0-2.2-1.7-3.9-3.9-3.9
			S248.9,108.2,248.9,110.4z M256.7,110.4c0,2.2,1.7,3.9,3.9,3.9c2.2,0,3.9-1.7,3.9-3.9c0-2.2-1.7-3.9-3.9-3.9
			C258.4,106.5,256.7,108.2,256.7,110.4z M264.4,110.4c0,2.2,1.7,3.9,3.9,3.9c2.2,0,3.9-1.7,3.9-3.9c0-2.2-1.7-3.9-3.9-3.9
			C266.1,106.5,264.4,108.2,264.4,110.4z M272.2,110.4c0,2.2,1.7,3.9,3.9,3.9c2.2,0,3.9-1.7,3.9-3.9c0-2.2-1.7-3.9-3.9-3.9
			C273.9,106.5,272.2,108.2,272.2,110.4z M295.4,110.4c0,2.2,1.7,3.9,3.9,3.9c2.2,0,3.9-1.7,3.9-3.9c0-2.2-1.7-3.9-3.9-3.9
			C297.1,106.5,295.4,108.2,295.4,110.4z M303.2,110.4c0,2.2,1.7,3.9,3.9,3.9c2.2,0,3.9-1.7,3.9-3.9c0-2.2-1.7-3.9-3.9-3.9
			C304.9,106.5,303.2,108.2,303.2,110.4z M310.9,110.4c0,2.2,1.7,3.9,3.9,3.9c2.2,0,3.9-1.7,3.9-3.9c0-2.2-1.7-3.9-3.9-3.9
			C312.6,106.5,310.9,108.2,310.9,110.4z"/>
	</g>
</g>
<g>
	<defs>
		<rect id="SVGID_1_" x="945.4" y="236.1" width="96.9" height="90.6"/>
	</defs>
	<clipPath id="SVGID_00000080924695431762011860000002295933861356291769_">
		<use xlink:href="#SVGID_1_"  style="overflow:visible;"/>
	</clipPath>
	<g style="clip-path:url(#SVGID_00000080924695431762011860000002295933861356291769_);">
		<path class="st1" d="M978,243.4c0.1,0.2,0.2,0.4,0.2,0.6l0,0.1c0,0.1,0.1,0.3,0.1,0.4c0.1,0.2,0.1,0.4,0.2,0.5l0,0.1
			c0.1,0.5,0.3,0.9,0.4,1.4c0.2,0.5,0.3,1.1,0.5,1.6c0.1,0.4,0.2,0.7,0.3,1.1c0.4,1.2,0.7,2.3,1.1,3.5c0.4,1.3,0.8,2.6,1.2,3.9
			c0.1,0.4,0.2,0.8,0.4,1.2c0.1,0.3,0.2,0.5,0.2,0.8c0,0.1,0.1,0.2,0.1,0.4c0.3,1,0.7,2,1.1,3l0.1,0.1c1,2.1,2.6,4.2,4.5,5.7
			c0.1,0,0.1,0.1,0.2,0.2c0.5,0.4,1,0.8,1.6,1.1l0.1,0.1c0.5,0.3,0.9,0.5,1.4,0.8l0.1,0.1c1,0.5,2.1,0.8,3.1,1.1l0.4,0.1
			c0.2,0.1,0.5,0.2,0.8,0.2c0.3,0.1,0.7,0.2,1,0.3c0.5,0.1,0.9,0.3,1.4,0.4c0.4,0.1,0.7,0.2,1.1,0.3c1.1,0.3,2.3,0.7,3.4,1
			c0.9,0.3,1.9,0.6,2.8,0.8c0,0,0.1,0,0.1,0c0.5,0.2,1,0.3,1.6,0.5l1,0.3c0.6,0.2,1.3,0.4,1.9,0.6l-0.1,0.1c-0.1,0-0.2,0.1-0.4,0.1
			l-0.1,0c-0.1,0-0.3,0.1-0.4,0.1l-0.3,0.1c-0.2,0.1-0.5,0.1-0.7,0.2c-0.2,0.1-0.5,0.1-0.7,0.2c-1,0.3-2,0.6-3,0.9
			c-0.5,0.1-0.9,0.3-1.4,0.4l-0.2,0.1l-0.2,0.1c-0.6,0.2-1.3,0.4-1.9,0.6l-1,0.3c-0.8,0.3-1.7,0.5-2.5,0.8c-0.3,0.1-0.7,0.2-1,0.3
			c-0.3,0.1-0.6,0.2-0.9,0.3c-0.2,0.1-0.4,0.1-0.5,0.2c-1.1,0.3-2.2,0.7-3.3,1.2l-0.1,0.1c-1.9,0.9-3.8,2.3-5.2,3.9l-0.1,0.2
			c-0.7,0.8-1.3,1.6-1.8,2.5c-0.1,0.1-0.1,0.2-0.2,0.4c-0.8,1.4-1.3,3-1.8,4.6l-0.1,0.3c-0.1,0.4-0.2,0.8-0.4,1.2
			c-0.3,0.9-0.5,1.7-0.8,2.6l-0.2,0.6l-0.2,0.8c-0.2,0.8-0.5,1.6-0.7,2.4l-0.1,0.2c-0.3,1.1-0.7,2.2-1,3.3c-0.3,0.8-0.5,1.7-0.8,2.5
			l-0.1,0.2l-0.3,0.9c-0.1-0.1-0.1-0.2-0.2-0.4l-0.1-0.2l0-0.2l-0.1-0.2c-0.1-0.2-0.1-0.3-0.2-0.5c-0.1-0.2-0.1-0.4-0.2-0.5
			c-0.1-0.3-0.2-0.5-0.2-0.8c-0.2-0.5-0.3-1-0.5-1.5l0-0.1l-0.1-0.5c-0.1-0.3-0.2-0.5-0.2-0.8c-0.4-1.2-0.7-2.4-1.1-3.6
			c-0.3-1.1-0.7-2.2-1-3.3c-0.1-0.4-0.2-0.8-0.4-1.2l-0.1-0.2c-0.1-0.4-0.2-0.8-0.4-1.2c-0.8-2.5-1.8-4.9-3.5-6.9l-0.1-0.1
			c-0.4-0.4-0.7-0.8-1.1-1.2l-0.1-0.1c-0.3-0.3-0.7-0.6-1-0.9l-0.1-0.1c-1-0.8-2.2-1.5-3.3-2.1l-0.1-0.1c-1.1-0.5-2.3-0.9-3.4-1.2
			c-0.2-0.1-0.4-0.1-0.6-0.2c-0.3-0.1-0.7-0.2-1-0.3c-0.6-0.2-1.2-0.4-1.8-0.6c-0.3-0.1-0.6-0.2-0.9-0.3l-0.4-0.1l-0.2-0.1
			c-2-0.6-4-1.2-6-1.8l-0.2,0l-0.3-0.1c-0.3-0.1-0.5-0.2-0.8-0.2c-0.5-0.1-1-0.3-1.4-0.4l-0.4-0.1c-0.1,0-0.2-0.1-0.3-0.1L946,276
			l-0.2-0.1l-0.1,0l-0.1-0.1l0.2-0.1c0.2-0.1,0.4-0.1,0.7-0.2l0.3-0.1c0.6-0.2,1.2-0.4,1.8-0.5c0.8-0.3,1.7-0.5,2.5-0.8
			c0.1,0,0.2-0.1,0.4-0.1c1-0.3,2-0.6,3-0.9c0.5-0.2,1.1-0.3,1.6-0.5c0.7-0.2,1.4-0.4,2.1-0.7c0.3-0.1,0.6-0.2,0.9-0.3
			c1.4-0.4,1.4-0.4,2-0.6c1.3-0.4,2.5-0.8,3.7-1.4l0.3-0.1c1.8-1,3.5-2.3,4.8-3.9c0.1-0.2,0.2-0.3,0.4-0.5c2.1-2.5,3-5.7,3.9-8.8
			c0.2-0.5,0.3-1,0.4-1.5l0.1-0.4c0.3-0.8,0.5-1.7,0.8-2.5l0.1-0.2c0.3-1.1,0.7-2.2,1-3.2c0.2-0.8,0.5-1.6,0.7-2.4
			c0.1-0.3,0.2-0.7,0.3-1C977.6,244.6,977.8,244,978,243.4 M1019.7,281.5c0.1,0.2,0.2,0.3,0.2,0.5l0.1,0.2l0.1,0.2l0.1,0.2
			c0,0.2,0.1,0.3,0.1,0.5c0.1,0.2,0.2,0.5,0.2,0.8c0.1,0.3,0.2,0.5,0.2,0.8c0.2,0.7,0.4,1.5,0.7,2.2c0.1,0.3,0.2,0.6,0.3,1l0.1,0.2
			c0.1,0.4,0.3,0.9,0.4,1.3l0.2,0.6l0.2,0.5c0.1,0.4,0.2,0.7,0.3,1.1l0.1,0.4c0.1,0.2,0.1,0.4,0.2,0.5c0,0.1,0.1,0.2,0.1,0.3
			c0.2,0.5,0.4,1,0.6,1.6l0.1,0.1c0.7,1.6,1.9,3,3.2,4.1l0.2,0.1c0.4,0.3,0.9,0.6,1.4,0.9l0.1,0.1c1.4,0.8,2.9,1.2,4.3,1.6
			c0.6,0.2,1.1,0.3,1.7,0.5c0.2,0.1,0.4,0.1,0.5,0.2c1,0.3,2,0.6,2.9,0.9c0.9,0.3,1.8,0.5,2.7,0.8l0.1,0l0.4,0.1l0.1,0
			c0.2,0.1,0.5,0.1,0.7,0.2v0.1l-3,0.9l-1.1,0.3c-0.5,0.1-0.9,0.3-1.4,0.4c-1.1,0.3-2.1,0.6-3.2,1c-0.4,0.1-0.7,0.2-1.1,0.3
			c-0.2,0.1-0.3,0.1-0.5,0.2c-2,0.6-3.9,1.4-5.5,2.8l-0.1,0.1c-0.6,0.5-1.1,1.1-1.6,1.8l-0.1,0.1c-0.3,0.4-0.6,0.9-0.8,1.4l-0.1,0.2
			c-0.5,1-0.9,2.2-1.2,3.3c0,0.1-0.1,0.3-0.1,0.4c-0.1,0.2-0.2,0.5-0.2,0.8c-0.2,0.5-0.3,1-0.5,1.5l-0.2,0.6c-0.2,0.5-0.3,1-0.5,1.5
			l-0.6,2l0,0.1c-0.3,1-0.6,1.9-0.9,2.9l-0.1-0.1c0-0.1-0.1-0.2-0.1-0.3l0-0.1c0-0.1-0.1-0.2-0.1-0.3c0-0.1-0.1-0.2-0.1-0.4
			l-0.1-0.2c-0.1-0.4-0.2-0.8-0.4-1.2c-0.2-0.6-0.4-1.2-0.5-1.8c-0.1-0.4-0.3-0.9-0.4-1.3c-0.2-0.6-0.4-1.2-0.6-1.8l-0.1-0.4
			c-0.3-0.8-0.3-0.8-0.4-1.2c-0.4-1.3-0.4-1.3-0.8-2.7l-0.1-0.1c-0.4-1.2-1.1-2.3-1.9-3.2l-0.1-0.1c-0.9-1.1-2-2-3.2-2.7
			c-0.1-0.1-0.2-0.1-0.3-0.2c-1.1-0.6-2.2-0.9-3.4-1.3l-0.4-0.1c-0.2-0.1-0.5-0.1-0.7-0.2c-0.5-0.1-1-0.3-1.4-0.4l-0.1,0l-0.6-0.2
			c-0.2-0.1-0.5-0.1-0.7-0.2c-0.9-0.3-1.8-0.6-2.8-0.8c-1.1-0.3-2.2-0.7-3.3-1l0.1-0.1c0.1,0,0.2-0.1,0.3-0.1l0.1,0
			c0.1,0,0.3-0.1,0.4-0.1c0.1,0,0.2-0.1,0.3-0.1c0.2-0.1,0.4-0.1,0.6-0.2c0.4-0.1,0.8-0.2,1.2-0.4l0.4-0.1l0.1,0
			c0.3-0.1,0.5-0.2,0.8-0.2c0.7-0.2,1.5-0.5,2.2-0.7l0.1,0c0.4-0.1,0.7-0.2,1.1-0.3c0.6-0.2,1.2-0.4,1.8-0.5l0.2,0
			c0.2-0.1,0.5-0.1,0.7-0.2c0.9-0.3,1.7-0.5,2.5-0.9l0.2-0.1c0.7-0.4,1.4-0.8,2-1.3l0.1-0.1c0.7-0.6,1.3-1.2,1.9-2l0.1-0.2
			c0.3-0.4,0.5-0.7,0.7-1.1l0.1-0.1c0.7-1.2,1.1-2.6,1.5-4c0.2-0.7,0.4-1.5,0.7-2.2c0.1-0.4,0.3-0.8,0.4-1.3l0-0.1
			c0.2-0.8,0.5-1.5,0.7-2.3c0.6-1.8,0.6-1.8,0.8-2.7l0.1-0.3c0-0.1,0.1-0.2,0.1-0.4l0-0.1C1019.6,281.6,1019.6,281.6,1019.7,281.5
			 M1019.7,236.2c0.1,0.1,0.1,0.2,0.2,0.4l0,0.2l0.1,0.2l0.1,0.2c0,0.1,0.1,0.3,0.1,0.4c0.1,0.2,0.1,0.4,0.2,0.6
			c0.1,0.3,0.2,0.6,0.3,0.8c0.2,0.6,0.3,1.1,0.5,1.7c0,0.1,0.1,0.2,0.1,0.3c0.4,1.3,0.9,2.5,1.9,3.5c1.3,1.1,3,1.5,4.6,2
			c0.7,0.2,1.5,0.4,2.2,0.7l0.2,0.1c0.3,0.1,0.7,0.2,1,0.3l-0.1,0.1c-0.1,0-0.2,0.1-0.4,0.1l-0.1,0c-0.1,0-0.2,0.1-0.4,0.1
			c-0.1,0-0.2,0.1-0.3,0.1c-0.3,0.1-0.6,0.2-0.8,0.2l-0.1,0c-0.3,0.1-0.7,0.2-1,0.3c-2.5,0.7-2.5,0.7-4.7,2l-0.1,0.1
			c-0.6,0.4-1.1,1.2-1.3,1.9c0,0.1-0.1,0.2-0.1,0.3l-0.1,0.1c-0.2,0.6-0.4,1.3-0.6,1.9c-0.1,0.2-0.1,0.4-0.2,0.6
			c-0.1,0.3-0.2,0.5-0.2,0.8c-0.2,0.5-0.3,1.1-0.5,1.6l-0.1,0.4c-0.1,0.2-0.1,0.4-0.2,0.6h-0.1l0-0.1l-0.2-0.5l-0.1-0.2
			c-0.2-0.5-0.3-1-0.5-1.5l0-0.1c-0.1-0.5-0.3-0.9-0.4-1.4c-0.1-0.3-0.2-0.5-0.2-0.8c0-0.1-0.1-0.2-0.1-0.4c-0.3-1-0.6-1.9-1.3-2.8
			l-0.1-0.1c-0.4-0.5-0.8-0.8-1.3-1.2l-0.1-0.1c-0.7-0.5-1.6-0.7-2.4-0.9c-0.3-0.1-0.6-0.2-0.9-0.3c-1.1-0.3-1.1-0.3-2.3-0.7
			c-0.2-0.1-0.3-0.1-0.5-0.2c-0.1,0-0.2-0.1-0.3-0.1l-0.2-0.1c-0.1,0-0.1,0-0.2-0.1l-0.1-0.1l-0.1-0.1c0.6-0.2,1.2-0.4,1.9-0.6
			c1.6-0.5,1.6-0.5,2.3-0.7l0.1,0c0.2-0.1,0.4-0.1,0.7-0.2c1.3-0.4,2.4-0.9,3.3-1.8c0.2-0.2,0.4-0.5,0.6-0.8l0.1-0.2
			c0.6-0.9,0.8-2,1.1-3c0.1-0.2,0.1-0.4,0.2-0.6c0.1-0.3,0.2-0.6,0.3-0.9c0.2-0.5,0.3-1,0.5-1.5c0-0.1,0.1-0.3,0.1-0.4l0.1-0.2
			l0.1-0.2C1019.6,236.2,1019.6,236.2,1019.7,236.2"/>
	</g>
</g>
<path class="st3" d="M173.1,353.9c-9.3,0-16.8,7.5-16.8,16.8c0,9.3,7.5,16.8,16.8,16.8c9.3,0,16.8-7.5,16.8-16.8
	C189.9,361.5,182.4,353.9,173.1,353.9z"/>
<g>
	<g transform="translate(590.672454, 389.85147)">
		<path class="st0" d="M223.3,130h-3.7l-2.7-8.1h-12.5l-2.7,8.1h-3.6l10.2-29.4h4.8L223.3,130z M210.4,104.1l-5,14.9h10.6l-5-14.9
			H210.4z"/>
	</g>
</g>
<g>
	<g transform="translate(622.355289, 389.85147)">
		<path class="st0" d="M222.9,130.4c-2.5,0-4.7-0.6-6.5-1.7c-1.9-1.1-3.3-2.8-4.4-5.1c-1.1-2.3-1.6-5-1.6-8.3c0-3.3,0.6-6.1,1.7-8.3
			c1.1-2.3,2.7-4,4.7-5.1c2-1.1,4.3-1.7,7-1.7c2.8,0,5.1,0.5,6.9,1.5c1.8,1,3.1,2.5,3.8,4.5l-2.2,1.3h-0.5c-0.8-1.5-1.8-2.6-3.1-3.3
			c-1.3-0.7-2.9-1-4.9-1c-6.4,0-9.7,4-9.7,12c0,4.2,0.8,7.2,2.4,9.1c1.6,1.9,3.9,2.9,6.8,2.9c2.7,0,4.7-0.6,6-1.8
			c1.3-1.2,2-3.1,2-5.8v-2.6H223v-2.8h11.7V130h-3.2V126l-0.4-0.1c-0.8,1.5-1.9,2.6-3.2,3.4C226.5,130,224.8,130.4,222.9,130.4z"/>
	</g>
</g>
<g>
	<g transform="translate(656.735044, 389.85147)">
		<path class="st0" d="M226.8,116.1v11h15v2.9h-18.4v-29.4h18.1v2.9h-14.6v9.8h12.9v2.9H226.8z"/>
	</g>
</g>
<g>
	<g transform="translate(686.820821, 389.85147)">
		<path class="st0" d="M236.8,130h-3.4v-29.4h4.2l14.3,22.4l0.5-0.1v-22.4h3.4V130h-3.6l-14.9-24l-0.5,0.1V130z"/>
	</g>
</g>
<g>
	<g transform="translate(721.788172, 389.85147)">
		<path class="st0" d="M263.5,100.6v2.9h-9.2V130h-3.4v-26.4h-9.2v-2.9H263.5z"/>
	</g>
</g>
<path class="st4" d="M87.3,349.2c1.7-22,19.1-39.4,41.1-41.1c14.9-1.1,31.6-2.1,45.2-2.1c13.6,0,30.3,1,45.2,2.1
	c22.1,1.7,39.4,19.1,41.1,41.1c1.1,14.9,2.1,31.6,2.1,45.2c0,13.6-1,30.3-2.1,45.2c-1.7,22-19.1,39.4-41.1,41.1
	c-14.9,1.1-31.6,2.1-45.2,2.1c-13.6,0-30.3-1-45.2-2.1c-22.1-1.7-39.4-19.1-41.1-41.1c-1.1-14.9-2.1-31.6-2.1-45.2
	C85.2,380.8,86.2,364,87.3,349.2z M173.1,347.2c-13,0-23.6,10.6-23.6,23.6c0,13,10.6,23.6,23.6,23.6s23.6-10.6,23.6-23.6
	C196.6,357.8,186.1,347.2,173.1,347.2z M208.1,438.2c0-6-1.5-11.8-4.4-17c-0.9-1.7-3.1-2.3-4.8-1.4c-1.7,0.9-2.3,3.1-1.4,4.8
	c2.3,4.1,3.5,8.8,3.5,13.6c0,1.9,1.6,3.5,3.5,3.5S208.1,440.2,208.1,438.2z M145.1,438.2c0-15.5,12.6-28,28-28
	c5.8,0,11.4,1.8,16.2,5.1c1.6,1.1,3.8,0.7,4.9-0.8s0.7-3.8-0.8-4.9c-5.9-4.2-12.9-6.4-20.2-6.4c-19.3,0-35,15.7-35,35
	c0,1.9,1.6,3.5,3.5,3.5S145.1,440.2,145.1,438.2z"/>
</svg>
