<svg xmlns="http://www.w3.org/2000/svg" xmlns:xlink="http://www.w3.org/1999/xlink" width="500" zoomAndPan="magnify" viewBox="0 0 375 374.999991" height="500" preserveAspectRatio="xMidYMid meet" version="1.0"><defs><g/><clipPath id="245332341f"><path d="M 138.449219 97.394531 L 192 97.394531 L 192 200.144531 L 138.449219 200.144531 Z M 138.449219 97.394531 " clip-rule="nonzero"/></clipPath><clipPath id="3e59f2dde3"><path d="M 190 139 L 235.199219 139 L 235.199219 185 L 190 185 Z M 190 139 " clip-rule="nonzero"/></clipPath></defs><rect x="-37.5" width="450" fill="#ffffff" y="-37.499999" height="449.999989" fill-opacity="1"/><rect x="-37.5" width="450" fill="#ffffff" y="-37.499999" height="449.999989" fill-opacity="1"/><g clip-path="url(#245332341f)"><path fill="#1b75bb" d="M 191.097656 177.613281 L 191.097656 200.390625 L 190.101562 200.339844 C 170.359375 199.40625 155.609375 190.949219 146.261719 175.199219 C 141.066406 166.449219 138.464844 157.460938 138.527344 148.496094 C 138.597656 139.535156 141.328125 130.585938 146.648438 121.898438 C 156.09375 106.488281 170.699219 98.257812 190.070312 97.433594 L 191.066406 97.394531 L 191.066406 120.109375 L 190.144531 120.144531 C 171.9375 120.839844 161.933594 135.28125 161.769531 148.519531 C 161.597656 162.25 172.40625 177.277344 190.164062 177.597656 Z M 191.097656 177.613281 " fill-opacity="1" fill-rule="nonzero"/></g><g clip-path="url(#3e59f2dde3)"><path fill="#7ed957" d="M 214.929688 184.878906 C 214.929688 176.816406 214.929688 168.902344 214.929688 160.773438 C 206.878906 160.773438 198.933594 160.773438 190.875 160.773438 C 190.796875 160.105469 190.695312 159.644531 190.695312 159.179688 C 190.6875 153.3125 190.710938 147.449219 190.675781 141.582031 C 190.667969 140.4375 190.847656 139.824219 192.230469 139.828125 C 206.320312 139.871094 220.410156 139.855469 234.5 139.859375 C 234.792969 139.859375 235.085938 139.910156 235.507812 139.949219 C 235.507812 154.917969 235.507812 169.820312 235.507812 184.878906 C 228.746094 184.878906 221.960938 184.878906 214.929688 184.878906 Z M 214.929688 184.878906 " fill-opacity="1" fill-rule="nonzero"/></g><g fill="#494c51" fill-opacity="1"><g transform="translate(40.362497, 247.391953)"><g><path d="M 34.65625 -18.4375 C 34.875 -18.4375 35.046875 -18.367188 35.171875 -18.234375 C 35.296875 -18.109375 35.359375 -17.9375 35.359375 -17.71875 L 35.359375 -15 C 35.359375 -12.84375 35.015625 -10.820312 34.328125 -8.9375 C 33.648438 -7.050781 32.660156 -5.390625 31.359375 -3.953125 C 30.066406 -2.523438 28.488281 -1.40625 26.625 -0.59375 C 24.757812 0.21875 22.644531 0.625 20.28125 0.625 C 18.363281 0.625 16.546875 0.332031 14.828125 -0.25 C 13.109375 -0.832031 11.535156 -1.644531 10.109375 -2.6875 C 8.679688 -3.726562 7.4375 -4.96875 6.375 -6.40625 C 5.320312 -7.84375 4.507812 -9.421875 3.9375 -11.140625 C 3.375 -12.859375 3.09375 -14.671875 3.09375 -16.578125 C 3.09375 -18.472656 3.375 -20.28125 3.9375 -22 C 4.507812 -23.726562 5.316406 -25.300781 6.359375 -26.71875 C 7.398438 -28.132812 8.628906 -29.363281 10.046875 -30.40625 C 11.460938 -31.445312 13.023438 -32.25 14.734375 -32.8125 C 16.453125 -33.382812 18.265625 -33.671875 20.171875 -33.671875 C 22.460938 -33.671875 24.59375 -33.242188 26.5625 -32.390625 C 28.53125 -31.535156 30.257812 -30.378906 31.75 -28.921875 C 32.0625 -28.597656 32.0625 -28.265625 31.75 -27.921875 L 28.78125 -24.734375 C 28.632812 -24.578125 28.472656 -24.5 28.296875 -24.5 C 28.117188 -24.5 27.945312 -24.566406 27.78125 -24.703125 C 26.75 -25.597656 25.601562 -26.300781 24.34375 -26.8125 C 23.082031 -27.332031 21.675781 -27.59375 20.125 -27.59375 C 18.644531 -27.59375 17.257812 -27.3125 15.96875 -26.75 C 14.675781 -26.195312 13.546875 -25.425781 12.578125 -24.4375 C 11.609375 -23.445312 10.847656 -22.28125 10.296875 -20.9375 C 9.753906 -19.601562 9.484375 -18.148438 9.484375 -16.578125 C 9.484375 -15.003906 9.75 -13.539062 10.28125 -12.1875 C 10.8125 -10.84375 11.5625 -9.664062 12.53125 -8.65625 C 13.5 -7.65625 14.632812 -6.875 15.9375 -6.3125 C 17.25 -5.75 18.679688 -5.46875 20.234375 -5.46875 C 22.085938 -5.46875 23.679688 -5.8125 25.015625 -6.5 C 26.347656 -7.1875 27.378906 -8.109375 28.109375 -9.265625 C 28.835938 -10.429688 29.226562 -11.726562 29.28125 -13.15625 L 20.578125 -13.15625 C 20.367188 -13.15625 20.195312 -13.222656 20.0625 -13.359375 C 19.925781 -13.492188 19.859375 -13.660156 19.859375 -13.859375 L 19.859375 -17.71875 C 19.859375 -17.9375 19.925781 -18.109375 20.0625 -18.234375 C 20.195312 -18.367188 20.367188 -18.4375 20.578125 -18.4375 Z M 34.65625 -18.4375 "/></g></g></g><g fill="#494c51" fill-opacity="1"><g transform="translate(76.004331, 247.391953)"><g><path d="M 22.875 -12.296875 L 28.921875 -0.828125 C 29.046875 -0.578125 29.050781 -0.375 28.9375 -0.21875 C 28.832031 -0.0703125 28.644531 0 28.375 0 L 23.59375 0 C 23.226562 0 22.953125 -0.179688 22.765625 -0.546875 L 17.125 -11.53125 L 10.25 -11.53125 L 10.25 -0.71875 C 10.25 -0.507812 10.1875 -0.335938 10.0625 -0.203125 C 9.9375 -0.0664062 9.757812 0 9.53125 0 L 4.75 0 C 4.550781 0 4.382812 -0.0664062 4.25 -0.203125 C 4.113281 -0.335938 4.046875 -0.507812 4.046875 -0.71875 L 4.046875 -32.578125 C 4.046875 -32.796875 4.113281 -32.96875 4.25 -33.09375 C 4.382812 -33.226562 4.550781 -33.296875 4.75 -33.296875 L 16.5 -33.296875 C 18.925781 -33.296875 20.96875 -33.066406 22.625 -32.609375 C 24.28125 -32.148438 25.601562 -31.457031 26.59375 -30.53125 C 27.582031 -29.613281 28.296875 -28.476562 28.734375 -27.125 C 29.171875 -25.78125 29.390625 -24.210938 29.390625 -22.421875 C 29.390625 -20.660156 29.179688 -19.109375 28.765625 -17.765625 C 28.347656 -16.429688 27.660156 -15.304688 26.703125 -14.390625 C 25.753906 -13.484375 24.476562 -12.785156 22.875 -12.296875 Z M 10.25 -27.78125 L 10.25 -17.046875 L 16.953125 -17.046875 C 18.316406 -17.046875 19.476562 -17.1875 20.4375 -17.46875 C 21.394531 -17.757812 22.128906 -18.289062 22.640625 -19.0625 C 23.160156 -19.84375 23.421875 -20.960938 23.421875 -22.421875 C 23.421875 -23.878906 23.160156 -24.992188 22.640625 -25.765625 C 22.128906 -26.535156 21.394531 -27.0625 20.4375 -27.34375 C 19.476562 -27.632812 18.316406 -27.78125 16.953125 -27.78125 Z M 10.25 -27.78125 "/></g></g></g><g fill="#494c51" fill-opacity="1"><g transform="translate(104.964705, 247.391953)"><g><path d="M 20.1875 0.625 C 18.300781 0.625 16.503906 0.335938 14.796875 -0.234375 C 13.097656 -0.804688 11.535156 -1.613281 10.109375 -2.65625 C 8.679688 -3.707031 7.441406 -4.945312 6.390625 -6.375 C 5.347656 -7.800781 4.535156 -9.367188 3.953125 -11.078125 C 3.378906 -12.796875 3.09375 -14.601562 3.09375 -16.5 C 3.09375 -18.414062 3.378906 -20.234375 3.953125 -21.953125 C 4.535156 -23.679688 5.347656 -25.257812 6.390625 -26.6875 C 7.441406 -28.113281 8.679688 -29.347656 10.109375 -30.390625 C 11.535156 -31.441406 13.097656 -32.25 14.796875 -32.8125 C 16.503906 -33.382812 18.300781 -33.671875 20.1875 -33.671875 C 22.070312 -33.671875 23.867188 -33.382812 25.578125 -32.8125 C 27.285156 -32.25 28.847656 -31.441406 30.265625 -30.390625 C 31.691406 -29.347656 32.929688 -28.113281 33.984375 -26.6875 C 35.046875 -25.257812 35.863281 -23.679688 36.4375 -21.953125 C 37.019531 -20.234375 37.3125 -18.414062 37.3125 -16.5 C 37.3125 -14.601562 37.019531 -12.796875 36.4375 -11.078125 C 35.863281 -9.367188 35.046875 -7.800781 33.984375 -6.375 C 32.929688 -4.945312 31.691406 -3.707031 30.265625 -2.65625 C 28.847656 -1.613281 27.285156 -0.804688 25.578125 -0.234375 C 23.867188 0.335938 22.070312 0.625 20.1875 0.625 Z M 20.1875 -5.34375 C 21.707031 -5.34375 23.128906 -5.628906 24.453125 -6.203125 C 25.773438 -6.773438 26.9375 -7.566406 27.9375 -8.578125 C 28.9375 -9.597656 29.710938 -10.785156 30.265625 -12.140625 C 30.828125 -13.492188 31.109375 -14.945312 31.109375 -16.5 C 31.109375 -18.070312 30.828125 -19.535156 30.265625 -20.890625 C 29.710938 -22.242188 28.9375 -23.429688 27.9375 -24.453125 C 26.9375 -25.484375 25.773438 -26.28125 24.453125 -26.84375 C 23.128906 -27.414062 21.707031 -27.703125 20.1875 -27.703125 C 18.664062 -27.703125 17.242188 -27.414062 15.921875 -26.84375 C 14.609375 -26.28125 13.453125 -25.484375 12.453125 -24.453125 C 11.460938 -23.429688 10.6875 -22.242188 10.125 -20.890625 C 9.570312 -19.535156 9.296875 -18.070312 9.296875 -16.5 C 9.296875 -14.945312 9.570312 -13.492188 10.125 -12.140625 C 10.6875 -10.785156 11.460938 -9.597656 12.453125 -8.578125 C 13.453125 -7.566406 14.609375 -6.773438 15.921875 -6.203125 C 17.242188 -5.628906 18.664062 -5.34375 20.1875 -5.34375 Z M 20.1875 -5.34375 "/></g></g></g><g fill="#494c51" fill-opacity="1"><g transform="translate(142.556295, 247.391953)"><g><path d="M 45.78125 -33.296875 C 46.050781 -33.296875 46.226562 -33.21875 46.3125 -33.0625 C 46.394531 -32.914062 46.40625 -32.722656 46.34375 -32.484375 L 37.859375 -0.578125 C 37.804688 -0.378906 37.691406 -0.234375 37.515625 -0.140625 C 37.347656 -0.046875 37.171875 0 36.984375 0 L 31.71875 0 C 31.53125 0 31.359375 -0.046875 31.203125 -0.140625 C 31.054688 -0.234375 30.953125 -0.378906 30.890625 -0.578125 L 24.28125 -22.875 L 17.640625 -0.578125 C 17.535156 -0.191406 17.269531 0 16.84375 0 L 11.578125 0 C 11.390625 0 11.203125 -0.046875 11.015625 -0.140625 C 10.835938 -0.234375 10.722656 -0.378906 10.671875 -0.578125 L 2.3125 -32.484375 C 2.144531 -33.023438 2.332031 -33.296875 2.875 -33.296875 L 7.828125 -33.296875 C 8.015625 -33.296875 8.179688 -33.253906 8.328125 -33.171875 C 8.484375 -33.097656 8.582031 -32.945312 8.625 -32.71875 L 14.484375 -8.109375 L 21.234375 -32.71875 C 21.265625 -32.84375 21.316406 -32.945312 21.390625 -33.03125 C 21.460938 -33.113281 21.539062 -33.175781 21.625 -33.21875 C 21.71875 -33.269531 21.84375 -33.296875 22 -33.296875 L 26.5625 -33.296875 C 26.71875 -33.296875 26.84375 -33.269531 26.9375 -33.21875 C 27.019531 -33.175781 27.097656 -33.113281 27.171875 -33.03125 C 27.242188 -32.945312 27.296875 -32.84375 27.328125 -32.71875 L 34.078125 -8.109375 L 40 -32.71875 C 40.0625 -32.945312 40.160156 -33.097656 40.296875 -33.171875 C 40.441406 -33.253906 40.613281 -33.296875 40.8125 -33.296875 Z M 45.78125 -33.296875 "/></g></g></g><g fill="#494c51" fill-opacity="1"><g transform="translate(188.398646, 247.391953)"><g><path d="M 14.625 -19.625 C 15.894531 -19.363281 17.144531 -19.0625 18.375 -18.71875 C 19.601562 -18.382812 20.75 -17.960938 21.8125 -17.453125 C 22.882812 -16.941406 23.828125 -16.3125 24.640625 -15.5625 C 25.460938 -14.820312 26.101562 -13.925781 26.5625 -12.875 C 27.019531 -11.820312 27.25 -10.570312 27.25 -9.125 C 27.25 -5.894531 26.222656 -3.445312 24.171875 -1.78125 C 22.117188 -0.113281 18.992188 0.71875 14.796875 0.71875 C 11.015625 0.71875 8.101562 0.0195312 6.0625 -1.375 C 4.03125 -2.769531 2.878906 -5 2.609375 -8.0625 C 2.597656 -8.300781 2.65625 -8.5 2.78125 -8.65625 C 2.90625 -8.8125 3.070312 -8.890625 3.28125 -8.890625 L 7.734375 -8.890625 C 7.953125 -8.890625 8.113281 -8.820312 8.21875 -8.6875 C 8.320312 -8.550781 8.394531 -8.390625 8.4375 -8.203125 C 8.707031 -7.140625 9.363281 -6.320312 10.40625 -5.75 C 11.457031 -5.1875 12.921875 -4.90625 14.796875 -4.90625 C 16.804688 -4.90625 18.367188 -5.234375 19.484375 -5.890625 C 20.609375 -6.546875 21.171875 -7.570312 21.171875 -8.96875 C 21.171875 -10.007812 20.957031 -10.847656 20.53125 -11.484375 C 20.113281 -12.117188 19.425781 -12.640625 18.46875 -13.046875 C 17.519531 -13.460938 16.238281 -13.835938 14.625 -14.171875 C 13.132812 -14.492188 11.707031 -14.894531 10.34375 -15.375 C 8.976562 -15.851562 7.757812 -16.472656 6.6875 -17.234375 C 5.625 -18.003906 4.78125 -18.960938 4.15625 -20.109375 C 3.539062 -21.253906 3.234375 -22.648438 3.234375 -24.296875 C 3.234375 -26.234375 3.644531 -27.90625 4.46875 -29.3125 C 5.289062 -30.71875 6.539062 -31.800781 8.21875 -32.5625 C 9.90625 -33.320312 12.015625 -33.703125 14.546875 -33.703125 C 18.003906 -33.703125 20.742188 -33.019531 22.765625 -31.65625 C 24.785156 -30.300781 25.945312 -28.132812 26.25 -25.15625 C 26.28125 -24.914062 26.234375 -24.722656 26.109375 -24.578125 C 25.984375 -24.441406 25.8125 -24.375 25.59375 -24.375 L 21.46875 -24.375 C 21.269531 -24.375 21.113281 -24.429688 21 -24.546875 C 20.882812 -24.671875 20.804688 -24.828125 20.765625 -25.015625 C 20.554688 -25.953125 19.941406 -26.707031 18.921875 -27.28125 C 17.910156 -27.863281 16.476562 -28.15625 14.625 -28.15625 C 12.925781 -28.15625 11.601562 -27.816406 10.65625 -27.140625 C 9.71875 -26.472656 9.25 -25.523438 9.25 -24.296875 C 9.25 -23.554688 9.382812 -22.882812 9.65625 -22.28125 C 9.9375 -21.675781 10.460938 -21.15625 11.234375 -20.71875 C 12.015625 -20.289062 13.144531 -19.925781 14.625 -19.625 Z M 14.625 -19.625 "/></g></g></g><g fill="#494c51" fill-opacity="1"><g transform="translate(215.456826, 247.391953)"><g><path d="M 27.640625 -33.296875 C 27.859375 -33.296875 28.03125 -33.226562 28.15625 -33.09375 C 28.28125 -32.96875 28.34375 -32.796875 28.34375 -32.578125 L 28.34375 -28.484375 C 28.34375 -28.285156 28.28125 -28.117188 28.15625 -27.984375 C 28.03125 -27.847656 27.859375 -27.78125 27.640625 -27.78125 L 18.40625 -27.78125 L 18.40625 -0.71875 C 18.40625 -0.507812 18.34375 -0.335938 18.21875 -0.203125 C 18.09375 -0.0664062 17.914062 0 17.6875 0 L 12.90625 0 C 12.707031 0 12.539062 -0.0664062 12.40625 -0.203125 C 12.269531 -0.335938 12.203125 -0.507812 12.203125 -0.71875 L 12.203125 -27.78125 L 2.96875 -27.78125 C 2.757812 -27.78125 2.585938 -27.847656 2.453125 -27.984375 C 2.328125 -28.117188 2.265625 -28.285156 2.265625 -28.484375 L 2.265625 -32.578125 C 2.265625 -32.796875 2.328125 -32.96875 2.453125 -33.09375 C 2.585938 -33.226562 2.757812 -33.296875 2.96875 -33.296875 Z M 27.640625 -33.296875 "/></g></g></g><g fill="#494c51" fill-opacity="1"><g transform="translate(243.252109, 247.391953)"><g><path d="M 31.75 -0.8125 C 31.820312 -0.570312 31.8125 -0.375 31.71875 -0.21875 C 31.625 -0.0703125 31.441406 0 31.171875 0 L 26.234375 0 C 26.046875 0 25.882812 -0.0390625 25.75 -0.125 C 25.613281 -0.21875 25.503906 -0.367188 25.421875 -0.578125 L 23.515625 -6 L 10.078125 -6 L 8.1875 -0.578125 C 8.113281 -0.367188 8.003906 -0.21875 7.859375 -0.125 C 7.722656 -0.0390625 7.5625 0 7.375 0 L 2.421875 0 C 2.171875 0 1.992188 -0.0703125 1.890625 -0.21875 C 1.785156 -0.375 1.773438 -0.570312 1.859375 -0.8125 L 13.703125 -32.71875 C 13.835938 -33.101562 14.113281 -33.296875 14.53125 -33.296875 L 19 -33.296875 C 19.1875 -33.296875 19.367188 -33.25 19.546875 -33.15625 C 19.722656 -33.0625 19.84375 -32.914062 19.90625 -32.71875 Z M 11.9375 -11.3125 L 21.671875 -11.3125 L 16.8125 -25.25 Z M 11.9375 -11.3125 "/></g></g></g><g fill="#494c51" fill-opacity="1"><g transform="translate(274.043351, 247.391953)"><g><path d="M 22.875 -12.296875 L 28.921875 -0.828125 C 29.046875 -0.578125 29.050781 -0.375 28.9375 -0.21875 C 28.832031 -0.0703125 28.644531 0 28.375 0 L 23.59375 0 C 23.226562 0 22.953125 -0.179688 22.765625 -0.546875 L 17.125 -11.53125 L 10.25 -11.53125 L 10.25 -0.71875 C 10.25 -0.507812 10.1875 -0.335938 10.0625 -0.203125 C 9.9375 -0.0664062 9.757812 0 9.53125 0 L 4.75 0 C 4.550781 0 4.382812 -0.0664062 4.25 -0.203125 C 4.113281 -0.335938 4.046875 -0.507812 4.046875 -0.71875 L 4.046875 -32.578125 C 4.046875 -32.796875 4.113281 -32.96875 4.25 -33.09375 C 4.382812 -33.226562 4.550781 -33.296875 4.75 -33.296875 L 16.5 -33.296875 C 18.925781 -33.296875 20.96875 -33.066406 22.625 -32.609375 C 24.28125 -32.148438 25.601562 -31.457031 26.59375 -30.53125 C 27.582031 -29.613281 28.296875 -28.476562 28.734375 -27.125 C 29.171875 -25.78125 29.390625 -24.210938 29.390625 -22.421875 C 29.390625 -20.660156 29.179688 -19.109375 28.765625 -17.765625 C 28.347656 -16.429688 27.660156 -15.304688 26.703125 -14.390625 C 25.753906 -13.484375 24.476562 -12.785156 22.875 -12.296875 Z M 10.25 -27.78125 L 10.25 -17.046875 L 16.953125 -17.046875 C 18.316406 -17.046875 19.476562 -17.1875 20.4375 -17.46875 C 21.394531 -17.757812 22.128906 -18.289062 22.640625 -19.0625 C 23.160156 -19.84375 23.421875 -20.960938 23.421875 -22.421875 C 23.421875 -23.878906 23.160156 -24.992188 22.640625 -25.765625 C 22.128906 -26.535156 21.394531 -27.0625 20.4375 -27.34375 C 19.476562 -27.632812 18.316406 -27.78125 16.953125 -27.78125 Z M 10.25 -27.78125 "/></g></g></g><g fill="#494c51" fill-opacity="1"><g transform="translate(303.003723, 247.391953)"><g><path d="M 27.640625 -33.296875 C 27.859375 -33.296875 28.03125 -33.226562 28.15625 -33.09375 C 28.28125 -32.96875 28.34375 -32.796875 28.34375 -32.578125 L 28.34375 -28.484375 C 28.34375 -28.285156 28.28125 -28.117188 28.15625 -27.984375 C 28.03125 -27.847656 27.859375 -27.78125 27.640625 -27.78125 L 18.40625 -27.78125 L 18.40625 -0.71875 C 18.40625 -0.507812 18.34375 -0.335938 18.21875 -0.203125 C 18.09375 -0.0664062 17.914062 0 17.6875 0 L 12.90625 0 C 12.707031 0 12.539062 -0.0664062 12.40625 -0.203125 C 12.269531 -0.335938 12.203125 -0.507812 12.203125 -0.71875 L 12.203125 -27.78125 L 2.96875 -27.78125 C 2.757812 -27.78125 2.585938 -27.847656 2.453125 -27.984375 C 2.328125 -28.117188 2.265625 -28.285156 2.265625 -28.484375 L 2.265625 -32.578125 C 2.265625 -32.796875 2.328125 -32.96875 2.453125 -33.09375 C 2.585938 -33.226562 2.757812 -33.296875 2.96875 -33.296875 Z M 27.640625 -33.296875 "/></g></g></g><g fill="#000000" fill-opacity="1"><g transform="translate(108.715924, 268.240881)"><g><path d="M 6.46875 -8.390625 C 6.53125 -8.390625 6.578125 -8.375 6.609375 -8.34375 C 6.640625 -8.3125 6.65625 -8.265625 6.65625 -8.203125 L 6.65625 -6.859375 C 6.65625 -6.816406 6.640625 -6.773438 6.609375 -6.734375 C 6.578125 -6.703125 6.53125 -6.6875 6.46875 -6.6875 L 2.953125 -6.6875 L 2.953125 -5 L 6.203125 -5 C 6.253906 -5 6.296875 -4.984375 6.328125 -4.953125 C 6.359375 -4.921875 6.375 -4.878906 6.375 -4.828125 L 6.375 -3.46875 C 6.375 -3.414062 6.359375 -3.375 6.328125 -3.34375 C 6.296875 -3.3125 6.253906 -3.296875 6.203125 -3.296875 L 2.953125 -3.296875 L 2.953125 -0.1875 C 2.953125 -0.132812 2.9375 -0.0859375 2.90625 -0.046875 C 2.875 -0.015625 2.832031 0 2.78125 0 L 1.203125 0 C 1.148438 0 1.101562 -0.015625 1.0625 -0.046875 C 1.03125 -0.0859375 1.015625 -0.132812 1.015625 -0.1875 L 1.015625 -8.203125 C 1.015625 -8.265625 1.03125 -8.3125 1.0625 -8.34375 C 1.101562 -8.375 1.148438 -8.390625 1.203125 -8.390625 Z M 6.46875 -8.390625 "/></g></g></g><g fill="#000000" fill-opacity="1"><g transform="translate(116.111473, 268.240881)"><g><path d="M 6.046875 -2.984375 L 7.515625 -0.203125 C 7.546875 -0.140625 7.546875 -0.0859375 7.515625 -0.046875 C 7.484375 -0.015625 7.429688 0 7.359375 0 L 5.8125 0 C 5.726562 0 5.660156 -0.046875 5.609375 -0.140625 L 4.296875 -2.71875 L 2.953125 -2.71875 L 2.953125 -0.1875 C 2.953125 -0.132812 2.9375 -0.0859375 2.90625 -0.046875 C 2.875 -0.015625 2.832031 0 2.78125 0 L 1.203125 0 C 1.148438 0 1.101562 -0.015625 1.0625 -0.046875 C 1.03125 -0.0859375 1.015625 -0.132812 1.015625 -0.1875 L 1.015625 -8.203125 C 1.015625 -8.265625 1.03125 -8.3125 1.0625 -8.34375 C 1.101562 -8.375 1.148438 -8.390625 1.203125 -8.390625 L 4.15625 -8.390625 C 4.8125 -8.390625 5.359375 -8.328125 5.796875 -8.203125 C 6.242188 -8.085938 6.597656 -7.910156 6.859375 -7.671875 C 7.117188 -7.441406 7.304688 -7.148438 7.421875 -6.796875 C 7.535156 -6.441406 7.59375 -6.03125 7.59375 -5.5625 C 7.59375 -5.113281 7.539062 -4.722656 7.4375 -4.390625 C 7.34375 -4.054688 7.179688 -3.769531 6.953125 -3.53125 C 6.734375 -3.289062 6.429688 -3.109375 6.046875 -2.984375 Z M 2.953125 -6.6875 L 2.953125 -4.421875 L 4.296875 -4.421875 C 4.609375 -4.421875 4.867188 -4.453125 5.078125 -4.515625 C 5.296875 -4.578125 5.457031 -4.6875 5.5625 -4.84375 C 5.675781 -5.007812 5.734375 -5.25 5.734375 -5.5625 C 5.734375 -5.863281 5.675781 -6.09375 5.5625 -6.25 C 5.457031 -6.414062 5.296875 -6.53125 5.078125 -6.59375 C 4.867188 -6.65625 4.609375 -6.6875 4.296875 -6.6875 Z M 2.953125 -6.6875 "/></g></g></g><g fill="#000000" fill-opacity="1"><g transform="translate(124.291492, 268.240881)"><g><path d="M 5.09375 0.15625 C 4.625 0.15625 4.171875 0.0820312 3.734375 -0.0625 C 3.304688 -0.207031 2.910156 -0.410156 2.546875 -0.671875 C 2.191406 -0.929688 1.878906 -1.238281 1.609375 -1.59375 C 1.347656 -1.957031 1.144531 -2.351562 1 -2.78125 C 0.851562 -3.21875 0.78125 -3.675781 0.78125 -4.15625 C 0.78125 -4.644531 0.851562 -5.101562 1 -5.53125 C 1.144531 -5.96875 1.347656 -6.363281 1.609375 -6.71875 C 1.878906 -7.082031 2.191406 -7.394531 2.546875 -7.65625 C 2.910156 -7.914062 3.304688 -8.117188 3.734375 -8.265625 C 4.171875 -8.410156 4.625 -8.484375 5.09375 -8.484375 C 5.570312 -8.484375 6.023438 -8.410156 6.453125 -8.265625 C 6.890625 -8.117188 7.285156 -7.914062 7.640625 -7.65625 C 8.003906 -7.394531 8.320312 -7.082031 8.59375 -6.71875 C 8.863281 -6.363281 9.070312 -5.96875 9.21875 -5.53125 C 9.363281 -5.101562 9.4375 -4.644531 9.4375 -4.15625 C 9.4375 -3.675781 9.363281 -3.21875 9.21875 -2.78125 C 9.070312 -2.351562 8.863281 -1.957031 8.59375 -1.59375 C 8.320312 -1.238281 8.003906 -0.929688 7.640625 -0.671875 C 7.285156 -0.410156 6.890625 -0.207031 6.453125 -0.0625 C 6.023438 0.0820312 5.570312 0.15625 5.09375 0.15625 Z M 5.09375 -1.71875 C 5.4375 -1.71875 5.75 -1.78125 6.03125 -1.90625 C 6.320312 -2.03125 6.578125 -2.203125 6.796875 -2.421875 C 7.015625 -2.648438 7.179688 -2.910156 7.296875 -3.203125 C 7.421875 -3.503906 7.484375 -3.820312 7.484375 -4.15625 C 7.484375 -4.5 7.421875 -4.816406 7.296875 -5.109375 C 7.179688 -5.410156 7.015625 -5.671875 6.796875 -5.890625 C 6.578125 -6.117188 6.320312 -6.296875 6.03125 -6.421875 C 5.75 -6.546875 5.4375 -6.609375 5.09375 -6.609375 C 4.769531 -6.609375 4.460938 -6.546875 4.171875 -6.421875 C 3.878906 -6.296875 3.625 -6.117188 3.40625 -5.890625 C 3.195312 -5.671875 3.03125 -5.410156 2.90625 -5.109375 C 2.78125 -4.816406 2.71875 -4.5 2.71875 -4.15625 C 2.71875 -3.820312 2.78125 -3.503906 2.90625 -3.203125 C 3.03125 -2.910156 3.195312 -2.648438 3.40625 -2.421875 C 3.625 -2.203125 3.878906 -2.03125 4.171875 -1.90625 C 4.460938 -1.78125 4.769531 -1.71875 5.09375 -1.71875 Z M 5.09375 -1.71875 "/></g></g></g><g fill="#000000" fill-opacity="1"><g transform="translate(134.495559, 268.240881)"><g><path d="M 9.734375 -8.390625 C 9.785156 -8.390625 9.828125 -8.375 9.859375 -8.34375 C 9.890625 -8.3125 9.90625 -8.265625 9.90625 -8.203125 L 9.90625 -0.1875 C 9.90625 -0.132812 9.890625 -0.0859375 9.859375 -0.046875 C 9.828125 -0.015625 9.785156 0 9.734375 0 L 8.15625 0 C 8.101562 0 8.054688 -0.015625 8.015625 -0.046875 C 7.984375 -0.0859375 7.96875 -0.132812 7.96875 -0.1875 L 7.96875 -4.15625 L 6.390625 -0.15625 C 6.359375 -0.0507812 6.285156 0 6.171875 0 L 4.765625 0 C 4.710938 0 4.664062 -0.0078125 4.625 -0.03125 C 4.59375 -0.0625 4.566406 -0.101562 4.546875 -0.15625 L 2.953125 -4.171875 L 2.953125 -0.1875 C 2.953125 -0.132812 2.9375 -0.0859375 2.90625 -0.046875 C 2.875 -0.015625 2.832031 0 2.78125 0 L 1.203125 0 C 1.148438 0 1.101562 -0.015625 1.0625 -0.046875 C 1.03125 -0.0859375 1.015625 -0.132812 1.015625 -0.1875 L 1.015625 -8.203125 C 1.015625 -8.265625 1.03125 -8.3125 1.0625 -8.34375 C 1.101562 -8.375 1.148438 -8.390625 1.203125 -8.390625 L 2.96875 -8.390625 C 3.007812 -8.390625 3.050781 -8.378906 3.09375 -8.359375 C 3.132812 -8.335938 3.164062 -8.304688 3.1875 -8.265625 L 5.46875 -2.234375 L 7.75 -8.265625 C 7.769531 -8.304688 7.796875 -8.335938 7.828125 -8.359375 C 7.867188 -8.378906 7.914062 -8.390625 7.96875 -8.390625 Z M 9.734375 -8.390625 "/></g></g></g><g fill="#000000" fill-opacity="1"><g transform="translate(145.418223, 268.240881)"><g/></g></g><g fill="#000000" fill-opacity="1"><g transform="translate(150.089094, 268.240881)"><g><path d="M 3.703125 -5.078125 C 4.023438 -5.015625 4.34375 -4.941406 4.65625 -4.859375 C 4.96875 -4.773438 5.257812 -4.664062 5.53125 -4.53125 C 5.800781 -4.40625 6.039062 -4.242188 6.25 -4.046875 C 6.46875 -3.847656 6.632812 -3.613281 6.75 -3.34375 C 6.875 -3.070312 6.9375 -2.753906 6.9375 -2.390625 C 6.9375 -1.492188 6.671875 -0.835938 6.140625 -0.421875 C 5.609375 -0.015625 4.8125 0.1875 3.75 0.1875 C 3.09375 0.1875 2.539062 0.109375 2.09375 -0.046875 C 1.65625 -0.210938 1.316406 -0.46875 1.078125 -0.8125 C 0.847656 -1.15625 0.707031 -1.609375 0.65625 -2.171875 C 0.65625 -2.234375 0.671875 -2.28125 0.703125 -2.3125 C 0.734375 -2.34375 0.773438 -2.359375 0.828125 -2.359375 L 2.265625 -2.359375 C 2.328125 -2.359375 2.367188 -2.34375 2.390625 -2.3125 C 2.410156 -2.289062 2.429688 -2.253906 2.453125 -2.203125 C 2.535156 -1.984375 2.675781 -1.820312 2.875 -1.71875 C 3.082031 -1.613281 3.375 -1.5625 3.75 -1.5625 C 4.15625 -1.5625 4.472656 -1.617188 4.703125 -1.734375 C 4.929688 -1.859375 5.046875 -2.054688 5.046875 -2.328125 C 5.046875 -2.460938 5.03125 -2.582031 5 -2.6875 C 4.96875 -2.800781 4.90625 -2.898438 4.8125 -2.984375 C 4.726562 -3.078125 4.59375 -3.15625 4.40625 -3.21875 C 4.226562 -3.289062 3.992188 -3.351562 3.703125 -3.40625 C 3.335938 -3.476562 2.976562 -3.578125 2.625 -3.703125 C 2.28125 -3.828125 1.96875 -3.988281 1.6875 -4.1875 C 1.414062 -4.382812 1.195312 -4.628906 1.03125 -4.921875 C 0.863281 -5.222656 0.78125 -5.585938 0.78125 -6.015625 C 0.78125 -6.523438 0.882812 -6.960938 1.09375 -7.328125 C 1.3125 -7.703125 1.632812 -7.988281 2.0625 -8.1875 C 2.5 -8.382812 3.046875 -8.484375 3.703125 -8.484375 C 4.296875 -8.484375 4.804688 -8.40625 5.234375 -8.25 C 5.660156 -8.101562 5.992188 -7.863281 6.234375 -7.53125 C 6.484375 -7.195312 6.632812 -6.757812 6.6875 -6.21875 C 6.695312 -6.15625 6.6875 -6.101562 6.65625 -6.0625 C 6.625 -6.019531 6.582031 -6 6.53125 -6 L 5.1875 -6 C 5.132812 -6 5.09375 -6.015625 5.0625 -6.046875 C 5.039062 -6.085938 5.023438 -6.132812 5.015625 -6.1875 C 4.953125 -6.363281 4.820312 -6.503906 4.625 -6.609375 C 4.425781 -6.710938 4.128906 -6.765625 3.734375 -6.765625 C 3.378906 -6.765625 3.113281 -6.691406 2.9375 -6.546875 C 2.757812 -6.410156 2.671875 -6.234375 2.671875 -6.015625 C 2.671875 -5.921875 2.675781 -5.828125 2.6875 -5.734375 C 2.695312 -5.648438 2.726562 -5.566406 2.78125 -5.484375 C 2.84375 -5.398438 2.945312 -5.320312 3.09375 -5.25 C 3.238281 -5.1875 3.441406 -5.128906 3.703125 -5.078125 Z M 3.703125 -5.078125 "/></g></g></g><g fill="#000000" fill-opacity="1"><g transform="translate(157.688245, 268.240881)"><g><path d="M 6.453125 -1.703125 C 6.503906 -1.703125 6.546875 -1.6875 6.578125 -1.65625 C 6.617188 -1.625 6.640625 -1.578125 6.640625 -1.515625 L 6.640625 -0.1875 C 6.640625 -0.132812 6.617188 -0.0859375 6.578125 -0.046875 C 6.546875 -0.015625 6.503906 0 6.453125 0 L 1.203125 0 C 1.148438 0 1.101562 -0.015625 1.0625 -0.046875 C 1.03125 -0.0859375 1.015625 -0.132812 1.015625 -0.1875 L 1.015625 -8.203125 C 1.015625 -8.265625 1.03125 -8.3125 1.0625 -8.34375 C 1.101562 -8.375 1.148438 -8.390625 1.203125 -8.390625 L 6.4375 -8.390625 C 6.5 -8.390625 6.546875 -8.375 6.578125 -8.34375 C 6.609375 -8.3125 6.625 -8.265625 6.625 -8.203125 L 6.625 -6.859375 C 6.625 -6.816406 6.609375 -6.773438 6.578125 -6.734375 C 6.546875 -6.703125 6.5 -6.6875 6.4375 -6.6875 L 2.953125 -6.6875 L 2.953125 -5.078125 L 6.140625 -5.078125 C 6.203125 -5.078125 6.25 -5.0625 6.28125 -5.03125 C 6.3125 -5 6.328125 -4.953125 6.328125 -4.890625 L 6.328125 -3.546875 C 6.328125 -3.492188 6.3125 -3.453125 6.28125 -3.421875 C 6.25 -3.390625 6.203125 -3.375 6.140625 -3.375 L 2.953125 -3.375 L 2.953125 -1.703125 Z M 6.453125 -1.703125 "/></g></g></g><g fill="#000000" fill-opacity="1"><g transform="translate(165.125714, 268.240881)"><g><path d="M 6.453125 -1.703125 C 6.503906 -1.703125 6.546875 -1.6875 6.578125 -1.65625 C 6.617188 -1.625 6.640625 -1.578125 6.640625 -1.515625 L 6.640625 -0.1875 C 6.640625 -0.132812 6.617188 -0.0859375 6.578125 -0.046875 C 6.546875 -0.015625 6.503906 0 6.453125 0 L 1.203125 0 C 1.148438 0 1.101562 -0.015625 1.0625 -0.046875 C 1.03125 -0.0859375 1.015625 -0.132812 1.015625 -0.1875 L 1.015625 -8.203125 C 1.015625 -8.265625 1.03125 -8.3125 1.0625 -8.34375 C 1.101562 -8.375 1.148438 -8.390625 1.203125 -8.390625 L 6.4375 -8.390625 C 6.5 -8.390625 6.546875 -8.375 6.578125 -8.34375 C 6.609375 -8.3125 6.625 -8.265625 6.625 -8.203125 L 6.625 -6.859375 C 6.625 -6.816406 6.609375 -6.773438 6.578125 -6.734375 C 6.546875 -6.703125 6.5 -6.6875 6.4375 -6.6875 L 2.953125 -6.6875 L 2.953125 -5.078125 L 6.140625 -5.078125 C 6.203125 -5.078125 6.25 -5.0625 6.28125 -5.03125 C 6.3125 -5 6.328125 -4.953125 6.328125 -4.890625 L 6.328125 -3.546875 C 6.328125 -3.492188 6.3125 -3.453125 6.28125 -3.421875 C 6.25 -3.390625 6.203125 -3.375 6.140625 -3.375 L 2.953125 -3.375 L 2.953125 -1.703125 Z M 6.453125 -1.703125 "/></g></g></g><g fill="#000000" fill-opacity="1"><g transform="translate(172.563183, 268.240881)"><g><path d="M 3.75 -8.390625 C 4.46875 -8.390625 5.101562 -8.28125 5.65625 -8.0625 C 6.207031 -7.84375 6.664062 -7.539062 7.03125 -7.15625 C 7.40625 -6.769531 7.6875 -6.320312 7.875 -5.8125 C 8.0625 -5.3125 8.15625 -4.769531 8.15625 -4.1875 C 8.15625 -3.613281 8.0625 -3.070312 7.875 -2.5625 C 7.6875 -2.050781 7.40625 -1.601562 7.03125 -1.21875 C 6.664062 -0.832031 6.207031 -0.53125 5.65625 -0.3125 C 5.101562 -0.101562 4.46875 0 3.75 0 L 1.203125 0 C 1.148438 0 1.101562 -0.015625 1.0625 -0.046875 C 1.03125 -0.0859375 1.015625 -0.132812 1.015625 -0.1875 L 1.015625 -8.203125 C 1.015625 -8.265625 1.03125 -8.3125 1.0625 -8.34375 C 1.101562 -8.375 1.148438 -8.390625 1.203125 -8.390625 Z M 3.75 -1.703125 C 4.5625 -1.703125 5.171875 -1.914062 5.578125 -2.34375 C 5.992188 -2.78125 6.203125 -3.394531 6.203125 -4.1875 C 6.203125 -4.988281 5.992188 -5.601562 5.578125 -6.03125 C 5.171875 -6.46875 4.5625 -6.6875 3.75 -6.6875 L 2.953125 -6.6875 L 2.953125 -1.703125 Z M 3.75 -1.703125 "/></g></g></g><g fill="#000000" fill-opacity="1"><g transform="translate(181.288135, 268.240881)"><g/></g></g><g fill="#000000" fill-opacity="1"><g transform="translate(185.959007, 268.240881)"><g><path d="M 7.015625 -8.390625 C 7.078125 -8.390625 7.125 -8.375 7.15625 -8.34375 C 7.1875 -8.3125 7.203125 -8.265625 7.203125 -8.203125 L 7.203125 -6.859375 C 7.203125 -6.816406 7.1875 -6.773438 7.15625 -6.734375 C 7.125 -6.703125 7.078125 -6.6875 7.015625 -6.6875 L 4.859375 -6.6875 L 4.859375 -0.1875 C 4.859375 -0.132812 4.835938 -0.0859375 4.796875 -0.046875 C 4.765625 -0.015625 4.722656 0 4.671875 0 L 3.09375 0 C 3.039062 0 3 -0.015625 2.96875 -0.046875 C 2.9375 -0.0859375 2.921875 -0.132812 2.921875 -0.1875 L 2.921875 -6.6875 L 0.75 -6.6875 C 0.695312 -6.6875 0.648438 -6.703125 0.609375 -6.734375 C 0.578125 -6.773438 0.5625 -6.816406 0.5625 -6.859375 L 0.5625 -8.203125 C 0.5625 -8.265625 0.578125 -8.3125 0.609375 -8.34375 C 0.648438 -8.375 0.695312 -8.390625 0.75 -8.390625 Z M 7.015625 -8.390625 "/></g></g></g><g fill="#000000" fill-opacity="1"><g transform="translate(193.725837, 268.240881)"><g><path d="M 5.09375 0.15625 C 4.625 0.15625 4.171875 0.0820312 3.734375 -0.0625 C 3.304688 -0.207031 2.910156 -0.410156 2.546875 -0.671875 C 2.191406 -0.929688 1.878906 -1.238281 1.609375 -1.59375 C 1.347656 -1.957031 1.144531 -2.351562 1 -2.78125 C 0.851562 -3.21875 0.78125 -3.675781 0.78125 -4.15625 C 0.78125 -4.644531 0.851562 -5.101562 1 -5.53125 C 1.144531 -5.96875 1.347656 -6.363281 1.609375 -6.71875 C 1.878906 -7.082031 2.191406 -7.394531 2.546875 -7.65625 C 2.910156 -7.914062 3.304688 -8.117188 3.734375 -8.265625 C 4.171875 -8.410156 4.625 -8.484375 5.09375 -8.484375 C 5.570312 -8.484375 6.023438 -8.410156 6.453125 -8.265625 C 6.890625 -8.117188 7.285156 -7.914062 7.640625 -7.65625 C 8.003906 -7.394531 8.320312 -7.082031 8.59375 -6.71875 C 8.863281 -6.363281 9.070312 -5.96875 9.21875 -5.53125 C 9.363281 -5.101562 9.4375 -4.644531 9.4375 -4.15625 C 9.4375 -3.675781 9.363281 -3.21875 9.21875 -2.78125 C 9.070312 -2.351562 8.863281 -1.957031 8.59375 -1.59375 C 8.320312 -1.238281 8.003906 -0.929688 7.640625 -0.671875 C 7.285156 -0.410156 6.890625 -0.207031 6.453125 -0.0625 C 6.023438 0.0820312 5.570312 0.15625 5.09375 0.15625 Z M 5.09375 -1.71875 C 5.4375 -1.71875 5.75 -1.78125 6.03125 -1.90625 C 6.320312 -2.03125 6.578125 -2.203125 6.796875 -2.421875 C 7.015625 -2.648438 7.179688 -2.910156 7.296875 -3.203125 C 7.421875 -3.503906 7.484375 -3.820312 7.484375 -4.15625 C 7.484375 -4.5 7.421875 -4.816406 7.296875 -5.109375 C 7.179688 -5.410156 7.015625 -5.671875 6.796875 -5.890625 C 6.578125 -6.117188 6.320312 -6.296875 6.03125 -6.421875 C 5.75 -6.546875 5.4375 -6.609375 5.09375 -6.609375 C 4.769531 -6.609375 4.460938 -6.546875 4.171875 -6.421875 C 3.878906 -6.296875 3.625 -6.117188 3.40625 -5.890625 C 3.195312 -5.671875 3.03125 -5.410156 2.90625 -5.109375 C 2.78125 -4.816406 2.71875 -4.5 2.71875 -4.15625 C 2.71875 -3.820312 2.78125 -3.503906 2.90625 -3.203125 C 3.03125 -2.910156 3.195312 -2.648438 3.40625 -2.421875 C 3.625 -2.203125 3.878906 -2.03125 4.171875 -1.90625 C 4.460938 -1.78125 4.769531 -1.71875 5.09375 -1.71875 Z M 5.09375 -1.71875 "/></g></g></g><g fill="#000000" fill-opacity="1"><g transform="translate(203.929903, 268.240881)"><g/></g></g><g fill="#000000" fill-opacity="1"><g transform="translate(208.600775, 268.240881)"><g><path d="M 3.703125 -5.078125 C 4.023438 -5.015625 4.34375 -4.941406 4.65625 -4.859375 C 4.96875 -4.773438 5.257812 -4.664062 5.53125 -4.53125 C 5.800781 -4.40625 6.039062 -4.242188 6.25 -4.046875 C 6.46875 -3.847656 6.632812 -3.613281 6.75 -3.34375 C 6.875 -3.070312 6.9375 -2.753906 6.9375 -2.390625 C 6.9375 -1.492188 6.671875 -0.835938 6.140625 -0.421875 C 5.609375 -0.015625 4.8125 0.1875 3.75 0.1875 C 3.09375 0.1875 2.539062 0.109375 2.09375 -0.046875 C 1.65625 -0.210938 1.316406 -0.46875 1.078125 -0.8125 C 0.847656 -1.15625 0.707031 -1.609375 0.65625 -2.171875 C 0.65625 -2.234375 0.671875 -2.28125 0.703125 -2.3125 C 0.734375 -2.34375 0.773438 -2.359375 0.828125 -2.359375 L 2.265625 -2.359375 C 2.328125 -2.359375 2.367188 -2.34375 2.390625 -2.3125 C 2.410156 -2.289062 2.429688 -2.253906 2.453125 -2.203125 C 2.535156 -1.984375 2.675781 -1.820312 2.875 -1.71875 C 3.082031 -1.613281 3.375 -1.5625 3.75 -1.5625 C 4.15625 -1.5625 4.472656 -1.617188 4.703125 -1.734375 C 4.929688 -1.859375 5.046875 -2.054688 5.046875 -2.328125 C 5.046875 -2.460938 5.03125 -2.582031 5 -2.6875 C 4.96875 -2.800781 4.90625 -2.898438 4.8125 -2.984375 C 4.726562 -3.078125 4.59375 -3.15625 4.40625 -3.21875 C 4.226562 -3.289062 3.992188 -3.351562 3.703125 -3.40625 C 3.335938 -3.476562 2.976562 -3.578125 2.625 -3.703125 C 2.28125 -3.828125 1.96875 -3.988281 1.6875 -4.1875 C 1.414062 -4.382812 1.195312 -4.628906 1.03125 -4.921875 C 0.863281 -5.222656 0.78125 -5.585938 0.78125 -6.015625 C 0.78125 -6.523438 0.882812 -6.960938 1.09375 -7.328125 C 1.3125 -7.703125 1.632812 -7.988281 2.0625 -8.1875 C 2.5 -8.382812 3.046875 -8.484375 3.703125 -8.484375 C 4.296875 -8.484375 4.804688 -8.40625 5.234375 -8.25 C 5.660156 -8.101562 5.992188 -7.863281 6.234375 -7.53125 C 6.484375 -7.195312 6.632812 -6.757812 6.6875 -6.21875 C 6.695312 -6.15625 6.6875 -6.101562 6.65625 -6.0625 C 6.625 -6.019531 6.582031 -6 6.53125 -6 L 5.1875 -6 C 5.132812 -6 5.09375 -6.015625 5.0625 -6.046875 C 5.039062 -6.085938 5.023438 -6.132812 5.015625 -6.1875 C 4.953125 -6.363281 4.820312 -6.503906 4.625 -6.609375 C 4.425781 -6.710938 4.128906 -6.765625 3.734375 -6.765625 C 3.378906 -6.765625 3.113281 -6.691406 2.9375 -6.546875 C 2.757812 -6.410156 2.671875 -6.234375 2.671875 -6.015625 C 2.671875 -5.921875 2.675781 -5.828125 2.6875 -5.734375 C 2.695312 -5.648438 2.726562 -5.566406 2.78125 -5.484375 C 2.84375 -5.398438 2.945312 -5.320312 3.09375 -5.25 C 3.238281 -5.1875 3.441406 -5.128906 3.703125 -5.078125 Z M 3.703125 -5.078125 "/></g></g></g><g fill="#000000" fill-opacity="1"><g transform="translate(216.199926, 268.240881)"><g><path d="M 7.75 -8.390625 C 7.800781 -8.390625 7.84375 -8.375 7.875 -8.34375 C 7.90625 -8.3125 7.921875 -8.265625 7.921875 -8.203125 L 7.921875 -3.390625 C 7.921875 -2.785156 7.832031 -2.253906 7.65625 -1.796875 C 7.488281 -1.347656 7.242188 -0.976562 6.921875 -0.6875 C 6.609375 -0.394531 6.234375 -0.175781 5.796875 -0.03125 C 5.359375 0.101562 4.882812 0.171875 4.375 0.171875 C 3.851562 0.171875 3.375 0.101562 2.9375 -0.03125 C 2.507812 -0.175781 2.132812 -0.394531 1.8125 -0.6875 C 1.5 -0.976562 1.253906 -1.347656 1.078125 -1.796875 C 0.898438 -2.253906 0.8125 -2.785156 0.8125 -3.390625 L 0.8125 -8.203125 C 0.8125 -8.265625 0.828125 -8.3125 0.859375 -8.34375 C 0.890625 -8.375 0.929688 -8.390625 0.984375 -8.390625 L 2.5625 -8.390625 C 2.625 -8.390625 2.671875 -8.375 2.703125 -8.34375 C 2.734375 -8.3125 2.75 -8.265625 2.75 -8.203125 L 2.75 -3.390625 C 2.75 -3.046875 2.8125 -2.742188 2.9375 -2.484375 C 3.070312 -2.234375 3.257812 -2.035156 3.5 -1.890625 C 3.738281 -1.753906 4.03125 -1.6875 4.375 -1.6875 C 4.882812 -1.6875 5.28125 -1.835938 5.5625 -2.140625 C 5.84375 -2.453125 5.984375 -2.867188 5.984375 -3.390625 L 5.984375 -8.203125 C 5.984375 -8.265625 6 -8.3125 6.03125 -8.34375 C 6.070312 -8.375 6.117188 -8.390625 6.171875 -8.390625 Z M 7.75 -8.390625 "/></g></g></g><g fill="#000000" fill-opacity="1"><g transform="translate(224.930863, 268.240881)"><g><path d="M 7.125 -2.390625 L 8.09375 -1.34375 C 8.132812 -1.300781 8.15625 -1.257812 8.15625 -1.21875 C 8.164062 -1.175781 8.144531 -1.128906 8.09375 -1.078125 C 7.851562 -0.835938 7.578125 -0.625 7.265625 -0.4375 C 6.953125 -0.25 6.613281 -0.101562 6.25 0 C 5.894531 0.101562 5.519531 0.15625 5.125 0.15625 C 4.644531 0.15625 4.1875 0.0820312 3.75 -0.0625 C 3.320312 -0.207031 2.925781 -0.410156 2.5625 -0.671875 C 2.195312 -0.929688 1.878906 -1.238281 1.609375 -1.59375 C 1.347656 -1.957031 1.144531 -2.351562 1 -2.78125 C 0.851562 -3.21875 0.78125 -3.675781 0.78125 -4.15625 C 0.78125 -4.644531 0.851562 -5.101562 1 -5.53125 C 1.144531 -5.96875 1.347656 -6.363281 1.609375 -6.71875 C 1.878906 -7.082031 2.195312 -7.394531 2.5625 -7.65625 C 2.925781 -7.914062 3.320312 -8.117188 3.75 -8.265625 C 4.1875 -8.410156 4.644531 -8.484375 5.125 -8.484375 C 5.707031 -8.484375 6.257812 -8.367188 6.78125 -8.140625 C 7.300781 -7.921875 7.738281 -7.625 8.09375 -7.25 C 8.144531 -7.195312 8.164062 -7.148438 8.15625 -7.109375 C 8.15625 -7.078125 8.132812 -7.039062 8.09375 -7 L 7.125 -5.9375 C 7.09375 -5.90625 7.050781 -5.882812 7 -5.875 C 6.957031 -5.875 6.914062 -5.894531 6.875 -5.9375 C 6.644531 -6.132812 6.382812 -6.289062 6.09375 -6.40625 C 5.800781 -6.519531 5.472656 -6.578125 5.109375 -6.578125 C 4.785156 -6.578125 4.484375 -6.515625 4.203125 -6.390625 C 3.921875 -6.273438 3.671875 -6.109375 3.453125 -5.890625 C 3.242188 -5.671875 3.078125 -5.414062 2.953125 -5.125 C 2.835938 -4.832031 2.78125 -4.507812 2.78125 -4.15625 C 2.78125 -3.8125 2.835938 -3.492188 2.953125 -3.203125 C 3.078125 -2.910156 3.242188 -2.65625 3.453125 -2.4375 C 3.671875 -2.21875 3.921875 -2.046875 4.203125 -1.921875 C 4.484375 -1.804688 4.785156 -1.75 5.109375 -1.75 C 5.472656 -1.75 5.800781 -1.804688 6.09375 -1.921875 C 6.382812 -2.046875 6.644531 -2.203125 6.875 -2.390625 C 6.914062 -2.429688 6.957031 -2.453125 7 -2.453125 C 7.050781 -2.453125 7.09375 -2.429688 7.125 -2.390625 Z M 7.125 -2.390625 "/></g></g></g><g fill="#000000" fill-opacity="1"><g transform="translate(233.769593, 268.240881)"><g><path d="M 7.125 -2.390625 L 8.09375 -1.34375 C 8.132812 -1.300781 8.15625 -1.257812 8.15625 -1.21875 C 8.164062 -1.175781 8.144531 -1.128906 8.09375 -1.078125 C 7.851562 -0.835938 7.578125 -0.625 7.265625 -0.4375 C 6.953125 -0.25 6.613281 -0.101562 6.25 0 C 5.894531 0.101562 5.519531 0.15625 5.125 0.15625 C 4.644531 0.15625 4.1875 0.0820312 3.75 -0.0625 C 3.320312 -0.207031 2.925781 -0.410156 2.5625 -0.671875 C 2.195312 -0.929688 1.878906 -1.238281 1.609375 -1.59375 C 1.347656 -1.957031 1.144531 -2.351562 1 -2.78125 C 0.851562 -3.21875 0.78125 -3.675781 0.78125 -4.15625 C 0.78125 -4.644531 0.851562 -5.101562 1 -5.53125 C 1.144531 -5.96875 1.347656 -6.363281 1.609375 -6.71875 C 1.878906 -7.082031 2.195312 -7.394531 2.5625 -7.65625 C 2.925781 -7.914062 3.320312 -8.117188 3.75 -8.265625 C 4.1875 -8.410156 4.644531 -8.484375 5.125 -8.484375 C 5.707031 -8.484375 6.257812 -8.367188 6.78125 -8.140625 C 7.300781 -7.921875 7.738281 -7.625 8.09375 -7.25 C 8.144531 -7.195312 8.164062 -7.148438 8.15625 -7.109375 C 8.15625 -7.078125 8.132812 -7.039062 8.09375 -7 L 7.125 -5.9375 C 7.09375 -5.90625 7.050781 -5.882812 7 -5.875 C 6.957031 -5.875 6.914062 -5.894531 6.875 -5.9375 C 6.644531 -6.132812 6.382812 -6.289062 6.09375 -6.40625 C 5.800781 -6.519531 5.472656 -6.578125 5.109375 -6.578125 C 4.785156 -6.578125 4.484375 -6.515625 4.203125 -6.390625 C 3.921875 -6.273438 3.671875 -6.109375 3.453125 -5.890625 C 3.242188 -5.671875 3.078125 -5.414062 2.953125 -5.125 C 2.835938 -4.832031 2.78125 -4.507812 2.78125 -4.15625 C 2.78125 -3.8125 2.835938 -3.492188 2.953125 -3.203125 C 3.078125 -2.910156 3.242188 -2.65625 3.453125 -2.4375 C 3.671875 -2.21875 3.921875 -2.046875 4.203125 -1.921875 C 4.484375 -1.804688 4.785156 -1.75 5.109375 -1.75 C 5.472656 -1.75 5.800781 -1.804688 6.09375 -1.921875 C 6.382812 -2.046875 6.644531 -2.203125 6.875 -2.390625 C 6.914062 -2.429688 6.957031 -2.453125 7 -2.453125 C 7.050781 -2.453125 7.09375 -2.429688 7.125 -2.390625 Z M 7.125 -2.390625 "/></g></g></g><g fill="#000000" fill-opacity="1"><g transform="translate(242.608322, 268.240881)"><g><path d="M 6.453125 -1.703125 C 6.503906 -1.703125 6.546875 -1.6875 6.578125 -1.65625 C 6.617188 -1.625 6.640625 -1.578125 6.640625 -1.515625 L 6.640625 -0.1875 C 6.640625 -0.132812 6.617188 -0.0859375 6.578125 -0.046875 C 6.546875 -0.015625 6.503906 0 6.453125 0 L 1.203125 0 C 1.148438 0 1.101562 -0.015625 1.0625 -0.046875 C 1.03125 -0.0859375 1.015625 -0.132812 1.015625 -0.1875 L 1.015625 -8.203125 C 1.015625 -8.265625 1.03125 -8.3125 1.0625 -8.34375 C 1.101562 -8.375 1.148438 -8.390625 1.203125 -8.390625 L 6.4375 -8.390625 C 6.5 -8.390625 6.546875 -8.375 6.578125 -8.34375 C 6.609375 -8.3125 6.625 -8.265625 6.625 -8.203125 L 6.625 -6.859375 C 6.625 -6.816406 6.609375 -6.773438 6.578125 -6.734375 C 6.546875 -6.703125 6.5 -6.6875 6.4375 -6.6875 L 2.953125 -6.6875 L 2.953125 -5.078125 L 6.140625 -5.078125 C 6.203125 -5.078125 6.25 -5.0625 6.28125 -5.03125 C 6.3125 -5 6.328125 -4.953125 6.328125 -4.890625 L 6.328125 -3.546875 C 6.328125 -3.492188 6.3125 -3.453125 6.28125 -3.421875 C 6.25 -3.390625 6.203125 -3.375 6.140625 -3.375 L 2.953125 -3.375 L 2.953125 -1.703125 Z M 6.453125 -1.703125 "/></g></g></g><g fill="#000000" fill-opacity="1"><g transform="translate(250.045791, 268.240881)"><g><path d="M 3.703125 -5.078125 C 4.023438 -5.015625 4.34375 -4.941406 4.65625 -4.859375 C 4.96875 -4.773438 5.257812 -4.664062 5.53125 -4.53125 C 5.800781 -4.40625 6.039062 -4.242188 6.25 -4.046875 C 6.46875 -3.847656 6.632812 -3.613281 6.75 -3.34375 C 6.875 -3.070312 6.9375 -2.753906 6.9375 -2.390625 C 6.9375 -1.492188 6.671875 -0.835938 6.140625 -0.421875 C 5.609375 -0.015625 4.8125 0.1875 3.75 0.1875 C 3.09375 0.1875 2.539062 0.109375 2.09375 -0.046875 C 1.65625 -0.210938 1.316406 -0.46875 1.078125 -0.8125 C 0.847656 -1.15625 0.707031 -1.609375 0.65625 -2.171875 C 0.65625 -2.234375 0.671875 -2.28125 0.703125 -2.3125 C 0.734375 -2.34375 0.773438 -2.359375 0.828125 -2.359375 L 2.265625 -2.359375 C 2.328125 -2.359375 2.367188 -2.34375 2.390625 -2.3125 C 2.410156 -2.289062 2.429688 -2.253906 2.453125 -2.203125 C 2.535156 -1.984375 2.675781 -1.820312 2.875 -1.71875 C 3.082031 -1.613281 3.375 -1.5625 3.75 -1.5625 C 4.15625 -1.5625 4.472656 -1.617188 4.703125 -1.734375 C 4.929688 -1.859375 5.046875 -2.054688 5.046875 -2.328125 C 5.046875 -2.460938 5.03125 -2.582031 5 -2.6875 C 4.96875 -2.800781 4.90625 -2.898438 4.8125 -2.984375 C 4.726562 -3.078125 4.59375 -3.15625 4.40625 -3.21875 C 4.226562 -3.289062 3.992188 -3.351562 3.703125 -3.40625 C 3.335938 -3.476562 2.976562 -3.578125 2.625 -3.703125 C 2.28125 -3.828125 1.96875 -3.988281 1.6875 -4.1875 C 1.414062 -4.382812 1.195312 -4.628906 1.03125 -4.921875 C 0.863281 -5.222656 0.78125 -5.585938 0.78125 -6.015625 C 0.78125 -6.523438 0.882812 -6.960938 1.09375 -7.328125 C 1.3125 -7.703125 1.632812 -7.988281 2.0625 -8.1875 C 2.5 -8.382812 3.046875 -8.484375 3.703125 -8.484375 C 4.296875 -8.484375 4.804688 -8.40625 5.234375 -8.25 C 5.660156 -8.101562 5.992188 -7.863281 6.234375 -7.53125 C 6.484375 -7.195312 6.632812 -6.757812 6.6875 -6.21875 C 6.695312 -6.15625 6.6875 -6.101562 6.65625 -6.0625 C 6.625 -6.019531 6.582031 -6 6.53125 -6 L 5.1875 -6 C 5.132812 -6 5.09375 -6.015625 5.0625 -6.046875 C 5.039062 -6.085938 5.023438 -6.132812 5.015625 -6.1875 C 4.953125 -6.363281 4.820312 -6.503906 4.625 -6.609375 C 4.425781 -6.710938 4.128906 -6.765625 3.734375 -6.765625 C 3.378906 -6.765625 3.113281 -6.691406 2.9375 -6.546875 C 2.757812 -6.410156 2.671875 -6.234375 2.671875 -6.015625 C 2.671875 -5.921875 2.675781 -5.828125 2.6875 -5.734375 C 2.695312 -5.648438 2.726562 -5.566406 2.78125 -5.484375 C 2.84375 -5.398438 2.945312 -5.320312 3.09375 -5.25 C 3.238281 -5.1875 3.441406 -5.128906 3.703125 -5.078125 Z M 3.703125 -5.078125 "/></g></g></g><g fill="#000000" fill-opacity="1"><g transform="translate(257.644942, 268.240881)"><g><path d="M 3.703125 -5.078125 C 4.023438 -5.015625 4.34375 -4.941406 4.65625 -4.859375 C 4.96875 -4.773438 5.257812 -4.664062 5.53125 -4.53125 C 5.800781 -4.40625 6.039062 -4.242188 6.25 -4.046875 C 6.46875 -3.847656 6.632812 -3.613281 6.75 -3.34375 C 6.875 -3.070312 6.9375 -2.753906 6.9375 -2.390625 C 6.9375 -1.492188 6.671875 -0.835938 6.140625 -0.421875 C 5.609375 -0.015625 4.8125 0.1875 3.75 0.1875 C 3.09375 0.1875 2.539062 0.109375 2.09375 -0.046875 C 1.65625 -0.210938 1.316406 -0.46875 1.078125 -0.8125 C 0.847656 -1.15625 0.707031 -1.609375 0.65625 -2.171875 C 0.65625 -2.234375 0.671875 -2.28125 0.703125 -2.3125 C 0.734375 -2.34375 0.773438 -2.359375 0.828125 -2.359375 L 2.265625 -2.359375 C 2.328125 -2.359375 2.367188 -2.34375 2.390625 -2.3125 C 2.410156 -2.289062 2.429688 -2.253906 2.453125 -2.203125 C 2.535156 -1.984375 2.675781 -1.820312 2.875 -1.71875 C 3.082031 -1.613281 3.375 -1.5625 3.75 -1.5625 C 4.15625 -1.5625 4.472656 -1.617188 4.703125 -1.734375 C 4.929688 -1.859375 5.046875 -2.054688 5.046875 -2.328125 C 5.046875 -2.460938 5.03125 -2.582031 5 -2.6875 C 4.96875 -2.800781 4.90625 -2.898438 4.8125 -2.984375 C 4.726562 -3.078125 4.59375 -3.15625 4.40625 -3.21875 C 4.226562 -3.289062 3.992188 -3.351562 3.703125 -3.40625 C 3.335938 -3.476562 2.976562 -3.578125 2.625 -3.703125 C 2.28125 -3.828125 1.96875 -3.988281 1.6875 -4.1875 C 1.414062 -4.382812 1.195312 -4.628906 1.03125 -4.921875 C 0.863281 -5.222656 0.78125 -5.585938 0.78125 -6.015625 C 0.78125 -6.523438 0.882812 -6.960938 1.09375 -7.328125 C 1.3125 -7.703125 1.632812 -7.988281 2.0625 -8.1875 C 2.5 -8.382812 3.046875 -8.484375 3.703125 -8.484375 C 4.296875 -8.484375 4.804688 -8.40625 5.234375 -8.25 C 5.660156 -8.101562 5.992188 -7.863281 6.234375 -7.53125 C 6.484375 -7.195312 6.632812 -6.757812 6.6875 -6.21875 C 6.695312 -6.15625 6.6875 -6.101562 6.65625 -6.0625 C 6.625 -6.019531 6.582031 -6 6.53125 -6 L 5.1875 -6 C 5.132812 -6 5.09375 -6.015625 5.0625 -6.046875 C 5.039062 -6.085938 5.023438 -6.132812 5.015625 -6.1875 C 4.953125 -6.363281 4.820312 -6.503906 4.625 -6.609375 C 4.425781 -6.710938 4.128906 -6.765625 3.734375 -6.765625 C 3.378906 -6.765625 3.113281 -6.691406 2.9375 -6.546875 C 2.757812 -6.410156 2.671875 -6.234375 2.671875 -6.015625 C 2.671875 -5.921875 2.675781 -5.828125 2.6875 -5.734375 C 2.695312 -5.648438 2.726562 -5.566406 2.78125 -5.484375 C 2.84375 -5.398438 2.945312 -5.320312 3.09375 -5.25 C 3.238281 -5.1875 3.441406 -5.128906 3.703125 -5.078125 Z M 3.703125 -5.078125 "/></g></g></g></svg>