<svg xmlns="http://www.w3.org/2000/svg" xmlns:xlink="http://www.w3.org/1999/xlink" width="500" zoomAndPan="magnify" viewBox="0 0 375 374.999991" height="500" preserveAspectRatio="xMidYMid meet" version="1.2"><defs><clipPath id="a2b4f7e530"><path d="M 102.605469 208.140625 L 272.507812 208.140625 L 272.507812 267.023438 L 102.605469 267.023438 Z M 102.605469 208.140625 "/></clipPath></defs><g id="7ea10e5126"><rect x="0" width="375" y="0" height="374.999991" style="fill:#ffffff;fill-opacity:1;stroke:none;"/><rect x="0" width="375" y="0" height="374.999991" style="fill:#ffffff;fill-opacity:1;stroke:none;"/><path style=" stroke:none;fill-rule:evenodd;fill:#494c51;fill-opacity:1;" d="M 44.648438 99.546875 C 43.34375 100.097656 42.042969 101.148438 41.761719 101.886719 C 40.910156 104.105469 41.15625 173.625 42.019531 175.242188 C 42.957031 176.988281 47.105469 178.566406 49 177.894531 C 49.75 177.628906 50.992188 176.875 51.753906 176.21875 C 53.039062 175.113281 53.140625 172.296875 53.140625 138.394531 C 53.140625 104.492188 53.039062 101.671875 51.753906 100.558594 C 49.683594 98.769531 47.304688 98.429688 44.648438 99.546875 M 87.878906 99.875 C 76.34375 103.5625 64.246094 114.753906 64.246094 121.734375 C 64.246094 126.265625 69.785156 129.367188 73.101562 126.695312 C 73.78125 126.152344 75.429688 124.070312 76.765625 122.074219 C 79.433594 118.097656 82.566406 115.445312 88.039062 112.535156 C 91.148438 110.878906 92.671875 110.636719 99.933594 110.636719 C 107.195312 110.636719 108.71875 110.878906 111.828125 112.535156 C 120.226562 117 125.203125 123.121094 127.363281 131.625 C 130.605469 144.398438 124.085938 157.988281 111.835938 164.007812 C 105.789062 166.976562 96.691406 167.402344 90.328125 165.015625 C 84.390625 162.785156 79.488281 158.835938 76.128906 153.574219 C 72.21875 147.449219 69.273438 146.21875 65.542969 149.15625 C 62.484375 151.5625 62.765625 154.929688 66.496094 160.703125 C 73.824219 172.039062 85.945312 178.46875 99.902344 178.425781 C 107.324219 178.402344 111.667969 177.425781 117.777344 174.417969 C 130.085938 168.355469 138.429688 156.171875 140.066406 141.859375 C 141.15625 132.351562 136.925781 119.566406 130.089844 111.683594 C 125.78125 106.714844 118.367188 101.882812 112.0625 99.9375 C 105.335938 97.859375 94.269531 97.828125 87.878906 99.875 M 213.59375 99.125 C 210.09375 100.570312 209.117188 105.214844 211.757812 107.859375 C 213.277344 109.378906 214.402344 109.445312 238.269531 109.445312 L 263.195312 109.445312 L 264.882812 107.296875 C 266.0625 105.800781 266.421875 104.546875 266.078125 103.136719 C 264.996094 98.714844 265.222656 98.753906 239.292969 98.574219 C 226.113281 98.484375 214.546875 98.730469 213.59375 99.125 M 275.449219 99.125 C 272.730469 100.25 271.015625 103.441406 271.628906 106.238281 C 272.542969 110.402344 274.394531 111.03125 285.695312 111.03125 L 295.828125 111.03125 L 295.828125 143.027344 C 295.828125 177.953125 295.648438 176.5625 300.347656 177.996094 C 302.386719 178.617188 306.503906 176.730469 307.230469 174.839844 C 307.5 174.132812 307.722656 159.488281 307.722656 142.292969 L 307.722656 111.03125 L 318.035156 111.03125 C 327.285156 111.03125 328.507812 110.867188 329.929688 109.445312 C 332.121094 107.253906 332.078125 102.269531 329.847656 100.25 C 328.289062 98.835938 326.511719 98.726562 302.683594 98.574219 C 288.660156 98.484375 276.40625 98.734375 275.449219 99.125 M 146.515625 100.125 C 144.785156 101.441406 143.472656 105.117188 144.109375 106.859375 C 144.390625 107.628906 148.761719 113.964844 153.828125 120.945312 C 158.890625 127.925781 163.832031 134.769531 164.808594 136.15625 L 166.582031 138.679688 L 155.433594 153.996094 C 149.300781 162.417969 144.070312 170.144531 143.8125 171.171875 C 143.230469 173.488281 145.710938 177.027344 148.382812 177.691406 C 151.910156 178.570312 154.144531 176.960938 159.203125 169.886719 C 162.53125 165.246094 165.875 160.613281 169.238281 155.996094 L 174.324219 149.011719 L 184.402344 162.847656 C 189.945312 170.453125 195.320312 177.0625 196.347656 177.53125 C 198.667969 178.589844 202.714844 177.351562 203.84375 175.242188 C 205.722656 171.734375 204.707031 169.660156 193.828125 154.800781 C 187.894531 146.691406 182.871094 139.628906 182.667969 139.101562 C 182.464844 138.574219 187.324219 131.265625 193.460938 122.867188 C 202.226562 110.867188 204.621094 107.054688 204.621094 105.085938 C 204.621094 101.867188 201.804688 99.136719 198.484375 99.136719 C 195.480469 99.136719 193.871094 100.914062 182.8125 116.457031 C 178.449219 122.589844 174.6875 127.625 174.453125 127.648438 C 174.21875 127.667969 169.96875 122.066406 165.011719 115.195312 C 160.054688 108.324219 155.273438 101.902344 154.394531 100.917969 C 152.601562 98.921875 148.632812 98.523438 146.515625 100.125 M 225.417969 133.679688 C 223.113281 135.292969 223.019531 139.738281 225.242188 141.960938 C 226.683594 143.402344 227.886719 143.546875 238.363281 143.546875 C 249.554688 143.546875 249.957031 143.492188 251.847656 141.601562 C 252.917969 140.53125 253.792969 138.910156 253.792969 137.996094 C 253.792969 137.085938 252.917969 135.460938 251.847656 134.390625 C 249.960938 132.507812 249.542969 132.445312 238.539062 132.445312 C 229.542969 132.445312 226.816406 132.703125 225.417969 133.679688 M 211.757812 168.132812 C 209.761719 170.132812 209.730469 172.964844 211.691406 175.382812 L 213.203125 177.253906 L 238.230469 177.253906 C 265.359375 177.253906 264.988281 177.3125 266.078125 172.859375 C 266.421875 171.449219 266.0625 170.195312 264.882812 168.695312 L 263.195312 166.546875 L 238.269531 166.546875 C 214.402344 166.546875 213.277344 166.617188 211.757812 168.132812 "/><g clip-rule="nonzero" clip-path="url(#a2b4f7e530)"><path style=" stroke:none;fill-rule:nonzero;fill:#1b75bb;fill-opacity:1;" d="M 102.605469 208.140625 L 272.582031 208.140625 L 272.582031 267.023438 L 102.605469 267.023438 Z M 102.605469 208.140625 "/></g><g style="fill:#ffffff;fill-opacity:1;"><g transform="translate(148.162319, 249.507299)"><path style="stroke:none" d="M 2.859375 0 L 2.859375 -22.703125 L 7.671875 -22.703125 L 7.671875 -3.96875 L 16.875 -3.96875 L 16.875 0 Z M 2.859375 0 "/></g></g><g style="fill:#ffffff;fill-opacity:1;"><g transform="translate(166.125919, 249.507299)"><path style="stroke:none" d="M 16.75 0 L 15.109375 -5.40625 L 6.828125 -5.40625 L 5.1875 0 L 0 0 L 8.015625 -22.796875 L 13.890625 -22.796875 L 21.9375 0 Z M 13.953125 -9.4375 L 12.3125 -14.71875 C 12.207031 -15.070312 12.066406 -15.523438 11.890625 -16.078125 C 11.722656 -16.628906 11.550781 -17.191406 11.375 -17.765625 C 11.207031 -18.335938 11.078125 -18.835938 10.984375 -19.265625 C 10.878906 -18.835938 10.734375 -18.3125 10.546875 -17.6875 C 10.367188 -17.0625 10.195312 -16.46875 10.03125 -15.90625 C 9.863281 -15.351562 9.742188 -14.957031 9.671875 -14.71875 L 8.046875 -9.4375 Z M 13.953125 -9.4375 "/></g></g><g style="fill:#ffffff;fill-opacity:1;"><g transform="translate(188.064178, 249.507299)"><path style="stroke:none" d="M 2.859375 -22.703125 L 9.921875 -22.703125 C 12.941406 -22.703125 15.226562 -22.273438 16.78125 -21.421875 C 18.332031 -20.578125 19.109375 -19.085938 19.109375 -16.953125 C 19.109375 -16.097656 18.972656 -15.320312 18.703125 -14.625 C 18.429688 -13.925781 18.035156 -13.351562 17.515625 -12.90625 C 16.992188 -12.46875 16.363281 -12.179688 15.625 -12.046875 L 15.625 -11.890625 C 16.375 -11.734375 17.050781 -11.46875 17.65625 -11.09375 C 18.269531 -10.71875 18.757812 -10.171875 19.125 -9.453125 C 19.5 -8.734375 19.6875 -7.773438 19.6875 -6.578125 C 19.6875 -5.203125 19.347656 -4.019531 18.671875 -3.03125 C 18.003906 -2.050781 17.046875 -1.300781 15.796875 -0.78125 C 14.546875 -0.257812 13.0625 0 11.34375 0 L 2.859375 0 Z M 7.671875 -13.703125 L 10.46875 -13.703125 C 11.863281 -13.703125 12.828125 -13.921875 13.359375 -14.359375 C 13.898438 -14.804688 14.171875 -15.457031 14.171875 -16.3125 C 14.171875 -17.1875 13.851562 -17.8125 13.21875 -18.1875 C 12.582031 -18.5625 11.578125 -18.75 10.203125 -18.75 L 7.671875 -18.75 Z M 7.671875 -9.890625 L 7.671875 -3.96875 L 10.8125 -3.96875 C 12.257812 -3.96875 13.265625 -4.25 13.828125 -4.8125 C 14.398438 -5.375 14.6875 -6.125 14.6875 -7.0625 C 14.6875 -7.625 14.5625 -8.113281 14.3125 -8.53125 C 14.0625 -8.957031 13.644531 -9.289062 13.0625 -9.53125 C 12.476562 -9.769531 11.675781 -9.890625 10.65625 -9.890625 Z M 7.671875 -9.890625 "/></g></g><g style="fill:#ffffff;fill-opacity:1;"><g transform="translate(209.427969, 249.507299)"><path style="stroke:none" d="M 16.25 -6.296875 C 16.25 -4.953125 15.921875 -3.78125 15.265625 -2.78125 C 14.617188 -1.789062 13.671875 -1.023438 12.421875 -0.484375 C 11.179688 0.046875 9.671875 0.3125 7.890625 0.3125 C 7.097656 0.3125 6.328125 0.257812 5.578125 0.15625 C 4.828125 0.0507812 4.109375 -0.0976562 3.421875 -0.296875 C 2.734375 -0.503906 2.078125 -0.757812 1.453125 -1.0625 L 1.453125 -5.53125 C 2.535156 -5.050781 3.65625 -4.617188 4.8125 -4.234375 C 5.96875 -3.859375 7.117188 -3.671875 8.265625 -3.671875 C 9.046875 -3.671875 9.675781 -3.769531 10.15625 -3.96875 C 10.644531 -4.175781 10.992188 -4.460938 11.203125 -4.828125 C 11.421875 -5.191406 11.53125 -5.609375 11.53125 -6.078125 C 11.53125 -6.640625 11.335938 -7.125 10.953125 -7.53125 C 10.578125 -7.9375 10.054688 -8.3125 9.390625 -8.65625 C 8.722656 -9.007812 7.96875 -9.390625 7.125 -9.796875 C 6.59375 -10.046875 6.015625 -10.347656 5.390625 -10.703125 C 4.773438 -11.054688 4.1875 -11.492188 3.625 -12.015625 C 3.070312 -12.535156 2.613281 -13.164062 2.25 -13.90625 C 1.894531 -14.644531 1.71875 -15.53125 1.71875 -16.5625 C 1.71875 -17.914062 2.03125 -19.070312 2.65625 -20.03125 C 3.28125 -21 4.164062 -21.738281 5.3125 -22.25 C 6.46875 -22.769531 7.832031 -23.03125 9.40625 -23.03125 C 10.582031 -23.03125 11.707031 -22.890625 12.78125 -22.609375 C 13.851562 -22.335938 14.972656 -21.941406 16.140625 -21.421875 L 14.59375 -17.6875 C 13.550781 -18.113281 12.613281 -18.441406 11.78125 -18.671875 C 10.957031 -18.898438 10.113281 -19.015625 9.25 -19.015625 C 8.65625 -19.015625 8.144531 -18.914062 7.71875 -18.71875 C 7.289062 -18.53125 6.96875 -18.265625 6.75 -17.921875 C 6.53125 -17.578125 6.421875 -17.175781 6.421875 -16.71875 C 6.421875 -16.175781 6.578125 -15.722656 6.890625 -15.359375 C 7.210938 -14.992188 7.691406 -14.640625 8.328125 -14.296875 C 8.960938 -13.953125 9.757812 -13.554688 10.71875 -13.109375 C 11.875 -12.554688 12.863281 -11.984375 13.6875 -11.390625 C 14.507812 -10.796875 15.140625 -10.097656 15.578125 -9.296875 C 16.023438 -8.492188 16.25 -7.492188 16.25 -6.296875 Z M 16.25 -6.296875 "/></g></g><path style="fill:none;stroke-width:8;stroke-linecap:butt;stroke-linejoin:miter;stroke:#1b75bb;stroke-opacity:1;stroke-miterlimit:4;" d="M 0.00146984 3.997946 L 104.293174 3.997946 " transform="matrix(0,0.747977,-0.747977,0,355.32631,155.467651)"/><path style="fill:none;stroke-width:8;stroke-linecap:butt;stroke-linejoin:miter;stroke:#1b75bb;stroke-opacity:1;stroke-miterlimit:4;" d="M 0.000431163 3.998691 L 113.828564 3.998691 " transform="matrix(-0.75,-0.000000001309,0.000000001309,-0.75,355.328448,239.155268)"/><path style="fill:none;stroke-width:8;stroke-linecap:butt;stroke-linejoin:miter;stroke:#1b75bb;stroke-opacity:1;stroke-miterlimit:4;" d="M -0.000246584 4.002512 L 23.624755 4.002512 " transform="matrix(-0.75,0.000000001309,-0.000000001309,-0.75,355.320128,155.619071)"/></g></svg>