<?xml version="1.0" encoding="utf-8"?>
<!-- Generator: Adobe Illustrator 27.1.0, SVG Export Plug-In . SVG Version: 6.00 Build 0)  -->
<svg version="1.1" id="Layer_1" xmlns="http://www.w3.org/2000/svg" xmlns:xlink="http://www.w3.org/1999/xlink" x="0px" y="0px"
	 viewBox="0 0 500 150" style="enable-background:new 0 0 500 150;" xml:space="preserve">
<style type="text/css">
	.st0{fill-rule:evenodd;clip-rule:evenodd;fill:#FFFFFF;}
	.st1{fill:#FFFFFF;}
</style>
<path class="st0" d="M22.8,38.1c-1.2,0.5-2.5,1.5-2.7,2.2c-0.8,2.1-0.6,67.7,0.2,69.2c0.9,1.6,4.8,3.1,6.6,2.5
	c0.7-0.2,1.9-1,2.6-1.6c1.2-1,1.3-3.7,1.3-35.7S30.7,40.1,29.5,39C27.5,37.4,25.3,37.1,22.8,38.1 M63.6,38.4
	c-10.9,3.5-22.3,14-22.3,20.6c0,4.3,5.2,7.2,8.4,4.7c0.6-0.5,2.2-2.5,3.5-4.4c2.5-3.8,5.5-6.3,10.6-9c2.9-1.6,4.4-1.8,11.2-1.8
	c6.8,0,8.3,0.2,11.2,1.8c7.9,4.2,12.6,10,14.7,18c3.1,12-3.1,24.9-14.6,30.5c-5.7,2.8-14.3,3.2-20.3,1C60.4,97.7,55.8,94,52.6,89
	c-3.7-5.8-6.5-6.9-10-4.2c-2.9,2.3-2.6,5.4,0.9,10.9c6.9,10.7,18.3,16.8,31.5,16.7c7,0,11.1-0.9,16.9-3.8
	c11.6-5.7,19.5-17.2,21-30.7c1-9-3-21-9.4-28.5c-4.1-4.7-11.1-9.2-17-11.1C80,36.5,69.6,36.5,63.6,38.4 M182.1,37.7
	c-3.3,1.4-4.2,5.7-1.7,8.2c1.4,1.4,2.5,1.5,25,1.5h23.5l1.6-2c1.1-1.4,1.4-2.6,1.1-3.9c-1-4.2-0.8-4.1-25.3-4.3
	C193.9,37.1,183,37.4,182.1,37.7 M240.5,37.7c-2.6,1.1-4.2,4.1-3.6,6.7c0.9,3.9,2.6,4.5,13.3,4.5h9.6v30.2c0,32.9-0.2,31.6,4.3,33
	c1.9,0.6,5.8-1.2,6.5-3c0.3-0.7,0.5-14.5,0.5-30.7V49h9.7c8.7,0,9.9-0.2,11.2-1.5c2.1-2.1,2-6.8-0.1-8.7c-1.5-1.3-3.1-1.4-25.6-1.6
	C252.9,37.1,241.4,37.4,240.5,37.7 M118.9,38.7c-1.6,1.2-2.9,4.7-2.3,6.4c0.3,0.7,4.4,6.7,9.2,13.3s9.4,13,10.4,14.3l1.7,2.4
	l-10.5,14.4c-5.8,7.9-10.7,15.2-11,16.2c-0.5,2.2,1.8,5.5,4.3,6.2c3.3,0.8,5.4-0.7,10.2-7.4c3.1-4.4,6.3-8.8,9.5-13.1l4.8-6.6
	l9.5,13c5.2,7.2,10.3,13.4,11.3,13.9c2.2,1,6-0.2,7.1-2.2c1.8-3.3,0.8-5.3-9.4-19.3c-5.6-7.6-10.3-14.3-10.5-14.8s4.4-7.4,10.2-15.3
	c8.3-11.3,10.5-14.9,10.5-16.8c0-3-2.7-5.6-5.8-5.6c-2.8,0-4.4,1.7-14.8,16.3c-4.1,5.8-7.7,10.5-7.9,10.6c-0.2,0-4.2-5.3-8.9-11.7
	c-4.7-6.5-9.2-12.5-10-13.5C124.6,37.5,120.9,37.2,118.9,38.7 M193.3,70.3c-2.2,1.5-2.3,5.7-0.2,7.8c1.4,1.4,2.5,1.5,12.4,1.5
	c10.6,0,10.9-0.1,12.7-1.8c1-1,1.8-2.5,1.8-3.4s-0.8-2.4-1.8-3.4c-1.8-1.8-2.2-1.8-12.6-1.8C197.2,69.2,194.6,69.4,193.3,70.3
	 M180.4,102.8c-1.9,1.9-1.9,4.6-0.1,6.8l1.4,1.8h23.6c25.6,0,25.2,0.1,26.3-4.1c0.3-1.3,0-2.5-1.1-3.9l-1.6-2h-23.5
	C182.9,101.3,181.8,101.4,180.4,102.8"/>
<path class="st1" d="M484,102.5H323.6V46.9H484V102.5z M382.5,85.9v-3.8h-8.7V64.4h-4.6v21.5H382.5z M404.2,85.9l-7.6-21.5H391
	l-7.5,21.5h4.9l1.6-5.1h7.8l1.5,5.1H404.2z M391.1,77l1.5-5c0-0.2,0.1-0.6,0.3-1.1c0.2-0.6,0.3-1.1,0.5-1.7s0.3-1.1,0.4-1.5
	c0.1,0.4,0.2,0.9,0.4,1.4c0.2,0.5,0.3,1.1,0.5,1.6s0.3,1,0.4,1.3l1.6,5C396.7,77,391.1,77,391.1,77z M406.9,85.6h8
	c1.6,0,3-0.2,4.2-0.7s2.1-1.2,2.7-2.1c0.7-0.9,1-2,1-3.3c0-1.1-0.2-2-0.5-2.7c-0.4-0.6-0.8-1.2-1.4-1.5c-0.6-0.4-1.2-0.6-1.9-0.8
	v-0.1c0.7-0.1,1.3-0.4,1.8-0.8s0.9-0.9,1.1-1.6c0.3-0.7,0.4-1.4,0.4-2.2c0-2-0.7-3.4-2.2-4.2c-1.5-0.8-3.7-1.2-6.5-1.2h-6.7V85.6z
	 M411.4,72.9v-4.7h2.4c1.3,0,2.3,0.1,2.9,0.5s0.9,1,0.9,1.8s-0.3,1.4-0.8,1.8s-1.4,0.6-2.7,0.6L411.4,72.9
	C411.5,72.9,411.4,72.9,411.4,72.9z M411.5,76.6h2.8c1,0,1.7,0.1,2.3,0.3c0.6,0.2,1,0.5,1.2,0.9c0.3,0.4,0.4,0.9,0.4,1.4
	c0,0.9-0.3,1.6-0.8,2.1c-0.6,0.5-1.5,0.8-2.9,0.8h-3V76.6L411.5,76.6z M439.3,77.1c-0.4-0.8-1-1.4-1.8-2c-0.8-0.5-1.7-1.1-2.8-1.6
	c-0.8-0.4-1.6-0.8-2.2-1.1c-0.6-0.3-1.1-0.7-1.4-1c-0.3-0.4-0.4-0.8-0.4-1.3c0-0.4,0.1-0.8,0.3-1.1c0.2-0.4,0.5-0.6,0.9-0.8
	c0.4-0.2,0.8-0.3,1.4-0.3c0.8,0,1.6,0.1,2.4,0.3c0.7,0.2,1.6,0.5,2.6,0.9l1.5-3.5c-1.1-0.5-2.2-0.9-3.2-1.1c-1-0.3-2.1-0.4-3.2-0.4
	c-1.5,0-2.8,0.2-3.9,0.7s-1.9,1.2-2.5,2.1s-0.9,2-0.9,3.3c0,1,0.2,1.8,0.5,2.5s0.8,1.3,1.3,1.8c0.6,0.5,1.1,0.9,1.7,1.2
	c0.6,0.4,1.1,0.7,1.6,0.9c0.8,0.4,1.5,0.8,2.1,1.1c0.6,0.3,1.1,0.7,1.5,1.1c0.3,0.4,0.5,0.9,0.5,1.4s-0.1,0.9-0.3,1.2
	c-0.2,0.3-0.5,0.6-1,0.8c-0.5,0.2-1,0.3-1.8,0.3c-1,0-2.1-0.1-3.2-0.5s-2.2-0.8-3.2-1.2V85c0.6,0.3,1.2,0.5,1.9,0.7
	c0.6,0.2,1.3,0.3,2,0.4c0.7,0,1.5,0.1,2.2,0.1c1.7,0,3.1-0.3,4.3-0.8c1.2-0.5,2.1-1.3,2.7-2.2c0.6-0.9,0.9-2,0.9-3.3
	C439.8,78.8,439.5,77.9,439.3,77.1z"/>
</svg>
