<svg width="500" height="150" viewBox="0 0 500 150" fill="none" xmlns="http://www.w3.org/2000/svg">
<path fill-rule="evenodd" clip-rule="evenodd" d="M22.7861 38.125C21.5569 38.6459 20.3278 39.6354 20.0621 40.3334C19.2601 42.4271 19.4944 107.995 20.3069 109.521C21.1923 111.167 25.1038 112.656 26.8903 112.021C27.5986 111.771 28.7705 111.063 29.4892 110.443C30.7028 109.401 30.7965 106.745 30.7965 74.7657C30.7965 42.7917 30.7028 40.1302 29.4892 39.0834C27.5361 37.3907 25.2913 37.0729 22.7861 38.125ZM63.5621 38.4323C52.6819 41.9115 41.2705 52.4688 41.2705 59.0573C41.2705 63.3282 46.4944 66.2552 49.6246 63.7344C50.2653 63.2188 51.8174 61.2552 53.083 59.375C55.5934 55.625 58.5517 53.1198 63.7132 50.375C66.6455 48.8125 68.083 48.5834 74.9319 48.5834C81.7809 48.5834 83.2184 48.8125 86.1507 50.375C94.0726 54.5886 98.7653 60.3594 100.802 68.3802C103.859 80.4271 97.7132 93.25 86.1559 98.9219C80.4528 101.724 71.8746 102.13 65.8694 99.875C60.2705 97.7709 55.6507 94.0469 52.4788 89.0834C48.7913 83.3073 46.0153 82.1511 42.4944 84.9219C39.609 87.1875 39.8746 90.3646 43.3955 95.8073C50.3069 106.5 61.7392 112.568 74.9007 112.526C81.9007 112.5 85.9996 111.583 91.7653 108.745C103.375 103.026 111.239 91.5365 112.786 78.0365C113.812 69.0677 109.823 57.0104 103.375 49.5729C99.3121 44.8854 92.3173 40.3282 86.3746 38.4948C80.0257 36.5313 69.5934 36.5052 63.5621 38.4323ZM182.14 37.7292C178.833 39.0938 177.911 43.474 180.406 45.9688C181.838 47.4011 182.901 47.4636 205.411 47.4636H228.922L230.515 45.4375C231.625 44.0209 231.963 42.8386 231.64 41.5104C230.619 37.3386 230.833 37.375 206.375 37.2084C193.942 37.125 183.036 37.3542 182.14 37.7292ZM240.479 37.7292C237.911 38.7865 236.297 41.7969 236.875 44.4375C237.739 48.3646 239.484 48.9584 250.14 48.9584H259.698V79.1407C259.698 112.078 259.531 110.771 263.963 112.12C265.885 112.703 269.77 110.922 270.453 109.141C270.708 108.479 270.922 94.6615 270.922 78.4427V48.9584H280.645C289.369 48.9584 290.52 48.8073 291.864 47.4636C293.932 45.3959 293.89 40.6927 291.786 38.7865C290.317 37.4584 288.64 37.3542 266.166 37.2084C252.942 37.125 241.38 37.3594 240.479 37.7292ZM118.869 38.6719C117.239 39.9115 115.994 43.3802 116.599 45.0261C116.864 45.75 120.989 51.724 125.765 58.3073C130.541 64.8907 135.203 71.349 136.125 72.6563L137.797 75.0365L127.281 89.4792C121.494 97.4271 116.562 104.714 116.317 105.682C115.77 107.87 118.109 111.203 120.63 111.833C123.953 112.661 126.062 111.141 130.838 104.474C133.974 100.094 137.13 95.724 140.297 91.3698L145.099 84.7813L154.604 97.8282C159.833 105.005 164.901 111.24 165.869 111.682C168.057 112.677 171.875 111.51 172.942 109.521C174.713 106.214 173.755 104.255 163.494 90.2396C157.895 82.5938 153.161 75.9323 152.968 75.4323C152.776 74.9375 157.359 68.0469 163.145 60.1198C171.416 48.8021 173.672 45.2084 173.672 43.349C173.672 40.3125 171.015 37.7396 167.885 37.7396C165.052 37.7396 163.531 39.4167 153.104 54.0782C148.989 59.8594 145.442 64.6094 145.218 64.6302C145 64.6511 140.989 59.3646 136.312 52.8854C131.635 46.4063 127.13 40.349 126.302 39.4219C124.609 37.5365 120.864 37.1615 118.869 38.6719ZM193.291 70.3229C191.114 71.8438 191.026 76.0365 193.125 78.1302C194.484 79.4896 195.614 79.6302 205.5 79.6302C216.052 79.6302 216.437 79.5729 218.218 77.7917C219.224 76.7813 220.052 75.25 220.052 74.3907C220.052 73.5313 219.224 72 218.218 70.9948C216.437 69.2136 216.047 69.1563 205.666 69.1563C197.182 69.1563 194.604 69.3959 193.291 70.3229ZM180.406 102.818C178.52 104.703 178.494 107.375 180.338 109.656L181.77 111.422H205.375C230.958 111.422 230.614 111.474 231.64 107.276C231.963 105.943 231.625 104.76 230.515 103.349L228.922 101.323H205.411C182.901 101.323 181.838 101.385 180.406 102.818Z" fill="#494C51"/>
<mask id="mask0_77_28" style="mask-type:luminance" maskUnits="userSpaceOnUse" x="323" y="46" width="161" height="57">
<path d="M323.568 46.875H483.958V102.464H323.568V46.875Z" fill="white"/>
</mask>
<g mask="url(#mask0_77_28)">
<path d="M323.568 46.875H484.031V102.464H323.568V46.875Z" fill="#1B75BB"/>
</g>
<path d="M369.261 85.9258V64.4883H373.824V82.1758H382.511V85.9258H369.261Z" fill="white"/>
<path d="M399.345 85.9257L397.803 80.8216H389.991L388.428 85.9257H383.532L391.095 64.4049H396.657L404.241 85.9257H399.345ZM396.72 77.0091L395.157 72.0299C395.058 71.6966 394.928 71.2747 394.761 70.7591C394.605 70.233 394.449 69.6966 394.282 69.1549C394.116 68.6132 393.98 68.1445 393.886 67.7382C393.787 68.1445 393.657 68.6445 393.491 69.2382C393.324 69.8216 393.157 70.3789 392.991 70.9049C392.834 71.4362 392.725 71.8112 392.657 72.0299L391.116 77.0091H396.72Z" fill="white"/>
<path d="M406.93 64.4883H413.617C416.461 64.4883 418.617 64.8945 420.076 65.6966C421.545 66.5039 422.284 67.9154 422.284 69.9258C422.284 70.7331 422.149 71.4622 421.888 72.1133C421.638 72.7695 421.263 73.3112 420.763 73.7383C420.274 74.1549 419.685 74.4258 418.992 74.5508V74.6966C419.701 74.8529 420.336 75.1081 420.909 75.4674C421.492 75.8164 421.956 76.332 422.305 77.0091C422.649 77.6914 422.826 78.5924 422.826 79.7174C422.826 81.0091 422.503 82.1237 421.867 83.0508C421.242 83.9831 420.336 84.6966 419.159 85.1966C417.977 85.6862 416.576 85.9258 414.951 85.9258H406.93V64.4883ZM411.492 72.9883H414.117C415.435 72.9883 416.347 72.7799 416.847 72.3633C417.357 71.9466 417.617 71.3372 417.617 70.5299C417.617 69.6966 417.315 69.1081 416.722 68.7591C416.123 68.3997 415.17 68.2174 413.867 68.2174H411.492V72.9883ZM411.492 76.5924V82.1758H414.451C415.81 82.1758 416.763 81.9154 417.305 81.3841C417.847 80.8581 418.117 80.1497 418.117 79.2591C418.117 78.7331 417.998 78.2695 417.763 77.8633C417.524 77.4622 417.128 77.1497 416.576 76.9258C416.018 76.707 415.263 76.5924 414.305 76.5924H411.492Z" fill="white"/>
<path d="M439.765 79.9675C439.765 81.2487 439.452 82.3581 438.827 83.3008C438.212 84.2331 437.317 84.9571 436.14 85.4675C434.957 85.9675 433.525 86.2175 431.848 86.2175C431.108 86.2175 430.39 86.1654 429.681 86.0717C428.973 85.9727 428.291 85.8373 427.64 85.655C426.983 85.4623 426.369 85.2175 425.785 84.9258V80.7175C426.796 81.1654 427.853 81.5664 428.952 81.9258C430.046 82.2904 431.129 82.4675 432.202 82.4675C432.952 82.4675 433.546 82.3737 433.994 82.1758C434.452 81.9831 434.785 81.7175 434.994 81.3842C435.202 81.0404 435.306 80.6446 435.306 80.1967C435.306 79.655 435.124 79.1967 434.765 78.8217C434.4 78.4362 433.9 78.0717 433.265 77.7383C432.64 77.405 431.931 77.0508 431.14 76.6758C430.64 76.4414 430.098 76.155 429.515 75.8217C428.931 75.4883 428.374 75.0821 427.848 74.5925C427.317 74.0925 426.879 73.4987 426.535 72.8008C426.202 72.1081 426.035 71.2696 426.035 70.28C426.035 69.0039 426.327 67.9154 426.91 67.0092C427.504 66.0925 428.348 65.3998 429.431 64.9258C430.515 64.4414 431.796 64.1967 433.285 64.1967C434.41 64.1967 435.473 64.3321 436.473 64.5925C437.483 64.8425 438.546 65.2123 439.66 65.6967L438.181 69.2383C437.192 68.8373 436.311 68.5248 435.535 68.3008C434.754 68.0821 433.957 67.9675 433.14 67.9675C432.582 67.9675 432.103 68.0612 431.702 68.2383C431.296 68.4206 430.994 68.6758 430.785 69.0092C430.577 69.3321 430.473 69.7071 430.473 70.1342C430.473 70.6498 430.619 71.0821 430.91 71.4258C431.212 71.7748 431.666 72.1081 432.265 72.4258C432.874 72.7487 433.624 73.1237 434.515 73.5508C435.608 74.0664 436.546 74.6081 437.327 75.1758C438.103 75.7331 438.702 76.3946 439.119 77.155C439.546 77.905 439.765 78.8425 439.765 79.9675Z" fill="white"/>
</svg>
