<svg width="500" height="500" viewBox="0 0 500 500" fill="none" xmlns="http://www.w3.org/2000/svg">
<path d="M440 0H60C26.8629 0 0 26.8629 0 60V440C0 473.137 26.8629 500 60 500H440C473.137 500 500 473.137 500 440V60C500 26.8629 473.137 0 440 0Z" fill="#1B75BB"/>
<path fill-rule="evenodd" clip-rule="evenodd" d="M45.5528 139.584C43.8132 140.318 42.0788 141.719 41.7038 142.703C40.5684 145.662 40.8965 238.354 42.0476 240.511C43.2976 242.839 48.8288 244.943 51.3549 244.047C52.3549 243.693 54.0111 242.688 55.0267 241.813C56.7403 240.339 56.8757 236.584 56.8757 191.38C56.8757 146.177 56.7403 142.417 55.0267 140.933C52.2663 138.547 49.0944 138.094 45.5528 139.584ZM103.193 140.021C87.8132 144.938 71.683 159.86 71.683 169.167C71.683 175.209 79.0684 179.344 83.4903 175.782C84.3965 175.058 86.5944 172.282 88.3757 169.62C91.933 164.318 96.1101 160.782 103.407 156.901C107.553 154.693 109.584 154.37 119.266 154.37C128.949 154.37 130.98 154.693 135.126 156.901C146.324 162.854 152.959 171.016 155.839 182.354C160.162 199.386 151.469 217.505 135.136 225.532C127.074 229.49 114.943 230.058 106.459 226.875C98.5424 223.901 92.0059 218.636 87.5267 211.62C82.3132 203.453 78.3861 201.813 73.4121 205.729C69.334 208.938 69.709 213.427 74.683 221.125C84.4538 236.24 100.615 244.813 119.225 244.755C129.12 244.724 134.912 243.422 143.058 239.412C159.469 231.328 170.594 215.084 172.777 196C174.23 183.323 168.589 166.276 159.475 155.766C153.73 149.141 143.844 142.698 135.438 140.104C126.469 137.334 111.714 137.292 103.193 140.021ZM270.813 139.021C266.147 140.948 264.844 147.141 268.365 150.667C270.391 152.693 271.891 152.782 303.714 152.782H336.949L339.199 149.917C340.772 147.922 341.251 146.25 340.792 144.37C339.35 138.474 339.652 138.526 305.079 138.287C287.506 138.167 272.084 138.495 270.813 139.021ZM353.287 139.021C349.662 140.521 347.376 144.776 348.193 148.505C349.412 154.058 351.881 154.896 366.949 154.896H380.459V197.558C380.459 244.125 380.219 242.271 386.485 244.183C389.204 245.011 394.693 242.495 395.662 239.974C396.022 239.032 396.318 219.505 396.318 196.578V154.896H410.068C422.402 154.896 424.032 154.677 425.928 152.782C428.85 149.86 428.792 143.214 425.818 140.521C423.74 138.636 421.37 138.49 389.6 138.287C370.902 138.167 354.563 138.5 353.287 139.021ZM181.376 140.354C179.068 142.11 177.318 147.011 178.167 149.334C178.542 150.36 184.37 158.808 191.126 168.115C197.876 177.422 204.464 186.547 205.766 188.396L208.131 191.761L193.266 212.183C185.089 223.412 178.115 233.714 177.772 235.084C176.995 238.172 180.303 242.891 183.865 243.776C188.568 244.948 191.548 242.802 198.292 233.37C202.73 227.183 207.188 221.005 211.673 214.849L218.454 205.537L231.891 223.985C239.282 234.125 246.449 242.938 247.818 243.563C250.912 244.974 256.308 243.323 257.813 240.511C260.318 235.834 258.964 233.068 244.459 213.255C236.548 202.443 229.85 193.026 229.579 192.323C229.308 191.62 235.787 181.875 243.969 170.677C255.657 154.677 258.85 149.594 258.85 146.969C258.85 142.677 255.094 139.037 250.667 139.037C246.662 139.037 244.516 141.407 229.772 162.13C223.954 170.308 218.938 177.021 218.626 177.052C218.313 177.078 212.647 169.61 206.037 160.448C199.428 151.287 193.053 142.724 191.881 141.412C189.49 138.75 184.199 138.219 181.376 140.354ZM286.579 185.094C283.506 187.245 283.381 193.172 286.344 196.136C288.266 198.058 289.87 198.25 303.839 198.25C318.761 198.25 319.298 198.177 321.818 195.657C323.245 194.229 324.412 192.068 324.412 190.849C324.412 189.636 323.245 187.469 321.818 186.042C319.303 183.532 318.745 183.448 304.074 183.448C292.079 183.448 288.443 183.792 286.579 185.094ZM268.365 231.032C265.704 233.698 265.662 237.474 268.277 240.698L270.292 243.193H303.662C339.834 243.193 339.339 243.271 340.792 237.334C341.251 235.453 340.772 233.782 339.199 231.782L336.949 228.917H303.714C271.891 228.917 270.391 229.011 268.365 231.032Z" fill="white"/>
<mask id="mask0_309_28" style="mask-type:luminance" maskUnits="userSpaceOnUse" x="122" y="284" width="228" height="79">
<path d="M122.829 284.375H349.366V362.885H122.829V284.375Z" fill="white"/>
</mask>
<g mask="url(#mask0_309_28)">
<path d="M122.829 284.375H349.465V362.885H122.829V284.375Z" fill="white"/>
</g>
<path d="M187.384 338.531V308.26H193.8V333.239H206.071V338.531H187.384Z" fill="#1B75BB"/>
<path d="M229.856 338.531L227.668 331.322H216.627L214.439 338.531H207.522L218.21 308.135H226.043L236.772 338.531H229.856ZM226.127 325.947L223.939 318.906C223.799 318.437 223.611 317.833 223.377 317.093C223.153 316.359 222.924 315.609 222.689 314.843C222.465 314.083 222.293 313.416 222.168 312.843C222.028 313.416 221.835 314.114 221.585 314.947C221.345 315.781 221.116 316.572 220.897 317.322C220.674 318.062 220.512 318.588 220.418 318.906L218.252 325.947H226.127Z" fill="#1B75BB"/>
<path d="M240.586 308.26H250.003C254.029 308.26 257.076 308.833 259.148 309.968C261.216 311.093 262.253 313.083 262.253 315.926C262.253 317.067 262.07 318.104 261.711 319.031C261.346 319.963 260.82 320.729 260.128 321.322C259.43 321.906 258.591 322.291 257.607 322.468V322.676C258.607 322.885 259.508 323.239 260.315 323.739C261.133 324.239 261.784 324.968 262.273 325.926C262.773 326.885 263.023 328.166 263.023 329.76C263.023 331.593 262.57 333.171 261.669 334.489C260.779 335.796 259.503 336.796 257.836 337.489C256.169 338.187 254.19 338.531 251.898 338.531H240.586V308.26ZM247.003 320.26H250.732C252.591 320.26 253.878 319.968 254.586 319.385C255.305 318.791 255.669 317.921 255.669 316.781C255.669 315.614 255.242 314.781 254.398 314.281C253.549 313.781 252.211 313.531 250.378 313.531H247.003V320.26ZM247.003 325.343V333.239H251.19C253.117 333.239 254.461 332.864 255.211 332.114C255.971 331.364 256.357 330.364 256.357 329.114C256.357 328.364 256.19 327.713 255.857 327.156C255.523 326.588 254.966 326.145 254.19 325.822C253.409 325.505 252.341 325.343 250.982 325.343H247.003Z" fill="#1B75BB"/>
<path d="M286.925 330.135C286.925 331.926 286.488 333.489 285.613 334.822C284.748 336.145 283.488 337.166 281.821 337.885C280.165 338.593 278.155 338.947 275.78 338.947C274.722 338.947 273.696 338.874 272.696 338.739C271.696 338.598 270.738 338.4 269.821 338.135C268.905 337.859 268.03 337.52 267.196 337.114V331.156C268.639 331.796 270.134 332.374 271.675 332.885C273.217 333.385 274.748 333.635 276.28 333.635C277.321 333.635 278.16 333.505 278.8 333.239C279.451 332.963 279.915 332.583 280.196 332.093C280.488 331.609 280.634 331.051 280.634 330.426C280.634 329.676 280.373 329.031 279.863 328.489C279.363 327.947 278.665 327.447 277.78 326.989C276.889 326.52 275.884 326.01 274.759 325.468C274.05 325.135 273.28 324.734 272.446 324.26C271.623 323.791 270.842 323.208 270.092 322.51C269.353 321.817 268.743 320.979 268.259 319.989C267.785 319.005 267.55 317.822 267.55 316.447C267.55 314.645 267.967 313.104 268.8 311.822C269.634 310.531 270.811 309.546 272.342 308.864C273.884 308.171 275.701 307.822 277.8 307.822C279.368 307.822 280.868 308.01 282.3 308.385C283.728 308.749 285.222 309.275 286.78 309.968L284.717 314.947C283.326 314.38 282.076 313.942 280.967 313.635C279.868 313.333 278.743 313.176 277.592 313.176C276.8 313.176 276.118 313.312 275.55 313.572C274.978 313.822 274.55 314.176 274.259 314.635C273.967 315.093 273.821 315.63 273.821 316.239C273.821 316.963 274.03 317.567 274.446 318.051C274.873 318.541 275.514 319.01 276.363 319.468C277.207 319.926 278.269 320.458 279.55 321.051C281.092 321.791 282.41 322.551 283.509 323.343C284.603 324.135 285.446 325.067 286.03 326.135C286.623 327.208 286.925 328.541 286.925 330.135Z" fill="#1B75BB"/>
<path d="M455.803 214.146V318.157" stroke="white" stroke-width="7.97842"/>
<path d="M459.792 321.729L345.964 321.729" stroke="white" stroke-width="8"/>
<path d="M459.782 210.344L436.157 210.344" stroke="white" stroke-width="8"/>
</svg>
