<?xml version="1.0" encoding="utf-8"?>
<!-- Generator: Adobe Illustrator 27.1.0, SVG Export Plug-In . SVG Version: 6.00 Build 0)  -->
<svg version="1.1" id="Layer_1" xmlns="http://www.w3.org/2000/svg" xmlns:xlink="http://www.w3.org/1999/xlink" x="0px" y="0px"
	 viewBox="0 0 500 500" style="enable-background:new 0 0 500 500;" xml:space="preserve">
<style type="text/css">
	.st0{fill-rule:evenodd;clip-rule:evenodd;fill:#FFFFFF;}
	.st1{fill:#FFFFFF;}
	.st2{fill:none;stroke:#FFFFFF;stroke-width:8;stroke-miterlimit:10;}
</style>
<path class="st0" d="M59.5,132.7c-1.7,0.7-3.5,2.1-3.8,3.1c-1.1,3-0.8,95.7,0.3,97.8c1.2,2.3,6.8,4.4,9.3,3.5c1-0.4,2.7-1.4,3.7-2.2
	c1.7-1.5,1.8-5.2,1.8-50.4s-0.1-49-1.8-50.4C66.2,131.7,63.1,131.2,59.5,132.7 M117.2,133.2c-15.4,4.9-31.5,19.8-31.5,29.1
	c0,6,7.4,10.2,11.8,6.6c0.9-0.7,3.1-3.5,4.9-6.2c3.6-5.3,7.7-8.8,15-12.7c4.1-2.2,6.2-2.5,15.9-2.5s11.7,0.3,15.9,2.5
	c11.2,6,17.8,14.1,20.7,25.5c4.3,17-4.4,35.2-20.7,43.2c-8.1,4-20.2,4.5-28.7,1.3c-7.9-3-14.5-8.2-18.9-15.3
	c-5.2-8.2-9.1-9.8-14.1-5.9c-4.1,3.2-3.7,7.7,1.3,15.4c9.8,15.1,25.9,23.7,44.5,23.6c9.9,0,15.7-1.3,23.8-5.3
	c16.4-8.1,27.5-24.3,29.7-43.4c1.5-12.7-4.2-29.7-13.3-40.2c-5.7-6.6-15.6-13.1-24-15.7C140.4,130.5,125.7,130.4,117.2,133.2
	 M284.8,132.2c-4.7,1.9-6,8.1-2.4,11.6c2,2,3.5,2.1,35.3,2.1h33.2l2.2-2.9c1.6-2,2.1-3.7,1.6-5.5c-1.4-5.9-1.1-5.8-35.7-6.1
	C301.5,131.3,286.1,131.6,284.8,132.2 M367.3,132.2c-3.6,1.5-5.9,5.8-5.1,9.5c1.2,5.6,3.7,6.4,18.8,6.4h13.5v42.7
	c0,46.6-0.2,44.7,6,46.6c2.7,0.8,8.2-1.7,9.2-4.2c0.4-0.9,0.7-20.5,0.7-43.4V148H424c12.3,0,14-0.2,15.9-2.1
	c2.9-2.9,2.9-9.6-0.1-12.3c-2.1-1.9-4.4-2-36.2-2.2C384.9,131.3,368.5,131.6,367.3,132.2 M195.4,133.5c-2.3,1.8-4.1,6.7-3.2,9
	c0.4,1,6.2,9.5,13,18.8s13.3,18.4,14.6,20.3l2.4,3.4l-14.9,20.4c-8.2,11.2-15.2,21.5-15.5,22.9c-0.8,3.1,2.5,7.8,6.1,8.7
	c4.7,1.2,7.7-1,14.4-10.4c4.4-6.2,8.9-12.4,13.4-18.5l6.8-9.3l13.4,18.4c7.4,10.1,14.6,19,15.9,19.6c3.1,1.4,8.5-0.2,10-3.1
	c2.5-4.7,1.2-7.4-13.4-27.3c-7.9-10.8-14.6-20.2-14.9-20.9s6.2-10.4,14.4-21.6c11.7-16,14.9-21.1,14.9-23.7c0-4.3-3.8-7.9-8.2-7.9
	c-4,0-6.2,2.4-20.9,23.1c-5.8,8.2-10.8,14.9-11.1,14.9s-6-7.4-12.6-16.6c-6.6-9.2-13-17.7-14.2-19
	C203.5,131.9,198.2,131.4,195.4,133.5 M300.6,178.2c-3.1,2.2-3.2,8.1-0.2,11c1.9,1.9,3.5,2.1,17.5,2.1c14.9,0,15.5-0.1,18-2.6
	c1.4-1.4,2.6-3.6,2.6-4.8s-1.2-3.4-2.6-4.8c-2.5-2.5-3.1-2.6-17.7-2.6C306.1,176.6,302.4,176.9,300.6,178.2 M282.3,224.2
	c-2.7,2.7-2.7,6.4-0.1,9.7l2,2.5h33.4c36.2,0,35.7,0.1,37.1-5.9c0.5-1.9,0-3.6-1.6-5.6l-2.2-2.9h-33.2
	C285.9,222.1,284.4,222.2,282.3,224.2"/>
<path class="st1" d="M363.3,356H136.8v-78.5h226.5V356z M220.1,332.7v-5.3h-12.3v-25h-6.4v30.3C201.4,332.7,220.1,332.7,220.1,332.7
	z M250.7,332.7L240,302.3h-7.8l-10.7,30.4h6.9l2.2-7.2h11l2.2,7.2L250.7,332.7L250.7,332.7z M240.1,320.2h-8l2.2-7
	c0.1-0.3,0.3-0.9,0.5-1.6c0.2-0.8,0.5-1.6,0.7-2.4c0.3-0.8,0.5-1.5,0.6-2.1c0.1,0.6,0.3,1.2,0.5,2c0.2,0.7,0.5,1.5,0.7,2.2
	c0.3,0.7,0.5,1.3,0.6,1.8L240.1,320.2L240.1,320.2z M254.6,332.6H266c2.3,0,4.2-0.3,5.9-1c1.6-0.7,2.9-1.7,3.8-3s1.4-2.9,1.4-4.7
	c0-1.6-0.3-2.8-0.8-3.8s-1.2-1.7-2-2.2s-1.7-0.9-2.7-1.1v-0.2c1-0.1,1.8-0.5,2.5-1.1s1.2-1.4,1.6-2.3c0.3-0.9,0.5-2,0.5-3.1
	c0-2.9-1-4.9-3.1-6c-2-1.1-5.1-1.7-9.1-1.7h-9.4L254.6,332.6L254.6,332.6z M261,307.6h3.4c1.8,0,3.2,0.3,4,0.8
	c0.9,0.5,1.3,1.3,1.3,2.5c0,1.1-0.4,2-1.1,2.6c-0.8,0.6-2,0.9-3.9,0.9H261V307.6z M264.9,319.5c1.4,0,2.4,0.2,3.2,0.5
	c0.8,0.3,1.4,0.7,1.7,1.3c0.3,0.6,0.5,1.2,0.5,2c0,1.2-0.3,2.2-1.1,3c-0.7,0.7-2.1,1.1-4,1.1H261v-7.9H264.9z M299.9,320.6
	c-0.6-1.1-1.4-2-2.5-2.8s-2.5-1.6-4-2.3c-1.3-0.6-2.4-1.1-3.2-1.6c-0.8-0.4-1.5-0.9-1.9-1.4s-0.6-1.1-0.6-1.8c0-0.6,0.1-1.1,0.4-1.6
	s0.7-0.9,1.3-1.1c0.5-0.3,1.2-0.4,2-0.4c1.2,0,2.3,0.2,3.4,0.5c1.2,0.3,2.4,0.7,3.8,1.3l2.1-5c-1.6-0.7-3.1-1.2-4.5-1.6
	s-2.9-0.6-4.5-0.6c-2.1,0-4,0.3-5.5,1s-2.7,1.7-3.5,3s-1.2,2.8-1.2,4.6c0,1.3,0.2,2.5,0.7,3.5s1.1,1.8,1.8,2.5
	c0.8,0.7,1.6,1.3,2.4,1.8s1.6,0.9,2.3,1.2c1.1,0.5,2.1,1,3,1.5s1.6,1,2.1,1.5s0.8,1.1,0.8,1.9c0,0.7-0.1,1.2-0.4,1.7
	c-0.3,0.4-0.7,0.8-1.4,1.1c-0.6,0.3-1.5,0.4-2.5,0.4c-1.5,0-3.1-0.3-4.6-0.8c-1.6-0.5-3.1-1.1-4.5-1.7v6c0.8,0.4,1.7,0.7,2.6,1
	s1.9,0.5,2.9,0.6s2,0.2,3.1,0.2c2.3,0,4.3-0.4,6-1.1c1.7-0.8,2.9-1.8,3.8-3.1c0.9-1.3,1.3-2.9,1.3-4.7
	C300.9,322.7,300.6,321.3,299.9,320.6z"/>
<polyline class="st2" points="450.7,203.5 469.8,203.5 469.8,314.9 363.2,314.9 "/>
</svg>
