<svg xmlns="http://www.w3.org/2000/svg" xmlns:xlink="http://www.w3.org/1999/xlink" width="500" zoomAndPan="magnify" viewBox="0 0 375 112.499997" height="150" preserveAspectRatio="xMidYMid meet" version="1.2"><defs><clipPath id="18152dd339"><path d="M 0.828125 0 L 374.167969 0 L 374.167969 112.003906 L 0.828125 112.003906 Z M 0.828125 0 "/></clipPath><clipPath id="ae7328c4c6"><path d="M 242.675781 35.15625 L 362.96875 35.15625 L 362.96875 76.847656 L 242.675781 76.847656 Z M 242.675781 35.15625 "/></clipPath></defs><g id="fc5b4e0d95"><g clip-rule="nonzero" clip-path="url(#18152dd339)"><path style=" stroke:none;fill-rule:nonzero;fill:#ffffff;fill-opacity:1;" d="M 0.828125 0 L 374.171875 0 L 374.171875 112.003906 L 0.828125 112.003906 Z M 0.828125 0 "/><path style=" stroke:none;fill-rule:nonzero;fill:#ffffff;fill-opacity:1;" d="M 0.828125 0 L 374.171875 0 L 374.171875 112.003906 L 0.828125 112.003906 Z M 0.828125 0 "/></g><path style=" stroke:none;fill-rule:evenodd;fill:#494c51;fill-opacity:1;" d="M 17.089844 28.59375 C 16.167969 28.984375 15.246094 29.726562 15.046875 30.25 C 14.445312 31.820312 14.621094 80.996094 15.230469 82.140625 C 15.894531 83.375 18.828125 84.492188 20.167969 84.015625 C 20.699219 83.828125 21.578125 83.296875 22.117188 82.832031 C 23.027344 82.050781 23.097656 80.058594 23.097656 56.074219 C 23.097656 32.09375 23.027344 30.097656 22.117188 29.3125 C 20.652344 28.042969 18.96875 27.804688 17.089844 28.59375 M 47.671875 28.824219 C 39.511719 31.433594 30.953125 39.351562 30.953125 44.292969 C 30.953125 47.496094 34.871094 49.691406 37.21875 47.800781 C 37.699219 47.414062 38.863281 45.941406 39.8125 44.53125 C 41.695312 41.71875 43.914062 39.839844 47.785156 37.78125 C 49.984375 36.609375 51.0625 36.4375 56.199219 36.4375 C 61.335938 36.4375 62.414062 36.609375 64.613281 37.78125 C 70.554688 40.941406 74.074219 45.269531 75.601562 51.285156 C 77.894531 60.320312 73.285156 69.9375 64.617188 74.191406 C 60.339844 76.292969 53.90625 76.597656 49.402344 74.90625 C 45.203125 73.328125 41.738281 70.535156 39.359375 66.8125 C 36.59375 62.480469 34.511719 61.613281 31.871094 63.691406 C 29.707031 65.390625 29.90625 67.773438 32.546875 71.855469 C 37.730469 79.875 46.304688 84.425781 56.175781 84.394531 C 61.425781 84.375 64.5 83.6875 68.824219 81.558594 C 77.53125 77.269531 83.429688 68.652344 84.589844 58.527344 C 85.359375 51.800781 82.367188 42.757812 77.53125 37.179688 C 74.484375 33.664062 69.238281 30.246094 64.78125 28.871094 C 60.019531 27.398438 52.195312 27.378906 47.671875 28.824219 M 136.605469 28.296875 C 134.125 29.320312 133.433594 32.605469 135.304688 34.476562 C 136.378906 35.550781 137.175781 35.597656 154.058594 35.597656 L 171.691406 35.597656 L 172.886719 34.078125 C 173.71875 33.015625 173.972656 32.128906 173.730469 31.132812 C 172.964844 28.003906 173.125 28.03125 154.78125 27.90625 C 145.457031 27.84375 137.277344 28.015625 136.605469 28.296875 M 180.359375 28.296875 C 178.433594 29.089844 177.222656 31.347656 177.65625 33.328125 C 178.304688 36.273438 179.613281 36.71875 187.605469 36.71875 L 194.773438 36.71875 L 194.773438 59.355469 C 194.773438 84.058594 194.648438 83.078125 197.972656 84.089844 C 199.414062 84.527344 202.328125 83.191406 202.839844 81.855469 C 203.03125 81.359375 203.191406 70.996094 203.191406 58.832031 L 203.191406 36.71875 L 210.484375 36.71875 C 217.027344 36.71875 217.890625 36.605469 218.898438 35.597656 C 220.449219 34.046875 220.417969 30.519531 218.839844 29.089844 C 217.738281 28.09375 216.480469 28.015625 199.625 27.90625 C 189.707031 27.84375 181.035156 28.019531 180.359375 28.296875 M 89.152344 29.003906 C 87.929688 29.933594 86.996094 32.535156 87.449219 33.769531 C 87.648438 34.3125 90.742188 38.792969 94.324219 43.730469 C 97.90625 48.667969 101.402344 53.511719 102.09375 54.492188 L 103.347656 56.277344 L 95.460938 67.109375 C 91.121094 73.070312 87.421875 78.535156 87.238281 79.261719 C 86.828125 80.902344 88.582031 83.402344 90.472656 83.875 C 92.964844 84.496094 94.546875 83.355469 98.128906 78.355469 C 100.480469 75.070312 102.847656 71.792969 105.222656 68.527344 L 108.824219 63.585938 L 115.953125 73.371094 C 119.875 78.753906 123.675781 83.429688 124.402344 83.761719 C 126.042969 84.507812 128.90625 83.632812 129.707031 82.140625 C 131.035156 79.660156 130.316406 78.191406 122.621094 67.679688 C 118.421875 61.945312 114.871094 56.949219 114.726562 56.574219 C 114.582031 56.203125 118.019531 51.035156 122.359375 45.089844 C 128.5625 36.601562 130.253906 33.90625 130.253906 32.511719 C 130.253906 30.234375 128.261719 28.304688 125.914062 28.304688 C 123.789062 28.304688 122.648438 29.5625 114.828125 40.558594 C 111.742188 44.894531 109.082031 48.457031 108.914062 48.472656 C 108.75 48.488281 105.742188 44.523438 102.234375 39.664062 C 98.726562 34.804688 95.347656 30.261719 94.726562 29.566406 C 93.457031 28.152344 90.648438 27.871094 89.152344 29.003906 M 144.96875 52.742188 C 143.335938 53.882812 143.269531 57.027344 144.84375 58.597656 C 145.863281 59.617188 146.710938 59.722656 154.125 59.722656 C 162.039062 59.722656 162.328125 59.679688 163.664062 58.34375 C 164.417969 57.585938 165.039062 56.4375 165.039062 55.792969 C 165.039062 55.148438 164.417969 54 163.664062 53.246094 C 162.328125 51.910156 162.035156 51.867188 154.25 51.867188 C 147.886719 51.867188 145.953125 52.046875 144.96875 52.742188 M 135.304688 77.113281 C 133.890625 78.527344 133.871094 80.53125 135.253906 82.242188 L 136.328125 83.566406 L 154.03125 83.566406 C 173.21875 83.566406 172.960938 83.605469 173.730469 80.457031 C 173.972656 79.457031 173.71875 78.570312 172.886719 77.511719 L 171.691406 75.992188 L 154.058594 75.992188 C 137.175781 75.992188 136.378906 76.039062 135.304688 77.113281 "/><g clip-rule="nonzero" clip-path="url(#ae7328c4c6)"><path style=" stroke:none;fill-rule:nonzero;fill:#1b75bb;fill-opacity:1;" d="M 242.675781 35.15625 L 363.023438 35.15625 L 363.023438 76.847656 L 242.675781 76.847656 Z M 242.675781 35.15625 "/></g><g style="fill:#ffffff;fill-opacity:1;"><g transform="translate(274.930654, 64.444325)"><path style="stroke:none" d="M 2.015625 0 L 2.015625 -16.078125 L 5.4375 -16.078125 L 5.4375 -2.8125 L 11.953125 -2.8125 L 11.953125 0 Z M 2.015625 0 "/></g></g><g style="fill:#ffffff;fill-opacity:1;"><g transform="translate(287.649219, 64.444325)"><path style="stroke:none" d="M 11.859375 0 L 10.703125 -3.828125 L 4.84375 -3.828125 L 3.671875 0 L 0 0 L 5.671875 -16.140625 L 9.84375 -16.140625 L 15.53125 0 Z M 9.890625 -6.6875 L 8.71875 -10.421875 C 8.644531 -10.671875 8.546875 -10.988281 8.421875 -11.375 C 8.304688 -11.769531 8.1875 -12.171875 8.0625 -12.578125 C 7.9375 -12.984375 7.835938 -13.335938 7.765625 -13.640625 C 7.691406 -13.335938 7.59375 -12.960938 7.46875 -12.515625 C 7.34375 -12.078125 7.21875 -11.660156 7.09375 -11.265625 C 6.976562 -10.867188 6.894531 -10.585938 6.84375 -10.421875 L 5.6875 -6.6875 Z M 9.890625 -6.6875 "/></g></g><g style="fill:#ffffff;fill-opacity:1;"><g transform="translate(303.181916, 64.444325)"><path style="stroke:none" d="M 2.015625 -16.078125 L 7.03125 -16.078125 C 9.164062 -16.078125 10.78125 -15.773438 11.875 -15.171875 C 12.976562 -14.566406 13.53125 -13.507812 13.53125 -12 C 13.53125 -11.394531 13.429688 -10.847656 13.234375 -10.359375 C 13.046875 -9.867188 12.765625 -9.460938 12.390625 -9.140625 C 12.023438 -8.828125 11.582031 -8.625 11.0625 -8.53125 L 11.0625 -8.421875 C 11.59375 -8.304688 12.070312 -8.113281 12.5 -7.84375 C 12.9375 -7.582031 13.285156 -7.195312 13.546875 -6.6875 C 13.804688 -6.175781 13.9375 -5.5 13.9375 -4.65625 C 13.9375 -3.6875 13.695312 -2.851562 13.21875 -2.15625 C 12.75 -1.457031 12.070312 -0.921875 11.1875 -0.546875 C 10.300781 -0.179688 9.25 0 8.03125 0 L 2.015625 0 Z M 5.4375 -9.703125 L 7.40625 -9.703125 C 8.394531 -9.703125 9.078125 -9.859375 9.453125 -10.171875 C 9.835938 -10.484375 10.03125 -10.941406 10.03125 -11.546875 C 10.03125 -12.171875 9.804688 -12.613281 9.359375 -12.875 C 8.910156 -13.144531 8.195312 -13.28125 7.21875 -13.28125 L 5.4375 -13.28125 Z M 5.4375 -7 L 5.4375 -2.8125 L 7.65625 -2.8125 C 8.675781 -2.8125 9.390625 -3.007812 9.796875 -3.40625 C 10.203125 -3.800781 10.40625 -4.332031 10.40625 -5 C 10.40625 -5.394531 10.316406 -5.742188 10.140625 -6.046875 C 9.960938 -6.347656 9.664062 -6.582031 9.25 -6.75 C 8.832031 -6.914062 8.265625 -7 7.546875 -7 Z M 5.4375 -7 "/></g></g><g style="fill:#ffffff;fill-opacity:1;"><g transform="translate(318.307879, 64.444325)"><path style="stroke:none" d="M 11.515625 -4.46875 C 11.515625 -3.507812 11.28125 -2.675781 10.8125 -1.96875 C 10.351562 -1.269531 9.679688 -0.726562 8.796875 -0.34375 C 7.910156 0.03125 6.835938 0.21875 5.578125 0.21875 C 5.023438 0.21875 4.484375 0.179688 3.953125 0.109375 C 3.421875 0.0351562 2.910156 -0.0664062 2.421875 -0.203125 C 1.929688 -0.347656 1.46875 -0.53125 1.03125 -0.75 L 1.03125 -3.90625 C 1.789062 -3.570312 2.582031 -3.269531 3.40625 -3 C 4.226562 -2.726562 5.039062 -2.59375 5.84375 -2.59375 C 6.40625 -2.59375 6.851562 -2.664062 7.1875 -2.8125 C 7.53125 -2.957031 7.78125 -3.15625 7.9375 -3.40625 C 8.09375 -3.664062 8.171875 -3.960938 8.171875 -4.296875 C 8.171875 -4.703125 8.035156 -5.046875 7.765625 -5.328125 C 7.492188 -5.617188 7.117188 -5.890625 6.640625 -6.140625 C 6.171875 -6.390625 5.640625 -6.65625 5.046875 -6.9375 C 4.671875 -7.113281 4.265625 -7.328125 3.828125 -7.578125 C 3.390625 -7.828125 2.972656 -8.132812 2.578125 -8.5 C 2.179688 -8.875 1.851562 -9.320312 1.59375 -9.84375 C 1.34375 -10.363281 1.21875 -10.992188 1.21875 -11.734375 C 1.21875 -12.691406 1.4375 -13.507812 1.875 -14.1875 C 2.320312 -14.875 2.953125 -15.394531 3.765625 -15.75 C 4.578125 -16.113281 5.539062 -16.296875 6.65625 -16.296875 C 7.5 -16.296875 8.296875 -16.195312 9.046875 -16 C 9.804688 -15.8125 10.601562 -15.535156 11.4375 -15.171875 L 10.328125 -12.515625 C 9.585938 -12.816406 8.925781 -13.050781 8.34375 -13.21875 C 7.757812 -13.382812 7.160156 -13.46875 6.546875 -13.46875 C 6.128906 -13.46875 5.769531 -13.398438 5.46875 -13.265625 C 5.164062 -13.128906 4.9375 -12.9375 4.78125 -12.6875 C 4.625 -12.445312 4.546875 -12.164062 4.546875 -11.84375 C 4.546875 -11.457031 4.65625 -11.132812 4.875 -10.875 C 5.101562 -10.613281 5.441406 -10.363281 5.890625 -10.125 C 6.347656 -9.882812 6.910156 -9.601562 7.578125 -9.28125 C 8.398438 -8.894531 9.101562 -8.488281 9.6875 -8.0625 C 10.269531 -7.644531 10.71875 -7.148438 11.03125 -6.578125 C 11.351562 -6.015625 11.515625 -5.3125 11.515625 -4.46875 Z M 11.515625 -4.46875 "/></g></g></g></svg>