<?xml version="1.0" encoding="utf-8"?>
<!-- Generator: Adobe Illustrator 27.1.0, SVG Export Plug-In . SVG Version: 6.00 Build 0)  -->
<svg version="1.1" id="Layer_1" xmlns="http://www.w3.org/2000/svg" xmlns:xlink="http://www.w3.org/1999/xlink" x="0px" y="0px"
	 viewBox="0 0 662 263" style="enable-background:new 0 0 662 263;" xml:space="preserve">
<style type="text/css">
	.st0{clip-path:url(#SVGID_00000157986908296825888390000011100685470626820506_);}
	.st1{clip-path:url(#SVGID_00000106146035364486748290000015702993606864436146_);}
	.st2{clip-path:url(#SVGID_00000072267537157341141190000001657408808421860006_);}
	.st3{fill:#FFFFFF;}
	.st4{fill:#FFFFF0;}
	.st5{clip-path:url(#SVGID_00000181770208363101251300000001972133715992313275_);}
	.st6{clip-path:url(#SVGID_00000127746079594521824960000007962939274093815696_);}
</style>
<g transform="matrix(1, 0, 0, 1, 100, 288)">
	<g>
		<defs>
			<rect id="SVGID_1_" x="-67" y="-253" width="596" height="196"/>
		</defs>
		<clipPath id="SVGID_00000102528206943413858250000016168483130560888753_">
			<use xlink:href="#SVGID_1_"  style="overflow:visible;"/>
		</clipPath>
		<g style="clip-path:url(#SVGID_00000102528206943413858250000016168483130560888753_);">
			<g>
				<defs>
					<rect id="SVGID_00000014593624200186513040000017962455779949487520_" x="-67" y="-252.4" width="595" height="194.1"/>
				</defs>
				<clipPath id="SVGID_00000120551321217644349280000015777733422114211996_">
					<use xlink:href="#SVGID_00000014593624200186513040000017962455779949487520_"  style="overflow:visible;"/>
				</clipPath>
				<g style="clip-path:url(#SVGID_00000120551321217644349280000015777733422114211996_);">
					<g transform="matrix(1, 0, 0, 1, -0.000000000000014211, 0)">
						<g>
							<defs>
								<rect id="SVGID_00000101799294904585535280000001755315068702179005_" x="-67" y="-253" width="596" height="196"/>
							</defs>
							<clipPath id="SVGID_00000083082642656025642110000017962806640820135357_">
								<use xlink:href="#SVGID_00000101799294904585535280000001755315068702179005_"  style="overflow:visible;"/>
							</clipPath>
							<g style="clip-path:url(#SVGID_00000083082642656025642110000017962806640820135357_);">
								<g>
									<g transform="translate(0.0287199, 116.030819)">
										<g>
											<path class="st3" d="M-32.4-242.6h49.1c2.4,0,4.3,0.1,5.5,0.2c1.2,0.2,2.6,0.7,4.2,1.5c2.9,1.5,4.3,5.6,4.3,12.4
												c0,7.4-2,11.8-5.9,13.1c-1.8,0.6-4.6,1-8.3,1h-63.2c-7.4,0-11.8-2-13.1-6.1c-0.6-1.7-1-4.4-1-8.1v-88.7
												c0-5.4,1-9.1,3-11.1c2-2,5.9-3,11.5-3h62.9c2.4,0,4.3,0.1,5.5,0.2c1.2,0.2,2.6,0.7,4.2,1.5c2.9,1.5,4.3,5.6,4.3,12.5
												c0,7.4-2,11.8-5.9,13.1c-1.8,0.6-4.6,1-8.3,1h-49v16.1h31.6c2.5,0,4.3,0.1,5.5,0.2c1.2,0.2,2.6,0.7,4.2,1.5
												c2.9,1.5,4.3,5.7,4.3,12.5c0,7.4-2,11.8-6.1,13.1c-1.8,0.6-4.6,1-8.3,1h-31.3V-242.6z"/>
										</g>
									</g>
								</g>
								<g>
									<g transform="translate(76.380094, 116.030819)">
										<g>
											<path class="st3" d="M19.4-289.5c0.6-6,4.8-8.9,12.6-8.9c4.1,0,7.2,0.3,9.2,1c2,0.6,3.4,1.8,4.2,3.4
												c0.8,1.6,1.3,3,1.4,4.2c0.2,1.2,0.2,3.1,0.2,5.5v55.8c0,2.5-0.1,4.3-0.2,5.5c-0.2,1.2-0.6,2.6-1.3,4.2
												c-1.5,2.8-5.1,4.1-10.9,4.1c-5.8,0-9.7-0.7-11.6-2.1c-2-1.4-3.1-3.5-3.4-6.3c-3.9,5.6-10.5,8.5-19.7,8.5
												c-9.2,0-17.7-4.2-25.6-12.6c-7.9-8.4-11.8-18.2-11.8-29.3c0-11.1,4-20.9,11.9-29.2c7.9-8.4,16.6-12.5,26.1-12.5
												c3.6,0,6.9,0.6,9.9,1.9c3,1.3,5.1,2.5,6.2,3.6C17.7-291.6,18.7-290.5,19.4-289.5z M-9.6-256.3c0,3.5,1.4,6.7,4.1,9.5
												c2.8,2.8,6.1,4.2,10,4.2c3.9,0,7.2-1.4,9.8-4.3c2.6-2.9,3.9-6,3.9-9.5c0-3.5-1.2-6.7-3.8-9.6c-2.5-3-5.9-4.5-10.1-4.5
												c-4.2,0-7.6,1.5-10.2,4.5C-8.3-263-9.6-259.8-9.6-256.3z"/>
										</g>
									</g>
								</g>
								<g>
									<g transform="translate(147.705191, 116.030819)">
										<g>
											<path class="st3" d="M-10.7-221.8c-2-1.3-3-3.3-3-6.1c0-2.8,2-7,6.1-12.6c1.2-1.8,3-2.7,5.6-2.7c2.6,0,6.1,1.3,10.6,3.9
												c4.5,2.6,8.5,3.9,12.1,3.9c6.5,0,9.7-1.3,9.7-3.8c0-2-3.6-3.5-10.7-4.5c-6.7-1-13.4-3.5-20-7.5c-3.1-1.9-5.6-4.9-7.7-9
												c-2-4.1-3-9-3-14.6c0-16.8,11.5-25.2,34.6-25.2c7.6,0,15.3,1.8,23.3,5.4c3.7,1.7,5.6,3.8,5.6,6.4c0,2.6-1.2,5.7-3.5,9.4
												c-2.3,3.7-4.7,5.6-7.2,5.6c-1.3,0-3.6-0.8-7.1-2.4c-3.5-1.6-7.2-2.4-11.2-2.4c-6.3,0-9.4,1.2-9.4,3.5
												c0,3.2,3.6,5.2,10.9,6.2c7,0.8,13.8,2.8,20.4,6.1c3.1,1.5,5.7,4.1,7.7,7.8c2.1,3.7,3.1,8.3,3.1,13.8
												c0,5.5-1,10.2-3.1,14.1c-2.1,3.9-5,6.8-8.7,8.7c-6.8,3.3-15.3,4.9-25.6,4.9C8.6-212.9-1.3-215.9-10.7-221.8z"/>
										</g>
									</g>
								</g>
								<g>
									<g transform="translate(206.225299, 116.030819)">
										<g>
											<path class="st3" d="M89.2-266.4c0,6.5-1.6,11.4-4.9,14.5c-3.2,3.1-6.8,4.7-10.8,4.7H35.7c0,3,1.8,5.5,5.3,7.5
												c3.5,2,7,3,10.5,3c6.2,0,11-0.6,14.5-1.9l1.8-0.6c2.6-1.2,4.7-1.8,6.4-1.8c3.4,0,6.3,2.4,8.8,7.2
												c1.4,2.9,2.1,5.3,2.1,7.3c0,9.5-11.3,14.2-34,14.2c-7.9,0-14.9-1.4-21-4.1c-6.1-2.7-10.9-6.3-14.3-10.8
												C9.1-235.7,5.7-245.3,5.7-256c0-13.4,4.3-24.1,13-32.1c8.7-8,19.5-12.1,32.5-12.1c14.8,0,25.6,5.2,32.6,15.6
												C87.4-279,89.2-273,89.2-266.4z M55.5-261.7c4,0,6.1-1.7,6.1-5.1c0-2.4-0.9-4.4-2.8-5.9c-1.9-1.5-4.5-2.2-8-2.2
												c-3.5,0-6.9,1.4-10.3,4.2c-3.4,2.8-5.1,5.8-5.1,9H55.5z"/>
										</g>
									</g>
								</g>
								<g>
									<g transform="translate(281.528855, 116.030819)">
										<g>
											<path class="st4" d="M109.7-327c1.1-1.7,2.6-2.9,4.6-3.5c2-0.6,4.6-1,7.6-1c3,0,5.4,0.3,7.3,0.8c1.8,0.5,3.2,1.2,4.1,1.9
												c1,0.7,1.7,1.8,2.1,3.3c0.6,1.8,1,4.6,1,8.3v48.2c0,14-4.4,26.8-13.1,38.3c-4.2,5.4-9.7,9.8-16.4,13.2
												c-6.7,3.3-14.1,5-22.3,5c-8.1,0-15.5-1.7-22.2-5.1c-6.7-3.4-12.1-7.9-16.2-13.4c-8.6-11.3-12.9-24-12.9-38.3v-48
												c0-2.6,0.1-4.4,0.2-5.7c0.2-1.2,0.7-2.6,1.5-4.2c0.9-1.6,2.3-2.7,4.3-3.4c2-0.6,4.7-1,8.1-1c3.4,0,6.1,0.3,8.1,1
												c2,0.6,3.4,1.8,4.2,3.4c1.3,2.4,1.9,5.8,1.9,10.1v47.9c0,6.5,1.6,12.7,4.8,18.5c1.6,3,4,5.4,7.2,7.2
												c3.2,1.8,7,2.7,11.3,2.7c7.8,0,13.6-2.9,17.4-8.6c3.8-5.8,5.8-12.4,5.8-19.9v-48.8C108.1-322.3,108.6-325.3,109.7-327z"
												/>
										</g>
									</g>
								</g>
								<g>
									<g transform="translate(368.411441, 116.030819)">
										<g>
											<path class="st4" d="M148.5-307.7c2.8,5.6,4.1,11.9,4.1,18.8c0,6.9-1.4,13.2-4.1,18.8c-2.8,5.6-6.3,10-10.7,13.3
												c-8.8,6.8-18,10.2-27.5,10.2H90.4v18c0,2.5-0.1,4.3-0.2,5.5c-0.2,1.2-0.7,2.6-1.5,4.2c-1.5,2.9-5.6,4.3-12.5,4.3
												c-7.4,0-11.8-2-13.1-5.9c-0.6-1.8-1-4.6-1-8.3v-88.6c0-2.4,0.1-4.3,0.2-5.5c0.2-1.2,0.7-2.6,1.5-4.2
												c1.5-2.9,5.6-4.3,12.4-4.3h34.1c9.4,0,18.5,3.4,27.3,10.2C142.2-317.8,145.7-313.3,148.5-307.7z M110.5-274.8
												c3.2,0,6.3-1.2,9.4-3.5c3.1-2.3,4.6-5.9,4.6-10.5c0-4.7-1.5-8.2-4.6-10.6c-3.1-2.4-6.3-3.6-9.6-3.6H90.4v28.2H110.5z"/>
										</g>
									</g>
								</g>
								<g>
									<defs>
										<rect id="SVGID_00000010289736919370093030000003353527557657621389_" x="367.7" y="-241" width="62.3" height="53.2"/>
									</defs>
									<clipPath id="SVGID_00000136371517284478515820000008019103832481697152_">
										<use xlink:href="#SVGID_00000010289736919370093030000003353527557657621389_"  style="overflow:visible;"/>
									</clipPath>
									<g style="clip-path:url(#SVGID_00000136371517284478515820000008019103832481697152_);">
										<path class="st4" d="M368.6-187.8l31-52.7l30.2,52.7l-30.6-12L368.6-187.8"/>
									</g>
								</g>
								<g>
									<defs>
										<rect id="SVGID_00000004511852073268743370000017216659634032213425_" x="367.3" y="-250.5" width="62.7" height="56.1"/>
									</defs>
									<clipPath id="SVGID_00000137115824663540346200000004180401624899308691_">
										<use xlink:href="#SVGID_00000004511852073268743370000017216659634032213425_"  style="overflow:visible;"/>
									</clipPath>
									<g style="clip-path:url(#SVGID_00000137115824663540346200000004180401624899308691_);">
										<path class="st3" d="M369.8-195.7c2.1-3.6,4.3-7.3,6.4-10.9c4.3-7.4,8.7-14.8,13-22.2c3.4-5.8,6.9-11.6,10.3-17.5
											c0.4-0.7,0.8-1.4,1.2-2.1h-2.3c2.1,3.7,4.2,7.4,6.3,11.1c4.3,7.4,8.5,14.9,12.8,22.3c3.3,5.8,6.6,11.6,10,17.4
											c0.4,0.6,0.7,1.3,1.1,1.9c0.5-0.7,1-1.3,1.5-2c-5.8-2.3-11.6-4.6-17.4-6.8c-3.5-1.4-7-2.8-10.6-4.2
											c-0.8-0.3-1.7-0.7-2.5-1c-0.6-0.2-1,0-1.5,0.2c-6.8,2.7-13.7,5.4-20.5,8.1c-3.2,1.2-6.3,2.5-9.5,3.7
											c-0.7,0.3-1.2,0.9-0.9,1.7c0.2,0.7,1,1.2,1.7,0.9c5.8-2.3,11.6-4.6,17.4-6.8c4.4-1.7,8.8-3.5,13.2-5.2h-0.7
											c5.8,2.3,11.6,4.6,17.4,6.8c4.4,1.7,8.8,3.5,13.2,5.2c1.2,0.5,2.1-1,1.5-2c-2.1-3.7-4.2-7.4-6.3-11.1
											c-4.3-7.4-8.5-14.9-12.8-22.3c-3.3-5.8-6.6-11.6-10-17.4c-0.4-0.6-0.7-1.3-1.1-1.9c-0.5-0.9-1.8-0.9-2.3,0
											c-2.1,3.6-4.3,7.3-6.4,10.9c-4.3,7.4-8.7,14.8-13,22.2c-3.4,5.8-6.9,11.7-10.3,17.5c-0.4,0.7-0.8,1.4-1.2,2.1
											C366.6-195.6,368.9-194.2,369.8-195.7"/>
									</g>
								</g>
							</g>
						</g>
					</g>
				</g>
			</g>
		</g>
	</g>
</g>
</svg>
