<?xml version="1.0" encoding="utf-8"?>
<!-- Generator: Adobe Illustrator 27.1.0, SVG Export Plug-In . SVG Version: 6.00 Build 0)  -->
<svg version="1.1" id="Layer_1" xmlns="http://www.w3.org/2000/svg" xmlns:xlink="http://www.w3.org/1999/xlink" x="0px" y="0px"
	 viewBox="0 0 500 500" style="enable-background:new 0 0 500 500;" xml:space="preserve">
<style type="text/css">
	.st0{fill-rule:evenodd;clip-rule:evenodd;fill:#FFFFFF;}
	.st1{fill:none;}
	.st2{fill:#FFFFFF;}
</style>
<g>
	<path class="st0" d="M399.3,194.4c-2.6,2-5.1,0.7-10-0.7c-5-1.4-10.3-3.3-12.5-3.7c2.7-0.4,7.5-2.1,12.2-3.2
		c7.8-1.9,8.2-2.2,10.4-0.9C401.6,187.3,402.3,192.1,399.3,194.4z"/>
</g>
<g>
	<defs>
		<rect id="SVGID_1_" x="376" y="184" width="24.8" height="12"/>
	</defs>
	<clipPath id="SVGID_00000098914100469411011110000000013680462028001413_">
		<use xlink:href="#SVGID_1_"  style="overflow:visible;"/>
	</clipPath>
</g>
<rect x="350.1" y="148.9" class="st1" width="50.7" height="47.1"/>
<g>
	<path class="st0" d="M350.3,188.6c0-0.9,0.3-1.8,0.8-2.6c0,0,0,0,8.8-15.3c0,0,0,0,11.1-19.3c2.2-4,7.9-4,10.2,0c0,0,0,0,11.1,19.3
		c-0.1,0,1.5,2.2,9.2,16.4c-1.2-2.5-4-4.1-6.9-3.2c-19.7,5.7-19.7,5.7-19.7,5.7l0.4-0.1c-0.3,0.1-0.5,0.1-0.9,0.2c0,0,0,0-16.5,4.9
		C353.7,195.8,350.1,192.4,350.3,188.6z"/>
</g>
<g>
	<g>
		<g transform="translate(1.032348, 14.804931)">
			<g>
				<path class="st2" d="M60.5,310.4v6.5h-1.4v-6.5l-5.2-7.3h1.8l4.1,5.9l4.1-5.9h1.8L60.5,310.4z"/>
			</g>
		</g>
	</g>
	<g>
		<g transform="translate(9.78836, 14.804931)">
			<g>
				<path class="st2" d="M70.3,309.9c0.2-7.4-11.5-7.4-11.4,0C58.8,317.3,70.4,317.3,70.3,309.9z M71.7,309.9
					c0.1,9.2-14.3,9.2-14.2,0C57.3,300.7,71.9,300.7,71.7,309.9z"/>
			</g>
		</g>
	</g>
	<g>
		<g transform="translate(22.640653, 14.804931)">
			<g>
				<path class="st2" d="M72.4,312.3c0.3,4.6-5.9,6.1-8.8,3.5c-2.6-1.7-1.1-10.2-1.5-12.8h1.4c0.6,3.2-2.2,13.2,3.7,12.6
					c6,0.6,3.1-9.4,3.7-12.6h1.4V312.3z"/>
			</g>
		</g>
	</g>
	<g>
		<g transform="translate(33.026031, 14.804931)">
			<g>
				<path class="st2" d="M67.3,310c2.2,0.1,6.1,0.4,6-2.9c0.2-3.3-3.8-2.8-6-2.8V310z M74.7,307.2c0.1,2.3-1.8,4.1-4,4.2l4.2,5.5H73
					l-4-5.5h-1.7v5.5h-1.4v-13.8C69.1,302.9,74.8,302.5,74.7,307.2z"/>
			</g>
		</g>
	</g>
	<g>
		<g transform="translate(42.147501, 14.804931)">
		</g>
	</g>
	<g>
		<g transform="translate(47.096535, 14.804931)">
			<g>
				<path class="st2" d="M78.7,316.9h-8.2v-13.8h8.2v1.3H72v4.9h6.6v1.4H72v4.9h6.8V316.9z"/>
			</g>
		</g>
	</g>
	<g>
		<g transform="translate(56.370277, 14.804931)">
			<g>
				<path class="st2" d="M75,306.7v10.2h-1.4v-14.7l7.8,11v-10.1h1.4v14.7L75,306.7z"/>
			</g>
		</g>
	</g>
	<g>
		<g transform="translate(66.374956, 14.804931)">
			<g>
				<path class="st2" d="M75.9,304.3V303H84v1.3h-3.4v12.5h-1.4v-12.5H75.9z"/>
			</g>
		</g>
	</g>
	<g>
		<g transform="translate(73.912738, 14.804931)">
			<g>
				<path class="st2" d="M80.9,316.9h-1.4v-13.8h1.4V316.9z"/>
			</g>
		</g>
	</g>
	<g>
		<g transform="translate(78.100376, 14.804931)">
			<g>
				<path class="st2" d="M82.3,310c2.2,0.1,6.1,0.4,6-2.9c0.2-3.3-3.8-2.8-6-2.8V310z M89.7,307.2c0.1,2.3-1.8,4.1-4,4.2l4.3,5.5H88
					l-4-5.5h-1.7v5.5h-1.4v-13.8C84.1,302.9,89.8,302.5,89.7,307.2z"/>
			</g>
		</g>
	</g>
	<g>
		<g transform="translate(87.221847, 14.804931)">
			<g>
				<path class="st2" d="M92.1,316.9h-8.2v-13.8h8.2v1.3h-6.8v4.9h6.6v1.4h-6.6v4.9h6.8V316.9z"/>
			</g>
		</g>
	</g>
	<g>
		<g transform="translate(96.495589, 14.804931)">
		</g>
	</g>
	<g>
		<g transform="translate(101.444622, 14.804931)">
			<g>
				<path class="st2" d="M97.7,313c0,4.5-5.8,3.9-9,3.9v-13.8h3.8c4.1-0.5,5.8,4.4,2.6,6.2C96.8,309.7,97.7,311.2,97.7,313z
					 M95.2,306.5c0.2-2.4-3.4-2.1-5.2-2.1v4.3C91.9,308.7,95.4,309.3,95.2,306.5z M96.3,312.7c0-3.2-4.1-2.6-6.2-2.6v5.4
					C92.3,315.5,96.4,316,96.3,312.7z"/>
			</g>
		</g>
	</g>
	<g>
		<g transform="translate(110.489957, 14.804931)">
			<g>
				<path class="st2" d="M101.7,312.3c0.3,4.6-5.9,6.1-8.8,3.5c-2.6-1.7-1.1-10.2-1.5-12.8h1.4c0.6,3.2-2.2,13.2,3.7,12.6
					c6,0.6,3.1-9.4,3.7-12.6h1.4V312.3z"/>
			</g>
		</g>
	</g>
	<g>
		<g transform="translate(120.875334, 14.804931)">
			<g>
				<path class="st2" d="M99,310.3c-11.2-3,2.5-12.4,5.1-4.5h-1.5c-0.3-2.4-6.5-2.5-6.3,0.5c0.4,3.9,8.8,1.9,8.5,6.7
					c0.2,5.4-9.9,5.3-10.4,0.6H96C98.6,319.7,109.1,312.2,99,310.3z"/>
			</g>
		</g>
	</g>
	<g>
		<g transform="translate(130.453638, 14.804931)">
			<g>
				<path class="st2" d="M99.7,316.9h-1.4v-13.8h1.4V316.9z"/>
			</g>
		</g>
	</g>
	<g>
		<g transform="translate(134.641276, 14.804931)">
			<g>
				<path class="st2" d="M101.1,306.7v10.2h-1.4v-14.7l7.8,11v-10.1h1.4v14.7L101.1,306.7z"/>
			</g>
		</g>
	</g>
	<g>
		<g transform="translate(144.645955, 14.804931)">
			<g>
				<path class="st2" d="M111.3,316.9h-8.2v-13.8h8.2v1.3h-6.8v4.9h6.6v1.4h-6.6v4.9h6.8V316.9z"/>
			</g>
		</g>
	</g>
	<g>
		<g transform="translate(153.919697, 14.804931)">
			<g>
				<path class="st2" d="M110,310.3c-11.2-3,2.5-12.4,5.1-4.5h-1.5c-0.3-2.4-6.5-2.5-6.3,0.5c0.4,3.9,8.8,1.9,8.5,6.7
					c0.2,5.4-9.9,5.3-10.4,0.6h1.7C109.7,319.7,120.1,312.2,110,310.3z"/>
			</g>
		</g>
	</g>
	<g>
		<g transform="translate(163.498001, 14.804931)">
			<g>
				<path class="st2" d="M113.2,310.3c-11.2-3,2.5-12.4,5.1-4.5h-1.5c-0.3-2.4-6.5-2.5-6.3,0.5c0.4,3.9,8.8,1.9,8.5,6.7
					c0.2,5.4-9.9,5.3-10.4,0.6h1.7C112.8,319.7,123.3,312.2,113.2,310.3z"/>
			</g>
		</g>
	</g>
	<g>
		<g transform="translate(173.076305, 14.804931)">
			<g>
				<path class="st2" d="M113.7,317.1c-1.5,0-1.6-2.3,0-2.3C115.3,314.7,115.2,317.1,113.7,317.1z"/>
			</g>
		</g>
	</g>
	<g>
		<g transform="translate(177.979661, 14.804931)">
		</g>
	</g>
	<g>
		<g transform="translate(182.928694, 14.804931)">
			<g>
				<path class="st2" d="M117.2,310c2.2,0.1,6.1,0.4,6-2.8c0.2-3.3-3.8-2.8-6-2.8V310z M124.6,307.2c0.1,4-4.3,4.5-7.4,4.2v5.5h-1.4
					v-13.8C119,303,124.7,302.5,124.6,307.2z"/>
			</g>
		</g>
	</g>
	<g>
		<g transform="translate(191.821738, 14.804931)">
			<g>
				<path class="st2" d="M130.9,309.9c0.2-7.4-11.5-7.4-11.4,0C119.4,317.3,131.1,317.3,130.9,309.9z M132.4,309.9
					c0.1,9.2-14.3,9.2-14.2,0C118,300.7,132.5,300.7,132.4,309.9z"/>
			</g>
		</g>
	</g>
	<g>
		<g transform="translate(204.674032, 14.804931)">
			<g>
				<path class="st2" d="M134,318l-4.5-12l-4.5,12l-3.2-14.9h1.5l2.1,10l4.2-10.9l4.1,10.9l2.1-10h1.5L134,318z"/>
			</g>
		</g>
	</g>
	<g>
		<g transform="translate(217.434971, 14.804931)">
			<g>
				<path class="st2" d="M135.5,316.9h-8.2v-13.8h8.2v1.3h-6.8v4.9h6.6v1.4h-6.6v4.9h6.8V316.9z"/>
			</g>
		</g>
	</g>
	<g>
		<g transform="translate(226.708713, 14.804931)">
			<g>
				<path class="st2" d="M131.8,310c2.2,0.1,6.1,0.4,6-2.9c0.2-3.3-3.8-2.8-6-2.8V310z M139.2,307.2c0.1,2.3-1.8,4.1-4,4.2l4.2,5.5
					h-1.9l-4-5.5h-1.7v5.5h-1.4v-13.8C133.6,302.9,139.3,302.5,139.2,307.2z"/>
			</g>
		</g>
	</g>
	<g>
		<g transform="translate(235.830184, 14.804931)">
			<g>
				<path class="st2" d="M141.7,316.9h-8.2v-13.8h8.2v1.3h-6.8v4.9h6.6v1.4h-6.6v4.9h6.8V316.9z"/>
			</g>
		</g>
	</g>
	<g>
		<g transform="translate(245.103926, 14.804931)">
			<g>
				<path class="st2" d="M147.3,309.9c0.2,5.8-6,7.5-10.7,6.9v-13.8C141.3,302.4,147.4,304.1,147.3,309.9z M145.9,309.9
					c0.1-4.3-4.2-6-7.9-5.5v11C141.7,316,146,314.3,145.9,309.9z"/>
			</g>
		</g>
	</g>
	<g>
		<g transform="translate(255.809104, 14.804931)">
		</g>
	</g>
	<g>
		<g transform="translate(260.758137, 14.804931)">
			<g>
				<path class="st2" d="M150.8,313c0,4.5-5.8,3.9-9,3.9v-13.8h3.8c4.1-0.5,5.8,4.4,2.6,6.2C149.9,309.7,150.8,311.2,150.8,313z
					 M148.3,306.5c0.2-2.4-3.4-2.1-5.2-2.1v4.3C145,308.7,148.5,309.3,148.3,306.5z M149.4,312.7c0-3.2-4.1-2.6-6.2-2.6v5.4
					C145.4,315.5,149.5,316,149.4,312.7z"/>
			</g>
		</g>
	</g>
	<g>
		<g transform="translate(269.057315, 14.804931)">
			<g>
				<path class="st2" d="M149.9,310.4v6.5h-1.4v-6.5l-5.2-7.3h1.8l4.1,5.9l4.1-5.9h1.8L149.9,310.4z"/>
			</g>
		</g>
	</g>
	<g>
		<g transform="translate(279.117398, 14.804931)">
		</g>
	</g>
	<g>
		<g transform="translate(284.07435, 14.804931)">
			<g>
				<path class="st2" d="M151.8,311.8h5l-2.5-6.4L151.8,311.8z M160.3,316.9h-1.5l-1.5-3.8h-6.1l-1.5,3.8h-1.5l6.1-14.8L160.3,316.9
					z"/>
			</g>
		</g>
	</g>
	<g>
		<g transform="translate(294.307456, 14.804931)">
			<g>
				<path class="st2" d="M154.4,316.9h-1.4v-13.8h1.4V316.9z"/>
			</g>
		</g>
	</g>
	<g>
		<g transform="translate(298.508996, 14.804931)">
			<g>
				<path class="st2" d="M155.5,317.1c-1.5,0-1.6-2.3,0-2.3C157.1,314.7,157,317.1,155.5,317.1z"/>
			</g>
		</g>
	</g>
</g>
<g>
	<g>
		<g transform="translate(0.57371, 101.40131)">
			<g>
				<path class="st2" d="M79.2,195.1c-24-0.2-31.3-13.5-31.5-37.4c0.2-23.8,7.6-37.1,31.5-37.3c23.8,0.2,31.3,13.6,31.5,37.3
					C110.5,181.5,103.1,194.8,79.2,195.1z M79.2,183.1c15.2-0.5,17.1-10.1,17.5-25.5c-0.4-15.2-2.4-24.9-17.5-25.3
					c-15.2,0.4-17.3,10-17.6,25.3C62,173.1,63.9,182.7,79.2,183.1z"/>
			</g>
		</g>
	</g>
	<g>
		<g transform="translate(57.576373, 101.40131)">
			<g>
				<path class="st2" d="M70.9,193.8v-72.2h11.5l2.1,9.5c7.2-14,32.6-14.1,41.5-2.8c11.1,11,5.2,51,6.6,65.5H119v-41
					c-0.2-12.5-3.9-20.3-16.9-20.4c-13.3,0-17.4,7.6-17.5,20.4c0,0,0,41,0,41H70.9z"/>
			</g>
		</g>
	</g>
	<g>
		<g transform="translate(119.275885, 101.40131)">
			<g>
				<path class="st2" d="M123.5,195.1c-13.2,0-22.6-3.2-28.1-9.7c-10.9-11.4-11-44.2-0.1-55.6c9.4-12.4,36.7-12.7,46.8-0.8
					c6.3,5.8,8.8,20.2,8.2,33h-49.4c-1.1,25.3,28.1,23.4,45.1,17.4l-2,12.7C138.6,193.8,130.1,195.2,123.5,195.1z M100.9,152.5h36.3
					C138.5,124.1,99.8,124.9,100.9,152.5z"/>
			</g>
		</g>
	</g>
</g>
<path class="st2" d="M293.6,222h164.2v74.4H293.6V222z M322.4,238c2.2,2.1,4.8,0,4.7,6c0,0,0,26.8,0,26.8c0,2.7-0.3,3.8-1.5,4.4
	c-1.5,0.6-4,1.8-1.6,2.1c6-1.2,20.4,1.8,24.8-1.5c2.1-2.2,4.2-5.1,2.8-6.6c-0.7,0-2.7,5.8-15.7,5.8c-3.5,0-4.3-0.6-4.3-2.9v-12.7
	c0-0.5,0-1.3,1-1.3h8.5c4.6,0,2.8,5,4.5,5c1.5-0.9,0.2-3.6,0.5-5.3c-0.2-0.8,0.8-6.7-0.5-6.7c-1.4,0,0.1,4.5-5.7,4.5h-6.8
	c-1.3,0-1.5-0.1-1.5-1.1v-12c0-2.6,0.1-2.9,3.7-2.9c2.9,0,9.3-0.3,10.9,1.2c1.5,1.1,0.3,4.4,1.8,4.4c0.2,0,1.1,0.1,1.1-6.6
	c0-1.2-0.2-1.4-0.7-1.4c-1.6,0-6.8,0.2-8,0.2c-1.8,0-6.2-0.2-15.3-0.2C323.2,237.3,322.4,237.3,322.4,238z M362.5,237.5
	c-3.4,0.2-3.4-1.1-4.8,0.5c0,1.9,4.9-0.3,4.9,4.9v29c0,4.1-4.1,3.4-4.1,4.8c1.4,1.6,4.7,0,7.2,0.4c4.8-0.3,6.4,0.9,7.3-0.2
	c0-1.9-5.9-0.3-5.9-5v-12.5c-0.1-1.5,2.7-0.9,3.7-1c4,0,3.6,0.3,5.4,3.2c3.4,4.6,8.4,16.6,14.7,15.8c2.2,0.2,6-0.7,1.6-1.6
	c-4.8-2-11.1-14.9-14.2-18.8c11.9-5,7.8-20.9-5.1-19.6C371.1,237.2,364.2,237.5,362.5,237.5z M367.1,241.1c0-2,1.2-2,2.9-2
	c12-1,14.4,12.7,6.8,16.5c-1.9,0.7-8.4,1.6-9.8-0.1C367.1,255.6,367.1,241.1,367.1,241.1z M401.1,238.1c0,2,4.6-1.4,4.6,5.3v27.3
	c0,6-4.4,4.5-4.4,5.9c1.3,1.6,4.1,0.1,7.1,0.5c3.2-0.3,6.5,1.2,7.7-0.5c0-1.9-5.9,0.9-5.9-7v-28.8c0-1.5,1.1-1.6,2.9-1.6
	c7.4,0,11.9,4.2,11.9,10.5c0.7,6.6-7.5,8.9-12.8,7.5c-0.3,0-0.6,0.2-0.6,0.5c18.4,7.4,26.9-21.1,2.4-20.5c-2.7,0-3.6,0.2-6.4,0.2
	C403.6,237.9,401.9,236.2,401.1,238.1z"/>
<g>
	<path class="st0" d="M350.3,188.5c0-0.9,0.3-1.8,0.8-2.6c0,0,0,0,8.8-15.3c0,0,0,0,11.1-19.3c2.2-4,7.9-4,10.2,0c0,0,0,0,11.1,19.3
		c-0.1,0,1.5,2.2,9.2,16.4c-1.2-2.5-4-4.1-6.9-3.2c-19.7,5.7-19.7,5.7-19.7,5.7l0.4-0.1c-0.3,0.1-0.5,0.1-0.9,0.2c0,0,0,0-16.5,4.9
		C353.7,195.8,350.1,192.4,350.3,188.5z"/>
</g>
</svg>
