<svg xmlns="http://www.w3.org/2000/svg" xmlns:xlink="http://www.w3.org/1999/xlink" width="500" zoomAndPan="magnify" viewBox="0 0 375 374.999991" height="500" preserveAspectRatio="xMidYMid meet" version="1.0"><defs><g/><clipPath id="60d0b5b75f"><path d="M 189.359375 66.535156 L 312.425781 66.535156 L 312.425781 122.347656 L 189.359375 122.347656 Z M 189.359375 66.535156 " clip-rule="nonzero"/></clipPath><clipPath id="4d480e2572"><path d="M 0.359375 0.535156 L 123.425781 0.535156 L 123.425781 56.347656 L 0.359375 56.347656 Z M 0.359375 0.535156 " clip-rule="nonzero"/></clipPath><clipPath id="c8c65e9b8a"><rect x="0" width="124" y="0" height="57"/></clipPath><clipPath id="bc27f559f6"><path d="M 251 38 L 269.570312 38 L 269.570312 47 L 251 47 Z M 251 38 " clip-rule="nonzero"/></clipPath><clipPath id="1fe2b82dc5"><path d="M 231.546875 11.679688 L 269.570312 11.679688 L 269.570312 47 L 231.546875 47 Z M 231.546875 11.679688 " clip-rule="nonzero"/></clipPath><clipPath id="a537999df7"><path d="M 0.441406 20 L 178 20 L 178 155.601562 L 0.441406 155.601562 Z M 0.441406 20 " clip-rule="nonzero"/></clipPath><clipPath id="b0dd1a5ccc"><rect x="0" width="178" y="0" height="136"/></clipPath><clipPath id="6c7f71a566"><path d="M 9 134 L 313.398438 134 L 313.398438 153 L 9 153 Z M 9 134 " clip-rule="nonzero"/></clipPath><clipPath id="8213fa7a37"><rect x="0" width="305" y="0" height="19"/></clipPath><clipPath id="723952a433"><rect x="0" width="87" y="0" height="45"/></clipPath><clipPath id="a573ae1763"><rect x="0" width="314" y="0" height="156"/></clipPath></defs><g transform="matrix(1, 0, 0, 1, 31, 100)"><g clip-path="url(#a573ae1763)"><g clip-path="url(#60d0b5b75f)"><g transform="matrix(1, 0, 0, 1, 189, 66)"><g clip-path="url(#c8c65e9b8a)"><g clip-path="url(#4d480e2572)"><path fill="#030420" d="M 0.359375 0.535156 L 123.535156 0.535156 L 123.535156 56.347656 L 0.359375 56.347656 Z M 0.359375 0.535156 " fill-opacity="1" fill-rule="nonzero"/></g></g></g></g><g clip-path="url(#bc27f559f6)"><path fill="#be1e2d" d="M 268.957031 45.359375 C 267.683594 46.554688 266.65625 47.171875 262.023438 45.707031 L 251.597656 42.46875 L 262 39.625 C 264.714844 38.839844 266.84375 38.261719 268.554688 39.355469 C 270.265625 40.449219 270.226562 44.164062 268.957031 45.359375 Z M 268.957031 45.359375 " fill-opacity="1" fill-rule="evenodd"/></g><g clip-path="url(#1fe2b82dc5)"><path fill="#000000" d="M 231.707031 41.429688 C 231.738281 40.769531 231.925781 40.097656 232.296875 39.445312 C 232.296875 39.445312 232.296875 39.445312 238.90625 27.960938 C 238.90625 27.960938 238.90625 27.960938 247.246094 13.484375 C 248.898438 10.492188 253.144531 10.492188 254.878906 13.484375 C 254.878906 13.484375 254.878906 13.484375 263.21875 27.960938 C 263.21875 27.960938 263.21875 27.960938 269.75 39.445312 C 269.828125 39.605469 269.90625 39.742188 269.972656 39.878906 L 270.125 40.265625 L 269.753906 39.613281 C 268.738281 38.132812 266.867188 37.300781 264.9375 37.851562 C 250.136719 42.09375 250.136719 42.09375 250.136719 42.09375 L 250.410156 42.046875 L 250.15625 42.121094 C 250.078125 42.121094 249.921875 42.121094 249.761719 42.199219 C 249.761719 42.199219 249.761719 42.199219 237.410156 45.898438 C 234.277344 46.855469 231.558594 44.285156 231.707031 41.429688 Z M 231.707031 41.429688 " fill-opacity="1" fill-rule="evenodd"/></g><g clip-path="url(#a537999df7)"><g transform="matrix(1, 0, 0, 1, -0.000000000000003553, 20)"><g clip-path="url(#b0dd1a5ccc)"><g fill="#be1e2d" fill-opacity="1"><g transform="translate(0.57371, 101.40131)"><g><path d="M 28.5 0.953125 C 20.320312 0.953125 14.34375 -1.285156 10.5625 -5.765625 C 6.789062 -10.242188 4.90625 -17.363281 4.90625 -27.125 C 4.90625 -36.800781 6.789062 -43.878906 10.5625 -48.359375 C 14.34375 -52.847656 20.320312 -55.09375 28.5 -55.09375 C 36.613281 -55.09375 42.578125 -52.847656 46.390625 -48.359375 C 50.203125 -43.878906 52.109375 -36.800781 52.109375 -27.125 C 52.109375 -17.363281 50.203125 -10.242188 46.390625 -5.765625 C 42.578125 -1.285156 36.613281 0.953125 28.5 0.953125 Z M 28.5 -8 C 33.132812 -8 36.484375 -9.457031 38.546875 -12.375 C 40.609375 -15.300781 41.640625 -20.21875 41.640625 -27.125 C 41.640625 -33.957031 40.609375 -38.832031 38.546875 -41.75 C 36.484375 -44.664062 33.132812 -46.125 28.5 -46.125 C 23.800781 -46.125 20.421875 -44.664062 18.359375 -41.75 C 16.296875 -38.832031 15.265625 -33.957031 15.265625 -27.125 C 15.265625 -20.21875 16.296875 -15.300781 18.359375 -12.375 C 20.421875 -9.457031 23.800781 -8 28.5 -8 Z M 28.5 -8 "/></g></g></g><g fill="#be1e2d" fill-opacity="1"><g transform="translate(57.576373, 101.40131)"><g><path d="M 8 0 L 8 -54.125 L 16.65625 -54.125 L 18.25 -46.984375 C 19.75 -49.546875 21.78125 -51.535156 24.34375 -52.953125 C 26.90625 -54.378906 30.25 -55.09375 34.375 -55.09375 C 41.070312 -55.09375 46.070312 -53.097656 49.375 -49.109375 C 52.6875 -45.128906 54.34375 -39.722656 54.34375 -32.890625 L 54.34375 0 L 44.09375 0 L 44.09375 -30.75 C 44.09375 -35.800781 43.113281 -39.609375 41.15625 -42.171875 C 39.195312 -44.734375 35.941406 -46.015625 31.390625 -46.015625 C 26.691406 -46.015625 23.328125 -44.734375 21.296875 -42.171875 C 19.265625 -39.609375 18.25 -35.800781 18.25 -30.75 L 18.25 0 Z M 8 0 "/></g></g></g><g fill="#be1e2d" fill-opacity="1"><g transform="translate(119.275885, 101.40131)"><g><path d="M 32.03125 0.953125 C 22.132812 0.953125 15.117188 -1.460938 10.984375 -6.296875 C 6.859375 -11.140625 4.796875 -18.113281 4.796875 -27.21875 C 4.796875 -36.332031 6.820312 -43.253906 10.875 -47.984375 C 14.9375 -52.722656 20.882812 -55.09375 28.71875 -55.09375 C 36.125 -55.09375 41.875 -52.921875 45.96875 -48.578125 C 50.0625 -44.234375 52.109375 -37.082031 52.109375 -27.125 L 52.109375 -23.8125 L 15.046875 -23.8125 C 15.191406 -18.613281 16.546875 -14.675781 19.109375 -12 C 21.671875 -9.332031 26.082031 -8 32.34375 -8 C 35.625 -8 38.8125 -8.300781 41.90625 -8.90625 C 45 -9.519531 47.332031 -10.144531 48.90625 -10.78125 L 47.40625 -1.28125 C 45.90625 -0.78125 43.75 -0.285156 40.9375 0.203125 C 38.132812 0.703125 35.164062 0.953125 32.03125 0.953125 Z M 15.046875 -30.96875 L 42.28125 -30.96875 C 42.132812 -36.519531 40.851562 -40.519531 38.4375 -42.96875 C 36.019531 -45.425781 32.816406 -46.65625 28.828125 -46.65625 C 24.554688 -46.65625 21.242188 -45.335938 18.890625 -42.703125 C 16.546875 -40.066406 15.265625 -36.15625 15.046875 -30.96875 Z M 15.046875 -30.96875 "/></g></g></g></g></g></g><g clip-path="url(#6c7f71a566)"><g transform="matrix(1, 0, 0, 1, 9, 134)"><g clip-path="url(#8213fa7a37)"><g fill="#3d3d3d" fill-opacity="1"><g transform="translate(1.032348, 14.804931)"><g><path d="M 5.15625 -4.875 L 5.15625 0 L 4.078125 0 L 4.078125 -4.875 L 0.15625 -10.359375 L 1.53125 -10.359375 L 4.609375 -5.921875 L 7.703125 -10.359375 L 9.0625 -10.359375 Z M 5.15625 -4.875 "/></g></g></g><g fill="#3d3d3d" fill-opacity="1"><g transform="translate(9.78836, 14.804931)"><g><path d="M 10.265625 -5.203125 C 10.265625 -6.378906 9.847656 -7.382812 9.015625 -8.21875 C 8.179688 -9.039062 7.175781 -9.453125 6 -9.453125 C 4.832031 -9.453125 3.832031 -9.039062 3 -8.21875 C 2.164062 -7.382812 1.75 -6.378906 1.75 -5.203125 C 1.75 -4.023438 2.164062 -3.019531 3 -2.1875 C 3.832031 -1.351562 4.832031 -0.9375 6 -0.9375 C 7.175781 -0.9375 8.179688 -1.351562 9.015625 -2.1875 C 9.847656 -3.019531 10.265625 -4.023438 10.265625 -5.203125 Z M 11.328125 -5.203125 C 11.328125 -4.472656 11.191406 -3.785156 10.921875 -3.140625 C 10.640625 -2.484375 10.257812 -1.921875 9.78125 -1.453125 C 9.289062 -0.960938 8.722656 -0.582031 8.078125 -0.3125 C 7.421875 -0.0195312 6.726562 0.125 6 0.125 C 5.269531 0.125 4.585938 -0.0195312 3.953125 -0.3125 C 3.296875 -0.582031 2.726562 -0.960938 2.25 -1.453125 C 1.769531 -1.921875 1.390625 -2.484375 1.109375 -3.140625 C 0.828125 -3.785156 0.6875 -4.472656 0.6875 -5.203125 C 0.6875 -5.941406 0.828125 -6.632812 1.109375 -7.28125 C 1.390625 -7.925781 1.769531 -8.488281 2.25 -8.96875 C 2.726562 -9.445312 3.296875 -9.828125 3.953125 -10.109375 C 4.585938 -10.390625 5.269531 -10.53125 6 -10.53125 C 6.726562 -10.53125 7.421875 -10.390625 8.078125 -10.109375 C 8.722656 -9.828125 9.289062 -9.445312 9.78125 -8.96875 C 10.257812 -8.488281 10.640625 -7.925781 10.921875 -7.28125 C 11.191406 -6.632812 11.328125 -5.941406 11.328125 -5.203125 Z M 11.328125 -5.203125 "/></g></g></g><g fill="#3d3d3d" fill-opacity="1"><g transform="translate(22.640653, 14.804931)"><g><path d="M 8.640625 -3.421875 C 8.640625 -2.304688 8.273438 -1.425781 7.546875 -0.78125 C 6.847656 -0.164062 5.925781 0.140625 4.78125 0.140625 C 3.625 0.140625 2.703125 -0.164062 2.015625 -0.78125 C 1.285156 -1.425781 0.921875 -2.304688 0.921875 -3.421875 L 0.921875 -10.359375 L 1.984375 -10.359375 L 1.984375 -3.28125 C 1.984375 -2.5 2.265625 -1.898438 2.828125 -1.484375 C 3.316406 -1.109375 3.96875 -0.921875 4.78125 -0.921875 C 6.050781 -0.921875 6.90625 -1.347656 7.34375 -2.203125 C 7.5 -2.503906 7.578125 -2.863281 7.578125 -3.28125 L 7.578125 -10.359375 L 8.640625 -10.359375 Z M 8.640625 -3.421875 "/></g></g></g><g fill="#3d3d3d" fill-opacity="1"><g transform="translate(33.026031, 14.804931)"><g><path d="M 2.203125 -5.125 L 4.609375 -5.125 C 5.210938 -5.125 5.707031 -5.328125 6.09375 -5.734375 C 6.488281 -6.148438 6.6875 -6.660156 6.6875 -7.265625 C 6.6875 -7.867188 6.5 -8.367188 6.125 -8.765625 C 5.75 -9.148438 5.242188 -9.34375 4.609375 -9.34375 L 2.203125 -9.34375 Z M 7.75 -7.234375 C 7.75 -6.328125 7.429688 -5.578125 6.796875 -4.984375 C 6.222656 -4.453125 5.535156 -4.160156 4.734375 -4.109375 L 7.921875 0 L 6.484375 0 L 3.453125 -4.09375 L 2.203125 -4.09375 L 2.203125 0 L 1.140625 0 L 1.140625 -10.359375 L 4.46875 -10.359375 C 5.382812 -10.359375 6.160156 -10.066406 6.796875 -9.484375 C 7.429688 -8.878906 7.75 -8.128906 7.75 -7.234375 Z M 7.75 -7.234375 "/></g></g></g><g fill="#3d3d3d" fill-opacity="1"><g transform="translate(42.147501, 14.804931)"><g/></g></g><g fill="#3d3d3d" fill-opacity="1"><g transform="translate(47.096535, 14.804931)"><g><path d="M 7.296875 0 L 1.140625 0 L 1.140625 -10.359375 L 7.296875 -10.359375 L 7.296875 -9.375 L 2.203125 -9.375 L 2.203125 -5.6875 L 7.140625 -5.6875 L 7.140625 -4.671875 L 2.203125 -4.671875 L 2.203125 -0.984375 L 7.296875 -0.984375 Z M 7.296875 0 "/></g></g></g><g fill="#3d3d3d" fill-opacity="1"><g transform="translate(56.370277, 14.804931)"><g><path d="M 2.203125 -7.625 L 2.203125 0 L 1.140625 0 L 1.140625 -11.015625 L 6.96875 -2.75 L 6.96875 -10.359375 L 8.03125 -10.359375 L 8.03125 0.640625 Z M 2.203125 -7.625 "/></g></g></g><g fill="#3d3d3d" fill-opacity="1"><g transform="translate(66.374956, 14.804931)"><g><path d="M 0.3125 -9.40625 L 0.3125 -10.390625 L 6.40625 -10.390625 L 6.40625 -9.40625 L 3.890625 -9.40625 L 3.890625 -0.03125 L 2.8125 -0.03125 L 2.8125 -9.40625 Z M 0.3125 -9.40625 "/></g></g></g><g fill="#3d3d3d" fill-opacity="1"><g transform="translate(73.912738, 14.804931)"><g><path d="M 2.203125 0 L 1.140625 0 L 1.140625 -10.359375 L 2.203125 -10.359375 Z M 2.203125 0 "/></g></g></g><g fill="#3d3d3d" fill-opacity="1"><g transform="translate(78.100376, 14.804931)"><g><path d="M 2.203125 -5.125 L 4.609375 -5.125 C 5.210938 -5.125 5.707031 -5.328125 6.09375 -5.734375 C 6.488281 -6.148438 6.6875 -6.660156 6.6875 -7.265625 C 6.6875 -7.867188 6.5 -8.367188 6.125 -8.765625 C 5.75 -9.148438 5.242188 -9.34375 4.609375 -9.34375 L 2.203125 -9.34375 Z M 7.75 -7.234375 C 7.75 -6.328125 7.429688 -5.578125 6.796875 -4.984375 C 6.222656 -4.453125 5.535156 -4.160156 4.734375 -4.109375 L 7.921875 0 L 6.484375 0 L 3.453125 -4.09375 L 2.203125 -4.09375 L 2.203125 0 L 1.140625 0 L 1.140625 -10.359375 L 4.46875 -10.359375 C 5.382812 -10.359375 6.160156 -10.066406 6.796875 -9.484375 C 7.429688 -8.878906 7.75 -8.128906 7.75 -7.234375 Z M 7.75 -7.234375 "/></g></g></g><g fill="#3d3d3d" fill-opacity="1"><g transform="translate(87.221847, 14.804931)"><g><path d="M 7.296875 0 L 1.140625 0 L 1.140625 -10.359375 L 7.296875 -10.359375 L 7.296875 -9.375 L 2.203125 -9.375 L 2.203125 -5.6875 L 7.140625 -5.6875 L 7.140625 -4.671875 L 2.203125 -4.671875 L 2.203125 -0.984375 L 7.296875 -0.984375 Z M 7.296875 0 "/></g></g></g><g fill="#3d3d3d" fill-opacity="1"><g transform="translate(96.495589, 14.804931)"><g/></g></g><g fill="#3d3d3d" fill-opacity="1"><g transform="translate(101.444622, 14.804931)"><g><path d="M 7.90625 -2.890625 C 7.90625 -2.460938 7.8125 -2.054688 7.625 -1.671875 C 7.425781 -1.285156 7.164062 -0.972656 6.84375 -0.734375 C 6.207031 -0.242188 5.363281 0 4.3125 0 L 1.140625 0 L 1.140625 -10.359375 L 3.953125 -10.359375 C 5.460938 -10.359375 6.445312 -9.890625 6.90625 -8.953125 C 7.0625 -8.617188 7.140625 -8.28125 7.140625 -7.9375 C 7.140625 -7.59375 7.113281 -7.320312 7.0625 -7.125 C 7.007812 -6.925781 6.929688 -6.734375 6.828125 -6.546875 C 6.585938 -6.148438 6.285156 -5.875 5.921875 -5.71875 C 6.535156 -5.550781 7.019531 -5.222656 7.375 -4.734375 C 7.726562 -4.234375 7.90625 -3.617188 7.90625 -2.890625 Z M 6.078125 -7.765625 C 6.078125 -8.816406 5.367188 -9.34375 3.953125 -9.34375 L 2.203125 -9.34375 L 2.203125 -6.109375 L 4.25 -6.109375 C 4.800781 -6.109375 5.242188 -6.242188 5.578125 -6.515625 C 5.910156 -6.796875 6.078125 -7.210938 6.078125 -7.765625 Z M 6.84375 -3.09375 C 6.84375 -3.394531 6.785156 -3.664062 6.671875 -3.90625 C 6.546875 -4.132812 6.394531 -4.335938 6.21875 -4.515625 C 5.8125 -4.867188 5.332031 -5.046875 4.78125 -5.046875 L 2.203125 -5.046875 L 2.203125 -1.015625 L 4.609375 -1.015625 C 5.265625 -1.015625 5.800781 -1.203125 6.21875 -1.578125 C 6.632812 -1.960938 6.84375 -2.46875 6.84375 -3.09375 Z M 6.84375 -3.09375 "/></g></g></g><g fill="#3d3d3d" fill-opacity="1"><g transform="translate(110.489957, 14.804931)"><g><path d="M 8.640625 -3.421875 C 8.640625 -2.304688 8.273438 -1.425781 7.546875 -0.78125 C 6.847656 -0.164062 5.925781 0.140625 4.78125 0.140625 C 3.625 0.140625 2.703125 -0.164062 2.015625 -0.78125 C 1.285156 -1.425781 0.921875 -2.304688 0.921875 -3.421875 L 0.921875 -10.359375 L 1.984375 -10.359375 L 1.984375 -3.28125 C 1.984375 -2.5 2.265625 -1.898438 2.828125 -1.484375 C 3.316406 -1.109375 3.96875 -0.921875 4.78125 -0.921875 C 6.050781 -0.921875 6.90625 -1.347656 7.34375 -2.203125 C 7.5 -2.503906 7.578125 -2.863281 7.578125 -3.28125 L 7.578125 -10.359375 L 8.640625 -10.359375 Z M 8.640625 -3.421875 "/></g></g></g><g fill="#3d3d3d" fill-opacity="1"><g transform="translate(120.875334, 14.804931)"><g><path d="M 4.015625 -4.890625 C 1.910156 -5.378906 0.859375 -6.285156 0.859375 -7.609375 C 0.859375 -8.578125 1.195312 -9.304688 1.875 -9.796875 C 2.550781 -10.273438 3.347656 -10.515625 4.265625 -10.515625 C 6.285156 -10.515625 7.484375 -9.757812 7.859375 -8.25 L 6.703125 -8.25 C 6.503906 -9.144531 5.691406 -9.59375 4.265625 -9.59375 C 3.265625 -9.59375 2.566406 -9.300781 2.171875 -8.71875 C 2.023438 -8.488281 1.953125 -8.207031 1.953125 -7.875 C 1.953125 -7.238281 2.296875 -6.75 2.984375 -6.40625 C 3.304688 -6.226562 4 -6.003906 5.0625 -5.734375 C 6.113281 -5.453125 6.878906 -5.144531 7.359375 -4.8125 C 8.015625 -4.34375 8.34375 -3.6875 8.34375 -2.84375 C 8.34375 -1.800781 7.929688 -1.007812 7.109375 -0.46875 C 6.421875 -0.0195312 5.570312 0.203125 4.5625 0.203125 C 2.257812 0.203125 0.925781 -0.671875 0.5625 -2.421875 L 1.828125 -2.421875 C 2.023438 -1.328125 2.9375 -0.78125 4.5625 -0.78125 C 5.71875 -0.78125 6.523438 -1.097656 6.984375 -1.734375 C 7.160156 -1.992188 7.25 -2.335938 7.25 -2.765625 C 7.25 -3.191406 7.082031 -3.546875 6.75 -3.828125 C 6.269531 -4.210938 5.359375 -4.566406 4.015625 -4.890625 Z M 4.015625 -4.890625 "/></g></g></g><g fill="#3d3d3d" fill-opacity="1"><g transform="translate(130.453638, 14.804931)"><g><path d="M 2.203125 0 L 1.140625 0 L 1.140625 -10.359375 L 2.203125 -10.359375 Z M 2.203125 0 "/></g></g></g><g fill="#3d3d3d" fill-opacity="1"><g transform="translate(134.641276, 14.804931)"><g><path d="M 2.203125 -7.625 L 2.203125 0 L 1.140625 0 L 1.140625 -11.015625 L 6.96875 -2.75 L 6.96875 -10.359375 L 8.03125 -10.359375 L 8.03125 0.640625 Z M 2.203125 -7.625 "/></g></g></g><g fill="#3d3d3d" fill-opacity="1"><g transform="translate(144.645955, 14.804931)"><g><path d="M 7.296875 0 L 1.140625 0 L 1.140625 -10.359375 L 7.296875 -10.359375 L 7.296875 -9.375 L 2.203125 -9.375 L 2.203125 -5.6875 L 7.140625 -5.6875 L 7.140625 -4.671875 L 2.203125 -4.671875 L 2.203125 -0.984375 L 7.296875 -0.984375 Z M 7.296875 0 "/></g></g></g><g fill="#3d3d3d" fill-opacity="1"><g transform="translate(153.919697, 14.804931)"><g><path d="M 4.015625 -4.890625 C 1.910156 -5.378906 0.859375 -6.285156 0.859375 -7.609375 C 0.859375 -8.578125 1.195312 -9.304688 1.875 -9.796875 C 2.550781 -10.273438 3.347656 -10.515625 4.265625 -10.515625 C 6.285156 -10.515625 7.484375 -9.757812 7.859375 -8.25 L 6.703125 -8.25 C 6.503906 -9.144531 5.691406 -9.59375 4.265625 -9.59375 C 3.265625 -9.59375 2.566406 -9.300781 2.171875 -8.71875 C 2.023438 -8.488281 1.953125 -8.207031 1.953125 -7.875 C 1.953125 -7.238281 2.296875 -6.75 2.984375 -6.40625 C 3.304688 -6.226562 4 -6.003906 5.0625 -5.734375 C 6.113281 -5.453125 6.878906 -5.144531 7.359375 -4.8125 C 8.015625 -4.34375 8.34375 -3.6875 8.34375 -2.84375 C 8.34375 -1.800781 7.929688 -1.007812 7.109375 -0.46875 C 6.421875 -0.0195312 5.570312 0.203125 4.5625 0.203125 C 2.257812 0.203125 0.925781 -0.671875 0.5625 -2.421875 L 1.828125 -2.421875 C 2.023438 -1.328125 2.9375 -0.78125 4.5625 -0.78125 C 5.71875 -0.78125 6.523438 -1.097656 6.984375 -1.734375 C 7.160156 -1.992188 7.25 -2.335938 7.25 -2.765625 C 7.25 -3.191406 7.082031 -3.546875 6.75 -3.828125 C 6.269531 -4.210938 5.359375 -4.566406 4.015625 -4.890625 Z M 4.015625 -4.890625 "/></g></g></g><g fill="#3d3d3d" fill-opacity="1"><g transform="translate(163.498001, 14.804931)"><g><path d="M 4.015625 -4.890625 C 1.910156 -5.378906 0.859375 -6.285156 0.859375 -7.609375 C 0.859375 -8.578125 1.195312 -9.304688 1.875 -9.796875 C 2.550781 -10.273438 3.347656 -10.515625 4.265625 -10.515625 C 6.285156 -10.515625 7.484375 -9.757812 7.859375 -8.25 L 6.703125 -8.25 C 6.503906 -9.144531 5.691406 -9.59375 4.265625 -9.59375 C 3.265625 -9.59375 2.566406 -9.300781 2.171875 -8.71875 C 2.023438 -8.488281 1.953125 -8.207031 1.953125 -7.875 C 1.953125 -7.238281 2.296875 -6.75 2.984375 -6.40625 C 3.304688 -6.226562 4 -6.003906 5.0625 -5.734375 C 6.113281 -5.453125 6.878906 -5.144531 7.359375 -4.8125 C 8.015625 -4.34375 8.34375 -3.6875 8.34375 -2.84375 C 8.34375 -1.800781 7.929688 -1.007812 7.109375 -0.46875 C 6.421875 -0.0195312 5.570312 0.203125 4.5625 0.203125 C 2.257812 0.203125 0.925781 -0.671875 0.5625 -2.421875 L 1.828125 -2.421875 C 2.023438 -1.328125 2.9375 -0.78125 4.5625 -0.78125 C 5.71875 -0.78125 6.523438 -1.097656 6.984375 -1.734375 C 7.160156 -1.992188 7.25 -2.335938 7.25 -2.765625 C 7.25 -3.191406 7.082031 -3.546875 6.75 -3.828125 C 6.269531 -4.210938 5.359375 -4.566406 4.015625 -4.890625 Z M 4.015625 -4.890625 "/></g></g></g><g fill="#3d3d3d" fill-opacity="1"><g transform="translate(173.076305, 14.804931)"><g><path d="M 2.03125 0.15625 C 1.789062 0.15625 1.585938 0.0664062 1.421875 -0.109375 C 1.234375 -0.265625 1.140625 -0.460938 1.140625 -0.703125 C 1.140625 -0.929688 1.226562 -1.132812 1.40625 -1.3125 C 1.570312 -1.476562 1.78125 -1.5625 2.03125 -1.5625 C 2.269531 -1.5625 2.484375 -1.484375 2.671875 -1.328125 C 2.835938 -1.148438 2.921875 -0.945312 2.921875 -0.71875 C 2.921875 -0.46875 2.832031 -0.265625 2.65625 -0.109375 C 2.46875 0.0664062 2.257812 0.15625 2.03125 0.15625 Z M 2.03125 0.15625 "/></g></g></g><g fill="#3d3d3d" fill-opacity="1"><g transform="translate(177.979661, 14.804931)"><g/></g></g><g fill="#3d3d3d" fill-opacity="1"><g transform="translate(182.928694, 14.804931)"><g><path d="M 2.203125 -5.140625 L 4.609375 -5.140625 C 5.210938 -5.140625 5.707031 -5.34375 6.09375 -5.75 C 6.488281 -6.15625 6.6875 -6.660156 6.6875 -7.265625 C 6.6875 -7.878906 6.5 -8.378906 6.125 -8.765625 C 5.75 -9.148438 5.242188 -9.34375 4.609375 -9.34375 L 2.203125 -9.34375 Z M 7.75 -7.234375 C 7.75 -6.328125 7.429688 -5.578125 6.796875 -4.984375 C 6.160156 -4.390625 5.382812 -4.09375 4.46875 -4.09375 L 2.203125 -4.09375 L 2.203125 0 L 1.140625 0 L 1.140625 -10.359375 L 4.46875 -10.359375 C 5.375 -10.359375 6.148438 -10.066406 6.796875 -9.484375 C 7.429688 -8.898438 7.75 -8.148438 7.75 -7.234375 Z M 7.75 -7.234375 "/></g></g></g><g fill="#3d3d3d" fill-opacity="1"><g transform="translate(191.821738, 14.804931)"><g><path d="M 10.265625 -5.203125 C 10.265625 -6.378906 9.847656 -7.382812 9.015625 -8.21875 C 8.179688 -9.039062 7.175781 -9.453125 6 -9.453125 C 4.832031 -9.453125 3.832031 -9.039062 3 -8.21875 C 2.164062 -7.382812 1.75 -6.378906 1.75 -5.203125 C 1.75 -4.023438 2.164062 -3.019531 3 -2.1875 C 3.832031 -1.351562 4.832031 -0.9375 6 -0.9375 C 7.175781 -0.9375 8.179688 -1.351562 9.015625 -2.1875 C 9.847656 -3.019531 10.265625 -4.023438 10.265625 -5.203125 Z M 11.328125 -5.203125 C 11.328125 -4.472656 11.191406 -3.785156 10.921875 -3.140625 C 10.640625 -2.484375 10.257812 -1.921875 9.78125 -1.453125 C 9.289062 -0.960938 8.722656 -0.582031 8.078125 -0.3125 C 7.421875 -0.0195312 6.726562 0.125 6 0.125 C 5.269531 0.125 4.585938 -0.0195312 3.953125 -0.3125 C 3.296875 -0.582031 2.726562 -0.960938 2.25 -1.453125 C 1.769531 -1.921875 1.390625 -2.484375 1.109375 -3.140625 C 0.828125 -3.785156 0.6875 -4.472656 0.6875 -5.203125 C 0.6875 -5.941406 0.828125 -6.632812 1.109375 -7.28125 C 1.390625 -7.925781 1.769531 -8.488281 2.25 -8.96875 C 2.726562 -9.445312 3.296875 -9.828125 3.953125 -10.109375 C 4.585938 -10.390625 5.269531 -10.53125 6 -10.53125 C 6.726562 -10.53125 7.421875 -10.390625 8.078125 -10.109375 C 8.722656 -9.828125 9.289062 -9.445312 9.78125 -8.96875 C 10.257812 -8.488281 10.640625 -7.925781 10.921875 -7.28125 C 11.191406 -6.632812 11.328125 -5.941406 11.328125 -5.203125 Z M 11.328125 -5.203125 "/></g></g></g><g fill="#3d3d3d" fill-opacity="1"><g transform="translate(204.674032, 14.804931)"><g><path d="M 9.375 0.84375 L 5.96875 -8.1875 L 2.578125 0.84375 L 0.15625 -10.359375 L 1.25 -10.359375 L 2.84375 -2.828125 L 5.96875 -10.96875 L 9.078125 -2.828125 L 10.6875 -10.359375 L 11.78125 -10.359375 Z M 9.375 0.84375 "/></g></g></g><g fill="#3d3d3d" fill-opacity="1"><g transform="translate(217.434971, 14.804931)"><g><path d="M 7.296875 0 L 1.140625 0 L 1.140625 -10.359375 L 7.296875 -10.359375 L 7.296875 -9.375 L 2.203125 -9.375 L 2.203125 -5.6875 L 7.140625 -5.6875 L 7.140625 -4.671875 L 2.203125 -4.671875 L 2.203125 -0.984375 L 7.296875 -0.984375 Z M 7.296875 0 "/></g></g></g><g fill="#3d3d3d" fill-opacity="1"><g transform="translate(226.708713, 14.804931)"><g><path d="M 2.203125 -5.125 L 4.609375 -5.125 C 5.210938 -5.125 5.707031 -5.328125 6.09375 -5.734375 C 6.488281 -6.148438 6.6875 -6.660156 6.6875 -7.265625 C 6.6875 -7.867188 6.5 -8.367188 6.125 -8.765625 C 5.75 -9.148438 5.242188 -9.34375 4.609375 -9.34375 L 2.203125 -9.34375 Z M 7.75 -7.234375 C 7.75 -6.328125 7.429688 -5.578125 6.796875 -4.984375 C 6.222656 -4.453125 5.535156 -4.160156 4.734375 -4.109375 L 7.921875 0 L 6.484375 0 L 3.453125 -4.09375 L 2.203125 -4.09375 L 2.203125 0 L 1.140625 0 L 1.140625 -10.359375 L 4.46875 -10.359375 C 5.382812 -10.359375 6.160156 -10.066406 6.796875 -9.484375 C 7.429688 -8.878906 7.75 -8.128906 7.75 -7.234375 Z M 7.75 -7.234375 "/></g></g></g><g fill="#3d3d3d" fill-opacity="1"><g transform="translate(235.830184, 14.804931)"><g><path d="M 7.296875 0 L 1.140625 0 L 1.140625 -10.359375 L 7.296875 -10.359375 L 7.296875 -9.375 L 2.203125 -9.375 L 2.203125 -5.6875 L 7.140625 -5.6875 L 7.140625 -4.671875 L 2.203125 -4.671875 L 2.203125 -0.984375 L 7.296875 -0.984375 Z M 7.296875 0 "/></g></g></g><g fill="#3d3d3d" fill-opacity="1"><g transform="translate(245.103926, 14.804931)"><g><path d="M 9.1875 -5.1875 C 9.1875 -4.425781 9.050781 -3.734375 8.78125 -3.109375 C 8.488281 -2.460938 8.101562 -1.914062 7.625 -1.46875 C 7.15625 -1.007812 6.59375 -0.648438 5.9375 -0.390625 C 5.289062 -0.128906 4.597656 0 3.859375 0 L 1.140625 0 L 1.140625 -10.359375 L 3.859375 -10.359375 C 4.597656 -10.359375 5.289062 -10.234375 5.9375 -9.984375 C 6.59375 -9.710938 7.15625 -9.347656 7.625 -8.890625 C 8.101562 -8.441406 8.488281 -7.898438 8.78125 -7.265625 C 9.050781 -6.628906 9.1875 -5.9375 9.1875 -5.1875 Z M 8.15625 -5.1875 C 8.15625 -6.363281 7.738281 -7.347656 6.90625 -8.140625 C 6.09375 -8.910156 5.085938 -9.296875 3.890625 -9.296875 L 2.203125 -9.296875 L 2.203125 -1.0625 L 3.890625 -1.0625 C 5.085938 -1.0625 6.09375 -1.445312 6.90625 -2.21875 C 7.738281 -3.007812 8.15625 -4 8.15625 -5.1875 Z M 8.15625 -5.1875 "/></g></g></g><g fill="#3d3d3d" fill-opacity="1"><g transform="translate(255.809104, 14.804931)"><g/></g></g><g fill="#3d3d3d" fill-opacity="1"><g transform="translate(260.758137, 14.804931)"><g><path d="M 7.90625 -2.890625 C 7.90625 -2.460938 7.8125 -2.054688 7.625 -1.671875 C 7.425781 -1.285156 7.164062 -0.972656 6.84375 -0.734375 C 6.207031 -0.242188 5.363281 0 4.3125 0 L 1.140625 0 L 1.140625 -10.359375 L 3.953125 -10.359375 C 5.460938 -10.359375 6.445312 -9.890625 6.90625 -8.953125 C 7.0625 -8.617188 7.140625 -8.28125 7.140625 -7.9375 C 7.140625 -7.59375 7.113281 -7.320312 7.0625 -7.125 C 7.007812 -6.925781 6.929688 -6.734375 6.828125 -6.546875 C 6.585938 -6.148438 6.285156 -5.875 5.921875 -5.71875 C 6.535156 -5.550781 7.019531 -5.222656 7.375 -4.734375 C 7.726562 -4.234375 7.90625 -3.617188 7.90625 -2.890625 Z M 6.078125 -7.765625 C 6.078125 -8.816406 5.367188 -9.34375 3.953125 -9.34375 L 2.203125 -9.34375 L 2.203125 -6.109375 L 4.25 -6.109375 C 4.800781 -6.109375 5.242188 -6.242188 5.578125 -6.515625 C 5.910156 -6.796875 6.078125 -7.210938 6.078125 -7.765625 Z M 6.84375 -3.09375 C 6.84375 -3.394531 6.785156 -3.664062 6.671875 -3.90625 C 6.546875 -4.132812 6.394531 -4.335938 6.21875 -4.515625 C 5.8125 -4.867188 5.332031 -5.046875 4.78125 -5.046875 L 2.203125 -5.046875 L 2.203125 -1.015625 L 4.609375 -1.015625 C 5.265625 -1.015625 5.800781 -1.203125 6.21875 -1.578125 C 6.632812 -1.960938 6.84375 -2.46875 6.84375 -3.09375 Z M 6.84375 -3.09375 "/></g></g></g><g fill="#3d3d3d" fill-opacity="1"><g transform="translate(269.057315, 14.804931)"><g><path d="M 5.15625 -4.875 L 5.15625 0 L 4.078125 0 L 4.078125 -4.875 L 0.15625 -10.359375 L 1.53125 -10.359375 L 4.609375 -5.921875 L 7.703125 -10.359375 L 9.0625 -10.359375 Z M 5.15625 -4.875 "/></g></g></g><g fill="#000000" fill-opacity="1"><g transform="translate(279.117398, 14.804931)"><g/></g></g><g fill="#be1e2d" fill-opacity="1"><g transform="translate(284.07435, 14.804931)"><g><path d="M 2.8125 -3.8125 L 6.578125 -3.8125 L 4.703125 -8.578125 Z M 9.25 0 L 8.09375 0 L 6.984375 -2.8125 L 2.421875 -2.8125 L 1.3125 0 L 0.15625 0 L 4.703125 -11.078125 Z M 9.25 0 "/></g></g></g><g fill="#be1e2d" fill-opacity="1"><g transform="translate(294.307456, 14.804931)"><g><path d="M 2.203125 0 L 1.140625 0 L 1.140625 -10.359375 L 2.203125 -10.359375 Z M 2.203125 0 "/></g></g></g><g fill="#3d3d3d" fill-opacity="1"><g transform="translate(298.508996, 14.804931)"><g><path d="M 2.03125 0.15625 C 1.789062 0.15625 1.585938 0.0664062 1.421875 -0.109375 C 1.234375 -0.265625 1.140625 -0.460938 1.140625 -0.703125 C 1.140625 -0.929688 1.226562 -1.132812 1.40625 -1.3125 C 1.570312 -1.476562 1.78125 -1.5625 2.03125 -1.5625 C 2.269531 -1.5625 2.484375 -1.484375 2.671875 -1.328125 C 2.835938 -1.148438 2.921875 -0.945312 2.921875 -0.71875 C 2.921875 -0.46875 2.832031 -0.265625 2.65625 -0.109375 C 2.46875 0.0664062 2.257812 0.15625 2.03125 0.15625 Z M 2.03125 0.15625 "/></g></g></g></g></g></g><g transform="matrix(1, 0, 0, 1, 209, 75)"><g clip-path="url(#723952a433)"><g fill="#ffffff" fill-opacity="1"><g transform="translate(0.988628, 32.812504)"><g><path d="M 0.847656 -29.332031 C 0.847656 -28.953125 1.3125 -28.824219 1.949219 -28.695312 C 2.417969 -28.613281 2.925781 -28.527344 3.390625 -28.144531 C 3.984375 -27.679688 4.410156 -26.917969 4.410156 -24.839844 L 4.410156 -4.707031 C 4.410156 -2.710938 4.152344 -1.863281 3.304688 -1.398438 C 2.5 -0.933594 1.355469 -0.761719 1.355469 -0.253906 C 1.355469 0.167969 1.863281 0.167969 2.078125 0.167969 C 3.984375 0.167969 6.144531 0 8.5625 0 C 11.359375 0 14.074219 0.167969 17.335938 0.167969 C 19.414062 0.167969 19.921875 -0.210938 20.644531 -0.933594 C 22.253906 -2.457031 23.101562 -4.195312 23.101562 -5.339844 C 23.101562 -5.59375 23.015625 -5.890625 22.761719 -5.890625 C 22.210938 -5.890625 20.769531 -1.527344 11.019531 -1.527344 C 8.394531 -1.527344 7.757812 -1.992188 7.757812 -3.6875 L 7.757812 -13.226562 C 7.757812 -13.605469 7.757812 -14.199219 8.476562 -14.199219 L 14.835938 -14.199219 C 18.269531 -14.199219 16.957031 -10.46875 18.226562 -10.46875 C 18.695312 -10.46875 18.695312 -10.894531 18.695312 -11.105469 C 18.695312 -12.082031 18.609375 -13.308594 18.609375 -14.414062 L 18.695312 -18.523438 C 18.695312 -19.285156 18.398438 -19.457031 18.226562 -19.457031 C 17.210938 -19.457031 18.3125 -16.066406 13.988281 -16.066406 L 8.902344 -16.066406 C 7.925781 -16.066406 7.757812 -16.148438 7.757812 -16.914062 L 7.757812 -25.898438 C 7.757812 -27.847656 7.800781 -28.0625 10.511719 -28.0625 L 13.820312 -28.0625 C 16.191406 -28.0625 17.761719 -27.808594 18.652344 -27.171875 C 19.796875 -26.324219 18.863281 -23.863281 19.964844 -23.863281 C 20.09375 -23.863281 20.8125 -23.824219 20.8125 -28.78125 C 20.8125 -29.671875 20.6875 -29.839844 20.304688 -29.839844 C 19.117188 -29.839844 15.21875 -29.671875 14.285156 -29.671875 C 12.972656 -29.671875 9.664062 -29.839844 2.796875 -29.839844 C 1.441406 -29.839844 0.847656 -29.800781 0.847656 -29.332031 Z M 0.847656 -29.332031 "/></g></g></g><g fill="#ffffff" fill-opacity="1"><g transform="translate(27.776541, 32.812504)"><g><path d="M 4.152344 -29.671875 C 1.949219 -29.671875 2.160156 -29.839844 1.441406 -29.839844 C 0.890625 -29.839844 0.550781 -29.585938 0.550781 -29.332031 C 0.550781 -27.933594 4.195312 -29.546875 4.195312 -25.644531 L 4.195312 -3.898438 C 4.195312 -0.847656 1.101562 -1.3125 1.101562 -0.296875 C 1.101562 0 1.273438 0.167969 1.609375 0.167969 C 3.09375 0.167969 4.664062 0 6.484375 0 C 10.046875 0 10.554688 0.167969 11.53125 0.167969 C 11.785156 0.167969 11.953125 0.128906 11.953125 -0.167969 C 11.953125 -1.570312 7.546875 -0.382812 7.546875 -3.898438 L 7.546875 -13.308594 C 7.546875 -13.988281 8.097656 -14.074219 8.859375 -14.074219 L 10.300781 -14.074219 C 13.308594 -14.074219 13.011719 -13.820312 14.371094 -11.699219 L 18.777344 -4.746094 C 20.941406 -1.355469 22.636719 0.167969 25.390625 0.167969 C 26.152344 0.167969 28.105469 0.128906 28.105469 -0.339844 C 28.105469 -0.847656 27.679688 -0.679688 26.578125 -1.058594 C 24.925781 -1.652344 23.609375 -3.433594 22.636719 -4.960938 L 15.894531 -15.175781 C 18.777344 -16.320312 21.238281 -19.117188 21.238281 -22.507812 C 21.238281 -28.144531 16.742188 -29.882812 12.082031 -29.882812 C 10.554688 -29.882812 5.382812 -29.671875 4.152344 -29.671875 Z M 7.546875 -26.960938 C 7.546875 -28.441406 8.433594 -28.441406 9.75 -28.441406 C 15.894531 -28.441406 18.058594 -25.304688 18.058594 -21.535156 C 18.058594 -18.398438 16.574219 -16.742188 14.878906 -16.066406 C 13.734375 -15.597656 13.011719 -15.515625 11.488281 -15.515625 C 11.191406 -15.515625 10.640625 -15.472656 10.003906 -15.472656 C 8.859375 -15.472656 7.546875 -15.558594 7.546875 -16.109375 Z M 7.546875 -26.960938 "/></g></g></g><g fill="#ffffff" fill-opacity="1"><g transform="translate(59.26927, 32.812504)"><g><path d="M 1.609375 -29.207031 C 1.609375 -27.679688 5.085938 -30.222656 5.085938 -25.265625 L 5.085938 -4.789062 C 5.085938 -0.253906 1.78125 -1.441406 1.78125 -0.339844 C 1.78125 -0.0859375 1.992188 0.167969 2.542969 0.167969 C 3.6875 0.167969 5.085938 0 7.121094 0 C 9.539062 0 10.214844 0.167969 11.613281 0.167969 C 12.675781 0.167969 12.886719 0 12.886719 -0.339844 C 12.886719 -1.78125 8.433594 0.339844 8.433594 -5.554688 L 8.433594 -27.171875 C 8.433594 -28.273438 9.28125 -28.359375 10.597656 -28.359375 C 16.148438 -28.359375 19.542969 -25.179688 19.542969 -20.515625 C 19.542969 -16.703125 16.996094 -14.625 12.675781 -14.625 C 11.105469 -14.625 10.300781 -14.878906 9.917969 -14.878906 C 9.664062 -14.878906 9.496094 -14.75 9.496094 -14.496094 C 9.496094 -13.777344 11.785156 -13.523438 12.460938 -13.523438 C 20.726562 -13.523438 22.679688 -19.160156 22.679688 -21.703125 C 22.679688 -27.679688 17.210938 -29.839844 11.277344 -29.839844 C 9.28125 -29.839844 8.605469 -29.671875 6.441406 -29.671875 C 3.984375 -29.671875 2.628906 -29.839844 2.160156 -29.839844 C 1.78125 -29.839844 1.609375 -29.503906 1.609375 -29.207031 Z M 1.609375 -29.207031 "/></g></g></g></g></g></g></g></svg>