<?xml version="1.0" encoding="utf-8"?>
<!-- Generator: Adobe Illustrator 27.1.0, SVG Export Plug-In . SVG Version: 6.00 Build 0)  -->
<svg version="1.1" id="Layer_1" xmlns="http://www.w3.org/2000/svg" xmlns:xlink="http://www.w3.org/1999/xlink" x="0px" y="0px"
	 viewBox="0 0 152 152" style="enable-background:new 0 0 152 152;" xml:space="preserve">
<style type="text/css">
	.st0{fill:#FFFFFF;}
</style>
<g>
	<path class="st0" d="M100.7,38.9c2.6,6.2-3.1,10.1-8.8,9.2c-0.1,1,0.2,3.3-0.3,4.2c-0.3,0.9-3.7,0.9-3.8-0.3
		c-0.3-0.2-0.1-14-0.1-14.6c-0.1-1.4,0.3-2.1,2.1-2.1C93.5,35.4,98.8,34.7,100.7,38.9z M94.9,43.9c1.9,0.1,2.9-2.6,1.4-3.7
		c-0.9-0.9-3.4-0.4-4.5-0.5v4.3H94.9z"/>
	<path class="st0" d="M107.1,49.4c0.8,0.1,7.1-0.2,7.7,0.2c1.2,0.9,0.8,3.8-1.2,3.4c-15.1,0.1-9.9,1.8-10.8-15.5
		c-0.1-1.4,0.3-2.1,2.1-2.1c1.8,0,2.2,0.6,2.1,2.1C107.1,37.5,107.1,49.4,107.1,49.4z"/>
	<path class="st0" d="M127.2,36.6c0.2,0.6,7.2,14.4,6.9,14.6c0.1,1.1-2.5,2.5-3.4,1.8c-0.8-0.6-1.6-2.9-2.1-3.8h-6.7
		c-0.5,0.8-1.3,3.2-2.1,3.7c-1,0.8-3.5-0.7-3.4-1.7c-0.3-0.1,6.7-14.2,6.9-14.7C124,35,126.4,34.9,127.2,36.6z M125.2,42.4l-1.6,3.3
		h3.2L125.2,42.4z"/>
	<path class="st0" d="M145.8,35.7c1.3,1,1.5,1.6,0.6,2.9c0,0-5.2,7.8-5.2,7.8v4.6c0.1,1.4-0.6,2.2-2.1,2.1c-1.5,0.1-2.3-0.7-2.1-2.2
		c0,0,0-4.5,0-4.5c-0.4-0.8-5.8-8.3-5.7-9c0-1.1,2.4-2.7,3.3-2c0.7,0.4,4,6.2,4.6,7l3.7-6C143.6,34.9,144.4,34.8,145.8,35.7z"/>
	<path class="st0" d="M88.8,68.9c0.5,0.1,14.5-0.2,14.5,0.2c0.8,0.4,0.6,1.9,0.5,2.6c-0.5,1.4-5.1,0.5-6.2,0.7v12.1
		c0.2,1.4-0.6,2.2-2.1,2.1c-1.5,0.1-2.2-0.7-2.1-2.1c0,0,0-12.1,0-12.1c-0.8-0.1-5.1,0.2-5.8-0.2C86.5,71.3,86.9,68.5,88.8,68.9z"/>
	<path class="st0" d="M112.1,68.7c11.5-0.1,11.6,18.1,0.1,18.1C100.8,86.9,100.7,68.9,112.1,68.7z M107.7,77.8
		c-0.2,6.2,9.2,6.3,8.9,0C116.9,71.6,107.5,71.6,107.7,77.8z"/>
	<path class="st0" d="M99.3,101c2.3-0.5,2.7,2.9,1.4,4c-0.9,0.5-7.8,0.1-8.8,0.3v2.4h4.7c1.5-0.1,2.1,0.3,2.1,2.2
		c0,1.8-0.6,2.2-2.1,2.1c0,0-4.7,0-4.7,0c-0.1,1.1,0.3,5.1-0.3,6c-0.4,0.9-3.7,0.9-3.8-0.3c-0.3-0.2-0.1-14-0.1-14.6
		c0-1.7,0.5-2.1,2.2-2.1C89.8,101,99.3,101,99.3,101z"/>
	<path class="st0" d="M103,103.1c-0.6-2.9,4.9-2.9,4.3,0c0,0,0,13.4,0,13.4c0,1.4-0.3,2.1-2.1,2.1c-1.8,0-2.1-0.6-2.1-2.1
		C103,116.5,103,103.1,103,103.1z"/>
	<path class="st0" d="M110.3,101c0.5,0.1,14.5-0.2,14.5,0.2c0.8,0.4,0.6,1.9,0.5,2.6c-0.5,1.4-5.1,0.5-6.2,0.7v12.1
		c0.2,1.4-0.6,2.2-2.1,2.1c-1.5,0.1-2.2-0.7-2.1-2.1c0,0,0-12.1,0-12.1c-0.8-0.1-5.1,0.2-5.8-0.2C108,103.4,108.4,100.6,110.3,101z"
		/>
	<path class="st0" d="M5,93.2c11.2-2.7,22.2-5.5,33.5-8c0.4-0.1,0.9,0.2,1.3,0.3C29,89.5,16.5,90.8,5,93.2C5,93.3,5,93.3,5,93.2z"/>
	<path class="st0" d="M20.9,55.8c8.2-2.2,16.2-4.4,24.5-6.5c0.4-0.1,1.1,0.2,1.6,0.3c-0.4,0.4-0.8,0.9-1.2,1.1
		C37.4,52.4,29.2,54.2,21,56C21,55.9,20.9,55.8,20.9,55.8z"/>
	<path class="st0" d="M22.3,83c6.2-1.6,12.5-3.1,18.7-4.7c0.4-0.1,1,0.2,1.4,0.4c-0.4,0.4-0.8,0.9-1.2,1c-6.3,1.2-12.5,2.5-18.8,3.6
		C22.4,83.1,22.3,83,22.3,83z"/>
	<path class="st0" d="M22.8,95.9c5.3-1.3,10.6-2.7,15.9-4.1c0.4-0.1,0.8,0.3,1.1,0.4c-0.4,0.4-0.6,0.9-1.1,0.9c-5.2,1-10.7,2-16,3
		C22.8,96.1,22.8,96,22.8,95.9z"/>
	<path class="st0" d="M19.4,104.5c4.6-1.2,9.2-2.4,13.8-3.6c0.3-0.1,0.7,0.3,1.1,0.4c-1.4,1.7-3.9,1.1-5.8,1.7c-3,0.5-6,1.1-9,1.7
		C19.4,104.6,19.4,104.5,19.4,104.5z"/>
	<path class="st0" d="M33.8,47.1c3.3-0.5,8.4-3.4,11.4-2.7c-2.2,2-8.3,1.9-11.4,2.9C33.8,47.3,33.8,47.2,33.8,47.1z"/>
	<path class="st0" d="M70.4,83.9c-3.1-2.3-11.9-3.4-14.5-5.5c0-0.2,5.7,1.5,8,2.5c1.3-3.8,5.3-10.9,5.2-16.3
		c0.3-0.9-2.2-10.3-0.6-11.6c1.5-3.3,2.6-4.7,3.6-9.3c0.3-1.3,0.4-1.9,1.3-3.5c2.4-2.3,1.8-13.5,2.3-16.1c2.3-1.8,0.3-4.3-0.3-7
		c-0.1-0.5-0.3-0.9-0.8-1.1c0.1-1.3-1-3.9-2.3-3.2c-1.6,0.6-1.4,4.8-1.4,4.9c0.3,2.6,1.5,4.8,0.4,7.6c-1.5,5.5-5.3,8.9-4.8,14.9
		c-1.3,1.9-2.2,2.2-2.2,6.8c-1.1,0.6-3.9,2.7-3.2,5.2c-1.5-1.7-0.5-4.4,1.7-4.8c2.1-0.5,1.2-2.5,0.3-3.8c-0.5-0.6-0.5-1.6-0.3-2.1
		c0,0,0.3-0.4,0.2-0.5c-0.8-0.5-2.2-1-2.5-1.5c-5.2-10.6-20.7,4-9.6,9c1.1,0.4,1.6,0.6,1.7,2.2c0.2,0.7-0.9,0.3-1.6,0.4
		c-2.4-0.1-6.4-0.2-10.3,4.1c-1,0.2-4.4,0.9-7.2,3.3c-0.9,0.1-4,0.4-7.2,3.2C22.6,65.3,12.7,72,11.6,72.8c-2.8,1.5-3,4.7,1.2,3.7
		c7.1-3.2,2.7-1,6,0.4c0.9,0.1,1.6-1.4,1.8-2.8c0.3-6.3,10.8-4.1,14.6-10c0.8,0.2,6.2-0.7,10.3-2.7c1.5,2,8.8,10.3,4.1,13.4
		c-0.6,0.4-1.7,1.3-2.6,2.5C36.7,91.1,56.7,94.8,67.4,94c1.3-0.2,2.1-0.3,3.4-0.2c2,0.5,1,0.8-0.1,0.4c-4-0.5-8.7,2.1-11,5.6
		c-3.2,3-5.3,7.1-9.7,6.4c-3.5-1-3.7,1.7-3.8,4.3c-0.1,1.5,0,2.8-1.1,4.2c-1.7,2.6-1.4,6.6,0.3,6.8c1.6,0.3,2.5-2.4,3.3-3.3
		c1.4-1.9,4.2-4.2,6-6.1C63.8,102.5,98.1,99.1,70.4,83.9z M73,100c-2.7,1.5-9.9,4.6-12.9,6.3c-6.6,4.1-9.9,7.4-14,13.1
		c-1.1,2.4-0.6-2.8,0.2-4c2-2.6,0.4-5.7,1.9-8c0.4-0.4,1.3-0.1,1.7-0.1c6.2,1.5,9.7-6.3,14-9.8c3.3-2.5,5.4-1.8,8.2-2
		c2.3-0.4,1.8-2.5-0.5-3c-2.7-0.6-5,0.7-8,0.2c-5.8-1-15.3-1.7-17.1-7c-1.4-3.4,2.2-8.3,4.2-9.7c1.2-0.9,3.1-1.2,4.9-1.1
		c1.4-0.9-1.8-1.5-2.5-1.1c-0.4,0.1-0.9,0.3-0.8,0c2.2-3.8-3.5-10.6-5.3-13c1.3-0.6,2.1-1,2.1-1c0.4-0.2,0.2-0.4,0-0.7
		c-0.2-0.4-1.6-0.1-1.9,0.1c-1.9,1.3-10.7,4-11.3,3.5c0-0.3,0-0.6-0.2-0.9h-0.1c-2.6,4.2-7.6,5.6-12.1,6.9c-4,1.4-3.4,4-4.3,6.7
		c-0.8-4.5-5.5,0.3-8-0.2c2.7-2.6,11.6-7.9,16.7-12.4c2.2-1.9,4.9-2.8,6.8-2.8c2.7-2.6,7.3-3.3,7.2-3.3c0,0,0.3,0,0.3,0
		c5.2-6.7,12.3-1.8,12.6-5.7c-0.1-2.5-1.4-3-2.6-3.4c-9.2-4.9,4.9-15.6,8.1-6.8c0.2,0.2,0.8,0.6,1.8,1.1c-0.6,1.5,0.9,3.1,1.3,4.3
		c-4.2,0.5-4.9,6.6-1.3,8.2c1.5,0.5,1.5-1.1,1.1-2.1c-0.8-2.5,3-4.4,3.3-4.4c-0.6-2.7,0.8-5.4,0.8-5.3c1.1-1.4,2.3-2.5,3.4-3.6v-0.1
		c-0.6-0.2-1.3,0-1.8,0.4c-0.6-4.3,3.8-9.2,4.7-13.3c1.7-4.1-1.4-8-0.1-11.6c1.2,1.2-0.3,3.6,0.4,4.9c0.9,0.7,0.8-0.3,0.8-0.8
		c0,0,0.2-0.1,0.3,0c0.4,1.7,1.5,3.6,0.4,5c-0.5,0.7-0.7,3.6-0.9,6.7c-0.1,7.4-2.1,8.1-3.3,13.3c-0.6,3.1-2.4,6.5-3.4,9
		c-0.6,3.9-0.9-0.3-1.4-1.5c-1.1-0.9-0.5,3.1-0.4,3.6c0.3,1.1,1.2,3.7,1.3,4.2c2.6,8.9-1.8,13.8-3.8,20.5c-2.5-1.1-6.8-2.7-8-2.1
		c-1.8,1.2-0.7,2.7,3,3.8c8.1,2.3,12,3.6,19.9,9.9C83.7,94.8,76,98.5,73,100z"/>
	<path class="st0" d="M55,62c-1.6-1.6-6.6-2.3-7.4-4.4c2.2-0.4,6.4,2.3,7.6,4.2C55.5,62,55.1,62,55,62z"/>
	<path class="st0" d="M16.4,139.2c-2.1-0.4-2.1-4.1-1.6-5.5c0.6-1.1,0.9-2.2,0.9-3.4c0-5-2.1-8,4.5-7.3c3.4-2.3,5.4-9.6,8-13.1
		c2.8-3.6,6.3-3.9,8.4-6.5c2-3.6,5.3-9.9,7.5-13.3c0.2-0.8-0.4-2.5,0.4-2.7c2.9,2.4-1.3,6.6-2.8,9.8c-2.1,3.6-2.7,6.8-6,9
		c-8.6,3-8.6,13.6-14.7,18.1c0,0,0.3,0.2-3.4,0.2c-1.7,0,0.2,5.4-0.4,6.8c-0.1,0.9-0.4,0.6-0.7,1.4c-0.5,1.5-0.4,2.6-0.4,3.4
		c0.2,3.4,0.5-0.3,1.7-1.7c1.9-1.8,6.2-9,8.4-11.2c2.8-3.5,10-10.3,12.5-12.6c2.2-1.8,2.1-1.1,4.2-2.7c1.8-1.5,1.1-1.8,2.6-3.1
		c2.2-1.7,3.8-2.3,8.6-7.4c1.1-1.1,1.6-1.8,2.8-3.3c0.4-0.6,2-0.4,1.7,0.2c-4.2,5.9-10.1,10-12.9,12.8c-1.4,2.4-3.6,3-5.7,4.7
		c-2,1.8-8.8,8.3-11.3,11.2c-2.7,2.7-6.8,9.9-9.1,12.3C18.4,136.1,17.9,139.3,16.4,139.2z"/>
</g>
</svg>
